<?xml version="1.0" encoding="UTF-8"?>
<svg id="_レイヤー_2" data-name="レイヤー 2" xmlns="http://www.w3.org/2000/svg" viewBox="0 0 69.75 10.2">
  <defs>
    <style>
      .cls-1 {
        fill: #a21d3a;
      }
    </style>
  </defs>
  <g id="design">
    <g>
      <g>
        <path class="cls-1" d="M19.01,8.06v-.95h4.77v.95h-4.77Z"/>
        <path class="cls-1" d="M29.53,7.97l-.23-.07v.49h-1.46v.17h1.84v.73h-1.84c0,.79-.1.91-1.67.91l-.31-.78h.48c.55,0,.6-.01.6-.13h-2.13v-.73h2.14v-.17h-1.74v-.49l-.23.06-.26-.91c.63-.09,1.09-.3,1.09-.3h-.9v-.83h.4s-.16-.29-.27-.45l.86-.32c.21.3.43.76.43.76h.42s-.13-.36-.22-.54l.88-.21c.13.26.29.76.29.76h.43s.26-.41.39-.73l.87.3c-.06.15-.21.43-.21.43h.4v.84h-.87s.56.22,1.08.3l-.24.92ZM26.95,7.56h-.88l-.04-.09c-.17.13-.44.25-.44.25h1.36v-.16ZM27.65,6.75h-.8s-.07.07-.13.15c.07,0,.15,0,.22,0,.43,0,.83-.04.83-.04l-.11-.11ZM28.48,7.47c-.31.05-.64.06-.64.06v.2h1.08s-.27-.13-.44-.26Z"/>
        <path class="cls-1" d="M31.62,8.33c0,.56.02,1.13.05,1.74h-.95c-.03-.56-.05-1.14-.05-1.73,0-1.04.07-2.04.16-3.01h.97c-.1.99-.18,1.97-.18,3ZM33.89,9.96c-1.27,0-1.98-.38-1.98-1.3,0-.49.23-.94.44-1.24h1.05c-.3.35-.55.73-.55,1.09s.39.51,1.05.51c.49,0,1.01-.08,1.29-.15v.96c-.35.06-.88.13-1.3.13ZM32.14,6.61v-.93h2.93v.93h-2.93Z"/>
        <path class="cls-1" d="M36.5,10.07l-.53-.22c.13-.48.15-1.15.15-1.41v-.11l.5.02v.17c0,.32-.01,1.06-.12,1.56ZM39.75,7.77l-.29-.86h.19c.36,0,.38-.04.38-.6v-.15h-.4c-.09.62-.38,1.26-1.05,1.69l-.44-.68c.05.2.13.54.17.71h2.59v2.32h-.9v-.15h-.83v.15h-.9v-.5l-.52.09s0-.59-.12-1.3l.49-.11c.07.35.13.85.15,1.12v-1.26l-.54.15s-.01-.08-.03-.2c-.04,0-.09.01-.13.01v2.02h-.84v-1.98h-.69l-.06-.8h.39c.07-.08.13-.16.19-.24-.15-.19-.35-.44-.58-.71l.29-.89s.09.09.13.14c.07-.16.14-.35.2-.55l.79.23c-.17.41-.31.68-.48.9.03.04.1.11.13.15.26-.45.41-.8.41-.8l.67.38c-.06.12-.2.49-.54,1l.47-.18c.02.05.03.1.04.16.4-.21.54-.47.62-.85h-.58v-.84h2.82v.68c0,1.5-.02,1.77-1.21,1.77ZM37.51,7.14c-.06.08-.13.17-.21.26.07,0,.21-.01.27-.01-.01-.07-.04-.18-.06-.25ZM40.01,8.66h-.83v.6h.83v-.6Z"/>
        <path class="cls-1" d="M46.64,7.53c-.26-.12-.51-.26-.78-.43v3.1h-.92v-3.12h.87c-.52-.28-1.02-.68-1.41-1.08-.22.29-.79.78-1.33,1.07h.85v.21c0,1.3-.02,2.25-1.03,2.93l-.72-.72c.76-.58.83-1.03.83-2.19v-.19c-.24.14-.55.29-.88.42l-.39-.92c1.28-.42,1.98-1.13,2.17-1.44h.9c.23.32,1.06,1.04,2.21,1.45l-.38.92Z"/>
        <path class="cls-1" d="M48.84,10.04h-1.13l.36-.98h1.14l-.37.98ZM49.21,8.78h-.93l1.18-3.4h1.18l-1.43,3.4Z"/>
      </g>
      <g>
        <path class="cls-1" d="M2.74,3.71v-.09h-1.6v.09h-.64v-1.04l-.28.07-.22-.73c.59-.07.95-.18,1.16-.27-.17-.17-.32-.31-.41-.39-.2.11-.32.16-.32.16L.06.86S.68.69,1.19.12l.78.06-.08.14h1.32v.53c-.14.34-.48.81-.93,1.06h1.11v1.8h-.64ZM2.74,2.47h-1.6v.57h1.6v-.57ZM1.42.9l-.09.08c.13.1.36.3.54.47.22-.13.46-.36.56-.55h-1.01Z"/>
        <path class="cls-1" d="M7.19,3.71c-.14,0-.28-.12-.41-.42-.11.21-.38.42-.38.42l-.45-.47s.4-.23.65-.62c-.08-.43-.11-.94-.13-1.51h-.67v.29h.66v.44c0,.98,0,1.18-.55,1.18l-.14-.49c-.02.4-.1.82-.27,1.16l-.52-.53s.12-.2.14-.31c-.08.09-.4.26-.98.49l-.15-.68c.12-.04.31-.1.31-.1v-.93h-.23v-.6h.23V.23h.64v.83h.17v.6h-.17v.7c.08-.06.17-.12.17-.12l.02.59c.08-.33.1-.72.1-1,0-.16,0-.28,0-.35v-.93h1.24c0-.14,0-.28,0-.43h.54v.43h.12c-.01-.06-.03-.13-.05-.19l.34-.16c.1.33.19.84.19.84l-.36.23s-.01-.08-.02-.14h-.22c0,.3.02.56.03.78.06-.16.1-.38.14-.59l.42.37c-.08.43-.23.75-.42,1.07.03.11.06.16.08.16.04,0,.09-.12.17-.32l.17.66c-.1.28-.24.46-.41.46ZM5.99,2.04h-.18c0,.13-.01.2-.01.34h.11c.08,0,.09-.02.09-.14v-.19Z"/>
        <path class="cls-1" d="M11.21,3.71c-.71-.38-1.13-.88-1.39-1.32-.27.55-.74,1-1.4,1.31l-.42-.62c.9-.38,1.27-.98,1.4-1.51h-1.3v-.66h1.35V.12h.68v.8h1.37v.66h-1.34c.14.37.51,1.05,1.43,1.5l-.38.64Z"/>
        <path class="cls-1" d="M14.27,2.89v.03c0,.76-.1.8-1.33.8l-.24-.63h.74c.17,0,.17-.03.17-.15v-.04h-1.56v-.61h1.56v-.21h.27s.13-.04.22-.11h-1.6v-.28h-.4v-.98h.35s-.07-.15-.18-.32l.53-.26c.14.19.34.58.34.58h.3s-.09-.19-.21-.4l.56-.19c.16.23.32.58.32.58h.27s.19-.33.28-.59l.62.21c-.06.14-.18.38-.18.38h.4v.97h-.43v.27c-.14.12-.34.24-.53.33h.99v.61h-1.27ZM14.87,1.27h-2.13v.18h2.13v-.18Z"/>
        <path class="cls-1" d="M17.77,3.62v-.64c.54-.06,1.02-.36,1.02-1.12,0-.36-.18-.73-.64-.87-.12.85-.28,1.47-.54,1.97-.19.4-.44.52-.72.52-.46,0-.94-.49-.94-1.32,0-1.02.72-1.85,1.85-1.85,1.02,0,1.68.61,1.68,1.57,0,1.22-.84,1.72-1.73,1.73ZM16.61,2.16c0,.38.18.62.27.62.1,0,.18-.18.3-.49.12-.34.24-.85.31-1.33-.57.12-.88.66-.88,1.2Z"/>
        <path class="cls-1" d="M23.11,3.7c-.16-.14-.27-.26-.44-.53-.15.2-.4.42-.68.55l-.34-.62c.3-.12.58-.3.72-.45-.1-.18-.17-.42-.21-.6-.03.09-.08.19-.14.27l-.32-.66.06-.1h-.39s-.1.11-.17.15h.51v.43c-.07.07-.23.2-.34.28.21-.02.46-.07.46-.07l.02.5s-.3.06-.6.09v.17c0,.5-.05.58-.5.58h-.33l-.19-.58h.11c.25,0,.28,0,.28-.11-.2.02-.42.03-.66.04l-.08-.54c.27,0,.5-.02.74-.04v-.16h.21c.05-.02.12-.07.15-.1h-.45c-.16.08-.32.16-.52.22l-.18-.64c.27-.05.62-.15.77-.23h-.72v-.54h.45v-.15h-.35V.32h.35V.12h.62v.21h.38c.02-.09.03-.16.03-.16l.6.21c-.06.2-.17.48-.25.64h.18v.31c.27-.62.32-1.2.32-1.2l.65.08s-.03.2-.08.39h.71v.64h-.1c0,.4-.08.95-.36,1.47.11.13.29.29.46.41l-.37.59ZM20.95.86v.15h.14s.06-.11.07-.15h-.21ZM22.58,1.24s-.02.04-.02.06c0,.2.04.55.12.81.07-.26.1-.63.1-.88h-.2Z"/>
        <path class="cls-1" d="M27.09,1.66h.1v1.35c0,.58-.07.68-.84.68h-.23l-.2-.5h.38c.19,0,.24-.04.24-.11h-1.7v.63h-.64V1.66h2.79c-.05-.07-.12-.15-.17-.2-.33.04-1.05.1-2.45.1h-.28l-.06-.5c.17,0,.34.01.49.01.08-.06.16-.15.22-.23h-.8V.31h1.38V.12h.72v.2h1.39v.52h-.5c.1.08.4.32.54.46l-.36.36ZM26.55,2.13h-1.71v.1h1.71v-.1ZM26.55,2.61h-1.71v.1h1.71v-.1ZM25.49.83c-.04.06-.13.17-.19.23.48,0,.85-.02,1.09-.04-.07-.06-.1-.07-.1-.07l.22-.11h-1.03Z"/>
        <path class="cls-1" d="M28.68,2.41c-.26,0-.47-.21-.47-.47s.21-.47.47-.47.47.21.47.47-.21.47-.47.47Z"/>
        <path class="cls-1" d="M31.78,2.58c-.58.6-1.32.94-2,1.06v-.67c.88-.23,1.8-.92,2.07-1.96h-1.87V.35h2.73c-.02.63-.2,1.16-.46,1.61.19.49.59.81.92.98v.74c-.62-.18-1.1-.6-1.39-1.1Z"/>
        <path class="cls-1" d="M33.54,3.57v-.74c.28-.25.42-.7.43-1.31h.65c-.02.99-.3,1.74-1.08,2.04ZM35.58,1.28v2.43h-.69V1.28h-1.31v-.63h1.31V.18h.69v.48h.7c-.08-.07-.13-.17-.13-.28,0-.2.16-.37.37-.37s.37.16.37.37c0,.11-.05.22-.14.28h.15v.63h-1.32ZM35.85,1.52h.67c.02.61.16,1.06.45,1.31v.74c-.81-.31-1.1-1.06-1.12-2.05ZM36.51.23c-.08,0-.15.06-.15.14s.07.14.15.14.15-.06.15-.14-.07-.14-.15-.14Z"/>
        <path class="cls-1" d="M37.17,2.11v-.67h3.33v.67h-3.33Z"/>
        <path class="cls-1" d="M41.11,2.01c-.07-.41-.26-1.2-.4-1.64h.69c.15.46.34,1.17.42,1.64h-.72ZM41.48,3.66v-.67c1.47-.3,1.9-.99,1.9-2.56v-.05h.76v.06c0,2.18-1.03,2.99-2.66,3.22ZM42.25,1.97c-.07-.42-.26-1.18-.39-1.63h.69c.15.45.33,1.16.41,1.63h-.71Z"/>
        <path class="cls-1" d="M45.32,2.41c-.26,0-.47-.21-.47-.47s.21-.47.47-.47.47.21.47.47-.21.47-.47.47Z"/>
        <path class="cls-1" d="M49.85,2.18v1.54h-.64v-1.53h-.22c-.04.51-.18,1.13-.6,1.52l-.36-.36v.22h-.68v.15h-.55v-1.1c-.06.1-.15.22-.15.22l-.15-.92c.11-.12.36-.62.45-1.07h-.36V.24h1.43v.6h-.42c-.04.22-.11.42-.18.62h.59v1.58c.21-.25.28-.54.32-.85h-.24v-.64h.25v-.67h-.24V.23h1.94v.64h-.22v.67h.26v.64h-.26ZM47.52,2.01h-.16v1h.16v-1ZM49.22.87h-.2v.67h.2v-.67Z"/>
        <path class="cls-1" d="M53.47,3.67h-.4c-.32,0-.38-.08-.38-.34v-.8h-.37c-.16.56-.56.97-1.49,1.18l-.3-.63c.6-.1.91-.29,1.07-.54h-.84v-.64h.24l-.34-.52c.22-.04.38-.09.51-.15h-.56V.31h1.35V.12h.72v.2h1.34v.77h-.38l.27.09c0,.3-.09.58-.6.58h-.58c-.16,0-.25,0-.31-.08v.23h.9v1.06c0,.06.01.07.06.07h.08s.05-.02.05-.28v-.43l.6.27c0,1.08-.09,1.08-.65,1.08ZM51.25.9v.3c.18-.11.27-.22.3-.3h-.3ZM51.79,1.56c-.13.13-.3.25-.52.34h.52v-.34ZM52.36,1.41v-.51h-.56l.36.12s-.08.22-.27.44h.48v-.06ZM53.38.9h-.42v.18c0,.06.02.06.06.06h.18c.11,0,.12-.02.12-.12v-.06l.07.02v-.09Z"/>
        <path class="cls-1" d="M56.29,3.62v-.64c.54-.06,1.02-.36,1.02-1.12,0-.36-.18-.73-.64-.87-.12.85-.28,1.47-.54,1.97-.19.4-.44.52-.72.52-.46,0-.94-.49-.94-1.32,0-1.02.72-1.85,1.85-1.85,1.02,0,1.68.61,1.68,1.57,0,1.22-.84,1.72-1.73,1.73ZM55.13,2.16c0,.38.18.62.27.62.1,0,.18-.18.3-.49.12-.34.24-.85.31-1.33-.57.12-.88.66-.88,1.2Z"/>
        <path class="cls-1" d="M61.31,3.65h-1.6c-.4,0-.46-.1-.46-.42v-.74c-.05.52-.18.96-.35,1.22l-.51-.38c.23-.33.34-.84.36-1.18h-.26V.36h.55l.09-.24.68.05-.08.2h.59v1.79h-.35l.27.08s-.02.18-.05.4c.03,0,.06,0,.08,0-.02-.17-.04-.28-.04-.28l.25-.12s.08.35.13.7l-.25.13h.84c.14,0,.14-.05.15-.13h-.45v-.82c-.1.39-.25.6-.25.6l-.23-.66s.23-.19.38-.44h-.37v-.56h.47v-.15h-.39V.32h.39V.12h.55v.2h.39v.56h-.39v.15h.46v.56h-.37c.21.24.45.4.45.4l-.18.63c-.12-.12-.26-.3-.36-.54v.53l.54.2c-.03.74-.27.84-.69.84ZM59.26,2.15h-.38l.38.16v-.16ZM59.18.86h-.18v.17h.18v-.17ZM59.18,1.47h-.18v.18h.18v-.18ZM59.84.86h-.18v.17h.18v-.17ZM59.84,1.47h-.18v.18h.18v-.18ZM59.86,2.15v.51h.02c.05-.23.08-.46.08-.51h-.1ZM60.32,2.91c-.11.02-.46.07-.46.07,0,.03,0,.06.06.06h.41c0-.05,0-.09-.01-.13Z"/>
        <path class="cls-1" d="M64.55,3.71l-.32-.7c.74,0,.9-.02.9-.42v-1.18h-.78c-.12.96-.48,1.77-1.45,2.31l-.49-.63c.78-.38,1.1-.92,1.24-1.68h-1.16v-.64h1.24V.12h.67s0,.44,0,.65h1.4s0,.14,0,.14v.43c0,2.18-.04,2.38-1.25,2.38Z"/>
        <path class="cls-1" d="M68.96,2.2c.02.2.03.42.03.68h-.63c0-.19,0-.37-.02-.52-.34.12-.56.27-.56.42,0,.22.36.28.83.28.33,0,.65-.03,1.02-.09v.64c-.25.03-.59.07-1.03.07-.81,0-1.52-.16-1.52-.86,0-.42.46-.78,1.06-1.02-.04-.02-.08-.04-.13-.04-.23,0-.45.1-.68.31-.28.25-.56.56-.94.87v-.82c.33-.28.62-.61.86-.99h-.75v-.6h1.06c.04-.1.08-.22.12-.32h.72c-.04.11-.08.22-.12.32h1.32v.6h-1.61c-.04.08-.1.16-.14.22.07-.03.21-.07.34-.07.3,0,.49.1.6.3.33-.08.66-.13.95-.14v.64c-.27.02-.54.05-.79.1Z"/>
      </g>
    </g>
  </g>
</svg>