<?xml version="1.0" encoding="UTF-8"?>
<svg id="_レイヤー_2" data-name="レイヤー 2" xmlns="http://www.w3.org/2000/svg" viewBox="0 0 11.1 20.66">
  <defs>
    <style>
      .cls-1 {
        opacity: .2;
      }

      .cls-2 {
        fill: #333;
      }
    </style>
  </defs>
  <g id="design">
    <g class="cls-1">
      <path class="cls-2" d="M7.59,8.59c.59-.55,1.25-1.17,1.71-2.03.41-.77.71-1.48.88-2.41.16-.88.2-1.95.2-3.37h0s.33,0,.33,0c.21,0,.39-.17.39-.39s-.17-.39-.39-.39H.39c-.21,0-.39.17-.39.39s.17.39.39.39h.33c0,1.42.05,2.49.2,3.37.17.93.47,1.64.88,2.41.45.86,1.12,1.49,1.71,2.03.67.63,1.2,1.12,1.2,1.74s-.56,1.14-1.21,1.74c-.59.55-1.26,1.17-1.71,2.03-.42.81-.71,1.5-.88,2.43-.16.89-.2,1.95-.2,3.36h-.34c-.21,0-.39.17-.39.39s.17.39.39.39h10.32c.21,0,.39-.17.39-.39s-.17-.39-.39-.39h-.33c0-1.41-.04-2.48-.2-3.36-.17-.93-.46-1.62-.88-2.43-.44-.86-1.11-1.48-1.71-2.03-.65-.6-1.21-1.12-1.21-1.74s.53-1.12,1.2-1.74ZM5.67,10.33c0,.93,0,3.56,0,4.45,0,2.27,3.99,3.05,3.99,4.76H1.45c0-1.71,3.99-2.5,3.99-4.77,0-.83,0-3.51,0-4.44s-.7-1.58-1.43-2.27c-.55-.51-1.17-1.09-1.56-1.84-.46-.87-.68-1.46-.81-2.2-.04-.23-.07-.48-.1-.75,1.31-.24,2.64-.17,4.02.45,1.23.47,2.54.53,3.91.33-.13.73-.35,1.32-.8,2.18-.4.76-1.02,1.33-1.56,1.84-.74.69-1.43,1.34-1.43,2.27Z"/>
    </g>
  </g>
</svg>