<?xml version="1.0" encoding="UTF-8"?>
<svg id="_レイヤー_2" data-name="レイヤー 2" xmlns="http://www.w3.org/2000/svg" xmlns:xlink="http://www.w3.org/1999/xlink" viewBox="0 0 17.31 25.29">
  <defs>
    <style>
      .cls-1 {
        fill: #b2ada9;
      }

      .cls-2, .cls-3 {
        stroke-width: .33px;
      }

      .cls-2, .cls-3, .cls-4, .cls-5 {
        fill: none;
        stroke-miterlimit: 10;
      }

      .cls-2, .cls-3, .cls-5 {
        stroke-linecap: round;
      }

      .cls-2, .cls-4 {
        stroke: #d34518;
      }

      .cls-6 {
        fill: #bbe1e8;
      }

      .cls-3 {
        stroke: #636360;
      }

      .cls-7 {
        fill: #f3b1b9;
      }

      .cls-8 {
        fill: #231815;
      }

      .cls-4 {
        stroke-width: .25px;
      }

      .cls-9 {
        fill: #f4da83;
      }

      .cls-5 {
        stroke: #fff;
        stroke-width: .2px;
      }

      .cls-10 {
        clip-path: url(#clippath);
      }

      .cls-11 {
        fill: #fdf9fa;
      }

      .cls-12 {
        fill: #e67600;
      }
    </style>
    <clipPath id="clippath">
      <path class="cls-9" d="M9.18,17.99c-.41-.45-1.13-.51-1.59-.14-.2.16-.36.44-.67.69-1.29,1.04-1.54,1.34-1.42,1.76.44,1.55,1.67.44,3.65-.57.94-.48.52-1.21.03-1.74Z"/>
    </clipPath>
  </defs>
  <g id="design">
    <g>
      <g>
        <path class="cls-9" d="M9.18,17.99c-.41-.45-1.13-.51-1.59-.14-.2.16-.36.44-.67.69-1.29,1.04-1.54,1.34-1.42,1.76.44,1.55,1.67.44,3.65-.57.94-.48.52-1.21.03-1.74Z"/>
        <g class="cls-10">
          <path class="cls-1" d="M6.19,18.7s1.15,2.41.64,2.49c-.51.08-1.5-.27-1.5-.27,0,0-1.51-2.14.86-2.22Z"/>
          <path class="cls-1" d="M9.38,18.23c-.97,1.03-2.24-.52-2.3-.52h.06c1.6-2.05,3.2-.51,2.24.52Z"/>
        </g>
      </g>
      <path class="cls-7" d="M2.71,4.32c-.03-.08-.22-.73-.4-.95-.18-.22-.42-.42-.3.13.12.54-.22-.09-.22-.09,0,0-.4-.77-.58-.74s0,.45.1.64c.1.19.21.51.21.51,0,0-.95-.82-1.16-.78s.73,1.1.73,1.1C1.08,4.13.03,3.8,0,3.97c-.03.17,1.06.65,1.06.65,0,0-.82.08-.7.22s1.03.6,1.74.42.7-.68.61-.94Z"/>
      <path class="cls-7" d="M13.52,2.49c-.03-.08-.29-.7-.28-.99,0-.28.07-.59.31-.09.24.5.12-.21.12-.21,0,0-.17-.85-.01-.94s.28.35.33.56c.04.2.16.52.16.52,0,0,.22-1.24.41-1.34.19-.1.13,1.31.13,1.31,0,0,.6-.92.73-.81.13.11-.41,1.17-.41,1.17,0,0,.69-.45.68-.26,0,.18-.42,1.11-1.09,1.42s-.97-.09-1.07-.35Z"/>
      <path class="cls-12" d="M14.12,18.21s2.13,6.45-.6,6.98c-3.71.72-4.41-2.61-4.63-3.57-.1-.43-.32-2.63.04-3.87.44-1.53.53-2.09,1-2.54.85-.81,4.05-1.3,4.19,3Z"/>
      <path class="cls-12" d="M16.57,16.36s2,6.89-.58,8.05c-2.42,1.09-4.42-.67-4.42-.67l.23-7.75,4.76.38Z"/>
      <path class="cls-6" d="M12.94,1.8c-.08.34-1.59,6.89-1.62,9.71l3.69.55s.64-8.94.36-9.85c0,0-1.78-.33-2.42-.42Z"/>
      <g>
        <g>
          <path class="cls-7" d="M11.56,6.89l.42.96c0-.32.52-.23.25.12l-.11.14c.06,1.19-.45,1.49-.99,1.73-.1.04-.66-.02-.75-.04,0,0,.95.38.94.38l-.94-.38c-.67-.11-1.77-1.15-1.35-2.06l-.04.15,2.57-1.01Z"/>
          <path class="cls-7" d="M8.03,5.2s3.23-3.56,4.27-1.01c.31.76,1.39,3.21.12,3.88-1.74.93-2.95.33-3.57-.17-.62-.5-.98-1.8-.82-2.7Z"/>
          <path class="cls-8" d="M12.31,6.32c.19-.05.3-.23.25-.41-.05-.17-.24-.27-.42-.22-.19.05-.3.23-.25.41.05.17.24.27.42.22Z"/>
          <path class="cls-8" d="M10.56,7.04c.19-.05.3-.23.25-.41-.05-.17-.24-.27-.42-.22-.19.05-.3.23-.25.41.05.17.24.27.42.22Z"/>
          <path class="cls-2" d="M11.77,8.42c-.45.27-1.37.27-1.37.27"/>
          <path class="cls-8" d="M7.36,3.48s-1.9,1.38-1.3,3.36c.24.78.77,1.56,1.56,1.76.19.05.13.05.34.08.57.09,1.6-.4.83-.85-.49-.28.44-1.39.44-1.94-.01-1.07-1.87-2.41-1.87-2.41Z"/>
          <path class="cls-8" d="M8.77,6.92s1.63-2.08,3.87-2.13c0,0,.33-2.96-2.77-2.62-3.1.34-4.66,2.5-1.09,4.75Z"/>
        </g>
        <g>
          <path class="cls-7" d="M9.34,8.02c.35-.22.41-.73.15-1.14-.26-.41-.75-.57-1.1-.35-.35.22-.41.73-.15,1.14.26.41.75.57,1.1.35Z"/>
          <path class="cls-4" d="M8.68,7.32s.19.35.29.21c.1-.14-.1-.28-.12-.19"/>
        </g>
        <path class="cls-3" d="M10.88,2.75s.94-.02,1.42,1.44"/>
        <path class="cls-3" d="M11.03,3.48c.19.17.45.17.57.81"/>
        <path class="cls-3" d="M6.76,6.94c0,.11.31,1.28,1.27,1.35"/>
      </g>
      <path class="cls-6" d="M2.66,3.66s5.69,4.35,7.28,5.76c1.59,1.41-1.43,4.91-1.43,4.91,0,0-5.23-5.06-7.71-8.87l1.85-1.79Z"/>
      <path class="cls-6" d="M9.3,8.88c.43.24,2.47,1.22,2.79-.14,0,0,1.61-1.37,3.1.5,0,0,1.31,3.25,1.35,7.38,0,.95-7.13,1.84-7.61.82-.21-.44-1.38-3.74-1.34-5.04.04-1.3,1.71-3.52,1.71-3.52Z"/>
      <path class="cls-12" d="M7.02,20.59s1.64-1.75,2.84-1.11c1.2.64,2.28,5.71,2.28,5.71,0,0-3.4-.28-5.11-4.6Z"/>
      <path class="cls-5" d="M14.24,19.3s1.07,4.52-.04,5.61"/>
      <path class="cls-5" d="M9.18,20.13s.14,1.55.67,2.65"/>
      <path class="cls-11" d="M10.72,13.38c.43-.03.84-.23,1.13-.56s.51-.84.35-1.27c-.08-.21-.27-.39-.51-.41-.21-.01-.4.12-.5.3-.21.39-.06.87.26,1.15s.78.39,1.19.22.7-.52.82-.93c.1-.36,0-.9-.46-.94-.48-.04-.71.54-.63.93.09.45.53.84,1,.81.5-.03.92-.45.95-.95.01-.21-.31-.2-.32,0-.02.29-.24.53-.52.61s-.56-.07-.71-.31c-.13-.22-.17-.6.1-.74s.32.31.28.48c-.13.55-.74,1.01-1.3.73-.25-.13-.46-.38-.45-.67,0-.12.06-.27.17-.33.13-.07.27.05.31.17.12.32-.08.73-.29.97-.23.25-.54.42-.88.44-.2.01-.21.33,0,.32h0Z"/>
    </g>
  </g>
</svg>