<?xml version="1.0" encoding="UTF-8"?>
<svg id="_レイヤー_2" data-name="レイヤー 2" xmlns="http://www.w3.org/2000/svg" viewBox="0 0 31.46 28.02">
  <defs>
    <style>
      .cls-1 {
        fill: #8f5c4c;
      }

      .cls-2 {
        fill: none;
        stroke: #d34518;
        stroke-linecap: round;
        stroke-miterlimit: 10;
        stroke-width: .24px;
      }

      .cls-3 {
        fill: #e6d9d2;
      }

      .cls-4 {
        fill: #d25272;
      }

      .cls-5 {
        fill: #f3b1b9;
      }

      .cls-6 {
        fill: #231815;
      }

      .cls-7 {
        fill: #fff;
      }

      .cls-8 {
        fill: #812a4a;
      }

      .cls-9 {
        fill: #260c29;
      }

      .cls-10 {
        fill: #c02a2f;
      }

      .cls-11 {
        fill: #cc4416;
      }

      .cls-12 {
        fill: #310f0d;
      }
    </style>
  </defs>
  <g id="design">
    <g>
      <g>
        <g>
          <path class="cls-9" d="M18.47,14.42c-.02,1.17-1.15,1.84-2.23,1.82-.98-.02-1.83-5.75-1.83-5.75l3.83,2.82.22,1.11Z"/>
          <g>
            <path class="cls-10" d="M7.77,15.9c-1.03,1.7,1.96,4.44,3.59,3.19,1.63-1.25-.01-4.74,0-4.67s-2.28,1-2.28,1l-1.31.48Z"/>
            <g>
              <path class="cls-5" d="M7.09,20.34c.27.31.65.49,1.01.66.13.06.25-.14.12-.2-.03-.02-.07-.03-.11-.05.32-.27.64-.55.95-.83.06-.05.12-.11.18-.16.68-.61,1.34-1.24,1.98-1.89-.46-.97-1.39-1.72-2.42-2.07-.54.72-1.1,1.44-1.59,2.19-.1.16-.2.33-.27.5,0,0,0,0,0,0-.05.12-.1.24-.13.36-.03.11-.05.23-.06.34-.04.41.06.82.34,1.14Z"/>
              <path class="cls-5" d="M6.45,20.06c0,.55.23,1.06.53,1.5.11.16.22.31.34.47.24.31.49.61.74.91.13.15.25.3.38.45.35.12.74.08,1.06-.13.33-.21.55-.6.63-1.01-.1-.22-.18-.44-.25-.67-.12-.37-.28-.74-.47-1.08-.1-.19-.22-.38-.34-.57-.18-.26-.37-.52-.58-.75,0-.03,0-.06-.03-.08-.08-.07-.17-.14-.26-.21-.14-.12-.29-.22-.45-.33-.12-.08-.24-.16-.37-.24-.03-.01-.05-.03-.08-.05-.03-.08-.15-.11-.2-.02-.04.08-.09.16-.13.24,0,0,0,0,0,0-.07.13-.14.26-.2.39-.17.37-.3.76-.31,1.18Z"/>
              <path class="cls-7" d="M8.44,23.38c.64.76,1.31,1.49,1.99,2.21.07-.04.13-.08.2-.13.3-.2.57-.44.75-.73.05-.07.09-.15.12-.22-.14-.21-.29-.42-.43-.63-.05-.08-.1-.15-.15-.23-.06-.08-.11-.17-.17-.25-.24-.37-.45-.75-.62-1.15-.08.41-.31.79-.63,1.01-.32.21-.71.25-1.06.13Z"/>
              <path class="cls-9" d="M6.39,20.05v.02c0,.48.18.97.54,1.51.1.14.2.29.33.45.02.03.05.04.09.04.01,0,.02,0,.03,0,.46,0,.9-.14,1.26-.4.39-.28.68-.69.82-1.15,0-.03,0-.06,0-.09-.09-.17-.2-.35-.31-.51.04-.03.07-.06.11-.09.04-.04.05-.1.02-.14-.25-.4-.63-.71-1.06-.87-.02-.01-.05-.02-.08-.03-.44-.14-.93-.13-1.38.02h-.02s-.05.06-.05.06c-.2.44-.3.82-.31,1.18Z"/>
            </g>
            <path class="cls-10" d="M7.77,15.9c.05-.02.11-.03.16-.04.37-.06.77.07,1.1.24.74.38,1.31,1.02,1.73,1.72.22.37.4.76.56,1.16.02.04.03.08.05.12.46-.44.88-.92,1.25-1.44.68-.93,1.22-1.95,1.61-3.04.24-.67.42-1.37.53-2.08-.04,0-.08,0-.12-.01-.22-.02-.45-.01-.67,0-.38.03-.76.07-1.13.13-.63.1-1.25.22-1.87.37-.06.01-.12.03-.18.04-.06.07-.13.15-.19.23-.4.49-.81.99-1.2,1.49-.15.04-.29.09-.43.15-.41.17-.81.41-1.07.78-.04.06-.07.11-.1.17Z"/>
            <g>
              <g>
                <path class="cls-9" d="M10.14,27.09c.15-.23.32-.44.48-.66.17-.23.33-.46.48-.7.13-.2.26-.45.44-.61.01-.01.02-.02.03-.03.14-.05.2-.15.34-.19.02,0,.03-.01.03-.01,0,0,0,0,0,0,0,0,.01,0,.03-.01.02,0,.09-.03.16-.05,0-.1-.05-.21-.11-.29-.04-.05-.05-.11,0-.16.04-.04.11-.04.16,0,.31.29.13.88-.13,1.22-.07.09-.15.18-.23.25-.09.07-.14.18-.15.3-.02.6-.37,1.17-.9,1.41-.19.09-.38.13-.56.13-.1,0-.2-.05-.27-.11-.03-.03-.06-.07-.08-.11.09-.12.21-.25.29-.37Z"/>
                <path class="cls-3" d="M9.85,26.57c.04-.2.08-.41.13-.61.71-.26,1.27-1.03,1.45-1.81-.03-.02-.07-.04-.1-.05-.12-.07-.01-.26.11-.19l.37.2c.1.06.22.11.3.2.32.34.11.91-.13,1.23-.07.09-.15.18-.23.25-.09.07-.14.18-.15.3-.02.75-.67,1.55-1.43,1.51-.2-.01-.36-.11-.39-.33-.03-.23.04-.49.08-.72Z"/>
                <path class="cls-4" d="M9.59,24.83c.02.12.04.24.06.35,0,.06.02.11.03.17,0,.04.01.07.02.11,0,.07.02.14.02.21,0,.04,0,.07,0,.11h0s0,.06,0,.09c0,.05,0,.1,0,.15h0s0,.04,0,.05h0c.02.35.04.7.02,1.05,0,.11,0,.24.1.31.43.31,1.02-.22,1.25-.61.11-.19.15-.4.17-.61.04-.36.15-.71.33-1.03.12-.22.21-.45.21-.7,0,0,0-.02,0-.02,0,0,0,0,0-.01h0s0-.03,0-.04c-.03-.17-.16-.29-.29-.4-.13-.1-.26-.2-.39-.3-.04-.03-.08-.05-.11-.08-.04-.03-.1-.01-.12.02,0,0,.04.06.05.11,0,0,.07.23.04.42-.01.08-.04.18-.11.22-.06.03-.13.03-.2.02-.08,0-.15-.01-.23,0-.05-.07-.12-.14-.19-.19-.17-.11-.52-.23-.63.02-.04.08-.03.16-.02.23,0,.02-.02.03-.02.05-.03.1,0,.22.02.32Z"/>
                <path class="cls-8" d="M9.65,24.55c.02.13.05.28.07.45,0,.04.01.09.02.13,0,.05.01.1.02.16,0,.05,0,.09.02.14,0,.05.01.11.02.17,0,.05,0,.1.01.14,0,.07,0,.13.01.2,0,.05,0,.1,0,.15,0,.17.01.34.02.5,0,.03.03.06.06.06h0s.05-.03.05-.06c0-.2,0-.4-.02-.61,0-.05,0-.09,0-.14,0-.07,0-.13-.02-.2,0-.04,0-.09-.01-.13,0-.06-.01-.12-.02-.18,0-.04,0-.09-.02-.13,0-.06-.01-.11-.02-.16,0-.05-.01-.09-.02-.13-.02-.14-.04-.27-.07-.38,0-.03-.03-.05-.06-.04-.03,0-.05.03-.04.07Z"/>
                <path class="cls-9" d="M9.92,27.53s0,.03.01.04c.07.07.17.11.27.11.18,0,.38-.04.56-.13-.04-.05-.08-.11-.14-.15-.06-.05-.13-.04-.19-.04-.14.01-.28.02-.42.03-.06,0-.12.06-.1.13Z"/>
              </g>
              <path class="cls-8" d="M10.1,26.74c.15,0,.31-.08.4-.19.08-.1.12-.22.16-.34.02-.07.04-.13.07-.19.05-.11.14-.19.24-.21.08-.02.16,0,.23.04.03.02.06.01.08-.02.02-.03.01-.06-.02-.08-.1-.07-.21-.08-.32-.05-.13.04-.25.14-.31.28-.03.06-.05.14-.08.21-.04.11-.08.23-.14.31-.11.13-.33.21-.48.1-.03-.02-.06-.01-.08.01-.02.03-.01.06.01.08.07.05.15.07.23.07Z"/>
              <path class="cls-8" d="M11.39,25.41s.05-.02.06-.05c.02-.4-.09-.8-.31-1.12-.02-.03-.05-.03-.08-.02-.03.02-.03.05-.02.08.21.31.31.68.29,1.06,0,.03.02.06.05.06,0,0,0,0,0,0Z"/>
              <path class="cls-8" d="M10.26,24.5c0,.1.02.2.03.29,0,.04,0,.08,0,.11,0,.06,0,.13.01.19,0,.04,0,.08,0,.12,0,.07,0,.13,0,.2,0,.04,0,.08,0,.12,0,.07,0,.14,0,.21,0,.04,0,.08,0,.12,0,.24,0,.47,0,.7,0,.03.02.06.06.06s.06-.02.06-.05c0-.22,0-.44,0-.66,0-.04,0-.08,0-.12,0-.07,0-.14,0-.21h0s0-.08,0-.12c0-.07,0-.13,0-.2,0-.04,0-.08,0-.12,0-.06,0-.13-.01-.19,0-.04,0-.08,0-.12,0-.11-.02-.22-.03-.33,0-.03-.03-.05-.06-.05-.03,0-.05.03-.05.06Z"/>
            </g>
            <g>
              <path class="cls-9" d="M10.5,25.88s0-.02.01-.03c.01-.02.04-.04.07-.04.07,0,.11.1.07.15-.02.02-.05.03-.08.03-.03,0-.05-.03-.06-.06,0-.02,0-.03,0-.05Z"/>
              <path class="cls-9" d="M10.5,25.56s.02-.06.06-.07c.11-.03.17.19.02.18-.06,0-.08-.06-.08-.11Z"/>
              <path class="cls-9" d="M10.48,25.24s.03-.06.06-.06c.1-.02.15.18.02.17-.05,0-.09-.06-.08-.11Z"/>
              <path class="cls-9" d="M10.48,24.93s.04-.07.08-.07c.1,0,.11.19,0,.18-.05,0-.09-.06-.08-.11Z"/>
              <path class="cls-9" d="M10.46,24.59s.03-.06.06-.07c.11-.02.15.19.02.18-.06,0-.08-.06-.08-.11Z"/>
              <path class="cls-9" d="M9.74,26.03s0-.02,0-.03c0-.02.02-.04.04-.04.04,0,.08.09.06.15,0,.03-.03.04-.05.03-.02,0-.04-.03-.05-.05,0-.02,0-.03,0-.05Z"/>
              <path class="cls-9" d="M9.72,25.67s0,.07,0,.11h0s.03.04.05.04c.09,0,.04-.21-.03-.17-.01,0-.02.02-.02.03Z"/>
              <path class="cls-9" d="M9.68,25.35s.01.07.02.11c0,.02.02.03.04.03.09,0,.04-.2-.03-.17-.01,0-.02.02-.03.04Z"/>
              <path class="cls-9" d="M9.64,25.08s.02-.07.05-.07c.07,0,.09.18.01.18-.03,0-.06-.06-.06-.11Z"/>
              <path class="cls-9" d="M9.6,24.75s.01-.06.03-.07c.07-.03.12.18.03.18-.04,0-.06-.06-.06-.11Z"/>
              <path class="cls-9" d="M9.77,26c.1-.09.23-.13.36-.15.15-.03.29-.04.44,0,.07.02.04.12-.03.11-.13-.03-.26-.02-.38,0-.11.02-.23.05-.31.13-.05.05-.13-.03-.08-.08Z"/>
              <path class="cls-9" d="M9.67,25.05c.21-.03.43-.01.63.05,0,.04,0,.08,0,.12-.2-.06-.41-.08-.62-.06,0-.04-.01-.07-.02-.11Z"/>
              <path class="cls-9" d="M9.74,25.66c.2,0,.4.03.59.09,0,.04,0,.08,0,.12-.19-.06-.39-.09-.59-.09,0-.04,0-.07-.01-.11Z"/>
              <path class="cls-9" d="M9.71,25.34c.21,0,.41.02.61.07,0,.04,0,.08,0,.12-.19-.06-.4-.07-.61-.08,0-.04,0-.07-.01-.11Z"/>
              <path class="cls-9" d="M9.65,24.71s0,0,0,0c.12,0,.24.01.37.03.09.02.18.03.27.06,0,.04,0,.08,0,.11-.09-.02-.19-.04-.29-.06-.12-.02-.23-.03-.35-.03,0-.03,0-.07,0-.1Z"/>
              <path class="cls-9" d="M9.82,24.91s.01.09.02.13c.06-.06.13-.11.19-.16.16-.11.32-.17.51-.22.07-.02.03-.12-.04-.1-.19.05-.37.12-.54.24-.05.04-.1.08-.15.12Z"/>
              <path class="cls-9" d="M10.54,25.21c-.23.07-.45.16-.64.3,0,.04,0,.09.01.13.19-.15.43-.25.66-.33.07-.02.04-.13-.03-.11Z"/>
              <path class="cls-9" d="M9.92,25.17s-.04.03-.06.04c0,.04.01.08.02.13.04-.03.08-.06.12-.09.09-.06.18-.1.27-.14.11-.04.22-.07.32-.12.06-.03,0-.13-.06-.09-.11.06-.23.08-.34.13-.1.04-.19.09-.27.15Z"/>
              <path class="cls-9" d="M10.56,25.52c-.24.05-.45.16-.63.32,0,.05,0,.09,0,.14.18-.17.41-.3.65-.35.07-.02.04-.12-.03-.11Z"/>
              <path class="cls-9" d="M9.62,24.7c.28-.13.59-.18.9-.15.07,0,.07.12,0,.11-.29-.03-.58.01-.84.13-.06.03-.12-.07-.06-.1Z"/>
              <path class="cls-9" d="M9.85,24.63s.01-.05.03-.06c.04-.03.08-.01.11.02,0,0,0,0,0,0,.02.04,0,.1-.05.11-.03.01-.08,0-.09-.04,0-.01,0-.02,0-.03Z"/>
              <path class="cls-9" d="M8.87,24.95c-.01.17.1.34.26.39.2.06.39-.07.54-.19.08-.06.16-.14.21-.23.02.16.06.32.19.43.13.11.36.11.46-.05.11-.19.05-.47-.04-.65-.09-.18-.26-.35-.48-.36-.1,0-.18.05-.21.14,0,.03-.01.06-.01.09-.2-.07-.42-.09-.61,0-.17.07-.3.23-.32.42ZM9.97,24.75s0-.02,0-.04c0-.03,0-.05,0-.08,0-.03-.02-.05-.05-.05-.02-.07-.02-.15.07-.16.09-.01.2.05.26.11.15.14.23.35.22.55,0,.1-.02.21-.13.24-.09.02-.18-.02-.24-.08-.12-.13-.12-.32-.13-.49ZM9.23,24.63c.19-.08.41-.04.59.04,0,.02.01.03.02.05-.03.19-.2.33-.35.43-.08.06-.18.11-.29.1-.09,0-.17-.07-.21-.15-.09-.19.06-.39.23-.46Z"/>
              <path class="cls-9" d="M9.46,26.1c.11-.49.24-.97.39-1.45.02-.07.13-.04.11.03-.15.48-.27.96-.39,1.45-.02.07-.12.04-.11-.03Z"/>
              <path class="cls-9" d="M9.18,25.59c.18-.34.38-.67.62-.97.04-.06.12.02.08.08-.23.3-.43.62-.6.95-.03.06-.13,0-.1-.06Z"/>
            </g>
          </g>
          <g>
            <path class="cls-10" d="M15.84,20.23c-.87,1.21-5.29.65-4.8-1.14.54-1.93,3.87-2.09,3.93-2,.06.1,1.15,2.21,1.15,2.21l-.28.92Z"/>
            <g>
              <path class="cls-5" d="M11.94,22.46c.05.18.14.36.26.51.16.19.38.32.65.33.44.02.78-.32,1.03-.66.04,0,.08-.01.1-.06.17-.35.34-.7.51-1.05.06-.12.11-.23.17-.35.51-1.08.98-2.16,1.44-3.26-.06-.06-.12-.11-.18-.16-.42-.33-.94-.54-1.48-.58-.53-.04-1.06.09-1.51.35-.11.06-.21.13-.31.21-.27.79-.59,2.39-.66,3.02,0,.01,0,.02,0,.03-.06.53-.14,1.14,0,1.66Z"/>
              <path class="cls-5" d="M12.2,22.97c.02.07.05.14.09.21.15.29.43.48.72.62.23.11.47.2.72.29.13.04.26.09.39.13,1.45.45,2.78.82,4.18,1.21.18-.15.32-.35.42-.57.18-.42.18-.87.08-1.31-.46-.23-.91-.48-1.34-.78-.78-.55-1.69-.94-2.62-1.15-.11-.03-.22-.05-.33-.07-.28-.05-.56-.09-.84-.1-.07,0-.12.05-.12.11-.15,0-.31.04-.46.11-.32.13-.66.4-.83.7-.1.19-.11.41-.05.62Z"/>
              <path class="cls-7" d="M18.29,25.42c.58.16,1.18.32,1.79.5.07.02.13-.03.14-.09.29.04.6-.07.79-.29.2-.23.28-.54.19-.83-.02-.06-.06-.08-.11-.08-.01-.02-.03-.03-.05-.04-.76-.36-1.53-.67-2.27-1.05.1.44.1.89-.08,1.31-.09.22-.24.41-.42.57Z"/>
              <path class="cls-9" d="M11.88,22.48c.16.61.58,1.13,1.1,1.37.22.1.45.19.71.28,0,0,.02,0,.03,0,.02,0,.04,0,.05-.02.27-.19.5-.46.68-.77.26-.46.39-1.02.42-1.71,0-.04-.03-.08-.07-.09-.08-.02-.15-.03-.23-.05l.12-.26s0-.09-.03-.11c-.46-.3-1.01-.48-1.57-.54-.5-.04-.87,0-1.16.12h-.02s-.04.06-.04.06l-.02.2c-.05.48-.11,1.03.01,1.51Z"/>
            </g>
            <path class="cls-10" d="M11.04,19.09s.1-.1.15-.14c.16-.12.34-.22.51-.3.63-.3,1.34-.56,2.05-.54.81.03,1.37.36,1.82,1.06.15.24.29.77.26,1.06.13-.11.22-.26.3-.41.4-.78.33-1.62.31-1.97.03-.07.12-.39.21-.66.45-1.28.55-2.67.29-3.99.06-.27.13-.55.2-.82-.03-.02-.07-.03-.1-.05-.7-.34-1.44-.6-2.21-.73-.01,0-.02,0-.04,0-.04,0-.08-.01-.12-.02-.06.13-.13.26-.19.39-.44.87-.88,1.74-1.32,2.61,0,.01,0,.02,0,.03-.13.23-.25.47-.37.71-.22.44-.41.89-.59,1.35-.08.14-.15.28-.23.42-.29.54-.61,1.07-.82,1.64-.04.12-.08.25-.11.37Z"/>
            <g>
              <path class="cls-7" d="M13.56,15.57l.04-.12c.02-.07.09-.13.16-.14.19.39.39.77.59,1.15.15.28.33.61.63.75.21.1.44.1.67.06-.02.06-.04.12-.06.18-.02.05-.03.1-.05.15-.01.04-.06.05-.09.02-.05-.03-.09-.06-.14-.09-.35-.23-.75-.37-1.15-.44.04-.05.07-.1.09-.17.14-.46-.34-.87-.66-1.11-.03-.02-.06-.04-.08-.06.02-.06.04-.12.06-.19Z"/>
              <path class="cls-7" d="M15.93,16.22c-.02.09-.04.19-.07.28-.13-.1-.25-.21-.36-.33-.05-.06-.09-.1-.13-.16,0-.01-.02-.03-.03-.05,0,0,0-.02-.01-.02,0,0,0-.02,0-.03,0,0,0,0,0,0,0,0,0,0,0,0,.02-.09.07-.16.14-.23.11.05.21.11.31.17l.11.07c.06.04.09.11.08.19l-.03.12Z"/>
              <path class="cls-7" d="M14.77,15.41c.14.04.28.08.42.14-.09.1-.15.22-.15.35,0,.17.12.31.23.43.14.16.31.3.48.43.01,0,.02.01.03.02-.02.06-.03.12-.05.18-.26.06-.54.1-.75-.08-.22-.19-.36-.5-.49-.75-.14-.28-.29-.55-.44-.82.24.01.47.04.71.1Z"/>
              <path class="cls-7" d="M13.14,16.96c.02-.06.03-.11.05-.17.07-.26.15-.52.23-.78.19.13.35.29.47.47.08.12.15.28.08.4-.04.07-.11.11-.19.15-.19-.01-.38-.01-.57,0-.04,0-.08-.04-.07-.08Z"/>
            </g>
            <g>
              <g>
                <path class="cls-9" d="M21.4,27.92c0-.14.03-.29.04-.42,0-.27.02-.54.04-.81.02-.28.02-.57.02-.85h0c0-.17-.02-.35,0-.53,0-.08.02-.15.04-.22,0-.02,0-.03,0-.04.03-.03.04-.07.06-.1.04-.08.06-.17.12-.25.01-.02.02-.03.02-.03,0,0,0-.01.02-.03.01-.02.07-.08.11-.14,0,0-.02-.02-.03-.03,0,0-.01,0-.02-.01,0,0-.01,0-.02-.01-.01,0-.03,0-.04-.01,0,0-.01,0-.02,0,0,0-.01,0-.02,0,0,0-.01,0-.02,0-.05.03-.12.02-.15-.04-.03-.05-.02-.12.04-.15.54-.26.64.61.62.95,0,.12-.03.23-.06.34-.03.11-.02.23.04.33.31.51.33,1.18.03,1.67-.05.08-.1.15-.16.21-.07.08-.15.15-.24.2-.09.05-.19.07-.29.05-.03,0-.06-.01-.1-.03,0,0-.01,0-.02,0,0,0,0,0-.02,0,0-.02,0-.03,0-.05Z"/>
                <path class="cls-3" d="M20.67,26.64c.49-.66.5-1.72.14-2.48.19-.05.59-.02.77.02.47.1.55.62.52,1.02,0,.12-.03.23-.06.34-.03.11-.02.23.04.33.39.64.29,1.66-.36,2.05-.17.1-.36.11-.5-.06-.15-.17-.24-.43-.33-.64-.08-.19-.16-.38-.23-.58Z"/>
                <path class="cls-4" d="M19.33,25.62c.03.09.11.15.2.2.04.02.08.04.12.06.04.02.07.03.11.05,0,0,0,0,0,0,.03.02.06.03.09.05.05.03.1.06.15.11,0,0,.01,0,.02.02,0,0,0,0,0,0,.02.02.04.04.06.06,0,0,0,.01.02.02.06.07.12.14.17.22,0,0,0,0,.01.01.02.03.04.05.05.07,0,0,0,.02.02.02.02.03.04.06.06.08.02.02.03.05.05.07.01.02.02.03.04.05.01.01.02.03.03.04.01.02.03.04.04.06.04.05.07.1.1.15.02.03.05.07.07.1.05.07.09.15.14.22.08.14.16.28.24.41,0,0,0,.01,0,.02,0,0,0,0,0,0,.01.02.02.04.04.05.01.02.02.03.03.04.05.05.1.09.18.09h.01s.04,0,.05,0c.13-.01.24-.07.33-.17h0c.23-.25.32-.71.3-1.02-.02-.22-.09-.41-.19-.6-.17-.33-.27-.68-.29-1.04,0-.05,0-.1-.02-.15-.03-.2-.09-.39-.2-.55,0,0,0-.01-.01-.02,0,0,0,0,0,0h0s-.01-.02-.02-.03c-.12-.12-.29-.16-.46-.17-.02,0-.03,0-.05,0-.15-.01-.29-.03-.44-.03-.05,0-.09,0-.14,0-.04,0-.07.03-.08.06,0,0,0,.02,0,.02,0,0,.06.03.1.06,0,0,.19.15.26.33.03.07.07.17.03.24-.05.09-.36.32-.47.39-.14-.04-.29-.03-.42,0-.14.03-.27.11-.32.26-.02.05-.02.09,0,.13Z"/>
                <path class="cls-9" d="M21.43,27.98h0s.06.03.1.03c.1.02.2,0,.29-.05.09-.05.17-.12.24-.2-.04,0-.07,0-.11,0-.01,0-.02,0-.03,0h-.04s0,0-.02,0c-.02,0-.04,0-.06-.01,0,0,0,0,0,0-.04,0-.09-.01-.13,0-.02.01-.04.03-.05.04-.05.04-.09.07-.13.11,0,0,0,0,0,0-.02.02-.02.04-.02.06Z"/>
              </g>
              <path class="cls-8" d="M20.98,27.29c.25,0,.43-.23.45-.45.01-.13-.02-.25-.06-.37-.02-.07-.04-.14-.05-.2-.02-.12.01-.23.08-.31.05-.06.13-.09.21-.09h0s.06-.03.06-.06c0-.03-.03-.06-.06-.06-.12,0-.22.05-.29.13-.09.1-.13.25-.11.4.01.07.03.14.05.21.03.11.06.23.05.34-.01.17-.16.35-.35.35-.03,0-.06.02-.06.05,0,.03.02.06.05.06,0,0,0,0,.01,0Z"/>
              <path class="cls-8" d="M21.52,25.42s.02,0,.03,0c.03-.02.04-.05.02-.08-.2-.34-.51-.61-.88-.76-.03-.01-.06,0-.07.03-.01.03,0,.06.03.07.34.14.63.4.82.72.01.02.03.03.05.03Z"/>
              <path class="cls-8" d="M19.91,25.5c.05.06.1.13.15.19.02.03.05.06.07.09.05.07.11.14.16.21.02.03.05.06.07.09.05.07.11.14.16.22.02.03.05.06.07.09.05.07.09.13.14.2.02.03.05.06.07.1.11.16.22.33.33.5,0,.02.03.03.05.03,0,0,.02,0,.03,0,.03-.02.03-.05.02-.08-.38-.59-.79-1.16-1.23-1.7-.02-.02-.05-.03-.08,0-.02.02-.03.05,0,.08Z"/>
              <g>
                <path class="cls-9" d="M20.67,26.97s0,.03.01.05c.02.03.05.04.05.05.09-.16.26-.27.42-.35.03-.01.03-.05.02-.08-.02-.03-.05-.03-.07-.02-.17.08-.33.19-.43.34Z"/>
                <path class="cls-9" d="M20.47,26.67s0,.03.02.05c.02.03.04.04.05.04.09-.03.18-.05.27-.06-.02-.03-.05-.07-.07-.1-.09.01-.18.04-.27.07Z"/>
                <path class="cls-9" d="M20.28,26.41s0,.03.02.05c.02.03.04.03.05.04.08-.04.17-.07.25-.09-.02-.03-.04-.06-.07-.09-.08.02-.17.06-.25.1Z"/>
                <path class="cls-9" d="M20.29,26c-.1.02-.19.05-.29.09,0,.05.07.09.08.08.09-.04.18-.06.27-.08-.02-.03-.05-.06-.07-.09Z"/>
                <path class="cls-9" d="M19.65,25.88s0,0,0,0c0,0,.02.03.05.04.02,0,.04.01.05.01h0s0,0,0,0c.12-.06.24-.11.37-.15-.02-.03-.05-.06-.07-.09-.06.02-.13.04-.19.07-.08.03-.15.07-.22.11,0,0,0,0,0,0Z"/>
                <path class="cls-9" d="M20.5,26.72s0,.03.01.06c.02.03.05.04.06.04.03-.06.07-.11.11-.16.03-.04.06-.07.09-.1.07-.07.15-.13.23-.18.06-.03,0-.13-.06-.09-.03.02-.06.04-.09.06-.05.04-.1.08-.15.12-.08.08-.15.16-.2.25Z"/>
                <path class="cls-9" d="M20.29,26.42s0,.03.02.06c.02.03.05.03.05.04.05-.1.12-.19.19-.27.06-.06.12-.11.18-.16.06-.04,0-.14-.06-.09-.07.05-.13.11-.19.17-.08.08-.14.17-.2.26Z"/>
                <path class="cls-9" d="M20.02,26.11s0,0,0,0c0,0,0,0,0,0,.01.01.02.04.02.04,0,.01.02.03.06.04.02-.04.05-.1.08-.15.03-.05.06-.1.1-.14.04-.05.08-.1.13-.15,0,0,.01-.01.02-.02.05-.05-.03-.13-.08-.08-.03.03-.06.06-.09.1-.02.02-.03.04-.05.06-.08.09-.14.19-.2.3Z"/>
                <path class="cls-9" d="M19.76,25.93s0,.03.03.04c.03.02.07.01.07.01.03-.06.07-.13.11-.19.04-.06.08-.11.12-.16.05-.06.1-.11.16-.17.05-.05-.03-.13-.08-.08-.05.05-.1.1-.15.16-.06.07-.11.14-.16.22-.03.06-.07.11-.09.17Z"/>
                <path class="cls-9" d="M19.65,25.89s.02.03.05.04c.02,0,.04.01.05.01.03-.06.07-.11.11-.16,0,0,0,0,.01-.01.05-.06.11-.11.16-.17.05-.05.1-.11.18-.13.07-.02.03-.14-.03-.11-.14.07-.29.21-.4.33-.05.06-.09.12-.13.18,0,0,0,0,0,0Z"/>
                <path class="cls-9" d="M19.68,25.78s.03-.05.06-.06c0,0,.02,0,.03,0,.06,0,.1.07.08.13-.02.09-.15.08-.17,0,0-.02,0-.04,0-.06Z"/>
                <path class="cls-9" d="M20.88,26.32s.01-.06.05-.07c.12-.06.18.15.06.17-.06,0-.11-.04-.11-.09Z"/>
                <path class="cls-9" d="M21.07,26.66s.01-.06.05-.07c.12-.06.18.15.06.17-.06,0-.11-.04-.11-.09Z"/>
                <path class="cls-9" d="M20.63,26.02s.01-.06.05-.07c.12-.06.18.15.06.17-.06,0-.11-.04-.11-.09Z"/>
                <path class="cls-9" d="M20.33,25.67s.01-.06.05-.07c.12-.06.18.15.06.17-.06,0-.11-.04-.11-.09Z"/>
                <path class="cls-9" d="M20.14,25.41s.01-.06.05-.07c.12-.06.18.15.06.17-.06,0-.11-.04-.11-.09Z"/>
                <path class="cls-9" d="M19.35,26.96c.11.15.32.13.44.01.13-.12.18-.3.18-.47.08.12.21.25.37.2.15-.05.24-.21.23-.36-.02-.17-.14-.31-.27-.41-.15-.11-.32-.18-.5-.21-.04,0-.06.02-.07.05,0,0-.01,0-.02.02-.15.19-.26.4-.34.62-.05.16-.13.4-.03.56ZM20.03,26.39c-.03-.06-.06-.12-.09-.18-.03-.13-.08-.25-.13-.37,0,0,0,0,0,0,.17.03.34.11.47.22.12.11.25.29.15.45-.04.07-.12.11-.2.08-.09-.03-.14-.13-.19-.21ZM19.48,26.44c.06-.17.14-.34.25-.49.03.1.07.21.11.31.02.09.03.18.02.28-.01.17-.1.46-.32.43-.23-.03-.1-.39-.06-.52Z"/>
                <path class="cls-9" d="M18.78,26.41c.27-.31.63-.54,1.02-.65.07-.02.1.09.03.11-.38.11-.72.33-.98.62-.05.05-.12-.02-.08-.08Z"/>
                <path class="cls-9" d="M19.71,25.85c.02-.07.13-.04.11.03-.15.5-.04,1.03.07,1.52.02.07-.09.1-.11.03-.12-.52-.23-1.06-.07-1.58Z"/>
              </g>
            </g>
          </g>
          <g>
            <g>
              <path class="cls-10" d="M20.48,9.47c-.13.18-.29.33-.46.46-.93-.5-1.83-1.05-2.71-1.64-.07-.17-.14-.34-.21-.51-.13-.31-.25-.63-.37-.94-.21-.55-.39-1.11-.61-1.66.6.01,1.21.08,1.79.28.28.09.56.22.81.38.1.07.2.14.3.21.13.1.26.21.4.31.03.02.07.05.1.07.01,0,.02.02.03.03,0,0,0,0,0,0,.3.21.6.43.9.64.13.1.27.19.4.29.14.63.09,1.31-.24,1.88-.04.07-.09.14-.13.2Z"/>
              <path class="cls-7" d="M20.02,9.93c-.78-.42-1.54-.87-2.28-1.36-.03-.6-.09-1.19-.2-1.77.78,1.08,1.74,2.11,2.94,2.67-.13.18-.29.33-.46.46Z"/>
              <path class="cls-9" d="M19.82,9.85s.04-.01.05-.03c.01-.03,0-.06-.02-.08-.49-.26-1.1-.61-1.1-.61-.03-.02-.06,0-.08.02-.02.03,0,.06.02.08,0,0,.61.36,1.11.62,0,0,.02,0,.03,0Z"/>
              <path class="cls-5" d="M22.45,11.02c-.2,0-.41-.06-.59-.15-.3-.14-.6-.29-.89-.44-.32-.16-.64-.33-.95-.5.24-.17.45-.4.6-.66.33-.57.37-1.25.24-1.88.7.5,1.4,1,2.1,1.5.16.43.35.85.51,1.29-.01.37-.28.65-.61.78-.13.05-.26.07-.39.07Z"/>
              <path class="cls-5" d="M26.31,6.08c.19.44.35.89.45,1.36-.57.73-1.13,1.48-1.75,2.17-.28.32-.59.61-.93.87-.33.25-.72.5-1.14.57-.43.07-.81-.07-1.18-.26-.05-.56-.05-1.12,0-1.68,1.64-.82,3.14-1.89,4.55-3.04Z"/>
              <path class="cls-5" d="M25.96,5.98c.11-.19.25-.4.42-.54.12-.1.26-.12.39-.09.4.61.77,1.25.96,1.95-.01,0-.03,0-.04,0-.3.28-.74.48-1.14.43-.41-.05-.69-.74-.76-1.08-.05-.24.06-.46.18-.66Z"/>
            </g>
            <g>
              <path class="cls-3" d="M26.29,5.31c0,.23.03.45.09.66h0c.06.25.17.48.3.69,0,0,0,0,0,0,.11.18.25.35.4.5.41.4.96.67,1.57.72.08,0,.16.01.24.01.55,0,1.06-.17,1.47-.46.67-.47,1.11-1.25,1.11-2.13,0-.26-.04-.51-.11-.74-.17-.58-.54-1.07-1.03-1.4-.41-.28-.91-.45-1.45-.45-.7,0-1.33.28-1.8.72-.49.47-.79,1.13-.79,1.86Z"/>
              <g>
                <path class="cls-4" d="M30.23,5.45s0,.04.03.05c0,0,0,.01,0,.02.14.17.28.34.4.53,0,.09-.02.18-.05.27-.06.24-.19.45-.32.65-.01.02-.01.04,0,.06,0,0,0,0,0,0,.03.13.04.27.05.41.67-.47,1.11-1.25,1.11-2.13,0-.26-.04-.51-.11-.74-.18-.16-.37-.3-.58-.42-.03-.02-.06,0-.08.02h0c-.14.14-.28.26-.44.37-.01,0-.02.02-.03.03h0s-.01.02-.01.04c.02.28.03.56,0,.84Z"/>
                <path class="cls-4" d="M27.88,3.37c-.03.25-.03.49-.02.74,0,.03.02.04.04.05.25.18.52.32.8.43.02,0,.07,0,.09,0,.13-.07.25-.15.37-.23.06-.04.12-.09.18-.13.04-.03.14-.12.15-.14.05-.29.02-.58-.07-.85.23-.02.47.02.69.09,0,0,.02,0,.03,0,.02,0,.05,0,.06-.01.05-.04.09-.09.12-.15-.41-.28-.91-.45-1.45-.45-.7,0-1.33.28-1.8.72.25-.11.54-.14.81-.07Z"/>
                <path class="cls-4" d="M26.57,5.26s.03-.06.06-.06c.23-.03.47-.04.7-.03,0,0,0,0,.01,0,.02,0,.04,0,.05.03.14.23.32.44.52.61.25-.14.51-.27.78-.38,0,0,.02,0,.03,0,.01,0,.03,0,.05,0,.13.08.25.16.38.23.11.07.22.14.32.23.02,0,.04.02.04.05.03.27.02.54,0,.8,0,.01,0,.02-.01.03t0,0s0,.01-.01.02c-.25.21-.54.36-.85.44-.02.16-.02.33,0,.49,0,.02,0,.04-.02.05l-.09.09c-.56-.07-1.06-.33-1.45-.7,0-.08.01-.17.03-.25-.15-.06-.3-.15-.43-.25,0,0,0,0,0,0-.13-.21-.23-.44-.3-.69h0c.02-.25.08-.49.2-.71Z"/>
              </g>
              <path class="cls-1" d="M30.16,4.53s.03,0,.05-.02c.02-.03.01-.06-.01-.08-.18-.13-.38-.25-.58-.35-.03-.01-.06,0-.08.03-.01.03,0,.06.03.08.2.1.39.21.57.34.01,0,.02.01.03.01Z"/>
              <path class="cls-1" d="M30.72,4.08s0,0,.01,0c.03,0,.05-.04.04-.07-.07-.25-.2-.48-.39-.66-.02-.02-.06-.02-.08,0-.02.02-.02.06,0,.08.17.17.3.37.36.61,0,.03.03.04.05.04Z"/>
              <path class="cls-1" d="M28.74,5.39s.06-.02.06-.05c0-.2,0-.4,0-.61,0-.03-.03-.05-.06-.05h0s-.06.03-.05.06c0,.2,0,.4,0,.6,0,.03.02.06.05.06,0,0,0,0,0,0Z"/>
              <path class="cls-1" d="M27.37,5.02s.05-.02.05-.04c.06-.25.18-.48.35-.67.02-.02.02-.06,0-.08-.02-.02-.06-.02-.08,0-.18.21-.31.46-.38.72,0,.03.01.06.04.07,0,0,0,0,.01,0Z"/>
              <path class="cls-1" d="M26.62,5.15s.02,0,.03,0c.03-.02.03-.05.01-.08-.09-.13-.15-.29-.17-.45,0-.03-.03-.05-.06-.05-.03,0-.05.03-.05.06.02.18.09.35.19.5.01.02.03.02.05.02Z"/>
              <path class="cls-1" d="M30.18,7.15s.05-.02.06-.05c0-.03-.02-.06-.05-.06-.23-.01-.47-.06-.67-.13-.03-.01-.06,0-.07.03-.01.03,0,.06.03.07.21.07.46.12.7.14,0,0,0,0,0,0Z"/>
              <path class="cls-1" d="M29.65,5.87s.02,0,.03,0c.16-.09.31-.19.46-.31.02-.02.03-.06,0-.08-.02-.02-.06-.03-.08,0-.14.11-.29.21-.44.3-.03.01-.04.05-.02.08.01.02.03.03.05.03Z"/>
              <path class="cls-8" d="M30.81,6.05c.18,0,.36-.05.52-.13.03-.02.04-.05.02-.08-.02-.03-.05-.04-.08-.02-.15.08-.32.13-.49.12-.03,0-.06.02-.06.05,0,.03.02.06.05.06,0,0,.02,0,.03,0Z"/>
              <path class="cls-8" d="M27.95,3.29s.03,0,.04-.02c.16-.16.39-.29.58-.34.29.03.55.16.67.24.03.02.06,0,.08-.02.02-.03,0-.06-.02-.08-.14-.08-.41-.22-.73-.25,0,0-.01,0-.02,0-.21.05-.47.2-.64.37-.02.02-.02.06,0,.08.01.01.03.02.04.02Z"/>
              <path class="cls-8" d="M28.52,7.25s.04-.01.05-.04c.01-.03,0-.06-.03-.07-.21-.08-.43-.23-.64-.43l.04-.8s-.02-.06-.05-.06c-.03,0-.06.02-.06.05l-.04.83s0,.03.02.04c.23.22.47.38.7.47,0,0,.01,0,.02,0Z"/>
              <path class="cls-8" d="M27.25,6.95s0,0,0,0c.2-.04.41-.08.61-.15.03,0,.05-.04.04-.07,0-.03-.04-.05-.07-.04-.19.06-.39.11-.59.14-.03,0-.05.03-.05.07,0,.03.03.05.06.05Z"/>
            </g>
            <path class="cls-5" d="M26.54,6.76c-.27.02-.55-.01-.81-.07.04-.62.1-1.07.57-1.3.28-.13.58-.21.87-.3.12-.04.26-.07.34.06.17.29-.14.54-.37.63-.14.06-.29.1-.44.14-.06.27-.09.6-.15.84Z"/>
          </g>
          <path class="cls-9" d="M11.02,12.68c.29-.4.59-.79.92-1.17-.3-1.79-.46-3.6-.49-5.42,0-.07.03-.12.08-.15.06-.35.18-.67.46-.92.28-.25.63-.41.97-.56.07-.03.14-.06.21-.08.06-.02.12-.04.18-.06.3-.08.59-.08.9.04.46.18.91.4,1.37.6.01,0,.02.01.03.02.44.12,1.03.29,1.21.34.02,0,.03,0,.05.01.49.6.9,1.26,1.19,1.98.23.75.43,1.56.33,2.34-.1.79-.39,1.59-.71,2.34.42.73.76,1.51.73,2.35,0,.03,0,.06,0,.1-.08-.39-.26-.75-.51-1.07-.95-1.21-2.66-1.22-3.97-.57-.98.48-1.83.69-2.94.47-.12-.02-.24-.05-.36-.09.11-.17.22-.33.34-.49Z"/>
          <g>
            <path class="cls-10" d="M13.27,5.71c-.29,0-.59-.02-.88-.04-.08,0-.15.05-.18.12-.54-.09-1.08-.23-1.6-.41.07-.1.13-.21.18-.32,0-.01.01-.02.01-.03.22-.51.22-1.06.09-1.57.11.02.23.05.34.07.26.06.52.12.74.18.12,0,.23,0,.35.01.97.07,1.92.44,2.69,1.04.07.06.28.18.22.24-.02.02-.11,0-.13,0-.7.03-1.27.31-1.8.69-.01,0-.02.02-.03.02Z"/>
            <path class="cls-7" d="M10.26,5.78s0,0,0,0c.23-.19.41-.44.54-.72,0-.01.01-.02.01-.03.8.33,1.64.56,2.49.66-.68.47-1.52.49-1.85.41-.55-.14-.65-.15-1.19-.32Z"/>
            <path class="cls-9" d="M11.2,6.12s.05-.02.05-.04c0-.03,0-.06-.04-.07l-.76-.21s-.06,0-.07.04c0,.03,0,.06.04.07l.76.21s.01,0,.02,0Z"/>
            <path class="cls-5" d="M7.57,4.51c-1.66.92-4.99,3.11-4.95,3.18-.16-.26-.29-.55-.37-.85-.06-.06-.08-.16-.01-.25,1.08-1.4,2.92-3.15,3.49-3.5.46-.28.74-.4,1.27-.38.12,0,.25.02.37.04.02.05.05.1.06.16.19.51.24,1.07.13,1.59,0,0,0,.02,0,.02Z"/>
            <path class="cls-5" d="M10.26,5.78c-1.44-.43-2.94-.85-4.36-1.35-.12-.32-.24-.81-.31-1.07.02-.03.03-.05.05-.08.48-.65,1.23-.62,1.95-.51.69.11,1.37.25,2.05.39.26.06.52.11.78.18.14.04.3.07.47.11.14.53.13,1.09-.1,1.61-.12.28-.31.52-.54.72Z"/>
            <path class="cls-5" d="M0,8.42s.03-.1.07-.14c.12-.11.31-.12.46-.17.14-.05.22-.09.39-.16.46-.77.96-1.35,1.72-1.79.23.31.45.62.68.94-.14.22-.29.43-.45.64,0,0,.01.02.02.03.05.08.02.18-.06.22-.08.04-.16.09-.24.13,0,0,0,0,0,0,0,0,0,0-.01,0-.17.09-.33.17-.5.25-.06.04-.12.09-.18.14-.08.07-.16.14-.24.2-.24.2-.48.43-.77.56-.13.06-.28.11-.43.1-.17-.01-.27-.17-.24-.33,0,0,0-.01,0-.02-.04-.06-.05-.13-.04-.19.01-.08.07-.14.12-.2-.04,0-.09,0-.13,0-.13-.01-.19-.11-.17-.21Z"/>
            <path class="cls-5" d="M2.4,9.32c.07.17.28.32.46.18.19-.16.15-.59.21-.82.08-.31.25-.59.34-.9.08-.29.13-.6.09-.89,0-.05-.04-.09-.07-.11-.11-.18-.37-.15-.55-.05-.2.11-.35.31-.39.53-.04.23.02.46.02.7,0,.24-.09.48-.14.72-.04.22-.05.45.03.66Z"/>
          </g>
          <g>
            <g>
              <g>
                <path class="cls-12" d="M14.69,3.47s.01-.04.02-.06c0,0,0-.02,0-.02,0,0,0-.02,0-.03.01-.12.01-.24.01-.35,0-.05,0-.1,0-.15,0-.11-.01-.21-.05-.32.01-.04.03-.09.04-.13-.18-.11-.34-.26-.45-.45-.02-.03-.04-.07-.05-.1,0,0,0,0,0,0-.03.08-.07.16-.14.22-.03.03-.07.05-.12.06-.08.02-.16,0-.22-.06-.05-.06-.06-.13-.07-.21-.04-.41.09-.88.36-1.2.26-.3.57-.5.91-.6.23-.07.57-.1.79-.01.57-.02,1.13.11,1.64.39.63.35,1.13.97.87,1.72-.11.33-.35.57-.45.91,0,.02-.01.05-.02.07-.04.25.13.41.28.59,0,0,0,0,0,0-.22.29-.52.51-.73.82-.96-.08-1.85-.47-2.71-.92.03-.05.05-.1.07-.15Z"/>
                <path class="cls-12" d="M14.4,3.89c.12-.1.21-.23.27-.38.26.14.51.29.79.39.28.1.61.13.87-.05.17-.12.29-.28.37-.47.03.04.06.08.09.12.09.1.18.21.3.28.06.04.13.07.2.07.05,0,.1-.01.14-.03.02-.01.04-.02.06-.04.01-.01,0,0-.03.02.01-.01.03-.02.04-.03.01-.01.03-.04.04-.05.06-.1.05-.22.03-.33,0-.01,0-.03,0-.04.09.12.19.23.31.32.04.03.09.03.13.03.08.1.17.2.21.33.06.2-.05.36-.25.37-.12,0-.24-.05-.35-.13,0,.05-.02.1-.04.15-.06.18-.18.45-.37.53-.16.07-.28-.04-.37-.16-.07.07-.17.12-.27.14-.18.03-.34-.02-.48-.14-.05-.04-.09-.09-.12-.14-.01.06-.05.12-.12.13-.07.01-.14.02-.22.02-.03,0-.07,0-.1,0-.14-.01-.27-.05-.38-.13-.09-.07-.18-.15-.23-.26,0,0,0-.02-.01-.03-.22.04-.46.05-.63-.12-.13-.13.01-.25.11-.33Z"/>
              </g>
              <path class="cls-5" d="M15.19,5.07c.11.07.22.14.33.2.27.14.55.25.85.31.11.03.23.05.35.06-.01-.81-.01-1.62,0-2.43,0,0,0,0,0,0-.12.02-.23.04-.34.06-.11.02-.21.05-.32.07-.12.03-.25.07-.37.11-.12.04-.24.09-.36.13-.04.42-.07.84-.11,1.27,0,.07-.01.14-.02.21Z"/>
              <path class="cls-11" d="M15.87,3.73c.15-.03.29-.05.44-.09.02,0,.05-.01.07-.02-.36.4-.73.79-1.16,1.11.02-.29.05-.59.07-.88.19-.05.38-.09.57-.13Z"/>
              <path class="cls-5" d="M14.6,3.63c.27.59,1.36.43,1.79.14.5-.34.64-.84.67-1.44.03-.82-.42-1.57-1.31-1.57-.28,0-.56.09-.77.29-.2.2-.3.45-.34.71-.02.11-.04.22-.09.32-.21.42-.14,1.13.06,1.56Z"/>
              <path class="cls-5" d="M16.69,5.79c-.6.17-1.09-.25-1.47-.63-.18-.18-.34-.38-.49-.59.15.06.3.11.45.17.56.21,1.13.4,1.7.57.09.03.17.05.26.08,0,0-.08.29-.44.4Z"/>
              <path class="cls-12" d="M16.04.68c0-.06.03-.12.09-.15.05-.03.12-.03.17,0,.25.15.44.37.61.6.18.24.38.49.37.81.09.11,0,.32-.18.28-.31-.08-.57-.29-.75-.56-.09-.14-.16-.3-.22-.46-.03-.08-.05-.16-.06-.24-.02-.09-.04-.19-.03-.27Z"/>
            </g>
            <path class="cls-5" d="M16.76,2.43c.08-.21.25-.37.45-.36.14,0,.28.1.34.25.16.37-.17.83-.48.82-.41-.01-.41-.44-.31-.71Z"/>
          </g>
        </g>
        <path class="cls-6" d="M15.63,2.16c0,.09.07.16.17.17.1,0,.18-.06.18-.15,0-.09-.07-.16-.17-.17-.1,0-.18.06-.18.15Z"/>
        <path class="cls-6" d="M14.77,2c0,.09.07.16.17.17.1,0,.18-.06.18-.15,0-.09-.07-.16-.17-.17-.1,0-.18.06-.18.15Z"/>
        <path class="cls-2" d="M17.15,2.51s-.22.25-.08.28c.14.04.19-.15.11-.15"/>
      </g>
      <path class="cls-7" d="M15.73,2.9l-.84.26s.18.39.57.29c.31-.07.26-.55.26-.55Z"/>
    </g>
  </g>
</svg>