<?xml version="1.0" encoding="UTF-8"?>
<svg id="_レイヤー_2" data-name="レイヤー 2" xmlns="http://www.w3.org/2000/svg" xmlns:xlink="http://www.w3.org/1999/xlink" viewBox="0 0 19.28 33.34">
  <defs>
    <style>
      .cls-1 {
        fill: #f4baba;
      }

      .cls-2 {
        fill: #8d5412;
      }

      .cls-3 {
        stroke: #5a5753;
      }

      .cls-3, .cls-4, .cls-5, .cls-6, .cls-7, .cls-8 {
        fill: none;
        stroke-linecap: round;
        stroke-miterlimit: 10;
        stroke-width: .17px;
      }

      .cls-4 {
        stroke: #6f89bd;
      }

      .cls-5 {
        stroke: #aba099;
      }

      .cls-6 {
        stroke: #d34518;
      }

      .cls-9 {
        fill: #acb2d6;
      }

      .cls-10 {
        fill: #d59700;
      }

      .cls-7 {
        stroke: #bccce9;
      }

      .cls-11 {
        fill: #231815;
      }

      .cls-12 {
        fill: #e5e2e2;
      }

      .cls-13 {
        fill: #23318e;
      }

      .cls-8 {
        stroke: #3755a3;
      }

      .cls-14 {
        clip-path: url(#clippath);
      }

      .cls-15 {
        fill: #f5bcb7;
      }
    </style>
    <clipPath id="clippath">
      <path class="cls-10" d="M5.83,3.35s2.5.49,2.73-.61c.34-1.6,2-1.8,3.4-.54,1.25,1.13,2.12,10.16,2.69,10.41.57.25.85.5.88-.35.03-.85.09-3.77-.28-4.33-.38-.57-.25-.91.41-.85.66.06,3.33,2.39,3.55,3.21.19.69.03.43-.6.62-.52.16-.89,1.43-1.07,3.2-.16,1.55-1.66,2.63-3.17,2.21-.33-.09-.69-.24-1.07-.45-.16-.09-.3-.22-.4-.38-.46-.73-.94-3.08-1.61-10.38-.18-2.01-.65-2.53-2.21-1.39-1.19.87-3.22.06-3.48-.17-.25-.22.24-.19.24-.19Z"/>
    </clipPath>
  </defs>
  <g id="design">
    <g>
      <g>
        <path class="cls-11" d="M.35,30.31s-.41.79-.35,1.22c.06.44.69.53.69.53,0,0,.41-.63.97.16.57.79,3.39,1.26,3.83,1.07s.79-.84-.16-1.47c-.94-.63-1.51-1.36-1.51-1.36l-3.49-.16Z"/>
        <path class="cls-11" d="M9.65,30.03s-.41.79-.35,1.22.69.53.69.53c0,0,.41-.63.97.16s3.39,1.26,3.83,1.07c.44-.19.79-.84-.16-1.47s-1.51-1.36-1.51-1.36l-3.49-.16Z"/>
        <path class="cls-9" d="M9.8,14.81s2.43,2.69,3.19,6.71c.75,4.02.38,8.71.38,8.71,0,0-3.39.54-4.06,0,0,0,.5-6.16-1.09-9.84-1.59-3.68-2.73-5.23-2.73-5.23l4.31-.35Z"/>
        <path class="cls-9" d="M2.57,16.27s1.91,3.87,1.33,5.51c-.58,1.63-3.4,7.11-3.54,8.53,0,0,3.04.89,4.07.76,0,0,4.08-7.79,4.33-8.92.25-1.13.66-5.6-1.05-6.86-1.71-1.26-5.14.98-5.14.98Z"/>
        <path class="cls-15" d="M3.38,6.07c0-.48-.73-2.06-.73-2.06l1.98-.39s1.7,2.9,1.55,2.34c-.02-.09-2.8.11-2.8.11Z"/>
        <path class="cls-15" d="M3.41,1.15c.63-.31,1.27-.3,1.69.26.33.44.75,1.21.82,1.89.15,1.36-2.23,1.31-2.95,1.16-.65-.14-2.31-1.95.44-3.32Z"/>
        <path class="cls-11" d="M5.17,2.7c.11-.04.16-.17.12-.27-.04-.11-.17-.16-.28-.11-.11.04-.16.17-.12.27.04.11.17.16.28.11Z"/>
        <path class="cls-6" d="M4.23,4.48s.52-.02.76-.11"/>
        <path class="cls-11" d="M3.8,2.28s1.65-.37,1.51-1.17c-.14-.8-.99-1.62-2.65-.68-1.66.94,1.14,1.85,1.14,1.85Z"/>
        <path class="cls-11" d="M3.8,1.43s.38,3.12-.83,3.03c-1.27-.1-1.76-1.11-1.79-2.01-.03-.9.46-1.96,1.67-1.89,1.21.07.95.86.95.86Z"/>
        <g>
          <path class="cls-1" d="M4.13,3.14c.19.28.15.64-.09.8-.24.16-.58.06-.77-.23-.19-.28-.15-.64.09-.8.24-.16.58-.06.77.23Z"/>
          <path class="cls-6" d="M3.57,3.46s.14.24.21.14c.07-.1-.07-.19-.09-.13"/>
        </g>
        <path class="cls-12" d="M3.15,5.28s2.13.78,2.37-.19c0,0,1.39.9,1.35,1.61-.04.71.26,5.36.26,5.36,0,0-4.51-5.82-4.48-6.32.03-.5.5-.46.5-.46Z"/>
        <path class="cls-13" d="M3.04,5.28s3.96,4.53,4.52,6.24c.56,1.71,1,4.22,1,4.22,0,0-5.02,1.35-6,.53-.97-.82-2.16-9.78.47-10.99Z"/>
        <path class="cls-5" d="M4.89,5.75l-.12.4c-.03.1-.15.15-.24.09l-1.05-.62"/>
        <path class="cls-5" d="M5.27,5.67s.23.38.31.4c.08.02.34-.55.34-.55"/>
        <path class="cls-13" d="M5.49,5.18s1.47,4.94,1.13,6.57c-.33,1.63.33,4.27.33,4.27,0,0,2.95-.48,3.24-.86,0,0-3.12-9.49-3.45-9.74-.33-.25-.82-.33-1.26-.25Z"/>
        <path class="cls-13" d="M6.51,5.29s1.91.49,3.41,4.03l2.14-.84.65,1.97s-2.05,2.32-3.22,2.32-2.98-7.48-2.98-7.48Z"/>
        <g>
          <path class="cls-10" d="M5.83,3.35s2.5.49,2.73-.61c.34-1.6,2-1.8,3.4-.54,1.25,1.13,2.12,10.16,2.69,10.41.57.25.85.5.88-.35.03-.85.09-3.77-.28-4.33-.38-.57-.25-.91.41-.85.66.06,3.33,2.39,3.55,3.21.19.69.03.43-.6.62-.52.16-.89,1.43-1.07,3.2-.16,1.55-1.66,2.63-3.17,2.21-.33-.09-.69-.24-1.07-.45-.16-.09-.3-.22-.4-.38-.46-.73-.94-3.08-1.61-10.38-.18-2.01-.65-2.53-2.21-1.39-1.19.87-3.22.06-3.48-.17-.25-.22.24-.19.24-.19Z"/>
          <g class="cls-14">
            <polygon class="cls-11" points="8.29 2.97 8.43 4.26 5.6 4.09 5.48 3.3 8.29 2.97"/>
          </g>
        </g>
        <path class="cls-2" d="M15.76,7.31c-.18-.03-.32.09-.22.23.56.79,2.37,2.81,3.33,2.89.99.08-2.18-2.97-3.11-3.12Z"/>
        <path class="cls-15" d="M8.99,13.17s1.92-1.08,2.14-1.1.23.14-.02.45c0,0,1.26-.87,1.4-.76.14.11.01.35.01.35,0,0,.48-.38.54-.08.04.21.18.14.17.39,0,.25-.3.68-.3.68,0,0,.31-.17.21.13-.1.3-2.05,1.83-3.08,1.55-1.03-.27-1.07-1.61-1.07-1.61Z"/>
        <path class="cls-13" d="M2.97,5.28s-3.48.84-2.1,6.33c0,0,.21,2.89,3.27,3.18,2.48.24,4.94.29,5.78.3.16,0,.29-.14.28-.3l-.2-2.21s-3.85-1-5.02-.92l-2-6.37Z"/>
        <path class="cls-15" d="M13.22,4.99s-.88-.02-.82.42c.06.44.61.1.61.1,0,0-.59.45-.42.56.17.11.63,0,.63,0,0,0-.65.77-.21.82l.44.05s-.5.44-.29.52c.21.08.8.17.88-.13.08-.29.21-2.2-.82-2.34Z"/>
        <line class="cls-6" x1="12.28" y1="12.29" x2="11.57" y2="12.84"/>
        <line class="cls-6" x1="12.71" y1="12.63" x2="12.01" y2="13.18"/>
        <line class="cls-6" x1="12.75" y1="13.18" x2="12.05" y2="13.73"/>
        <line class="cls-4" x1="5.6" y1="11.67" x2="9.61" y2="12.48"/>
        <path class="cls-4" d="M2.13,14.01s.95.92,3.72.94c2.77.02,3.62.14,3.62.14"/>
        <line class="cls-4" x1="3.69" y1="8.58" x2="4.97" y2="11.65"/>
        <line class="cls-4" x1="8.4" y1="8.58" x2="9.41" y2="12.06"/>
        <path class="cls-8" d="M8.76,16.88c.09.16.89,3.19,0,5.28"/>
        <line class="cls-6" x1="13.04" y1="5.59" x2="13.42" y2="5.46"/>
        <line class="cls-6" x1="13.32" y1="6.13" x2="13.7" y2="6"/>
        <path class="cls-7" d="M7.13,17.59s.37,3.1.24,3.89"/>
        <line class="cls-7" x1="3.49" y1="30.31" x2="6.75" y2="23.2"/>
        <path class="cls-7" d="M9.93,16.53s1.94,3.32,2.12,4.45"/>
        <path class="cls-7" d="M12.27,23.2s.28,5.78.01,6.49"/>
      </g>
      <path class="cls-3" d="M4.06.38s.63-.15.83.44"/>
      <path class="cls-3" d="M1.87,3.45s.31.67,1.04.79"/>
      <path class="cls-3" d="M4.21.82s.21-.03.34.23"/>
    </g>
  </g>
</svg>