<?xml version="1.0" encoding="UTF-8"?>
<svg id="_レイヤー_2" data-name="レイヤー 2" xmlns="http://www.w3.org/2000/svg" viewBox="0 0 28.95 24.11">
  <defs>
    <style>
      .cls-1 {
        fill: #003968;
      }

      .cls-1, .cls-2, .cls-3, .cls-4, .cls-5 {
        fill-rule: evenodd;
      }

      .cls-2 {
        fill: #276d68;
      }

      .cls-6 {
        stroke: #34b8bd;
        stroke-width: .46px;
      }

      .cls-6, .cls-7, .cls-8 {
        fill: none;
        stroke-linecap: round;
        stroke-linejoin: round;
      }

      .cls-3, .cls-9 {
        fill: #4e9999;
      }

      .cls-10 {
        fill: #23b6bc;
      }

      .cls-11 {
        fill: #b8579c;
      }

      .cls-12, .cls-5 {
        fill: #78b9b7;
      }

      .cls-7 {
        stroke: #fff;
        stroke-width: .13px;
      }

      .cls-8 {
        stroke: #b34f98;
        stroke-width: .16px;
      }

      .cls-13 {
        fill: #f3b1b9;
      }

      .cls-14 {
        fill: #231815;
      }

      .cls-15 {
        fill: #5e66ad;
      }

      .cls-16 {
        fill: #fff;
      }

      .cls-4 {
        fill: #6aa1d1;
      }

      .cls-17 {
        fill: #f2a6a3;
      }

      .cls-18 {
        fill: #cc4416;
      }

      .cls-19 {
        fill: #b53a18;
      }
    </style>
  </defs>
  <g id="design">
    <g>
      <g>
        <g>
          <rect class="cls-17" x="23.36" y="10.37" width="1.4" height="1.75" transform="translate(-1.39 18.83) rotate(-41.63)"/>
          <g>
            <path class="cls-15" d="M23.96,10.56s-.02-.04-.02-.07c-.02-.08,0-.15.03-.23.03-.09.05-.19.08-.29.03-.09.03-.09,0-.17-.07-.16-.19-.32-.27-.48-.16-.33-.29-.68-.38-1.04-.04-.17-.07-.34-.05-.5.02-.17.11-.33.26-.41.28-.14.61.06.86.26.78.62,1.51,1.31,2.09,2.12.14.2.29.45.22.68-.06.2-.25.33-.43.44-.31.19-.54.44-.83.65-.16.11-.39.17-.55.05-.07-.05-.11-.13-.16-.2-.16-.24-.36-.44-.59-.6-.1-.06-.2-.13-.25-.23Z"/>
            <path class="cls-10" d="M25.02,10.71c.14.15.27.32.36.5.07.13.11.29.03.41-.04.05-.09.08-.14.1-.1.05-.23.09-.33.03-.1-.06-.12-.18-.16-.29-.11-.31-.31-.5-.59-.66-.08-.05-.17-.09-.21-.18-.1-.21.11-.44.32-.44.18,0,.33.12.46.24.09.09.18.17.27.27Z"/>
            <path class="cls-10" d="M26.05,11.12s-.04.03-.06.03c-.03,0-.05-.02-.07-.03-.1-.08-.16-.21-.2-.34-.06-.19-.1-.4-.06-.59.04-.2.16-.38.34-.46.05-.02.1-.03.16-.03.06,0,.13.02.19.05.17.08.31.22.37.4.06.17.04.4-.05.55-.06.09-.18.14-.27.2-.11.08-.23.15-.34.23Z"/>
            <path class="cls-10" d="M25.01,8.17c-.14-.18-.43-.33-.61-.42-.25-.11-.52-.17-.79-.15-.12.01-.21,0-.26.13-.05.13-.06.3.03.42.27-.16.65-.08.85.17.08.1.13.24.05.34-.08.11-.25.09-.39.05.02.18.1.39.28.43.07.02.14,0,.21-.01.19-.04.39-.11.53-.25.14-.13.26-.44.16-.64-.01-.03-.03-.05-.05-.08Z"/>
            <path class="cls-14" d="M24.35,9.02c.13.36.19.74.16,1.12-.01.21-.14.71-.41.71-.12,0-.23-.07-.32-.14-.12-.1-.22-.23-.22-.38,0-.1.05-.19.09-.29.07-.19.08-.41.02-.61-.04-.14-.12-.28-.17-.42-.06-.14-.12-.44.01-.56.16-.14.45.06.57.16.16.13.2.22.26.4Z"/>
            <path class="cls-14" d="M25.37,8.32c.36.35.78.63,1.13,1,.26.27.67.77.51,1.18-.07.17-.23.3-.41.32-.02,0-.03,0-.05,0-.02-.01-.03-.04-.04-.07-.03-.14-.05-.28-.09-.41-.13-.45-.44-.82-.77-1.15-.15-.15-.29-.31-.44-.46-.17-.17-.36-.32-.52-.5-.17-.17-.38-.33-.6-.42-.27-.1-.6-.06-.77.16-.09-.09-.1-.23-.09-.36.02-.17.08-.35.24-.42.15-.07.32-.02.48.04.6.22.96.66,1.41,1.09Z"/>
            <path class="cls-8" d="M24.22,10.24c.05,0,.11,0,.15-.03.02-.02.04-.05.05-.09.03-.13-.03-.28-.15-.34-.13-.08-.29-.05-.43,0-.14.05-.27.13-.41.15-.06,0-.12,0-.17-.02-.09-.04-.15-.14-.14-.23,0-.09.08-.18.17-.2.14-.03.28.08.39.19.11.11.16.2.22.33.06.12.19.21.33.24Z"/>
            <path class="cls-8" d="M23.68,9.35c.08.05.18.07.28.07"/>
            <path class="cls-8" d="M23.55,8.98c.11.1.26.15.41.13"/>
            <path class="cls-8" d="M23.54,8.7c.11.08.26.12.4.09"/>
          </g>
        </g>
        <g>
          <polygon class="cls-17" points="25.44 22.61 26.27 21.08 25.07 20.35 24.23 21.88 25.44 22.61"/>
          <g>
            <path class="cls-15" d="M25.86,21.17s.03-.03.05-.04c.06-.04.14-.04.22-.04.1,0,.2,0,.29,0,.09,0,.09,0,.16-.05.13-.11.24-.29.36-.41.25-.26.54-.49.84-.68.14-.09.29-.17.45-.2.16-.03.34,0,.46.12.22.22.14.61.04.92-.32.95-.73,1.87-1.29,2.68-.14.2-.32.41-.56.42-.21,0-.39-.14-.55-.28-.27-.24-.59-.39-.87-.61-.16-.12-.29-.32-.23-.52.03-.08.08-.15.13-.21.17-.22.3-.49.37-.76.03-.11.06-.24.13-.32Z"/>
            <path class="cls-10" d="M26.06,22.25c-.1.18-.21.36-.35.51-.1.1-.24.2-.37.15-.05-.02-.1-.06-.14-.1-.08-.08-.16-.19-.13-.31.02-.11.13-.18.21-.24.25-.21.36-.46.42-.78.02-.09.03-.19.1-.26.16-.16.44-.02.51.18.06.17,0,.36-.08.52-.05.12-.1.23-.16.34Z"/>
            <path class="cls-10" d="M26.01,23.37s-.04-.03-.04-.05c0-.03,0-.05,0-.08.05-.12.15-.22.25-.3.16-.12.34-.22.53-.24.19-.02.4.04.53.19.04.04.06.09.08.14.02.06.02.13.01.2-.02.19-.11.37-.25.49-.13.11-.36.16-.53.12-.1-.03-.19-.14-.27-.2-.11-.09-.22-.18-.32-.26Z"/>
            <path class="cls-10" d="M28.41,21.45c.12-.19.17-.52.19-.72.03-.28-.01-.56-.12-.82-.05-.12-.08-.21-.2-.22-.14-.01-.29.04-.38.16.23.21.29.61.12.88-.07.1-.18.2-.3.16-.13-.05-.16-.22-.17-.36-.16.08-.33.22-.31.4,0,.07.04.14.08.2.1.17.23.34.4.44.17.09.5.11.64-.04.02-.02.04-.05.06-.07Z"/>
            <path class="cls-14" d="M27.41,21.07c-.29.24-.63.41-.98.5-.2.05-.7.08-.79-.18-.04-.11-.01-.24.03-.35.05-.14.14-.29.28-.33.1-.03.2,0,.3,0,.2.01.41-.05.57-.16.12-.08.22-.2.33-.29.12-.1.37-.25.52-.16.18.11.09.45.03.61-.07.19-.14.26-.29.38Z"/>
            <path class="cls-14" d="M28.39,21.84c-.21.46-.34.96-.56,1.41-.17.34-.5.89-.93.86-.18-.01-.35-.13-.43-.3,0-.02-.01-.03-.01-.05,0-.03.03-.04.05-.05.12-.07.24-.13.36-.21.38-.27.62-.68.82-1.1.09-.19.19-.38.29-.57.11-.22.19-.45.29-.66.11-.22.19-.47.19-.71,0-.29-.14-.6-.4-.69.06-.11.18-.17.3-.2.16-.04.35-.03.47.1.11.12.12.31.12.47,0,.65-.3,1.14-.56,1.71Z"/>
            <path class="cls-8" d="M26.24,21.31c0,.05.03.11.07.14.03.02.06.02.09.02.13,0,.25-.12.27-.25.03-.15-.05-.3-.14-.42-.09-.12-.21-.22-.27-.36-.03-.05-.04-.11-.04-.17,0-.1.08-.18.17-.21.09-.02.19.02.24.11.08.13.02.3-.05.43-.07.14-.13.21-.23.32-.09.1-.14.25-.12.39Z"/>
            <path class="cls-8" d="M26.89,20.52c-.02.1-.01.2.03.29"/>
            <path class="cls-8" d="M27.19,20.28c-.05.14-.05.3.01.44"/>
            <path class="cls-8" d="M27.44,20.19c-.04.14-.03.29.04.41"/>
          </g>
        </g>
        <path class="cls-11" d="M16.78,16.98c.47-.89.95-1.77,1.46-2.64.18-.31.36-.62.6-.88.24-.26.52-.46.81-.66.94-.66,1.89-1.32,2.83-1.99.14-.1.29-.2.46-.18.14.01.25.1.36.18.69.55,1.3,1.23,1.78,1.98.03.05.07.11.06.17,0,.05-.04.09-.08.13-.87.92-2.06,1.44-3.14,2.09-.09.06-.19.12-.26.2-.11.12-.16.28-.21.44-.4,1.23-.99,2.4-1.73,3.46-.23.33-.5.66-.86.83-.46.22-1.01.16-1.51.04-.53-.12-1.06-.28-1.58-.45-.32-.1-.65-.2-.94-.38-.07-.04-.13-.09-.17-.16-.04-.07-.03-.15-.03-.23.03-.64.22-1.27.53-1.82.13-.23.24-.48.52-.47.34,0,.76.23,1.09.33Z"/>
        <path class="cls-17" d="M18.47,4.07c-.09.09-.26.13-.36.16-.17.05-.34.08-.5.15-.09.04-.28.12-.08.16.24.05.51.02.75.03.04,0,.08,0,.11.03.04.03.05.08.05.13,0,.05,0,.11,0,.16s-.05.1-.1.12c-.05.02-.1.01-.15,0-.34-.03-.72-.02-1.04.11-.28.11-.58.52-.58.52,0,0-.08.22-.1.34-.18,1.06-.44,2.11-.78,3.13-.16.49-.32,1.01-.55,1.48-.25.49-.6.95-.92,1.39-.09.12-.14.25-.3.25-.14,0-.32-.13-.44-.19-.31-.16-.61-.34-.89-.55.67-.96,1.21-2.02,1.68-3.1.45-1.03.77-2.1,1.19-3.12.03-.06.05-.13.05-.2,0-.08-.06-.16-.09-.24-.07-.17-.02-.45.01-.63.08-.4.07-.79-.25-1.11-.05-.05-.12-.12-.11-.19.01-.09.13-.13.23-.12.19,0,.37.09.48.23.06.07.1.16.12.25.02.09,0,.15.09.21.05.04.11-.02.14-.07.19-.28.38-.57.57-.85.12-.18.3-.49.53-.29.04.03.07.06.1.1.01.01.03.03.03.05.01.03,0,.06,0,.09-.06.21-.23.36-.37.52-.1.12-.18.25-.24.39-.02.04-.03.08-.02.12.02.06.1.08.16.05.06-.02.1-.08.13-.13.16-.21.35-.4.55-.59.06-.06.12-.12.2-.15.14-.07.2,0,.28.1.05.06.09.13.07.21-.03.1-.18.2-.25.27-.12.12-.25.23-.39.34-.1.07-.21.15-.28.26-.02.03-.04.08-.02.11.02.04.06.06.11.06.04,0,.08-.02.12-.04.19-.09.38-.19.57-.28.11-.05.3-.18.41-.08.04.03.06.08.08.13.03.07.05.14.03.21-.01.03-.03.05-.05.07Z"/>
        <path class="cls-15" d="M12.23,8.75c.08.51-.09,1.03-.37,1.45-.18.27-.4.54-.4.87,0,.22.12.43.21.63.22.49.29,1.05.12,1.55-.17.5-.61.91-1.13.97-.24.02-.55.01-.65.24-.03.07-.03.15-.03.23-.03.53-.43.87-.71,1.26-.27.39-.68.68-1.12.85-.52.2-1.1.25-1.66.17-.74-.1-1.47-.42-1.96-.98-.49-.57-.71-1.41-.44-2.1.08-.21.21-.41.26-.64.06-.33-.05-.66-.07-.99-.04-.76.5-1.49,1.23-1.67.28-.07.58-.07.82-.23.3-.21.39-.61.6-.9.23-.31.61-.49.99-.47.14,0,.27.04.4.03.41-.03.5-.41.71-.69.23-.32.56-.6.94-.71.18-.05.36-.08.54-.07.33.02.78.18,1.09.3.36.14.56.56.62.92Z"/>
        <path class="cls-14" d="M12.77,12.1c-.02-.2-.4-.06-.38-.25.05-.55.58-1.43.8-1.93.04-.1.1-.2.19-.24.07-.03.14-.02.21,0,.66.12,1.2.63,1.69,1.1.11.1.22.21.26.35.09.27-.07.56-.24.79-.23.34-.46.68-.69,1.02-.19.28-.59,1.03-1.01.85-.38-.15-.67-.91-.77-1.27-.04-.14-.06-.27-.07-.42Z"/>
        <path class="cls-6" d="M13.41,9.66c.84.16,2.1,1.26,2.26,1.57"/>
        <path class="cls-17" d="M10.85,17.36c-.15-.37-.1-.46.24-.7.69-.49,1.46-.87,2.22-1.25.35-.17.7-.35,1.05-.52.49-.25.55,0,.78.37.27.46.49.95.64,1.48.02.08.07.18.03.25-.06.09-.59.34-.77.42-.35.16-.7.32-1.06.49-.48.23-.97.46-1.45.69-.28.14-.61.36-.81.36-.12,0-.13-.1-.25-.31-.23-.4-.43-.82-.61-1.25,0,0,0-.01,0-.02Z"/>
        <path class="cls-14" d="M10.71,17.6s.07.06.11.07c.38.15,4.99-1.13,4.86-1.32-.04-.05-.02-.13-.04-.19-.41-1.33-.63-2.76-1.58-3.84-.67-.77-1.78-.83-2.69-.55-.44.13-.77.4-1.13.69-.74.62-.5,1.23-.39,2.05.06.46.67,2.91.86,3.09Z"/>
        <polygon class="cls-17" points="11.13 11.94 12.76 11.71 12.6 10.45 10.97 10.68 11.13 11.94"/>
        <path class="cls-18" d="M12.6,10.45c-.33.05-.67.09-1,.14-.1.01-.25-.03-.29.09-.05.12-.02.27.05.38.08.12.2.2.33.26.3.13.64.17.95.07.09-.03.07-.08.06-.17-.01-.08-.02-.17-.03-.25-.02-.17-.04-.34-.06-.51Z"/>
        <path class="cls-17" d="M10.34,10.37c.2.42.42.74.95.81.32.05.65-.01.96-.1.33-.09.56-.2.82-.42.76-.65.38-1.58,0-2.31-.17-.33-.56-.59-.94-.67-.27-.06-.4-.02-.66.04-.42.1-.83.29-1.11.6-.22.24-.35.56-.34.89,0,.16.07.27.11.42.06.22.08.44.18.65.01.03.03.06.04.09Z"/>
        <path class="cls-15" d="M10.18,7.1c-.24.13-.45.3-.61.51-.18.23-.3.49-.39.77-.19.61-.16,1.3.13,1.87.29.57,1.78,1.41,1.78,1.41,0,0,.25-.87-.19-.78-.18.04-.3-.1-.38-.26-.1-.18-.13-.42,0-.59.09-.12.24-.16.37-.24.2-.12.21-.33.22-.54,0-.28-.05-.57-.16-.83-.04-.09-.09-.17-.08-.27.28-.05.5.42.56.65,0,.03.02.07.05.07.02,0,.04,0,.05,0,.22-.09.43-.2.63-.32-.15-.23-.28-.47-.38-.72.17.25.37.49.57.72.19-.05.38-.13.53-.26-.19-.14-.35-.32-.48-.51.19.24.46.43.75.53.11-.09.2-.21.25-.34-.03.1-.78-.53-.83-.58-.27-.23-.6-.41-.94-.49-.47-.11-.98-.03-1.41.2Z"/>
        <path class="cls-7" d="M14.16,13.5c0,.56-1.13.16-.89-.24.09-.14.32-.08.39.04.08.13.03.32-.08.43-.11.11-.26.16-.42.18-.24.03-.93-.07-.81-.46.07-.22.41-.04.5.06.1.11.12.3.02.41-.05.06-.13.09-.21.11-.23.07-.48.1-.69,0-.12-.05-.47-.4-.23-.5.16-.06.26.17.24.28-.03.18-.2.31-.38.34-.18.03-.36-.02-.53-.08"/>
        <path class="cls-14" d="M11.69,9.31c0,.08.06.14.14.14.08,0,.14-.06.14-.14,0-.08-.06-.14-.14-.14-.08,0-.14.06-.14.14Z"/>
        <path class="cls-14" d="M12.53,8.98c0,.08.06.14.14.14.08,0,.14-.06.14-.14s-.06-.14-.14-.14-.14.06-.14.14Z"/>
        <path class="cls-16" d="M12.85,9.55l-.75.23s.16.35.52.26c.28-.07.24-.5.24-.5Z"/>
        <path class="cls-15" d="M8.91,7.25s-.07,0-.1,0c-.07.03-.1.1-.12.17-.06.26.02.54.21.72.19.18.48.24.72.16.86-.29-.33-1.02-.72-1.05Z"/>
        <path class="cls-15" d="M11.86,6.08s.05-.05.08-.06c.07-.02.14,0,.2.05.21.15.33.43.3.69-.03.26-.21.5-.45.6-.84.35-.41-.99-.14-1.27Z"/>
        <path class="cls-17" d="M2.06,10.29c.12,0,.28-.06.38-.1.16-.06.31-.15.48-.2.1-.03.3-.08.16.08-.16.19-.38.33-.58.49-.03.02-.06.05-.07.09-.01.05.01.1.04.14.03.05.06.09.1.12.04.03.1.05.15.04.05-.01.09-.05.12-.08.25-.24.55-.46.89-.57.29-.09.77.04.77.04,0,0,.2.12.29.21.79.72,1.63,1.39,2.52,1.98.43.28.87.6,1.33.82.49.23,1.05.37,1.57.52.14.04.27.11.39,0,.1-.09.17-.31.23-.43.15-.32.27-.65.36-.99-1.12-.34-2.18-.83-3.21-1.39-.98-.53-1.88-1.18-2.84-1.71-.06-.03-.12-.07-.16-.13-.05-.07-.05-.16-.07-.24-.05-.18-.26-.37-.39-.49-.31-.26-.54-.58-.48-1.03,0-.08.02-.17-.03-.22-.07-.06-.18-.02-.26.05-.14.12-.23.3-.24.48,0,.1.02.19.06.28.04.08.09.13.06.22-.02.06-.1.05-.15.03-.32-.1-.64-.21-.97-.31-.2-.06-.53-.2-.6.1,0,.04-.02.09-.02.14,0,.02,0,.04,0,.06,0,.03.03.05.06.07.17.13.4.14.6.18.15.03.29.09.43.16.04.02.07.05.09.09.02.06-.03.12-.09.14-.06.02-.12,0-.18-.02-.26-.07-.52-.1-.79-.12-.08,0-.17-.01-.25,0-.15.03-.16.12-.16.26,0,.08,0,.16.07.21.08.06.26.05.36.05.17.02.34.03.51.02.13,0,.26-.02.37.03.04.01.08.04.09.08.01.04-.01.09-.05.11-.03.03-.08.04-.12.04-.21.05-.42.09-.62.14-.12.03-.35.04-.37.2,0,.05,0,.1.02.15.02.07.04.14.11.18.02.01.05.02.08.02Z"/>
        <path class="cls-14" d="M10.7,11.68c-.68-.39-1.35-.78-2.03-1.17-.03.23-.04.47-.09.7-.17.74-.51,1.45-.99,2.04.71.52,1.49.92,2.32,1.2.32.1.72.05.98-.17.27-.22.4-.77.44-1.1.05-.39.06-.93-.24-1.23-.09-.09-.2-.15-.3-.21-.03-.02-.06-.03-.09-.05Z"/>
        <path class="cls-6" d="M7.68,13.18c.6-.62.97-2.18.93-2.52"/>
        <path class="cls-7" d="M11.18,12.45c-.05.63-.34,1.24-.81,1.65"/>
        <path class="cls-11" d="M13.43,21.35c.9.66,2.31,1.14,3.42.95,1.38-.23,2.42-.91,3.61-1.68.06-.04.12-.08.19-.09.11-.01.21.05.31.11,1.06.68,2.55,1.57,3.7,2.06.55-.8.94-1.72,1.16-2.67.02-.09.04-.2,0-.28-.04-.1-.14-.15-.23-.2-.73-.39-1.46-.79-2.18-1.18-.62-.33-1.24-.66-1.89-.91-.42-.16-1.16-.62-1.6-.46-1.12.43-2.04,1.15-3.16,1.58-.05.02-.1.04-.16.03-.09-.02-.14-.12-.17-.21-.22-.56-.45-1.13-.67-1.69-1.35.71-2.7,1.42-4.05,2.13-.06.03-.13.07-.14.14-.01.05,0,.1.03.14.4.86,1.08,1.68,1.83,2.23Z"/>
        <path class="cls-7" d="M20.83,17.14c-.27-.18-.82-.22-1.14-.18s-.62.15-.92.27c-.33.13-.67.25-.99.4-.16.07-.81.25-.81.25,0,0-.93-.28-1.18-.34"/>
        <path class="cls-7" d="M20.23,17.77c-.09.26-.16.52-.21.78.2-.3.49-.54.83-.67-.09.33-.17.66-.26,1,.16-.34.33-.7.64-.9-.07.35-.11.71-.12,1.06"/>
        <path class="cls-7" d="M18.85,14.05c.24.35.58.62.97.78-.24-.33-.49-.69-.5-1.1.31.34.71.61,1.14.75-.3-.26-.61-.53-.75-.91.04.02.01.08-.02.07"/>
      </g>
      <g>
        <polygon class="cls-13" points="3.71 11.6 3.71 11.61 3.71 11.6 3.71 11.6"/>
        <path class="cls-13" d="M3.71,11.6s-.08-.01,0,0h0Z"/>
        <path class="cls-19" d="M1.9,9.18s0,.03,0,.03c0,0,0,.01,0,.02-.01.17.04.33.14.47.03.04.1,0,.07-.04-.09-.13-.14-.27-.13-.43,0-.01,0-.02,0-.02,0,0,0,0,0,0,.08-.23.31-.08.39.07.02.04.09,0,.07-.04-.12-.21-.43-.34-.53-.05Z"/>
        <path class="cls-19" d="M1.56,8.91c-.12-.06-.24-.03-.35.03-.04.02,0,.09.04.07.09-.05.18-.08.28-.03.04.02.08-.04.04-.07Z"/>
        <path class="cls-19" d="M1.73,9.59c-.09-.04-.16-.01-.23.05-.04.03.02.09.05.05.04-.04.09-.06.14-.04.05.02.08-.05.04-.07Z"/>
        <path class="cls-19" d="M2.54,9.67s0,.08-.02.11c-.02.02-.05-.01-.06-.03-.03-.04-.09.02-.05.05.04.05.1.08.15.05.06-.03.07-.12.06-.18,0-.05-.08-.05-.08,0Z"/>
        <path class="cls-9" d="M2.74,8.29c-.1-.11-.27.06-.16.16.17.17.31.35.48.52.1.11.27-.06.16-.16-.17-.17-.31-.35-.48-.52Z"/>
        <path class="cls-12" d="M2.31,9.59c-.23-.19-.46-.37-.69-.56-.11-.09-.28.07-.16.16.23.19.46.38.69.56.12.09.28-.07.16-.16Z"/>
        <path class="cls-4" d="M4.83,7.97c-.46.26-1.78.63-1.9,1.18-.04.17.14.26.34.31.18.05,1.98-.05,1.88-.3-.16-.37-.15-.82-.32-1.19Z"/>
        <path class="cls-2" d="M2.49,7.22c-.05-.72,0-1.47-.05-2.18,0,.03-1.55,0-1.56.32-.02.76.27,1.59.59,2.27.19.39.46.7.68,1.06.42.69.55-.13.47-.51-.07-.31-.1-.63-.12-.96Z"/>
        <path class="cls-1" d="M4.1,6.07c-.19-.19-.75-.18-.96-.12-.53.15-.54.8-.53,1.25.02.54-.1,1.3.25,1.75.05.07.65-1.42.73-1.54.21-.35.82-.81.55-1.28-.01-.02-.02-.03-.04-.05Z"/>
        <path class="cls-3" d="M5.05,7.24c-.37-.29-.75-.46-1.12-.16-.63.5-1.02,1.38-1.48,2.04l.09-.09c.17.68.57.3.93.01.44-.35.89-.67,1.35-1,.41-.29.67-.46.23-.81Z"/>
        <path class="cls-1" d="M2.04,8.26c-.08-.1-.89-1.07-.94-1.04C.78,7.44,0,7.97,0,8.4c0,.36.61.78.91.91.53.22,1.76.42,1.95-.37-.35-.16-.56-.37-.81-.68Z"/>
        <path class="cls-1" d="M3.1,9.18c-.33.57.97,1.32,1.42,1.4.98.16.87-.95.89-1.57-.2.02-.4.04-.6.07-.57.07-1.13.15-1.72.11Z"/>
        <path class="cls-3" d="M1.1,11.02c0,.64.97,1.01,1.4.57.09-.09.16-.22.18-.39.06-.39.17-1.32-.13-1.63-.1-.1-1.45,1.16-1.45,1.45Z"/>
        <path class="cls-1" d="M4.35,11.25c-.16-.23-.2-.5-.35-.79-.17-.34-.52-.71-.82-.96.06.05-.04,1.02-.03,1.22.02.31,0,.97.28,1.17.27.2.92-.23,1.19-.37-.13-.09-.22-.18-.28-.28Z"/>
        <path class="cls-1" d="M.07,9.99c-.02.45-.09,1.16.42,1.02.52-.15,1.14-.69,1.31-1.2-.16.04-1.73.23-1.73.18Z"/>
        <path class="cls-4" d="M2.64,9.52v.13c.69-.56,1.27-.95,1.47-1.9-.32-.18-.84-.09-1.2-.15-.31.5.06,1.36-.27,1.92Z"/>
        <path class="cls-4" d="M1.42,10.46c.37.19,1.02-.71,1.16-.97v-.09c-.61-.06-.99-.55-1.52-.76-.01.32.01,1.64.36,1.82Z"/>
        <path class="cls-4" d="M2.68,9.22c-.09.45-.26,1.83.26,2.1.31.16,1.08-.42,1.34-.58-.02-.01-.04-.04-.07-.06-.52-.52-1.02-.94-1.53-1.45Z"/>
        <path class="cls-5" d="M2.51,8.33c-.28.11-.58.4-.78.65.36.31.71.69,1.04,1.04.22-.14.44-.32.65-.49-.2.16-.84-1.09-.91-1.2Z"/>
      </g>
      <g>
        <polygon class="cls-13" points="17.35 6.57 17.36 6.57 17.35 6.57 17.35 6.57"/>
        <path class="cls-13" d="M17.35,6.57s-.08-.01,0,0h0Z"/>
        <path class="cls-19" d="M15.55,4.15s0,.03,0,.03c0,0,0,.01,0,.02-.01.17.04.33.14.47.03.04.1,0,.07-.04-.09-.13-.14-.27-.13-.43,0-.01,0-.02,0-.02,0,0,0,0,0,0,.08-.23.31-.08.39.07.02.04.09,0,.07-.04-.12-.21-.43-.34-.53-.05Z"/>
        <path class="cls-19" d="M15.21,3.87c-.12-.06-.24-.03-.35.03-.04.02,0,.09.04.07.09-.05.18-.08.28-.03.04.02.08-.04.04-.07Z"/>
        <path class="cls-19" d="M15.38,4.55c-.09-.04-.16-.01-.23.05-.04.03.02.09.05.05.04-.04.09-.06.14-.04.05.02.08-.05.04-.07Z"/>
        <path class="cls-19" d="M16.19,4.64s0,.08-.02.11c-.02.02-.05-.01-.06-.03-.03-.04-.09.02-.05.05.04.05.1.08.15.05.06-.03.07-.12.06-.18,0-.05-.08-.05-.08,0Z"/>
        <path class="cls-9" d="M16.39,3.25c-.1-.11-.27.06-.16.16.17.17.31.35.48.52.1.11.27-.06.16-.16-.17-.17-.31-.35-.48-.52Z"/>
        <path class="cls-12" d="M15.96,4.55c-.23-.19-.46-.37-.69-.56-.11-.09-.28.07-.16.16.23.19.46.38.69.56.12.09.28-.07.16-.16Z"/>
        <path class="cls-4" d="M18.48,2.94c-.46.26-1.78.63-1.9,1.18-.04.17.14.26.34.31.18.05,1.98-.05,1.88-.3-.16-.37-.15-.82-.32-1.19Z"/>
        <path class="cls-2" d="M16.14,2.18c-.05-.72,0-1.47-.05-2.18,0,.03-1.55,0-1.56.32-.02.76.27,1.59.59,2.27.19.39.46.7.68,1.06.42.69.55-.13.47-.51-.07-.31-.1-.63-.12-.96Z"/>
        <path class="cls-1" d="M17.75,1.03c-.19-.19-.75-.18-.96-.12-.53.15-.54.8-.53,1.25.02.54-.1,1.3.25,1.75.05.07.65-1.42.73-1.54.21-.35.82-.81.55-1.28-.01-.02-.02-.03-.04-.05Z"/>
        <path class="cls-3" d="M18.7,2.21c-.37-.29-.75-.46-1.12-.16-.63.5-1.02,1.38-1.48,2.04l.09-.09c.17.68.57.3.93.01.44-.35.89-.67,1.35-1,.41-.29.67-.46.23-.81Z"/>
        <path class="cls-1" d="M15.69,3.22c-.08-.1-.89-1.07-.94-1.04-.32.22-1.1.75-1.11,1.19,0,.36.61.78.91.91.53.22,1.76.42,1.95-.37-.35-.16-.56-.37-.81-.68Z"/>
        <path class="cls-1" d="M16.75,4.14c-.33.57.97,1.32,1.42,1.4.98.16.87-.95.89-1.57-.2.02-.4.04-.6.07-.57.07-1.13.15-1.72.11Z"/>
        <path class="cls-3" d="M14.75,5.99c0,.64.97,1.01,1.4.57.09-.09.16-.22.18-.39.06-.39.17-1.32-.13-1.63-.1-.1-1.45,1.16-1.45,1.45Z"/>
        <path class="cls-1" d="M18,6.21c-.16-.23-.2-.5-.35-.79-.17-.34-.52-.71-.82-.96.06.05-.04,1.02-.03,1.22.02.31,0,.97.28,1.17.27.2.92-.23,1.19-.37-.13-.09-.22-.18-.28-.28Z"/>
        <path class="cls-1" d="M13.72,4.95c-.02.45-.09,1.16.42,1.02.52-.15,1.14-.69,1.31-1.2-.16.04-1.73.23-1.73.18Z"/>
        <path class="cls-4" d="M16.29,4.48v.13c.69-.56,1.27-.95,1.47-1.9-.32-.18-.84-.09-1.2-.15-.31.5.06,1.36-.27,1.92Z"/>
        <path class="cls-4" d="M15.07,5.42c.37.19,1.02-.71,1.16-.97v-.09c-.61-.06-.99-.55-1.52-.76-.01.32.01,1.64.36,1.82Z"/>
        <path class="cls-4" d="M16.33,4.18c-.09.45-.26,1.83.26,2.1.31.16,1.08-.42,1.34-.58-.02-.01-.04-.04-.07-.06-.52-.52-1.02-.94-1.53-1.45Z"/>
        <path class="cls-5" d="M16.16,3.29c-.28.11-.58.4-.78.65.36.31.71.69,1.04,1.04.22-.14.44-.32.65-.49-.2.16-.84-1.09-.91-1.2Z"/>
      </g>
    </g>
  </g>
</svg>