<?xml version="1.0" encoding="UTF-8"?>
<svg id="_レイヤー_2" data-name="レイヤー 2" xmlns="http://www.w3.org/2000/svg" viewBox="0 0 20.62 33.09">
  <defs>
    <style>
      .cls-1 {
        fill: #3b604b;
      }

      .cls-2 {
        fill: #231815;
      }

      .cls-3 {
        fill: #fff;
      }

      .cls-4 {
        fill: #6f6d93;
      }

      .cls-5 {
        fill: #c6bed7;
      }
    </style>
  </defs>
  <g id="design">
    <g>
      <path class="cls-3" d="M10.17,11.03c.37.33.75.67,1.12,1.01l.1.09c.19.17.39.35.57.56.02.02.04.05.06.07.01,0,.02,0,.04,0h1.04c-.14-.1-.28-.21-.41-.34-.2-.2-.36-.47-.45-.75,0-.03-.02-.05-.02-.08,0,0,0,0,0,0-.02-.07-.03-.13-.04-.2-.77-.2-1.31-.79-1.79-1.37-.09-.11-.17-.22-.26-.33-.01.02-.02.05-.04.07-.11.22-.26.5-.46.78.07.06.54.48.54.48Z"/>
      <g>
        <path class="cls-2" d="M13.56,14.86c.24.41.49.84.55,1.31.01.08.02.17,0,.25s-.07.16-.15.19c-.14.06-.31-.04-.39-.17s-.11-.29-.18-.43l.18-1.14Z"/>
        <path class="cls-5" d="M18.76,13.24c-.06-.27-.21-.51-.42-.69-.22-.19-.46-.36-.7-.53-.52-.38-1.06-.74-1.59-1.11-.41-.28-.81-.57-1.25-.8-.2-.11-.41-.2-.63-.24-.2-.04-.39-.01-.57.07-.22.1-.42.24-.57.43-.11.14-.2.31-.25.48-.09.2-.09.42-.03.63,0,0,0,0,0,.01,0,0,0,.01,0,.02.06.2.17.39.32.53.19.19.41.34.64.47.24.14.49.27.74.4.57.3,1.15.58,1.74.85.3.14.6.27.9.41.15.07.25.1.41.14.13.04.35.04.49.01.24-.05.38-.16.54-.35.18-.21.29-.47.23-.73Z"/>
        <g>
          <path class="cls-2" d="M18.07,14.29c.14.17.43.34.68.34.21,0,.39-.11.5-.32.09-.18.04-.4-.08-.55-.15-.17-.31-.28-.46-.37-.16-.09-.39-.03-.52.11-.21.23-.3.55-.11.78Z"/>
          <path class="cls-5" d="M20.52,14.59c-.2-.42-.59-.81-.98-.96-.17-.07-.36-.04-.5.07-.2.17-.37.41-.48.7-.04.11-.07.24-.05.37.04.2.19.32.34.41.46.28.99.5,1.45.24.16-.09.32-.28.31-.51,0-.11-.04-.22-.09-.31Z"/>
          <g>
            <path class="cls-2" d="M20.62,15.98c.01-.18,0-.36-.03-.51-.02-.14-.04-.29-.16-.39-.11-.09-.27-.09-.39,0,0,0,0,0-.01.01,0-.03-.02-.05-.02-.08-.05-.14-.13-.29-.3-.31-.07,0-.14.02-.19.07-.03.03-.06.07-.07.11-.02-.05-.05-.1-.08-.15-.07-.08-.19-.12-.29-.09-.12.03-.19.15-.2.26-.05.19-.08.4-.08.6,0,.14.01.3.09.42.08.12.23.17.37.11.09-.04.14-.11.18-.18,0,.05.02.1.04.15.04.11.13.21.25.22.09.01.17-.02.23-.08.05.11.15.2.28.22.14.02.26-.07.33-.18.04-.06.05-.13.06-.21Z"/>
            <path class="cls-2" d="M19.63,14.09c-.08.04-.15.11-.17.2-.06.2.08.43.18.6.12.21.23.4.38.61.08.1.27.18.38.12.06-.03.12-.1.13-.16.06-.41-.17-.9-.42-1.22-.1-.12-.26-.2-.42-.16-.02,0-.04.01-.05.02Z"/>
            <path class="cls-4" d="M19.57,14.84c.09.26.24.5.45.69.09.08.21.17.34.13.12-.04.19-.17.21-.29,0-.06-.08-.08-.08-.02-.02.1-.08.22-.19.23-.11,0-.21-.1-.28-.17-.16-.17-.28-.37-.36-.59-.02-.05-.1-.03-.08.02h0Z"/>
            <path class="cls-4" d="M19.48,15.81c0-.3,0-.6.03-.89,0-.06-.08-.06-.09,0-.03.3-.04.6-.03.89,0,.06.09.06.09,0h0Z"/>
            <path class="cls-4" d="M20.03,16.1c.05-.18.08-.38.07-.57,0-.06-.09-.06-.09,0,0,.18-.01.37-.07.54-.02.05.07.08.08.02h0Z"/>
          </g>
        </g>
        <path class="cls-5" d="M12.35,10.87c.5.12,1.12-.03,1.38-.5.31-.58-.01-1.22-.28-1.74-.59-1.14-1.24-2.3-2.21-3.16-.24-.21-.49-.41-.77-.57-.43-.24-.91-.26-1.29.08-.47.42-.35.94-.17,1.46.19.59.45,1.15.75,1.69.31.54.67,1.06,1.07,1.54.41.49.89,1.04,1.53,1.19Z"/>
        <path class="cls-2" d="M12.81,10.89c.22-.45.59-.83,1.06-1.01.05-.02.03-.11-.02-.08-.49.19-.89.58-1.12,1.05-.02.05.05.1.08.04h0Z"/>
        <g>
          <path class="cls-5" d="M10.2,30.53c0-.09.07-.15.13-.18.06-.03.14-.02.2-.02.24,0,.46,0,.71,0,.15,0,.31.03.45.1.1.05.17.14.25.21.14.13.27.24.45.31.52.23,1.04.46,1.55.73.13.07.22.23.2.39-.01.16-.12.26-.26.31-.17.06-.45.06-.64.07-.68.02-1.76,0-2.44-.05-.36-.02-.55-.05-.62-.21-.05-.1-.05-.25-.04-.33,0-.02.04-.91.06-1.33Z"/>
          <path class="cls-2" d="M10.34,30.36c-.04-.07-.06-.15-.06-.23,0-.16.05-.33.19-.41.26-.16.71-.11.93.12.1.11.13.27.12.42,0,.21-.14.28-.33.32-.03,0-.05,0-.08.01-.2.03-.43.01-.62-.07-.07-.03-.12-.09-.16-.15Z"/>
          <path class="cls-2" d="M14.03,31.85c-.19.16-.47.17-.7.17-.26,0-.52,0-.78,0-.54,0-1.08-.02-1.62-.07-.25-.02-.5-.04-.74-.09-.06,0-.08.08-.02.08.48.08.98.11,1.46.13.55.02,1.11.03,1.67.02.27,0,.58-.02.79-.2.04-.04-.02-.1-.06-.06h0Z"/>
        </g>
        <path class="cls-5" d="M10.14,29.98c.31.28,1.02.37,1.36.04.1-.1.15-.23.18-.37.04-.23.04-.41.05-.65.01-.27.02-.53.03-.8.02-.53.03-1.06.04-1.59.02-1.22.05-2.46-.2-3.66-.05-.25-.12-.51-.26-.73-.17-.27-.44-.43-.75-.47-.7-.09-1.4.23-1.77.83-.35.57-.39,1.26-.29,1.91.05.37.15.74.24,1.11.1.39.2.77.3,1.16.1.39.2.78.3,1.17.1.38.19.76.29,1.14.09.33.22.68.48.91Z"/>
        <path class="cls-2" d="M8.82,22.72c.23.12.39.34.51.57.13.24.21.5.26.77.13.7.06,1.42-.07,2.12-.08.4-.17.8-.26,1.2-.01.06.07.08.08.02.16-.72.35-1.45.4-2.19.04-.64,0-1.33-.29-1.91-.13-.26-.31-.53-.57-.66-.05-.03-.09.05-.04.08h0Z"/>
        <path class="cls-5" d="M7.51,20.09c-.15-.38-.28-.77-.41-1.15-.17-.49-.33-.98-.48-1.48-.15-.5-.27-1-.37-1.52-.08-.43-.13-.87-.11-1.3.02-.34.08-.68.21-1,.13-.3.31-.57.54-.79.12-.12.25-.22.39-.31,0,0,0,0,.01,0,.51-.33,1.2-.34,1.76-.08.8.38,1.32,1.19,1.59,2.03.16.5.24,1.01.31,1.52.07.53.13,1.05.2,1.58.07.53.13,1.07.2,1.6.03.23.05.47.06.7.02.21.03.43.04.64.01.34.02.68,0,1.01-.01.29-.06.59-.26.81-.2.22-.49.32-.78.33-.31.01-.61-.08-.89-.21-.37-.17-.77-.37-1.08-.64-.21-.19-.35-.45-.47-.7-.17-.35-.31-.68-.45-1.04Z"/>
        <path class="cls-2" d="M10.98,16.81c-.99.53-2.12.79-3.24.85-.32.02-.64.02-.96,0-.06,0-.06.09,0,.09,1.14.05,2.31-.1,3.39-.49.29-.11.58-.23.85-.38.05-.03,0-.1-.04-.08h0Z"/>
        <path class="cls-2" d="M9.3,12.03c-.08-.19-.27-.31-.47-.34-.02,0-.03,0-.05,0,0,0-.01,0-.02,0h0s-.06,0-.09,0h-3.29s-.07,0-.1,0c-.18.01-.35.09-.46.23-.13.16-.11.34-.12.54-.02.25-.02.86.05,1.07.13.43.47,1.45,1.16,1.92.26.17.53.36.84.37,0,0,0,0,.01,0h.52s0,0,0,0c.27,0,.62.04.83-.12.32-.24.52-.6.66-.96.16-.41.27-.85.4-1.27.07-.23.1-.5.13-.73.03-.2.09-.5,0-.69Z"/>
        <path class="cls-4" d="M9.12,12.53c-.56.09-1.13.09-1.7.06-.6-.02-1.2-.06-1.79-.17-.27-.05-.55-.11-.8-.23-.05-.02-.1.05-.04.08.22.1.46.17.69.21.29.06.58.1.88.13.61.06,1.23.09,1.84.08.32,0,.64-.02.95-.08.06,0,.03-.09-.02-.08h0Z"/>
        <path class="cls-4" d="M5.09,9.56v2.29c0,.19.84.35,1.88.35s1.88-.16,1.88-.35v-2.29h-3.76Z"/>
        <path class="cls-5" d="M10.35,5.89c-.11-.58-.3-1.04-.51-1.21-.31-.25-1.54-.78-1.92-.81-.53-.04-1.01-.03-1.46.03-.63.08-1.4.27-1.98.64-.53.34-.86.79-.9,1.33-.04.61,0,1.23.08,1.83.09.61.23,1.22.42,1.81.2.6.42,1.14.97,1.52.41.29,1.98.2,2.05.2.58-.02,1.05-.05,1.46-.36.47-.34.78-.85,1.04-1.35.26-.51.51-1.04.66-1.6.07-.27.13-.64.16-.92.03-.33,0-.81-.07-1.12Z"/>
        <path class="cls-2" d="M5.65,4.16c.41.24.79.56,1.06.95.13.19.25.39.39.57.12.14.26.25.41.34.3.17.69.28,1.01.12.31-.16.47-.54.47-.88,0-.49-.25-.94-.55-1.31-.04-.04-.1.02-.06.06.26.32.49.71.52,1.14.03.33-.08.7-.37.89-.3.19-.68.08-.96-.08-.15-.09-.28-.19-.4-.33-.15-.17-.26-.37-.39-.56-.28-.4-.67-.74-1.1-.98-.05-.03-.09.05-.04.08h0Z"/>
        <path class="cls-2" d="M9.67,9.35c.04-.38.04-.8-.17-1.13-.18-.28-.48-.47-.82-.43-.36.05-.64.32-.86.58-.24.29-.43.61-.58.96-.17.39-.27.81-.31,1.23,0,.06.08.06.09,0,.06-.71.32-1.39.73-1.96.2-.27.44-.56.76-.68.15-.06.32-.07.47-.02.15.05.27.15.37.27.27.33.27.78.22,1.18,0,.06.08.06.09,0h0Z"/>
        <path class="cls-2" d="M9.1,22.33c.24.16.54.22.82.26.29.04.59.04.86-.07.18-.07.35-.16.49-.28.04-.04-.02-.1-.06-.06-.23.19-.53.32-.82.34-.28.02-.58-.02-.85-.1-.14-.04-.28-.09-.4-.17-.05-.03-.09.04-.04.08h0Z"/>
        <path class="cls-4" d="M6.61,3.68c.06-.11.11-.23.16-.35.1-.25.18-.5.23-.76,0-.01,0-.03.01-.04,0-.02.02-.03.04-.04.18-.13.41-.06.59,0,.21.08.4.19.5.38.11.2.11.41.08.63-.01.1,0,.21.01.31,0,.05.02.1.03.15,0,.01,0,.03.01.04.04.1.07.23.06.35,0,.12-.07.23-.18.29-.14.08-.34.07-.48.04-.49-.11-.89-.34-1.14-.69h0s0-.01-.01-.02c-.06-.1.03-.21.08-.3Z"/>
        <g>
          <path class="cls-5" d="M6.94,2.91c.12.19.28.36.45.52.47.48.92.75,1.26.81.09.03.16,0,.27-.01.25-.11.56-.21.67-.41.29-.57.5-1.19.61-1.82.06-.34.1-.72-.05-1.03-.24-.52-.86-.81-1.39-.91-.36-.07-.74-.08-1.1,0-.32.07-.61.23-.81.5-.28.38-.33.97-.27,1.43.05.33.17.65.35.93Z"/>
          <path class="cls-2" d="M6.79,1.76c.01.19.07.48.28.55.2.07.35-.16.41-.32.09-.24.1-.55,0-.79-.07-.16-.24-.31-.41-.19-.1.07-.16.18-.2.29-.05.15-.07.31-.06.46,0,.06.09.06.09,0-.01-.21.02-.45.16-.62.04-.05.1-.1.17-.09.07,0,.12.07.15.13.11.19.11.44.07.64-.03.14-.11.39-.28.4-.08,0-.14-.06-.18-.13-.06-.1-.08-.23-.09-.34,0-.06-.09-.06-.09,0Z"/>
          <path class="cls-2" d="M10.28,1.8c.02-.28-.03-.69-.41-.64-.13.01-.25.08-.39.08-.17.01-.35-.04-.51-.11-.16-.08-.28-.17-.45-.18-.23-.02-.45.11-.57.3-.16.27-.17.62-.19.93-.02.33,0,.66.07.98.09.35.24.78.55.98.18.11.41.16.61.13.45-.07.76-.63.93-1.01.12-.27.2-.54.26-.83.04-.21.07-.42.09-.64Z"/>
          <path class="cls-2" d="M7.72,1.78s0,0,0,0c0,0,0,0,0,0Z"/>
        </g>
        <path class="cls-5" d="M7.34,9.06c-.18-.59-.51-1.26-.72-1.84-.24-.69-.49-1.42-.97-1.99-.27-.32-.7-.6-1.14-.5-.43.11-.76.48-.94.88-.38.89-.02,1.99.3,2.85.22.58.51,1.13.87,1.65.36.52.75,1.13,1.46.81.23-.1.59-.32.78-.49.44-.39.5-.79.35-1.33,0-.01,0-.02,0-.03Z"/>
        <path class="cls-2" d="M9.89,4.79c.27.39.4.86.46,1.33.06.51.02,1.03-.09,1.54-.07.3-.15.6-.25.89-.02.05.07.08.08.02.17-.53.32-1.07.36-1.63.04-.49,0-1-.15-1.47-.08-.26-.19-.51-.34-.73-.03-.05-.11,0-.08.04h0Z"/>
        <path class="cls-2" d="M3.71,8c.18.6.44,1.18.75,1.72.14.25.3.5.47.73.13.18.28.35.48.47.24.14.51.19.79.18.06,0,.06-.09,0-.09-.24.01-.48-.02-.7-.14-.19-.1-.35-.26-.48-.44-.33-.46-.62-.97-.86-1.48-.14-.31-.27-.64-.36-.97-.02-.05-.1-.03-.08.02h0Z"/>
        <path class="cls-2" d="M7.39,9.96c.12-.22.12-.47.06-.71-.06-.27-.18-.53-.28-.79-.21-.55-.43-1.09-.65-1.64-.11-.26-.22-.53-.33-.79-.07-.17-.14-.35-.24-.51-.17-.27-.42-.5-.72-.61-.48-.18-.98,0-1.39.26-.05.03,0,.11.04.08.36-.24.79-.4,1.22-.29.3.08.56.29.73.55.09.13.15.27.21.41.11.26.22.51.32.77.21.52.42,1.04.63,1.56.11.29.24.57.33.87.08.26.12.55-.01.79-.03.05.05.09.08.04h0Z"/>
        <g>
          <g>
            <path class="cls-5" d="M.05,32.02s.3-.92.43-1.32c.03-.09.12-.14.19-.15.06-.01.14.01.2.03.22.08.43.16.65.24.14.05.25.11.36.22.08.08.17.2.22.29.06.11.14.21.22.29.09.09.2.15.32.22.31.17.61.3.93.47.14.07.22.22.21.39-.01.16-.11.27-.25.32-.17.06-.45.08-.64.08-.42.01-.85,0-1.27-.07-.34-.06-.65-.15-.97-.26-.21-.07-.63-.15-.67-.42-.02-.11.02-.25.05-.33Z"/>
            <path class="cls-2" d="M.68,30.59c0-.06,0-.13.02-.19.03-.09.08-.18.14-.26.07-.07.16-.13.26-.15.32-.06.72.13.82.4.03.08.02.18,0,.26-.01.05-.03.1-.05.15-.02.04-.04.1-.08.13-.04.03-.08.04-.13.05-.05,0-.1.01-.15.01-.15,0-.3-.02-.45-.07-.12-.04-.23-.1-.32-.19-.04-.05-.06-.1-.07-.16Z"/>
            <path class="cls-2" d="M3.69,32.48c-.15.14-.38.17-.57.19-.23.02-.45.02-.68,0-.52-.02-1.02-.1-1.51-.25-.28-.08-.56-.18-.82-.31-.05-.03-.09.05-.04.08.24.12.49.21.74.29.26.08.51.15.78.19.5.09,1.01.11,1.52.08.23-.02.48-.05.65-.22.04-.04-.02-.1-.06-.06h0Z"/>
          </g>
          <path class="cls-5" d="M2.79,19.98c.01-.41.04-.82.06-1.24.03-.53.07-1.05.13-1.57.06-.52.13-1.05.25-1.56.1-.43.21-.86.4-1.26.15-.31.34-.61.59-.85.24-.23.52-.41.82-.53.16-.06.32-.11.49-.14,0,0,.01,0,.02,0,.61-.11,1.27.15,1.7.61.61.66.78,1.63.71,2.51-.04.53-.16,1.04-.3,1.55-.14.52-.29,1.04-.44,1.56-.15.52-.29,1.05-.44,1.57-.06.23-.13.46-.22.68-.07.21-.14.41-.21.62-.12.32-.25.64-.4.95-.12.26-.29.53-.56.66-.27.13-.59.11-.87.01-.3-.11-.63-.3-.86-.51-.31-.29-.4-.43-.58-.8-.13-.26-.25-.79-.26-1.08-.03-.39-.03-.76-.02-1.15Z"/>
          <path class="cls-5" d="M.75,29.99c.13.41.72.86,1.18.74.14-.04.26-.13.35-.24.16-.18.25-.34.38-.55.15-.23.3-.46.44-.69.29-.46.58-.93.86-1.39.65-1.07,1.32-2.15,1.72-3.35.08-.25.16-.51.15-.78-.01-.33-.16-.61-.42-.81-.57-.44-1.36-.52-2-.18-.6.32-1,.92-1.25,1.54-.15.36-.25.73-.36,1.1-.11.39-.22.79-.34,1.18-.11.4-.23.8-.34,1.19-.11.39-.23.77-.33,1.16-.09.34-.16.71-.05,1.06Z"/>
          <path class="cls-2" d="M3.35,22.86c.16.26.17.59.15.88-.03.31-.12.61-.24.9-.27.64-.69,1.19-1.14,1.7-.26.3-.54.58-.81.87-.04.04.02.1.06.06.49-.52.99-1.04,1.41-1.62.39-.54.71-1.17.8-1.83.04-.34.04-.72-.15-1.01-.03-.05-.11,0-.08.04h0Z"/>
          <path class="cls-2" d="M7.52,17.84c-1.19-.08-2.37-.34-3.49-.76-.32-.12-.63-.25-.93-.4-.05-.02-.1.05-.04.08,1.09.52,2.26.87,3.45,1.05.34.05.68.09,1.02.11.06,0,.06-.08,0-.09h0Z"/>
          <path class="cls-2" d="M3.38,22.84c.51.41,1.11.8,1.79.73.19-.02.37-.07.55-.15.05-.02,0-.1-.04-.08-.38.17-.8.19-1.19.06-.38-.13-.73-.37-1.04-.62-.04-.04-.11.03-.06.06h0Z"/>
        </g>
        <path class="cls-2" d="M7.93,15.79c-.15.87-.34,1.74-.58,2.59-.07.24-.14.49-.21.73-.02.05.07.08.08.02.26-.85.47-1.71.65-2.57.05-.25.1-.5.14-.74,0-.06-.08-.08-.08-.02h0Z"/>
        <path class="cls-2" d="M4.03,8.64c.12-.41.44-.73.8-.95.37-.22.8-.36,1.23-.36.21,0,.43.04.62.14.05.03.09-.05.04-.08-.37-.2-.83-.18-1.22-.08-.44.11-.87.34-1.19.68-.17.18-.3.39-.36.63-.02.05.07.08.08.02h0Z"/>
        <path class="cls-2" d="M10.19,8.7c.11-.45.39-.84.76-1.11.32-.23.7-.4,1.09-.46.15-.02.32-.03.47.02.05.02.08-.07.02-.08-.14-.04-.29-.04-.44-.03-.19.02-.38.07-.55.14-.42.16-.81.42-1.08.77-.17.22-.29.47-.36.74-.01.06.07.08.08.02h0Z"/>
        <path class="cls-5" d="M13.58,16.54s0,0,.01,0c0,0,0,0,0,0,0,0,0,0,0,0Z"/>
        <path class="cls-5" d="M13.67,16.6s.01.01.02.02c0,0-.01-.02-.02-.02Z"/>
        <path class="cls-4" d="M13.66,15.75c.04.12.05.24.03.36,0,.02.02.04.04.04.03,0,.04-.02.04-.04.01-.13,0-.26-.04-.38-.02-.05-.1-.03-.08.02h0Z"/>
        <rect class="cls-1" x="11.88" y="13.32" width="8.34" height="4.88" rx=".18" ry=".18"/>
        <path class="cls-2" d="M11.99,16.31c.58-.6,1.18-1.18,1.79-1.75.18-.16.35-.32.53-.48.04-.04-.02-.1-.06-.06-.63.55-1.23,1.12-1.82,1.71-.17.17-.34.34-.5.51-.04.04.02.1.06.06h0Z"/>
        <path class="cls-2" d="M11.97,14.47c.4-.35.8-.7,1.2-1.05.04-.04-.02-.1-.06-.06-.4.35-.8.7-1.2,1.05-.04.04.02.1.06.06h0Z"/>
        <g>
          <path class="cls-2" d="M15,13.42c.7,1.23,1.4,2.47,2.1,3.7.2.35.4.7.6,1.05.03.05.1,0,.08-.04-.7-1.23-1.4-2.47-2.1-3.7-.2-.35-.4-.7-.6-1.05-.03-.05-.1,0-.08.04h0Z"/>
          <path class="cls-2" d="M16.87,13.41c.69,1.24,1.37,2.47,2.06,3.71.19.35.38.69.58,1.04.03.05.1,0,.08-.04-.69-1.24-1.37-2.47-2.06-3.71-.19-.35-.38-.69-.58-1.04-.03-.05-.1,0-.08.04h0Z"/>
          <path class="cls-2" d="M18.75,13.42c.35.65.7,1.29,1.04,1.94.1.18.2.37.3.55.03.05.1,0,.08-.04-.35-.65-.7-1.29-1.04-1.94l-.3-.55s-.1,0-.08.04h0Z"/>
          <path class="cls-2" d="M14.24,15.58c.4.67.79,1.34,1.19,2.02.11.19.23.39.34.58.03.05.1,0,.08-.04-.4-.67-.79-1.34-1.19-2.02-.11-.19-.23-.39-.34-.58-.03-.05-.1,0-.08.04h0Z"/>
        </g>
        <path class="cls-2" d="M14.27,13.39v4.74c0,.06.09.06.09,0v-4.74c0-.06-.09-.06-.09,0h0Z"/>
        <path class="cls-2" d="M11.24,14.67c.27.32.94.48,1.18.03.09-.18.04-.4-.08-.55-.15-.17-.41-.37-.63-.44-.18-.05-.37-.01-.5.13-.21.23-.15.6.03.83Z"/>
        <path class="cls-5" d="M11.9,13.74c-.06-.25-.17-.47-.36-.68-.19-.22-.41-.41-.63-.61-.47-.44-.96-.86-1.44-1.29-.37-.33-.74-.66-1.15-.94-.18-.13-.38-.25-.6-.32-.19-.06-.39-.06-.58,0-.23.07-.45.19-.62.36-.13.13-.23.28-.3.45-.11.19-.14.41-.11.63,0,0,0,0,0,.01,0,0,0,.01,0,.02.04.21.13.41.25.57.16.21.37.39.58.55.22.17.45.33.69.49.53.36,1.07.71,1.62,1.05.28.17.56.34.84.51.14.08.28.16.43.23.13.05.26.09.4.08.24-.02.48-.12.64-.35.16-.22.38-.47.32-.74Z"/>
        <path class="cls-2" d="M9.03,13.95c.51.35,1.06.65,1.63.88.05.02.08-.06.02-.08-.57-.23-1.11-.53-1.61-.87-.05-.03-.09.04-.04.08h0Z"/>
        <path class="cls-2" d="M6.19,11.21c.22-.61.74-1.12,1.38-1.28.05-.01.03-.1-.02-.08-.67.17-1.21.7-1.44,1.35-.02.05.07.08.08.02h0Z"/>
        <path class="cls-2" d="M7.42,9.9c.51.08.98.31,1.34.67.04.04.1-.02.06-.06-.37-.37-.86-.62-1.38-.7-.06,0-.08.08-.02.08h0Z"/>
        <g>
          <g>
            <path class="cls-2" d="M13.66,16.45c.01-.18.07-.33.04-.49-.02-.14-.04-.3-.16-.4-.11-.1-.27-.09-.39,0,0,0,0,0-.01.01,0-.03-.02-.06-.02-.08-.05-.14-.13-.3-.3-.32-.07,0-.14.02-.19.07-.03.04-.06.07-.07.12-.02-.05-.05-.11-.08-.15-.07-.08-.19-.13-.29-.1-.12.04-.19.15-.2.27-.05.2-.08.41-.08.62,0,.15.01.31.09.43.08.12.23.18.37.12.09-.04.14-.11.18-.19,0,.05.02.11.04.16.04.11.13.22.25.23.09.01.17-.02.23-.08.05.11.15.21.28.22.14.02.3-.1.3-.23,0-.09,0-.14.01-.22Z"/>
            <path class="cls-4" d="M12.6,16.34c0-.11,0-.23.01-.34,0-.02-.02-.04-.04-.04-.03,0-.04.02-.04.04-.01.11-.01.23-.01.34,0,.06.09.06.09,0h0Z"/>
            <path class="cls-4" d="M13.15,16.63c.06-.2.09-.41.08-.61,0-.06-.09-.06-.09,0,0,.2-.02.4-.08.59-.02.05.07.08.08.02h0Z"/>
          </g>
          <path class="cls-5" d="M13.68,15.01c-.21-.41-.61-.77-1.01-.9-.18-.06-.37-.02-.52.1-.21.18-.38.44-.49.73-.04.12-.08.25-.05.37.04.2.2.31.35.39.47.25,1.02.43,1.49.15.17-.1.33-.3.32-.53,0-.11-.05-.21-.09-.31Z"/>
        </g>
      </g>
    </g>
  </g>
</svg>