<?xml version="1.0" encoding="UTF-8"?>
<svg id="_レイヤー_2" data-name="レイヤー 2" xmlns="http://www.w3.org/2000/svg" xmlns:xlink="http://www.w3.org/1999/xlink" viewBox="0 0 23.12 29">
  <defs>
    <style>
      .cls-1 {
        fill: #0092c6;
      }

      .cls-2 {
        fill: #cf2e8a;
      }

      .cls-3 {
        stroke: #e85f9d;
      }

      .cls-3, .cls-4, .cls-5, .cls-6, .cls-7 {
        fill: none;
        stroke-linecap: round;
      }

      .cls-3, .cls-4, .cls-6 {
        stroke-miterlimit: 10;
      }

      .cls-3, .cls-5, .cls-7 {
        stroke-width: .11px;
      }

      .cls-8 {
        fill: #f4b3b8;
      }

      .cls-4 {
        stroke: #f3f1e7;
        stroke-width: .14px;
      }

      .cls-9 {
        fill: #c7e6e9;
      }

      .cls-10 {
        clip-path: url(#clippath-1);
      }

      .cls-11 {
        fill: #f3b1b9;
      }

      .cls-12 {
        fill: #231815;
      }

      .cls-13 {
        fill: #fff;
      }

      .cls-5 {
        stroke: #cc4416;
      }

      .cls-5, .cls-7 {
        stroke-linejoin: round;
      }

      .cls-6 {
        stroke: #08111e;
        stroke-width: .13px;
      }

      .cls-7 {
        stroke: #fff;
      }

      .cls-14 {
        fill: #00516f;
      }

      .cls-15 {
        fill: #f3f1e7;
      }

      .cls-16 {
        clip-path: url(#clippath);
      }
    </style>
    <clipPath id="clippath">
      <path class="cls-1" d="M20.76,21.09s.31,1.57,1.37,2.33c1.06.76.11-4.43-.19-4.7-.29-.26-1.49-.5-1.38.47.11.97.2,1.89.2,1.89Z"/>
    </clipPath>
    <clipPath id="clippath-1">
      <path class="cls-1" d="M3.23,26.14s-1.51-.03-2.44.9c-.93.93,4.05,1.11,4.36.86.31-.25.78-1.43-.13-1.54-.91-.1-1.78-.22-1.78-.22Z"/>
    </clipPath>
  </defs>
  <g id="design">
    <g>
      <path class="cls-13" d="M7.52,4.66s-.8,2.54-.68,3.14l2.51.35s.68-1.73.3-2.31c-.38-.58-1.77-2.44-2.14-1.19Z"/>
      <g>
        <polygon class="cls-8" points="19.35 20.81 21.04 20.96 20.89 19.13 18.94 18.95 19.35 20.81"/>
        <g>
          <g>
            <path class="cls-1" d="M20.76,21.09s.31,1.57,1.37,2.33c1.06.76.11-4.43-.19-4.7-.29-.26-1.49-.5-1.38.47.11.97.2,1.89.2,1.89Z"/>
            <g class="cls-16">
              <path class="cls-15" d="M22.48,24.2s-.53-5.48-.96-6.01c-.43-.53,1.53.69,1.53.69,0,0,.18,5.07-.02,5.08s-.55.24-.55.24Z"/>
            </g>
          </g>
          <path class="cls-4" d="M21.09,22.2s.17-.25.39-.17"/>
          <path class="cls-4" d="M20.97,21.86s.14-.3.46-.24"/>
        </g>
        <polygon class="cls-8" points="3.8 24.74 3.3 26.45 5.01 26.71 5.59 24.74 3.8 24.74"/>
        <g>
          <g>
            <path class="cls-1" d="M3.23,26.14s-1.51-.03-2.44.9c-.93.93,4.05,1.11,4.36.86.31-.25.78-1.43-.13-1.54-.91-.1-1.78-.22-1.78-.22Z"/>
            <g class="cls-10">
              <path class="cls-15" d="M0,27.22s5.15.68,5.73.35c.58-.33-.97,1.43-.97,1.43,0,0-4.7-.96-4.67-1.16.03-.2-.1-.62-.1-.62Z"/>
            </g>
          </g>
          <path class="cls-4" d="M2.14,26.23s.2.23.07.44"/>
          <path class="cls-4" d="M2.48,26.18s.24.21.12.53"/>
        </g>
        <path class="cls-14" d="M7.3,13.75s-3,6.38-3.79,11.56l1.9.38s3.42-9.27,5.04-11.28c1.61-2.01-2.75-1.53-3.14-.67Z"/>
        <path class="cls-14" d="M10.01,15.75s1.62,3.07,2.89,3.85,6.9,1.27,6.9,1.27l-.03-1.88s-5-1.01-5.47-1.78-1.23-2.7-1.23-2.7c0,0-2.81.13-3.06,1.24Z"/>
        <path class="cls-1" d="M8.11,10.52s-1.71,3.04-1.81,4.8c0,0,1.84,1.04,3.52.99,0,0,1.48-.4,1.43-1.55-.05-1.15-1.56-6-3.14-4.24Z"/>
        <path class="cls-1" d="M7.74,11.42s1.48,4.45,1.94,5.07c0,0,2.85-.8,4.27-2.08,0,0-.8-2.77-2.36-3.98s-3.84.25-3.86,1Z"/>
        <path class="cls-11" d="M10.52,5.14c.19.11,2.04,1.45,1.84,2.24-.2.78-1.16,2.32-1.78,2.14-.62-.18-1.37-2.79-1.37-2.79l1.31-1.59Z"/>
        <path class="cls-2" d="M8.61,1.97s.95-.39,2.56.77c1.62,1.16,2.29.41,2.45.23,0,0,.08,1.07-1.04,1.68-1.15.63-4.57-.36-3.97-2.68Z"/>
        <g>
          <path class="cls-11" d="M6.36,2.81s.28.45.57,1.38c0,0,.02.15,1.05-.16l.56-.38s-.64-1.39-.69-1.77l-1.49.93Z"/>
          <path class="cls-11" d="M7.38.67s-1.59-.04-1.65,1.21c0,.04-.03,1.75.94,1.54.87-.19,1.18-.44,1.29-.78.11-.34-.3-1.66-.59-1.96Z"/>
          <path class="cls-12" d="M6.33,2.61c-.08.01-.16-.04-.17-.12-.01-.08.04-.15.12-.17.08-.01.16.04.17.12.01.08-.04.15-.12.17Z"/>
          <path class="cls-5" d="M6.79,3.46c.2-.02.46-.08.69-.28"/>
          <path class="cls-2" d="M6.23.85s-.03,1.46,1.44,1.45c1.39-.02-.72-1.75-.81-1.75-.09,0-.63.3-.63.3Z"/>
          <path class="cls-2" d="M6.08,1.06c-.11-.07-.12-.23-.02-.31.35-.3,1.29-1.16,2.12-.37,1.58,1.5-.03,2.48-.03,2.48l-1.78-1.87-.28.07Z"/>
        </g>
        <g>
          <path class="cls-11" d="M7.46,2.82c.16-.04.26-.24.22-.46-.04-.22-.2-.37-.36-.33-.16.04-.26.24-.22.46.04.22.2.37.36.33Z"/>
          <path class="cls-5" d="M7.31,2.41s.02.18.08.14c.06-.04,0-.13-.02-.1"/>
        </g>
        <path class="cls-2" d="M6.49.3c-.07.05-1.1.56-1,1.45.07.6.53.44.53.44,0,0,.29.05.46-.09.17-.14,0,0,0,0,0,0-.61-.47-.02-1.23.71-.91.03-.56.03-.56Z"/>
        <path class="cls-14" d="M4.86,1.33l3.77,1.1s.36-.41.24-1c-.09-.48-.37-1.17-1.31-1.36-.41-.08-1.26-.26-1.98.92l-1.23.07s-.18.13.51.28Z"/>
        <path class="cls-9" d="M8.4,3.46s-.96.6-1.53.83c0,0-.87,1.88.31,4.7l.28,2.51s2.32.58,4.63-1.2c0,0,0-4.73-3.69-6.84Z"/>
        <polygon class="cls-2" points="8.82 2.31 8.78 2.54 9.05 2.61 9.11 2.35 8.82 2.31"/>
        <path class="cls-9" d="M9.06,4.07s1.9.76,1.72,1.07c-.13.21-1.12,1.32-1.22,1.35s-.51-2.41-.51-2.41Z"/>
        <path class="cls-11" d="M7.66,7.17l-.35,2.61s-1.4.85-2.4,1.37l.4,1.14s2.88-1.08,3.53-1.81c.65-.72.94-3.3.94-3.3,0,0-1.29-.82-2.12,0Z"/>
        <path class="cls-9" d="M7.76,5.16s-.8,2.54-.68,3.14l2.51.35s.68-1.73.3-2.31c-.38-.58-1.77-2.44-2.14-1.19Z"/>
        <path class="cls-6" d="M8.44,13.44s.47,1.52.96,2.51"/>
        <path class="cls-7" d="M7.64,5.57s-.51,2.37-.32,2.76"/>
        <path class="cls-7" d="M10.05,6.37s.08,1.72-.3,2.31"/>
        <path class="cls-7" d="M9.75,4.45s.51.41.83.91"/>
        <path class="cls-11" d="M4.88,10.98s-.85-.38-1.08.22c0,0-.48.12-.47.51,0,.17.39.19.33.31-.05.12.12.43.28.49.2.07.28.29.77.12.49-.16.97-.4.79-.86s-.63-.78-.63-.78Z"/>
        <path class="cls-5" d="M3.92,11.2s.32-.08.48-.02"/>
        <path class="cls-3" d="M5.89,1.8c.02.05-.06.14.1.29"/>
        <path class="cls-3" d="M9.32,2.21s.6-.07,1.26.4"/>
        <path class="cls-3" d="M11.09,4.52c.2.06,1.43.42,1.96-.44"/>
        <path class="cls-3" d="M11.68,4.13s.66.15.91-.16"/>
      </g>
    </g>
  </g>
</svg>