<?xml version="1.0" encoding="UTF-8"?>
<svg id="_レイヤー_2" data-name="レイヤー 2" xmlns="http://www.w3.org/2000/svg" xmlns:xlink="http://www.w3.org/1999/xlink" viewBox="0 0 16.34 28.4">
  <defs>
    <style>
      .cls-1 {
        fill: #b2ada9;
      }

      .cls-2 {
        stroke-width: .11px;
      }

      .cls-2, .cls-3, .cls-4, .cls-5, .cls-6 {
        fill: none;
        stroke-linecap: round;
      }

      .cls-2, .cls-3, .cls-5 {
        stroke: #cc4416;
      }

      .cls-2, .cls-3, .cls-5, .cls-6 {
        stroke-miterlimit: 10;
      }

      .cls-3 {
        stroke-width: .25px;
      }

      .cls-4 {
        stroke: #655f60;
        stroke-linejoin: round;
        stroke-width: .19px;
      }

      .cls-7 {
        fill: #bbe1e8;
      }

      .cls-8 {
        clip-path: url(#clippath-1);
      }

      .cls-9 {
        clip-path: url(#clippath-3);
      }

      .cls-10 {
        clip-path: url(#clippath-2);
      }

      .cls-11 {
        fill: #f3b1b9;
      }

      .cls-12 {
        fill: #231815;
      }

      .cls-13 {
        fill: #f4da83;
      }

      .cls-14 {
        fill: #fff;
      }

      .cls-5 {
        stroke-width: .12px;
      }

      .cls-6 {
        stroke: #fff;
        stroke-width: .18px;
      }

      .cls-15 {
        clip-path: url(#clippath);
      }

      .cls-16 {
        fill: #fdf9fa;
      }

      .cls-17 {
        fill: #e67600;
      }
    </style>
    <clipPath id="clippath">
      <path class="cls-13" d="M12.42,16.53c.49-.24,1.12-.06,1.39.4.12.2.17.49.34.79.75,1.3.87,1.63.63,1.95-.87,1.17-1.55-.17-2.9-1.66-.64-.71-.05-1.19.54-1.48Z"/>
    </clipPath>
    <clipPath id="clippath-1">
      <path class="cls-11" d="M5.06,18.81s.65,3.27,2.21,3.73c1.56.46,5.32-3.03,5.64-3.7s-1.54-1.34-1.54-1.34l-6.31,1.31Z"/>
    </clipPath>
    <clipPath id="clippath-2">
      <path class="cls-11" d="M7.34,19.04s.81,4.44,5.54,6.48h1.44s-3.47-5.25-3.83-7.81c-.36-2.56-3.16,1.33-3.16,1.33Z"/>
    </clipPath>
    <clipPath id="clippath-3">
      <path class="cls-13" d="M14.1,24.26c.42.35.5,1,.19,1.43-.14.19-.38.35-.59.63-.89,1.21-1.15,1.44-1.54,1.35-1.42-.34-.46-1.49.37-3.32.4-.87,1.08-.52,1.57-.09Z"/>
    </clipPath>
  </defs>
  <g id="design">
    <g>
      <path class="cls-12" d="M7.03,4.59s-.71-1.4-2.06.18c0,0-.42.65-.88.36,0,0,1.33,1.6,2.55.57.89-.75.39-1.11.39-1.11Z"/>
      <g>
        <path class="cls-11" d="M14.77,8.02s-.21-.54.21-.76c0,0,.4-.59.74-.35.33.24.7.97.6,1.26-.1.29-.06.56-.6.6-.54.03-.95-.74-.95-.74Z"/>
        <path class="cls-2" d="M15.17,7.46s-.18.28.1.21c.28-.07-.03.23.26.2.29-.02.15.33.47.31"/>
      </g>
      <g>
        <path class="cls-11" d="M1.49,2.28s-.04-.58-.52-.6c0,0-.62-.36-.82,0-.2.36-.22,1.18,0,1.4.22.22.3.48.8.28s.54-1.08.54-1.08Z"/>
        <path class="cls-2" d="M.9,1.94s.28.17,0,.23c-.28.06.12.19-.15.3-.27.1,0,.36-.29.48"/>
      </g>
      <g>
        <path class="cls-13" d="M12.42,16.53c.49-.24,1.12-.06,1.39.4.12.2.17.49.34.79.75,1.3.87,1.63.63,1.95-.87,1.17-1.55-.17-2.9-1.66-.64-.71-.05-1.19.54-1.48Z"/>
        <g class="cls-15">
          <path class="cls-1" d="M14.71,18.1s-1.75,1.67-1.35,1.9c.4.23,1.35.25,1.35.25,0,0,1.97-1.32,0-2.15Z"/>
          <path class="cls-1" d="M12.17,16.67c.48,1.18,2.05.29,2.11.3h-.05c-.68-2.26-2.54-1.48-2.05-.3Z"/>
        </g>
      </g>
      <g>
        <path class="cls-11" d="M5.06,18.81s.65,3.27,2.21,3.73c1.56.46,5.32-3.03,5.64-3.7s-1.54-1.34-1.54-1.34l-6.31,1.31Z"/>
        <g class="cls-8">
          <polygon class="cls-13" points="10.28 18.05 11.69 20.95 13.47 18.46 12.07 17.15 10.28 18.05"/>
        </g>
      </g>
      <g>
        <path class="cls-11" d="M7.34,19.04s.81,4.44,5.54,6.48h1.44s-3.47-5.25-3.83-7.81c-.36-2.56-3.16,1.33-3.16,1.33Z"/>
        <g class="cls-10">
          <polygon class="cls-13" points="9.47 23.82 12.96 22.29 15.39 25.78 11.4 26.62 9.47 23.82"/>
        </g>
      </g>
      <path class="cls-7" d="M4.07,17.12s-.33,1.54,0,2.65c0,0,.61-.17,1.49.09.88.26,1.46-.39,2.5-.33,1.05.07,1.41.58,2.24.39.83-.19,1.23-.82,1.63-.89.4-.07,1.53-1.13,1.53-1.13l-1.68-1.76s-6.97,0-7.71.98Z"/>
      <path class="cls-17" d="M7.52,5.93S2.74,2.19,1.43,1.93l-.91,1.61s3.57,5.38,4.96,6.17c1.39.78,2.21-.91,2.26-1.08s-.22-2.69-.22-2.69Z"/>
      <path class="cls-17" d="M6.23,5.53s-2.46,4.47-2.22,11.42c0,.84,8.23.16,8.7-.77l-2-9.97s-.7-.33-1.17-.37c-.48-.04-3.31-.31-3.31-.31Z"/>
      <path class="cls-17" d="M10.07,5.95s2.27.23,3.19,3.96c.75,3.03,1.68,1.29,1.42,1.63-.09.12-1.96,2.98-3.42,1.36-1.05-1.17-1.87-6.07-1.78-6.47s0-.59.59-.48Z"/>
      <path class="cls-17" d="M12.97,9.53s1.37-2.17,1.63-1.97c.37.29,1.27,1.04,1.27,1.04,0,0-1.01,4.58-3,3.77-1.99-.81.11-2.84.11-2.84Z"/>
      <path class="cls-2" d="M7.62,20.05s.57,1.54,1.08,2.24"/>
      <g>
        <path class="cls-13" d="M14.1,24.26c.42.35.5,1,.19,1.43-.14.19-.38.35-.59.63-.89,1.21-1.15,1.44-1.54,1.35-1.42-.34-.46-1.49.37-3.32.4-.87,1.08-.52,1.57-.09Z"/>
        <g class="cls-9">
          <path class="cls-1" d="M13.57,27.16s-2.22-.94-2.28-.48c-.05.46.3,1.34.3,1.34,0,0,1.99,1.28,1.97-.86Z"/>
          <path class="cls-1" d="M13.87,24.27c-.89.91.55,2,.56,2.05v-.05c1.78-1.52.33-2.91-.56-2Z"/>
        </g>
      </g>
      <path class="cls-14" d="M7.92,6.65s-.06.6.67.56c.91-.05.88-1.44.88-1.44l-1.55.88Z"/>
      <path class="cls-14" d="M7.67,6.8s-.24.45-.73.19c-.65-.34.44-1.72.44-1.72l.3,1.53Z"/>
      <path class="cls-6" d="M13.09,9.34s-.42.45-.63.8"/>
      <path class="cls-6" d="M11.49,12.97s.13.35.61.41"/>
      <line class="cls-6" x1="5.33" y1="7.48" x2="4.76" y2="9.16"/>
      <path class="cls-16" d="M5.56,10.98c.39.08.8,0,1.13-.23s.64-.63.58-1.05c-.03-.2-.17-.4-.37-.45s-.4.06-.52.21c-.25.32-.18.77.05,1.08s.62.46,1.02.39.76-.36.91-.73c.13-.32.06-.83-.37-.83-.41,0-.66.44-.63.8.03.41.33.78.75.84s.84-.21.98-.62c.06-.18-.22-.25-.28-.08-.08.23-.3.39-.54.41s-.46-.12-.56-.34-.09-.5.1-.66c.08-.07.21-.11.29,0,.07.09.04.25,0,.35-.18.5-.87.79-1.3.44-.19-.15-.32-.39-.29-.63.01-.12.08-.26.19-.32.14-.08.26.04.29.18.05.31-.24.64-.49.8-.26.16-.56.23-.86.17-.18-.04-.26.24-.08.28h0Z"/>
      <g>
        <path class="cls-12" d="M5.6,2.29S5.78-.21,8.7.01c2.64.2-.09,2.57-.09,2.57l-.72-1.25-2.29.96Z"/>
        <g>
          <g>
            <path class="cls-11" d="M7.38,4.51l-.12.94c-.08-.28-.04-.21-.18.17-.4,1.11,1,1.69,1.91.77,0,0,.66-.73.09-.04.76-.92.7-1.94-1.7-1.84Z"/>
            <path class="cls-11" d="M10.02,2.14s-3.88-1.53-3.96.21c-.03.74-.39,3.13.88,3.4,1.75.36,2.64-.46,3.05-1.05.41-.59.39-1.81.02-2.55Z"/>
            <path class="cls-12" d="M6.56,4.26c-.18,0-.32-.13-.32-.29,0-.16.14-.3.31-.3.18,0,.32.13.32.29,0,.16-.14.3-.31.3Z"/>
            <path class="cls-12" d="M8.26,4.44c-.18,0-.32-.13-.32-.29,0-.16.14-.3.31-.3.18,0,.32.13.32.29,0,.16-.14.3-.31.3Z"/>
            <path class="cls-3" d="M7.59,5.89c.46.12,1.25-.12,1.25-.12"/>
            <path class="cls-12" d="M9.53.44s1.69,0,2.05,2.06c.09.5-.02,1.41-.62,2.11-.11.13-.73.63-.89.71-.43.21-.72.27-.48-.4.16-.45-.32-1.39-.45-1.87-.26-.94.38-2.61.38-2.61Z"/>
            <path class="cls-12" d="M7.71,1.54s-3.19-.73-1.75,2.13c0,0,.23-1.62,1.75-2.13Z"/>
            <path class="cls-12" d="M7.37.32s-2.62,3.35,2.28,3.54c0,0,1.41-1.67.97-2.45-.44-.78-1.71-1.98-3.26-1.09Z"/>
          </g>
          <g>
            <path class="cls-11" d="M9.6,4.92c-.36-.1-.55-.53-.42-.95.12-.42.51-.69.87-.58.36.1.55.53.42.95-.12.42-.51.69-.87.58Z"/>
            <path class="cls-5" d="M9.99,4.14s-.08.35-.2.26c-.12-.1.01-.27.06-.19"/>
          </g>
        </g>
        <path class="cls-12" d="M10.77,5.13s.07-1.43,1.78-.62c0,0,.59.39.87-.02,0,0-.57,1.98-1.91,1.43-.78-.32-.74-.78-.74-.78Z"/>
        <circle class="cls-17" cx="10.92" cy="4.47" r=".35"/>
        <circle class="cls-17" cx="11.29" cy="4.12" r=".35"/>
        <path class="cls-4" d="M7.34,1.94s.12.82,1.35,1.01"/>
        <path class="cls-4" d="M8.02,1.81s.22.56.82.55"/>
        <path class="cls-4" d="M10.63,1.41s.56.75.46,1.55"/>
      </g>
      <line class="cls-6" x1="4.57" y1="18.05" x2="4.57" y2="18.94"/>
      <line class="cls-6" x1="6.1" y1="18.06" x2="6.26" y2="18.94"/>
      <line class="cls-6" x1="8.13" y1="18.11" x2="8.58" y2="18.88"/>
      <line class="cls-6" x1="9.73" y1="17.72" x2="10.18" y2="18.49"/>
      <line class="cls-6" x1="11.35" y1="17.3" x2="11.97" y2="17.94"/>
    </g>
  </g>
</svg>