<?xml version="1.0" encoding="UTF-8"?>
<svg id="_レイヤー_2" data-name="レイヤー 2" xmlns="http://www.w3.org/2000/svg" xmlns:xlink="http://www.w3.org/1999/xlink" viewBox="0 0 19.67 31.03">
  <defs>
    <style>
      .cls-1, .cls-2, .cls-3, .cls-4, .cls-5, .cls-6 {
        fill: none;
      }

      .cls-7 {
        fill: #f4baba;
      }

      .cls-8 {
        fill: #f7f2f2;
      }

      .cls-2 {
        stroke: #cc4416;
      }

      .cls-2, .cls-3, .cls-4 {
        stroke-width: .14px;
      }

      .cls-2, .cls-3, .cls-4, .cls-5, .cls-6 {
        stroke-linecap: round;
        stroke-miterlimit: 10;
      }

      .cls-3 {
        stroke: #bdb9b6;
      }

      .cls-9 {
        clip-path: url(#clippath-1);
      }

      .cls-10 {
        fill: #231815;
      }

      .cls-4 {
        stroke: #231815;
      }

      .cls-11 {
        fill: #260c29;
      }

      .cls-12 {
        fill: #12652c;
      }

      .cls-5 {
        stroke: #050000;
        stroke-width: .56px;
      }

      .cls-13 {
        fill: #00516f;
      }

      .cls-14 {
        clip-path: url(#clippath);
      }

      .cls-15 {
        fill: #f5bcb7;
      }

      .cls-6 {
        stroke: #4d8f33;
        stroke-width: .28px;
      }
    </style>
    <clipPath id="clippath">
      <path class="cls-13" d="M17.6,17.33c.23.22.4.22.47.53.12.56-.03,2.05-.05,4.58-.03,4.55,1.51,7.26,1.51,7.26,0,0-2.86-.05-3.33-.13-.47-.09-2.57-5.44-2.15-8.55.42-3.11,1.04-6.05,1.04-6.05l2.5,2.36Z"/>
    </clipPath>
    <clipPath id="clippath-1">
      <path class="cls-13" d="M12.22,13.76s-2.64,8.98-2.74,15.51c0,0,2.78.76,3.16.67,0,0,1.66-8.97,3.5-11.81,1.84-2.83-3.92-4.37-3.92-4.37Z"/>
    </clipPath>
  </defs>
  <g id="design">
    <g>
      <g>
        <path class="cls-11" d="M4.98,30.04h0c-.15,0-.27-.12-.27-.27v-14.43c0-.15.12-.27.27-.27h0c.15,0,.27.12.27.27v14.43c0,.15-.12.27-.27.27Z"/>
        <g>
          <path class="cls-11" d="M.14,12.52h6.88c.05,0,.1.03.13.08l2.06,4.63c.04.09-.03.19-.13.19H2.11c-.06,0-.1-.03-.13-.08L.01,12.71c-.04-.09.03-.19.13-.19Z"/>
          <path class="cls-8" d="M.73,12.83h5.96s.09.03.11.07l1.79,4.03c.03.08-.02.17-.11.17H2.44s-.09-.03-.11-.07l-1.71-4.03c-.03-.08.02-.17.11-.17Z"/>
          <line class="cls-3" x1="4.12" y1="13.52" x2="5.17" y2="16.39"/>
          <line class="cls-4" x1="1.52" y1="13.52" x2="3.48" y2="13.52"/>
          <line class="cls-4" x1="1.73" y1="14.15" x2="3.69" y2="14.15"/>
          <line class="cls-4" x1="1.94" y1="14.78" x2="3.9" y2="14.78"/>
          <line class="cls-4" x1="2.25" y1="15.45" x2="4.2" y2="15.45"/>
          <line class="cls-4" x1="2.5" y1="16.11" x2="4.46" y2="16.11"/>
          <line class="cls-4" x1="4.75" y1="13.52" x2="6.71" y2="13.52"/>
          <line class="cls-4" x1="4.96" y1="14.15" x2="6.92" y2="14.15"/>
          <line class="cls-4" x1="5.17" y1="14.78" x2="7.13" y2="14.78"/>
          <line class="cls-4" x1="5.47" y1="15.45" x2="7.43" y2="15.45"/>
          <line class="cls-4" x1="5.73" y1="16.11" x2="7.68" y2="16.11"/>
        </g>
        <polyline class="cls-5" points="1.03 29.83 4.98 26.87 8.68 29.94"/>
      </g>
      <g>
        <g>
          <path class="cls-10" d="M12.86.05h0s0,.09.04.11l5.46,2.24s.09,0,.1-.05h0s0-.09-.04-.11L12.96,0s-.09,0-.1.05Z"/>
          <path class="cls-15" d="M17.59,2.58c-.33-.07-.36-.1-.56-.28-.28-.25-.14-.6-.02-.63.05-.01-.73-.07-.22-.45.36-.27.99-.29,1.33.17.34.46.2,1.29.2,1.29l-.72-.11Z"/>
          <path class="cls-10" d="M12.36,29.64s.09.66-.05.96c-.14.31-.56.25-.56.25,0,0-.12-.54-.66-.08-.54.46-2.47.23-2.71,0-.24-.23-.32-.77.43-1.04.75-.27,1.28-.68,1.28-.68l2.29.59Z"/>
          <path class="cls-10" d="M19.33,29.64s.09.66-.05.96c-.14.31-.56.25-.56.25,0,0-.12-.54-.66-.08-.54.46-2.47.23-2.71,0-.24-.23-.32-.77.43-1.04.75-.27,1.28-.68,1.28-.68l2.29.59Z"/>
          <path class="cls-15" d="M7.34,7.35s-.55-1.61-.75-1.66c-.21-.06-.22.19-.19.53.01.12-.77-1.03-.85-.83-.08.19.34.91.34.91,0,0-.75-.99-.83-.88-.08.11.49,1.03.49,1.03,0,0-.85-.76-.85-.59s.67.99.67.99c0,0-.41-.16-.48-.02-.04.07.92.93,1.51,1.08.63.17.94-.56.94-.56Z"/>
          <g>
            <path class="cls-13" d="M17.6,17.33c.23.22.4.22.47.53.12.56-.03,2.05-.05,4.58-.03,4.55,1.51,7.26,1.51,7.26,0,0-2.86-.05-3.33-.13-.47-.09-2.57-5.44-2.15-8.55.42-3.11,1.04-6.05,1.04-6.05l2.5,2.36Z"/>
            <g class="cls-14">
              <path class="cls-1" d="M17.68,17.96c-.3,4.17-.24,8.58,1.53,12.43"/>
              <path class="cls-1" d="M17.26,16.18c-.19,1.28-.07,2.6-.14,3.89.02,1.44-.03,2.89.13,4.33.16,2.23.39,4.39,1.59,6.32"/>
              <path class="cls-1" d="M16.91,16.18c-.19,1.28-.07,2.6-.14,3.89.02,1.44-.03,2.89.13,4.33.16,2.23.39,4.39,1.59,6.32"/>
              <path class="cls-1" d="M16.38,16.16c-.19,1.28-.35,3.04-.42,4.33.02,1.44-.02,2.39.14,3.82.16,2.23.65,4.45,1.85,6.38"/>
              <path class="cls-1" d="M15.86,16.25c-.19,1.28-.38,2.86-.59,4.14-.27,1.67-.15,2.7.02,4.13.16,2.23.94,4.34,2.15,6.27"/>
              <path class="cls-1" d="M15.31,16.28c-.19,1.28-.75,3.49-.82,4.78.02,1.44-.07,1.38.09,2.81.16,2.23,1.09,5.02,2.3,6.95"/>
            </g>
          </g>
          <g>
            <path class="cls-13" d="M12.22,13.76s-2.64,8.98-2.74,15.51c0,0,2.78.76,3.16.67,0,0,1.66-8.97,3.5-11.81,1.84-2.83-3.92-4.37-3.92-4.37Z"/>
            <g class="cls-9">
              <path class="cls-1" d="M12.67,14.97c-1.44,4.95-2.87,10.12-2.83,15.36"/>
              <path class="cls-1" d="M13.62,14.04c-2.16,4.99-2.98,10.59-3.21,16.01"/>
              <path class="cls-1" d="M14.12,14.19c-2.16,4.99-2.98,10.59-3.21,16.01"/>
              <path class="cls-1" d="M14.6,14.28c-2.16,4.99-2.98,10.59-3.21,16.01"/>
              <path class="cls-1" d="M15.22,14.67c-2.16,4.99-3.19,10.36-3.41,15.78"/>
              <path class="cls-1" d="M16.55,16.21c-2.39,4.04-2.75,9.18-3.61,13.76"/>
              <path class="cls-1" d="M16.17,15.92c-2.39,4.04-2.75,9.18-3.61,13.76"/>
              <path class="cls-1" d="M15.72,15.72c-2.39,4.04-2.75,9.18-3.61,13.76"/>
            </g>
          </g>
          <path class="cls-15" d="M14.46,6.7c-.07-.36-.28-1.72-.28-1.72l-1.5.12s.24,1.69.08,1.68c-.07,0,1.7-.09,1.7-.09Z"/>
          <path class="cls-15" d="M13.37,3.07c-.51-.14-.97-.13-1.19.35-.18.38-.39,1.12-.34,1.64.09,1.04,1.84.65,2.35.43.46-.2,1.42-1.81-.81-2.42Z"/>
          <path class="cls-10" d="M12.15,4.57c-.09-.02-.14-.1-.13-.19.02-.09.1-.14.19-.13.09.02.14.1.13.19-.02.09-.1.14-.19.13Z"/>
          <path class="cls-12" d="M13.2,4.74c-.07-.02-.19.06-.47-.71,0,0-.37.25-.71-.41-.2-.39.05-1.25,1.34-1.2.81.03,1.74.53,1.85,1.67.1,1.04-.75,1.48-1.15,1.45-.94-.08-.86-.8-.86-.8Z"/>
          <g>
            <path class="cls-7" d="M12.83,4.56c-.1.24-.02.5.18.59.2.08.44-.04.54-.29.1-.24.02-.5-.18-.59-.2-.08-.44.04-.54.29Z"/>
            <path class="cls-2" d="M13.29,4.72s-.07.2-.13.14c-.06-.06.02-.16.04-.11"/>
          </g>
          <path class="cls-2" d="M13.26,5.68s-.38.06-.57.03"/>
          <path class="cls-11" d="M13.85,6.28s1.36-.63,3.28-.44l-.35-3.69,1.57-.29s1.61,3.97,1.26,4.87c-.35.9-2.36,2.14-3.43,2.11-1.07-.03-2.34-2.57-2.34-2.57Z"/>
          <path class="cls-11" d="M12.48,6.14s-1.49-.11-2.76,2.19l-2.79-2.07s-1.09,1.3-1.13,1.57c-.05.26,1.84,3.19,3.59,3.58,1.75.38,3.59-2.57,3.59-2.57l-.49-2.69Z"/>
          <path class="cls-3" d="M15.96,18.84s-1.07,1.26-1.77,4.69"/>
          <path class="cls-11" d="M12.6,6.14s2.62-.25,3.49,0c.52.15,1.39,6.15,1.7,8.67.31,2.5,1.09,6.21.9,6.18-.19-.03-3.39-4.9-3.39-4.9,0,0,.33,4.96.05,4.9-.28-.06-3.91-3.75-4.08-9.79-.16-5.44,1.33-5.05,1.33-5.05Z"/>
        </g>
        <path class="cls-6" d="M12.15,3.23s0,.43.42.66"/>
        <path class="cls-6" d="M12.53,3.26s0,.19.26.39"/>
        <path class="cls-6" d="M14.67,3.36s.43.39.32,1.21"/>
      </g>
    </g>
  </g>
</svg>