<?xml version="1.0" encoding="UTF-8"?>
<svg id="_レイヤー_2" data-name="レイヤー 2" xmlns="http://www.w3.org/2000/svg" viewBox="0 0 16.62 19.44">
  <defs>
    <style>
      .cls-1 {
        fill: #fff;
      }

      .cls-2 {
        opacity: .3;
      }
    </style>
  </defs>
  <g id="design">
    <g class="cls-2">
      <path class="cls-1" d="M0,7.24v2.34c0,.63.51,1.15,1.15,1.15h6.34v-4.63H1.15c-.63,0-1.15.51-1.15,1.15Z"/>
      <path class="cls-1" d="M15.47,6.09h-6.34v4.63h6.34c.63,0,1.15-.51,1.15-1.15v-2.34c0-.63-.51-1.15-1.15-1.15Z"/>
      <path class="cls-1" d="M9.13,19.44h5.33c.63,0,1.15-.51,1.15-1.15v-6.73h-6.47v7.88Z"/>
      <path class="cls-1" d="M1.01,18.29c0,.63.51,1.15,1.15,1.15h5.33v-7.88H1.01v6.73Z"/>
      <path class="cls-1" d="M9.4,5.29h0c2.45-.16,3.9-.67,4.55-1.61.4-.57.48-1.25.25-2.03-.27-.92-1.02-1.55-1.96-1.64-.67-.06-2.35.11-3.94,2.93C6.73.12,5.05-.05,4.37,0c-.94.09-1.69.71-1.96,1.64-.23.78-.15,1.46.25,2.03.66.94,2.1,1.45,4.55,1.61.04,0,.08,0,.11,0,.38,0,1.57,0,1.95,0,.04,0,.07,0,.11,0ZM12.02,1.46s.06,0,.09,0c.33.03.59.25.69.6.13.45.04.66-.05.79-.2.29-.9.8-3.27.97.93-1.74,1.9-2.36,2.53-2.36ZM3.87,2.84c-.08-.12-.18-.33-.05-.79.1-.34.36-.56.69-.6.03,0,.06,0,.09,0,.63,0,1.6.62,2.53,2.36-2.37-.18-3.06-.68-3.27-.97Z"/>
    </g>
  </g>
</svg>