<?xml version="1.0" encoding="UTF-8"?>
<svg id="_レイヤー_2" data-name="レイヤー 2" xmlns="http://www.w3.org/2000/svg" viewBox="0 0 78.57 55.25">
  <defs>
    <style>
      .cls-1 {
        fill: #231815;
      }

      .cls-2 {
        fill: #fff;
      }

      .cls-3 {
        fill: #0068b6;
      }
    </style>
  </defs>
  <g id="_first_view" data-name="
first view">
    <g>
      <g>
        <g>
          <path class="cls-2" d="M16.1,28.53h-.88c-.33,0-.6-.26-.6-.6v-4.2l-.23.16c-.16.11-.43.13-.6.04-.18-.1-.29-.29-.29-.51v-.98c0-.21.09-.39.26-.53l1.06-.77c.12-.1.28-.15.47-.15h.82c.33,0,.6.26.6.6v6.33c0,.33-.26.6-.6.6ZM15.62,27.53h.08v-5.53h-.34l-.45.33c.31-.14.72.11.72.46v4.74ZM15.42,21.95h-.01s0,0,.01,0Z"/>
          <path class="cls-2" d="M20.19,28.64c-1.17,0-2-.58-2.33-1.62-.11-.33-.16-.66-.16-2.24s.05-1.91.16-2.25c.33-1.05,1.16-1.62,2.33-1.62s1.99.58,2.34,1.62c.11.34.16.67.16,2.25s-.05,1.91-.16,2.25c-.35,1.05-1.17,1.62-2.34,1.62ZM20.93,22.04c.25.14.43.37.54.66.09.28.12.5.12,2.06s-.02,1.78-.11,2.05c-.11.3-.3.53-.55.68.31-.15.53-.41.66-.79.06-.19.11-.46.11-1.94s-.05-1.75-.11-1.94c-.12-.38-.34-.64-.65-.78ZM19.46,22.04c-.31.15-.52.41-.64.79-.06.2-.11.46-.11,1.94s.05,1.75.11,1.94c.12.38.33.64.63.78-.24-.14-.42-.37-.53-.66-.1-.29-.12-.51-.12-2.06s.02-1.78.11-2.05c.11-.3.29-.53.54-.68ZM20.19,22.86c-.24,0-.29.08-.33.19-.04.12-.06.41-.06,1.72s.02,1.6.06,1.73c.03.09.08.18.32.18.27,0,.31-.11.34-.19.04-.12.06-.4.06-1.72s-.02-1.6-.06-1.73c-.02-.07-.06-.18-.33-.18Z"/>
          <path class="cls-2" d="M24.33,27.45h-.73c-.33,0-.6-.26-.6-.6v-.83c0-.33.26-.6.6-.6h.73c.33,0,.6.26.6.6v.83c0,.33-.26.6-.6.6ZM24.33,26.43h0,0ZM24.33,23.87h-.73c-.33,0-.6-.26-.6-.6v-.83c0-.33.26-.6.6-.6h.73c.33,0,.6.26.6.6v.83c0,.33-.26.6-.6.6Z"/>
          <path class="cls-2" d="M27.76,28.64c-1.17,0-2-.58-2.33-1.62-.11-.33-.16-.66-.16-2.24s.05-1.91.16-2.25c.33-1.05,1.16-1.62,2.33-1.62s1.99.58,2.34,1.62c.11.34.16.67.16,2.25s-.05,1.91-.16,2.25c-.35,1.05-1.17,1.62-2.34,1.62ZM28.5,22.04c.25.14.43.37.54.66.09.28.12.5.12,2.06s-.02,1.78-.11,2.05c-.11.3-.3.53-.55.68.31-.15.53-.41.66-.79.06-.19.11-.46.11-1.94s-.05-1.75-.11-1.94c-.12-.38-.34-.64-.65-.78ZM27.03,22.04c-.31.15-.52.41-.64.79-.06.2-.11.46-.11,1.94s.05,1.75.11,1.94c.12.38.33.64.63.78-.24-.14-.42-.37-.53-.66-.1-.29-.12-.51-.12-2.06s.02-1.78.11-2.05c.11-.3.29-.53.54-.68ZM27.76,22.86c-.24,0-.29.08-.33.19-.04.12-.06.41-.06,1.72s.02,1.6.06,1.73c.03.09.08.18.32.18.27,0,.31-.11.34-.19.04-.12.06-.4.06-1.72s-.02-1.6-.06-1.73c-.02-.07-.06-.18-.33-.18Z"/>
          <path class="cls-2" d="M33.1,28.64c-1.17,0-2-.58-2.33-1.62-.11-.33-.16-.66-.16-2.24s.05-1.91.16-2.25c.33-1.05,1.16-1.62,2.33-1.62s1.99.58,2.34,1.62c.11.34.16.67.16,2.25s-.05,1.91-.16,2.25c-.35,1.05-1.17,1.62-2.34,1.62ZM33.84,22.04c.25.14.43.37.54.66.09.28.12.5.12,2.06s-.02,1.78-.11,2.05c-.11.3-.3.53-.55.68.31-.15.53-.41.66-.79.06-.19.11-.46.11-1.94s-.05-1.75-.11-1.94c-.12-.38-.34-.64-.65-.78ZM32.37,22.04c-.31.15-.52.41-.64.79-.06.2-.11.46-.11,1.94s.05,1.75.11,1.94c.12.38.33.64.63.78-.24-.14-.42-.37-.53-.66-.1-.29-.12-.51-.12-2.06s.02-1.78.11-2.05c.11-.3.29-.53.54-.68ZM33.1,22.86c-.24,0-.29.08-.33.19-.04.12-.06.41-.06,1.72s.02,1.6.06,1.73c.03.09.08.18.32.18.27,0,.31-.11.34-.19.04-.12.06-.4.06-1.72s-.02-1.6-.06-1.73c-.02-.07-.06-.18-.33-.18Z"/>
          <path class="cls-2" d="M39.21,26.53c-.51,0-.9-.21-1.24-.44-.26-.17-.36-.19-.4-.19-.06,0-.13,0-.29.28-.07.12-.24.24-.37.27-.16.03-.32,0-.47-.09l-.34-.19c-.29-.19-.37-.48-.25-.76.34-.73,1-1.17,1.73-1.17.51,0,.9.21,1.24.44.26.17.36.19.4.19.06,0,.13,0,.29-.28.07-.12.24-.24.37-.27.16-.04.33,0,.47.09l.34.19c.29.19.37.48.25.76-.34.72-.99,1.17-1.73,1.17ZM40.37,25.1s0,0,0,0c0,0,0,0,0,0Z"/>
          <path class="cls-2" d="M43.63,28.53h-.88c-.33,0-.6-.26-.6-.6v-4.2l-.23.16c-.15.11-.43.13-.6.04-.18-.1-.29-.29-.29-.51v-.98c0-.21.09-.39.26-.53l1.06-.77c.12-.1.28-.15.47-.15h.82c.33,0,.6.26.6.6v6.33c0,.33-.26.6-.6.6ZM43.15,27.53h.08v-5.53h-.34l-.45.33c.31-.14.72.11.72.46v4.74ZM42.95,21.95h-.01s0,0,.01,0Z"/>
          <path class="cls-2" d="M47.65,28.64c-1.52,0-2.58-1.03-2.58-2.52,0-.55.17-1.13.49-1.73,0,0,0,0,0,0l1.71-3.06c.13-.21.31-.31.55-.31h.92c.17,0,.4.11.49.26.1.16.11.37.02.56l-1.02,1.84c1.18.16,2,1.12,2,2.4,0,1.51-1.06,2.56-2.58,2.56ZM46.43,24.86c-.25.45-.37.88-.37,1.26,0,.74.36,1.16.82,1.36-.45-.25-.72-.74-.72-1.34,0-.73.39-1.28,1-1.46-.05-.02-.1-.05-.14-.09-.13-.13-.19-.35-.14-.53l-.45.81ZM48.08,24.66c.64.17,1.06.73,1.06,1.48,0,.58-.25,1.04-.66,1.31.43-.22.75-.65.75-1.37,0-.87-.56-1.33-1.15-1.41ZM47.65,25.6c-.4,0-.49.29-.49.54s.08.54.49.54.5-.29.5-.54-.09-.54-.5-.54Z"/>
          <path class="cls-2" d="M51.75,27.45h-.73c-.33,0-.6-.26-.6-.6v-.83c0-.33.26-.6.6-.6h.73c.33,0,.6.26.6.6v.83c0,.33-.26.6-.6.6ZM51.75,26.43h0,0ZM51.75,23.87h-.73c-.33,0-.6-.26-.6-.6v-.83c0-.33.26-.6.6-.6h.73c.33,0,.6.26.6.6v.83c0,.33-.26.6-.6.6Z"/>
          <path class="cls-2" d="M55.19,28.64c-1.17,0-2-.58-2.33-1.62-.11-.33-.16-.66-.16-2.24s.05-1.91.16-2.25c.33-1.05,1.16-1.62,2.33-1.62s1.99.58,2.34,1.62c.11.34.16.67.16,2.25s-.05,1.91-.16,2.25c-.35,1.05-1.17,1.62-2.34,1.62ZM55.93,22.04c.25.14.43.37.54.66.09.28.12.5.12,2.06s-.02,1.78-.11,2.05c-.11.3-.3.53-.55.68.31-.15.53-.41.66-.79.06-.19.11-.46.11-1.94s-.05-1.75-.11-1.94c-.12-.38-.34-.64-.65-.78ZM54.46,22.04c-.31.15-.52.41-.64.79-.06.2-.11.46-.11,1.94s.05,1.75.11,1.94c.12.38.33.64.63.78-.24-.14-.42-.37-.53-.66-.1-.29-.12-.51-.12-2.06s.02-1.78.11-2.05c.11-.3.29-.53.54-.68ZM55.19,22.86c-.24,0-.29.08-.33.19-.04.12-.06.41-.06,1.72s.02,1.6.06,1.73c.03.09.08.18.32.18.27,0,.31-.11.34-.19.04-.12.06-.4.06-1.72s-.02-1.6-.06-1.73c-.02-.07-.06-.18-.33-.18Z"/>
          <path class="cls-2" d="M60.52,28.64c-1.17,0-2-.58-2.33-1.62-.11-.33-.16-.66-.16-2.24s.05-1.91.16-2.25c.33-1.05,1.16-1.62,2.33-1.62s1.99.58,2.34,1.62c.11.34.16.67.16,2.25s-.05,1.91-.16,2.25c-.35,1.05-1.17,1.62-2.34,1.62ZM61.26,22.04c.25.14.43.37.54.66.09.28.12.5.12,2.06s-.02,1.78-.11,2.05c-.11.3-.3.53-.55.68.31-.15.53-.41.66-.79.06-.19.11-.46.11-1.94s-.05-1.75-.11-1.94c-.12-.38-.34-.64-.65-.78ZM59.79,22.04c-.31.15-.52.41-.64.79-.06.2-.11.46-.11,1.94s.05,1.75.11,1.94c.12.38.33.64.63.78-.24-.14-.42-.37-.53-.66-.1-.29-.12-.51-.12-2.06s.02-1.78.11-2.05c.11-.3.29-.53.54-.68ZM60.52,22.86c-.24,0-.29.08-.33.19-.04.12-.06.41-.06,1.72s.02,1.6.06,1.73c.03.09.08.18.32.18.27,0,.31-.11.34-.19.04-.12.06-.4.06-1.72s-.02-1.6-.06-1.73c-.02-.07-.06-.18-.33-.18Z"/>
        </g>
        <g>
          <path class="cls-1" d="M15.12,22.79h-.02l-1,.7c-.06.04-.11.02-.11-.06v-.98c0-.06.02-.1.07-.13l1.05-.76s.1-.06.17-.06h.82c.06,0,.1.04.1.1v6.33c0,.06-.04.1-.1.1h-.88c-.06,0-.1-.04-.1-.1v-5.14Z"/>
          <path class="cls-1" d="M18.21,24.77c0-1.52.05-1.82.13-2.09.26-.82.88-1.28,1.85-1.28s1.59.46,1.86,1.28c.09.27.13.58.13,2.09s-.05,1.82-.13,2.09c-.27.82-.89,1.28-1.86,1.28s-1.59-.46-1.85-1.28c-.09-.27-.13-.58-.13-2.09ZM20.19,27.18c.4,0,.68-.17.81-.52.07-.2.09-.42.09-1.89s-.02-1.69-.09-1.89c-.12-.35-.4-.52-.81-.52s-.67.17-.8.52c-.07.2-.09.42-.09,1.89s.02,1.69.09,1.89c.12.35.39.52.8.52Z"/>
          <path class="cls-1" d="M23.5,23.27v-.83c0-.06.04-.1.1-.1h.73c.06,0,.1.04.1.1v.83c0,.06-.04.1-.1.1h-.73c-.06,0-.1-.04-.1-.1ZM23.5,26.03c0-.06.04-.1.1-.1h.73c.06,0,.1.04.1.1v.83c0,.06-.04.1-.1.1h-.73c-.06,0-.1-.04-.1-.1v-.83Z"/>
          <path class="cls-1" d="M25.78,24.77c0-1.52.05-1.82.13-2.09.26-.82.88-1.28,1.85-1.28s1.59.46,1.86,1.28c.09.27.13.58.13,2.09s-.05,1.82-.13,2.09c-.27.82-.89,1.28-1.86,1.28s-1.59-.46-1.85-1.28c-.09-.27-.13-.58-.13-2.09ZM27.76,27.18c.4,0,.68-.17.81-.52.07-.2.09-.42.09-1.89s-.02-1.69-.09-1.89c-.12-.35-.4-.52-.81-.52s-.67.17-.8.52c-.07.2-.09.42-.09,1.89s.02,1.69.09,1.89c.12.35.39.52.8.52Z"/>
          <path class="cls-1" d="M31.11,24.77c0-1.52.05-1.82.13-2.09.26-.82.88-1.28,1.85-1.28s1.59.46,1.86,1.28c.09.27.13.58.13,2.09s-.05,1.82-.13,2.09c-.27.82-.89,1.28-1.86,1.28s-1.59-.46-1.85-1.28c-.09-.27-.13-.58-.13-2.09ZM33.1,27.18c.4,0,.68-.17.81-.52.07-.2.09-.42.09-1.89s-.02-1.69-.09-1.89c-.12-.35-.4-.52-.81-.52s-.67.17-.8.52c-.07.2-.09.42-.09,1.89s.02,1.69.09,1.89c.12.35.39.52.8.52Z"/>
          <path class="cls-1" d="M39.22,25.36c.33,0,.52-.18.72-.52.03-.05.08-.06.13-.02l.36.21c.06.04.07.07.04.13-.25.54-.73.86-1.27.86-.39,0-.7-.18-.96-.35-.22-.14-.46-.28-.68-.28-.33,0-.52.18-.72.52-.03.05-.08.06-.13.02l-.36-.21c-.06-.04-.07-.07-.04-.13.25-.54.73-.86,1.27-.86.39,0,.7.18.96.36.22.14.46.28.68.28Z"/>
          <path class="cls-1" d="M42.65,22.79h-.02l-1,.7c-.06.04-.11.02-.11-.06v-.98c0-.06.02-.1.07-.13l1.05-.76s.1-.06.17-.06h.82c.06,0,.1.04.1.1v6.33c0,.06-.04.1-.1.1h-.88c-.06,0-.1-.04-.1-.1v-5.14Z"/>
          <path class="cls-1" d="M46,24.62l1.71-3.06s.05-.06.12-.06h.92c.07,0,.09.04.06.1l-1.44,2.61.02.02c.1-.05.29-.09.49-.09,1.01,0,1.86.73,1.86,1.93,0,1.33-.92,2.06-2.08,2.06s-2.08-.73-2.08-2.02c0-.52.18-1.04.43-1.5ZM47.65,27.18c.61,0,1-.42,1-1.04s-.38-1.04-1-1.04-.99.42-.99,1.04.38,1.04.99,1.04Z"/>
          <path class="cls-1" d="M50.93,23.27v-.83c0-.06.04-.1.1-.1h.73c.06,0,.1.04.1.1v.83c0,.06-.04.1-.1.1h-.73c-.06,0-.1-.04-.1-.1ZM50.93,26.03c0-.06.04-.1.1-.1h.73c.06,0,.1.04.1.1v.83c0,.06-.04.1-.1.1h-.73c-.06,0-.1-.04-.1-.1v-.83Z"/>
          <path class="cls-1" d="M53.2,24.77c0-1.52.05-1.82.13-2.09.26-.82.88-1.28,1.85-1.28s1.59.46,1.86,1.28c.09.27.13.58.13,2.09s-.05,1.82-.13,2.09c-.27.82-.89,1.28-1.86,1.28s-1.59-.46-1.85-1.28c-.09-.27-.13-.58-.13-2.09ZM55.19,27.18c.4,0,.68-.17.81-.52.07-.2.09-.42.09-1.89s-.02-1.69-.09-1.89c-.12-.35-.4-.52-.81-.52s-.67.17-.8.52c-.07.2-.09.42-.09,1.89s.02,1.69.09,1.89c.12.35.39.52.8.52Z"/>
          <path class="cls-1" d="M58.54,24.77c0-1.52.05-1.82.13-2.09.26-.82.88-1.28,1.85-1.28s1.59.46,1.86,1.28c.09.27.13.58.13,2.09s-.05,1.82-.13,2.09c-.27.82-.89,1.28-1.86,1.28s-1.59-.46-1.85-1.28c-.09-.27-.13-.58-.13-2.09ZM60.52,27.18c.4,0,.68-.17.81-.52.07-.2.09-.42.09-1.89s-.02-1.69-.09-1.89c-.12-.35-.4-.52-.81-.52s-.67.17-.8.52c-.07.2-.09.42-.09,1.89s.02,1.69.09,1.89c.12.35.39.52.8.52Z"/>
        </g>
      </g>
      <g>
        <g>
          <g>
            <path class="cls-2" d="M4.26,18.02H.6c-.33,0-.6-.26-.6-.6v-.72c0-.19.06-.35.2-.48l2.26-2.83c.22-.27.31-.47.31-.69,0-.24-.12-.36-.36-.36-.16,0-.34.03-.39.38-.02.14-.13.32-.24.4-.13.09-.28.13-.44.1l-.86-.18c-.13-.03-.31-.15-.38-.26-.07-.1-.11-.3-.09-.43.11-.98.91-1.98,2.43-1.98,1.42,0,2.42.96,2.42,2.32,0,.66-.23,1.25-.73,1.85l-1.24,1.5h1.37c.33,0,.6.26.6.6v.77c0,.33-.26.6-.6.6ZM1,17.02h.65c-.18-.08-.3-.25-.3-.46,0-.08.02-.16.05-.24l-.4.5v.2ZM.95,16.88v.02s0,0,0-.02ZM.5,16.71h.5s-.5,0-.5,0ZM1.84,16.55h0,0ZM3.02,11.48c.46.21.76.67.76,1.24s-.29,1.01-.54,1.31l-1.14,1.42,1.26-1.52c.35-.42.5-.79.5-1.21,0-.62-.31-1.06-.84-1.24ZM1.09,12.17h.05c.1-.23.25-.42.44-.56-.24.14-.4.35-.49.56Z"/>
            <path class="cls-2" d="M7.65,18.13c-1.17,0-2-.58-2.33-1.62-.11-.33-.16-.66-.16-2.24s.05-1.91.16-2.25c.33-1.05,1.16-1.62,2.33-1.62s1.99.58,2.34,1.62c.11.34.16.67.16,2.25s-.05,1.91-.16,2.25c-.35,1.05-1.17,1.62-2.34,1.62ZM8.39,11.54c.25.14.43.37.54.66.09.28.12.5.12,2.06s-.02,1.78-.11,2.05c-.11.3-.3.53-.55.68.31-.15.53-.41.66-.79.06-.19.11-.46.11-1.94s-.05-1.75-.11-1.94c-.12-.38-.34-.64-.65-.78ZM6.92,11.54c-.31.15-.52.41-.64.79-.06.2-.11.46-.11,1.94s.05,1.75.11,1.94c.12.38.33.64.63.78-.24-.14-.42-.37-.53-.66-.1-.29-.12-.51-.12-2.06s.02-1.78.11-2.05c.11-.3.29-.53.54-.68ZM7.65,12.35c-.24,0-.29.08-.33.19-.04.12-.06.41-.06,1.72s.02,1.6.06,1.73c.03.09.08.18.32.18.27,0,.31-.11.34-.19.04-.12.06-.4.06-1.72s-.02-1.6-.06-1.73c-.02-.07-.06-.18-.33-.18Z"/>
            <path class="cls-2" d="M14.69,18.02h-3.67c-.33,0-.6-.26-.6-.6v-.72c0-.19.06-.35.2-.48l2.26-2.83c.22-.27.31-.47.31-.69,0-.24-.12-.36-.36-.36-.16,0-.34.03-.39.38-.02.14-.13.32-.24.4-.13.09-.29.13-.44.1l-.86-.18c-.13-.03-.31-.15-.38-.26-.07-.1-.11-.3-.09-.43.11-.98.91-1.98,2.43-1.98,1.42,0,2.42.96,2.42,2.32,0,.66-.23,1.25-.73,1.85l-1.24,1.5h1.37c.33,0,.6.26.6.6v.77c0,.33-.26.6-.6.6ZM11.43,17.02h.65c-.18-.08-.3-.25-.3-.46,0-.08.02-.16.05-.24l-.4.5v.2ZM11.38,16.88v.02s0,0,0-.02ZM10.93,16.71h.5s-.5,0-.5,0ZM12.27,16.55h0,0ZM13.45,11.48c.46.21.76.67.76,1.24s-.29,1.01-.54,1.31l-1.14,1.42,1.26-1.52c.35-.42.5-.79.5-1.21,0-.62-.31-1.06-.84-1.24ZM11.52,12.17h.05c.1-.23.25-.42.44-.56-.24.14-.4.35-.49.56Z"/>
            <path class="cls-2" d="M18.06,18.13c-1.52,0-2.58-1.03-2.58-2.52,0-.55.17-1.13.49-1.73,0,0,0,0,0,0l1.71-3.06c.13-.21.31-.31.55-.31h.92c.17,0,.4.11.49.26.1.16.11.37.02.56l-1.02,1.84c1.18.16,2,1.12,2,2.4,0,1.51-1.06,2.56-2.58,2.56ZM16.85,14.36c-.25.45-.37.88-.37,1.26,0,.74.36,1.16.82,1.36-.45-.25-.72-.74-.72-1.34,0-.73.39-1.28,1-1.46-.05-.02-.1-.05-.14-.09-.13-.13-.19-.35-.14-.53l-.45.81ZM18.5,14.15c.64.17,1.06.73,1.06,1.48,0,.58-.25,1.04-.66,1.31.43-.22.75-.65.75-1.37,0-.87-.56-1.33-1.15-1.41ZM18.06,15.1c-.4,0-.49.29-.49.54s.08.54.49.54.5-.29.5-.54-.09-.54-.5-.54Z"/>
            <path class="cls-2" d="M22.4,18.02h-.96c-.33,0-.6-.26-.6-.6v-.98c0-.33.26-.6.6-.6h.96c.33,0,.6.26.6.6v.98c0,.33-.26.6-.6.6ZM21.85,17.02h.15v-.17h-.15v.17ZM22.4,16.85h0,0Z"/>
          </g>
          <g>
            <path class="cls-1" d="M.5,16.71c0-.06,0-.09.05-.12l2.3-2.87c.26-.32.42-.62.42-1,0-.49-.32-.86-.86-.86-.52,0-.82.32-.88.82,0,.06-.05.09-.11.08l-.84-.17c-.06,0-.09-.06-.08-.11.09-.77.7-1.56,1.94-1.56s1.92.81,1.92,1.82c0,.59-.23,1.07-.61,1.53l-1.9,2.3v.02h2.42c.06,0,.1.04.1.1v.77c0,.06-.04.1-.1.1H.6c-.06,0-.1-.04-.1-.1v-.72Z"/>
            <path class="cls-1" d="M5.67,14.26c0-1.52.05-1.82.13-2.09.26-.82.88-1.28,1.85-1.28s1.59.46,1.86,1.28c.09.27.13.58.13,2.09s-.05,1.82-.13,2.09c-.27.82-.89,1.28-1.86,1.28s-1.59-.46-1.85-1.28c-.09-.27-.13-.58-.13-2.09ZM7.65,16.67c.4,0,.68-.17.81-.52.07-.2.09-.42.09-1.89s-.02-1.69-.09-1.89c-.12-.35-.4-.52-.81-.52s-.67.17-.8.52c-.07.2-.09.42-.09,1.89s.02,1.69.09,1.89c.12.35.39.52.8.52Z"/>
            <path class="cls-1" d="M10.93,16.71c0-.06,0-.09.05-.12l2.3-2.87c.26-.32.42-.62.42-1,0-.49-.32-.86-.86-.86-.52,0-.82.32-.88.82,0,.06-.05.09-.11.08l-.84-.17c-.06,0-.09-.06-.08-.11.09-.77.7-1.56,1.94-1.56s1.92.81,1.92,1.82c0,.59-.23,1.07-.61,1.53l-1.9,2.3v.02h2.42c.06,0,.1.04.1.1v.77c0,.06-.04.1-.1.1h-3.67c-.06,0-.1-.04-.1-.1v-.72Z"/>
            <path class="cls-1" d="M16.41,14.12l1.71-3.06s.05-.06.12-.06h.92c.07,0,.09.04.06.1l-1.44,2.61.02.02c.1-.05.29-.09.49-.09,1.01,0,1.86.73,1.86,1.93,0,1.33-.92,2.06-2.08,2.06s-2.08-.73-2.08-2.02c0-.52.18-1.04.43-1.5ZM18.06,16.67c.61,0,1-.42,1-1.04s-.38-1.04-1-1.04-.99.42-.99,1.04.38,1.04.99,1.04Z"/>
            <path class="cls-1" d="M21.35,16.45c0-.06.04-.1.1-.1h.96c.06,0,.1.04.1.1v.98c0,.06-.04.1-.1.1h-.96c-.06,0-.1-.04-.1-.1v-.98Z"/>
          </g>
        </g>
        <g>
          <g>
            <path class="cls-2" d="M29.96,18.85c-3.11,0-5.42-1.64-6.02-4.28-.12-.69.24-1.28.85-1.48.03,0,.06-.02.09-.03l2.09-.48c.66-.13,1.26.22,1.46.83.24.69.75,1.04,1.52,1.04,1.26,0,1.4-1,1.4-1.42,0-1.07-.59-1.66-1.66-1.66h-.7c-.7,0-1.24-.54-1.24-1.24v-1.9c0-.7.54-1.24,1.24-1.24h.65c.89,0,1.38-.49,1.38-1.38,0-.55-.21-1.21-1.18-1.21-.67,0-1.03.29-1.22.96-.21.65-.78.99-1.41.88l-2.1-.49c-.62-.1-1.06-.73-.95-1.43.47-2.59,2.8-4.32,5.79-4.32,3.47,0,5.8,2.22,5.8,5.51,0,1.26-.44,2.43-1.25,3.33.88.87,1.58,2.28,1.58,4.06,0,3.44-2.57,5.94-6.11,5.94ZM26.13,14.83c.59,1.27,1.97,2.02,3.83,2.02,2.46,0,4.11-1.58,4.11-3.94,0-1.73-.95-2.79-1.55-3.04-.37-.16-.61-.52-.61-.92,0-.34.17-.7.45-.88.89-.59,1.37-1.49,1.37-2.55,0-2.2-1.42-3.51-3.8-3.51-1.72,0-3.06.76-3.61,1.98l.62.15c.54-1.1,1.57-1.72,2.89-1.72,1.87,0,3.18,1.32,3.18,3.21s-1.34,3.32-3.26,3.38v.38c2.16.03,3.6,1.49,3.6,3.66,0,2.02-1.4,3.42-3.4,3.42-1.38,0-2.51-.65-3.14-1.78l-.69.16ZM26.55,14.05s0,.02,0,.02c0,0,0-.01,0-.02ZM25.5,3.78l.09.02s-.06-.02-.09-.02Z"/>
            <path class="cls-2" d="M40.49,18.59h-2.4c-.7,0-1.24-.54-1.24-1.24v-2.45c0-.7.54-1.24,1.24-1.24h2.4c.7,0,1.24.54,1.24,1.24v2.45c0,.7-.54,1.24-1.24,1.24ZM38.85,16.59h.88v-.93h-.88v.93ZM40.49,15.66h0,0Z"/>
            <path class="cls-2" d="M48.52,18.59h-2.21c-.7,0-1.24-.54-1.24-1.24V6.37l-.97.68c-.4.27-.86.3-1.23.1-.38-.2-.6-.6-.6-1.06v-2.45c0-.31.09-.76.54-1.12l2.66-1.93c.27-.22.61-.33,1.02-.33h2.04c.7,0,1.24.54,1.24,1.24v15.84c0,.7-.54,1.24-1.24,1.24ZM47.08,16.59h.69V2.26h-1.19l-2.31,1.67v.56l1.19-.83c.62-.44,1.62.06,1.62.82v12.1ZM46.68,2.19h-.02s.01,0,.02,0Z"/>
            <path class="cls-2" d="M62,18.59h-2.21c-.7,0-1.24-.54-1.24-1.24v-1.26h-5.55c-.7,0-1.24-.54-1.24-1.24v-1.85c0-.28.06-.54.19-.76l5.26-11.21c.15-.3.49-.77,1.24-.77h2.28c.41,0,.78.18.99.5.21.32.25.71.1,1.08l-2.55,5.48c.16-.07.33-.11.51-.11h2.21c.7,0,1.24.54,1.24,1.24v3.22h.34c.7,0,1.24.54,1.24,1.24v1.92c0,.7-.54,1.24-1.24,1.24h-.34v1.26c0,.7-.54,1.24-1.24,1.24ZM60.55,16.59h.69v-1.35c0-.65.49-1.14,1.14-1.14h.44v-.4h-.44c-.65,0-1.14-.49-1.14-1.14v-3.32h-.69v3.32c0,.65-.49,1.14-1.14,1.14h-3.7c-.55,0-1-.45-1-1,0-.15.03-.34.09-.47l4.62-9.96h-.59l-5.08,10.83v1h5.65c.65,0,1.14.49,1.14,1.14v1.35ZM59.41,16.09h0,0ZM55.71,12.64h0,0ZM57.26,11.69h1.3v-2.79l-1.3,2.79Z"/>
          </g>
          <g>
            <path class="cls-1" d="M25.11,14.03l2.09-.48c.12-.02.24.02.29.17.34.96,1.13,1.73,2.47,1.73,1.51,0,2.4-1.03,2.4-2.42,0-1.66-1.06-2.66-2.66-2.66h-.7c-.14,0-.24-.1-.24-.24v-1.9c0-.14.1-.24.24-.24h.65c1.44,0,2.38-.94,2.38-2.38,0-1.3-.82-2.21-2.18-2.21-1.2,0-1.9.67-2.18,1.68-.05.14-.14.19-.29.17l-2.04-.48c-.14-.02-.22-.14-.19-.29.36-1.97,2.16-3.48,4.8-3.48,3.05,0,4.8,1.87,4.8,4.51,0,1.37-.62,2.59-1.82,3.38v.05c.96.41,2.16,1.82,2.16,3.96,0,2.98-2.18,4.94-5.11,4.94-2.54,0-4.54-1.27-5.04-3.5-.02-.14.05-.26.19-.31Z"/>
            <path class="cls-1" d="M37.85,14.9c0-.14.1-.24.24-.24h2.4c.14,0,.24.1.24.24v2.45c0,.14-.1.24-.24.24h-2.4c-.14,0-.24-.1-.24-.24v-2.45Z"/>
            <path class="cls-1" d="M46.08,4.48h-.05l-2.5,1.75c-.14.1-.26.05-.26-.14v-2.45c0-.14.05-.24.17-.34l2.62-1.9c.12-.1.24-.14.43-.14h2.04c.14,0,.24.1.24.24v15.84c0,.14-.1.24-.24.24h-2.21c-.14,0-.24-.1-.24-.24V4.48Z"/>
            <path class="cls-1" d="M52.76,14.85v-1.85c0-.12.02-.22.07-.29l5.28-11.26c.07-.14.17-.19.34-.19h2.28c.17,0,.22.1.17.22l-5.18,11.16v.05h3.7c.1,0,.14-.05.14-.14v-4.08c0-.14.1-.24.24-.24h2.21c.14,0,.24.1.24.24v4.08c0,.1.05.14.14.14h1.2c.14,0,.24.1.24.24v1.92c0,.14-.1.24-.24.24h-1.2c-.1,0-.14.05-.14.14v2.11c0,.14-.1.24-.24.24h-2.21c-.14,0-.24-.1-.24-.24v-2.11c0-.1-.05-.14-.14-.14h-6.41c-.14,0-.24-.1-.24-.24Z"/>
          </g>
        </g>
        <g>
          <path class="cls-2" d="M72.36,18.93c-3.42,0-6.2-2.78-6.2-6.2s2.78-6.2,6.2-6.2,6.2,2.78,6.2,6.2-2.78,6.2-6.2,6.2ZM72.36,7.52c-2.87,0-5.2,2.33-5.2,5.2s2.33,5.2,5.2,5.2,5.2-2.33,5.2-5.2-2.33-5.2-5.2-5.2Z"/>
          <circle class="cls-3" cx="72.36" cy="12.72" r="5.7"/>
        </g>
        <path class="cls-2" d="M71.97,10.19c0-.32-.01-.6-.05-.89h1.12c-.04.27-.05.54-.05.89v1.19h1.32c.42,0,.71-.01,1-.05v1c-.32-.03-.6-.04-1-.04h-1.32v2.48h1.74c.44,0,.81-.01,1.09-.05v1.01c-.3-.04-.65-.05-1.09-.05h-4.36c-.44,0-.8.01-1.1.05v-1.01c.28.04.65.05,1.1.05h1.6v-2.48h-1.19c-.4,0-.69.01-1.01.04v-1c.28.04.6.05,1.01.05h1.19v-1.19Z"/>
      </g>
      <g>
        <g>
          <path class="cls-2" d="M32.28,39.37h-1.55c-.28,0-.5-.22-.5-.5v-4.61c0-.28.22-.5.5-.5h1.55c.19,0,.36.11.45.27.08.17.07.37-.04.52-.28.38-.36.54-.46.83-.12.35-.18.73-.18,1.18s.06.84.18,1.19c.1.28.18.44.46.83.11.15.13.35.04.52-.09.17-.26.27-.45.27ZM31.22,38.37h.17c-.04-.09-.08-.19-.11-.29-.02-.05-.04-.11-.05-.16v.45ZM31.22,34.76v.45c.02-.05.03-.11.05-.16.04-.11.07-.2.12-.29h-.17Z"/>
          <path class="cls-2" d="M34.84,39.35c-.16,0-.32-.08-.41-.22-.09-.13-.14-.19-.28-.3,0,0-.01-.01-.02-.02-.12-.04-.22-.12-.29-.23-.06-.11-.1-.16-.22-.27-.01-.01-.03-.02-.04-.04-.1.05-.21.1-.34.16-.14.08-.35.11-.5.04s-.29-.18-.32-.33l-.13-.67c-.05-.27.12-.53.39-.58.03,0,.07-.02.1-.03v-.31c-.1,0-.2-.05-.28-.12-.11-.1-.18-.23-.18-.38v-.6c0-.15.06-.28.17-.38.08-.07.18-.11.29-.12v-.04c0-.23,0-.34-.02-.48-.02-.14.03-.29.12-.39.09-.11.23-.17.37-.17h.66c.12,0,.23.04.32.11.08-.04.18-.05.27-.04.13.02.22.02.44.02h1.46c.22,0,.33,0,.45-.02.15-.02.31.03.42.14.11.11.16.26.15.41-.01.12-.02.21-.02.44v.65s0,.09,0,.12c.07.02.14.06.2.11.11.1.17.23.17.37v.54c0,.12-.04.23-.11.32,0,.02,0,.04,0,.07-.02.85-.12,1.41-.3,1.69-.26.41-.7.47-1.15.47-.08,0-.14,0-.26,0h-.14c-.14-.01-.26-.08-.35-.17-.12.07-.25.13-.4.2-.07.03-.14.05-.21.05Z"/>
          <path class="cls-2" d="M40.15,39.3c-.15,0-.29-.07-.39-.18-.15-.19-.24-.26-.4-.37-.22-.14-.29-.43-.16-.66.22-.39.29-.73.29-2,0-.29,0-.43-.02-.58,0,0,0,0,0,0-.11-.09-.17-.23-.17-.38v-.62c0-.14.06-.28.17-.38.11-.1.25-.14.39-.12.13.02.24.02.48.02h.99c.27,0,.37,0,.48-.02.15-.02.29.02.4.12.03.03.06.06.09.1.24-.02.48-.06.72-.11.3-.08.51-.16.6-.2.25-.13.55-.03.67.21l.31.59c.07.14.08.3,0,.45-.04.08-.1.16-.18.21.02.01.04.03.06.05.11.1.17.23.17.38v.63c0,.14-.06.28-.16.37-.08.07-.18.12-.28.13v1.31c0,.22,0,.33.02.46.02.14-.02.29-.11.4-.1.11-.23.18-.38.18h-.67c-.14,0-.28-.06-.37-.17-.09-.11-.14-.25-.12-.39,0-.08.02-.15.02-.22-.13.2-.29.41-.52.66-.1.11-.24.17-.4.16-.15,0-.29-.08-.38-.21-.12-.16-.2-.25-.36-.37-.05-.04-.1-.09-.13-.15-.06.16-.14.31-.22.47-.08.14-.23.24-.39.25-.01,0-.03,0-.04,0ZM41.04,37.6c0,.09-.02.17-.04.25.1-.1.16-.17.21-.25h-.17Z"/>
          <path class="cls-2" d="M46.22,39.37h-1.55c-.19,0-.36-.11-.45-.27-.08-.17-.07-.37.04-.52.29-.4.37-.55.46-.82.12-.36.18-.73.18-1.19s-.06-.83-.18-1.19c-.09-.27-.17-.43-.46-.83-.11-.15-.13-.35-.04-.52.09-.17.26-.27.45-.27h1.55c.28,0,.5.22.5.5v4.61c0,.28-.22.5-.5.5ZM45.56,38.37h.16v-.45c-.02.05-.03.11-.05.16-.04.1-.07.2-.11.29ZM45.56,34.76c.04.09.08.19.11.3.02.05.04.1.05.16v-.45h-.16Z"/>
        </g>
        <g>
          <path class="cls-1" d="M32.28,34.26c-.3.41-.41.62-.53.96-.14.4-.21.84-.21,1.35s.07.95.21,1.35c.12.34.23.55.53.96h-1.55v-4.61h1.55Z"/>
          <path class="cls-1" d="M34.73,37.33c-.19.15-.32.23-.57.36-.05-.1-.07-.13-.14-.22-.29.18-.49.28-.99.51-.02,0-.03.01-.12.06l-.13-.67c.11-.02.24-.07.5-.16v-1.18h-.11c-.13,0-.24,0-.36.02v-.6c.1.01.21.02.36.02h.11v-.56c0-.25,0-.39-.03-.54h.66c-.02.15-.03.28-.03.54v.56h.07c.14,0,.24,0,.31-.01v.59c-.11,0-.18-.01-.31-.01h-.08v.91c.1-.05.13-.07.3-.15v.33c.25-.15.38-.25.51-.41h-.06c-.21,0-.34,0-.45.02v-.54c.11.02.24.02.46.02h2.12c.23,0,.38,0,.51-.02v.54c-.14-.02-.29-.02-.5-.02h-1.47c-.05.08-.06.1-.12.17h1.53c.23,0,.33,0,.47-.01-.01.09-.01.13-.02.29-.02.68-.1,1.19-.23,1.39-.11.18-.3.24-.73.24-.1,0-.17,0-.38-.01-.02-.18-.05-.3-.12-.46-.26.23-.5.37-.86.54-.12-.18-.21-.27-.38-.41.38-.15.61-.27.87-.48.22-.16.38-.35.53-.63h-.24c-.33.46-.71.75-1.35,1-.09-.16-.17-.25-.33-.39.54-.17.84-.34,1.09-.61h-.3ZM34.87,36.04c-.18,0-.33,0-.44.01.01-.15.02-.27.02-.48v-.69c0-.2,0-.31-.02-.45.15.02.25.02.5.02h1.46c.25,0,.37,0,.52-.02-.01.13-.02.24-.02.49v.65c0,.21,0,.35.02.47-.1,0-.24,0-.43,0h-1.61ZM35.03,35.1h1.29v-.17h-1.29v.17ZM35.03,35.63h1.29v-.16h-1.29v.16ZM36.43,37.33c-.19.39-.34.6-.6.86.15.01.28.02.38.02.18,0,.23-.04.27-.26.03-.14.04-.28.07-.62h-.13Z"/>
          <path class="cls-1" d="M41.77,36.71c0,.23,0,.29,0,.4-.06,0-.22,0-.49,0h-.72c-.03.73-.15,1.22-.42,1.7-.18-.22-.3-.33-.51-.47.28-.5.36-.96.36-2.24,0-.35,0-.49-.02-.69.16,0,.27.01.51.01h.8c.25,0,.34,0,.5-.01,0,.11-.01.27-.01.47v.84ZM39.8,34.5c.15.02.27.02.55.02h.99c.31,0,.43,0,.56-.02v.62c-.12-.01-.26-.02-.53-.02h-1.06c-.24,0-.37,0-.51.02v-.62ZM41.18,36.57v-.62h-.59v.29c0,.17,0,.2,0,.33h.59ZM42.64,36.39c-.04.64-.1.97-.23,1.31-.14.4-.32.68-.71,1.1-.15-.21-.27-.33-.47-.48.26-.25.37-.39.48-.61.17-.34.26-.67.3-1.1.02-.29.04-.68.04-1.3,0-.34,0-.44-.02-.6.37,0,.74-.05,1.11-.14.3-.08.56-.17.71-.25l.31.59c-.1.02-.12.03-.24.06-.47.13-.78.2-1.26.26v.54h1.02c.24,0,.33,0,.48-.02v.63c-.14-.01-.24-.02-.42-.02h-.02v1.83c0,.26,0,.38.03.54h-.67c.02-.17.03-.3.03-.54v-1.83h-.46Z"/>
          <path class="cls-1" d="M46.22,34.26v4.61h-1.55c.3-.41.41-.62.53-.96.14-.4.21-.84.21-1.35s-.07-.95-.21-1.35c-.12-.34-.23-.55-.53-.96h1.55Z"/>
        </g>
      </g>
      <g>
        <g>
          <path class="cls-2" d="M10.63,48.14h-.76c-.2,0-.38-.12-.46-.3h-1.12c-.08.17-.25.3-.46.3h-.76c-.14,0-.28-.06-.38-.17-.09-.11-.14-.25-.12-.39.02-.16.03-.32.03-.52v-.38c-.09.04-.19.08-.3.12-.25.1-.54-.01-.65-.26-.1-.22-.16-.32-.35-.54-.11-.13-.15-.31-.1-.47.05-.16.18-.29.34-.34.14-.04.27-.08.4-.13-.08-.05-.14-.11-.19-.19-.12-.21-.19-.3-.33-.42-.13-.11-.19-.28-.16-.44.02-.17.13-.31.28-.38.43-.21.8-.45,1.15-.77.26-.23.46-.48.6-.75.1-.2.33-.31.56-.26l.79.18c.16.04.29.15.35.3,0,.01.01.03.02.04h.37c.17,0,.29,0,.4-.02.16-.02.32.03.43.14l.4.4c.18.18.19.47.03.67-.09.11-.12.14-.2.25-.21.27-.42.51-.64.74h.32c.22,0,.33,0,.46-.01.15-.02.3.04.41.16.1.11.15.26.13.41-.02.14-.02.27-.02.47v1.48c0,.22,0,.36.03.51.02.14-.02.29-.12.4s-.23.17-.38.17ZM8.33,46.21h1.06s-1.06,0-1.06,0ZM7.92,45.21h.04s0,0,0,0c0,0,0-.02,0-.03-.01.01-.02.02-.04.03Z"/>
          <path class="cls-2" d="M13.18,48.15c-.14,0-.28-.06-.38-.17-.16-.18-.24-.25-.46-.38-.12-.07-.21-.19-.24-.33-.03.01-.06.03-.1.05-.14.07-.3.08-.44.01-.14-.07-.24-.19-.28-.35l-.17-.77c-.03-.13,0-.27.07-.38s.19-.19.32-.22c.05,0,.09-.02.15-.04v-.55c-.1,0-.2-.05-.28-.12-.11-.09-.17-.23-.17-.38v-.7c0-.14.06-.28.17-.38.08-.07.18-.11.28-.12v-.2c0-.27,0-.41-.03-.56-.02-.14.03-.29.12-.39s.23-.17.38-.17h.74c.15,0,.28.06.38.17.1.11.14.26.12.4,0,.02,0,.05,0,.07.02,0,.04,0,.07,0,.11.02.28.03.47.03h.58s0-.09-.01-.13c-.02-.14.02-.29.12-.4.09-.11.23-.17.38-.17h.77c.07,0,.13.01.19.04l.22-.08c.2-.07.42-.02.56.15.2.24.29.38.42.64.02.01.05.03.07.05.11.09.17.23.17.38v.74c0,.12-.04.23-.11.31,0,0,0,.01,0,.02.06.12.06.26.01.39q-.05.14-.15.43c-.07.22-.15.44-.25.66,0,0,0,0,.01.01.15.17.25.27.38.36.15.11.22.28.2.46-.06.51-.13.8-.25,1.04-.36.67-1.15.71-1.69.02-.17.15-.36.28-.59.43-.11.07-.25.1-.39.06-.13-.03-.25-.12-.31-.24-.1-.18-.17-.27-.31-.39-.1.16-.21.33-.35.5-.09.12-.23.19-.38.19h-.01Z"/>
          <path class="cls-2" d="M18.2,48.12c-.19,0-.37-.11-.46-.29-.1-.22-.2-.38-.39-.59-.11-.12-.15-.29-.11-.45.04-.16.15-.29.3-.35.39-.15.59-.26.84-.44.41-.3.68-.62.84-1.04h-.59c-.35,0-.49,0-.68.03-.14.02-.29-.02-.4-.12-.11-.09-.17-.23-.17-.38v-.81c0-.14.06-.28.17-.37.11-.09.25-.14.39-.12.18.02.37.03.69.03h.8v-.08c0-.23,0-.38-.03-.51-.03-.15.01-.3.11-.41.1-.11.24-.18.38-.18h.87c.15,0,.29.06.38.18.1.11.14.26.11.4-.03.17-.03.22-.03.6h.88c.31,0,.5,0,.69-.03.14-.01.28.03.39.12.11.09.17.23.17.37v.81c0,.14-.06.28-.17.37-.11.09-.25.14-.39.12-.22-.03-.38-.03-.68-.03h-.59c.12.2.26.38.43.56.36.39.72.63,1.31.86.15.06.26.19.3.34.04.16,0,.32-.1.44-.19.22-.27.35-.42.66-.06.12-.16.22-.29.26-.13.04-.27.03-.39-.03-.68-.35-1.15-.7-1.59-1.21-.12-.14-.23-.28-.33-.42-.13.19-.27.36-.44.54-.47.48-.93.8-1.59,1.1-.07.03-.13.04-.2.04ZM20.32,44.73c0,.05-.02.11-.03.16.03,0,.06-.01.08-.01-.02-.05-.04-.1-.05-.14ZM20.22,44.12s0,0,.01.01c.03.03.05.07.07.11.01-.03.03-.06.05-.08.01-.02.03-.04.05-.05-.02-.01-.03-.03-.05-.04-.01-.01-.03-.03-.04-.04-.03.04-.06.07-.1.1Z"/>
          <path class="cls-2" d="M25.84,48.12c-.12,0-.25,0-.43,0h-.16c-.24,0-.44-.18-.48-.42-.05-.28-.08-.38-.18-.59-.07-.15-.06-.33.03-.47h-.06c-.27,0-.5,0-.66.03-.14.02-.28-.03-.39-.12-.11-.1-.17-.23-.17-.38v-.73c0-.14.06-.27.16-.37-.01-.01-.02-.02-.03-.03-.1-.11-.13-.26-.11-.41.02-.1.02-.21.02-.36v-.57c0-.17,0-.28-.02-.41-.02-.15.03-.3.14-.41.1-.1.23-.16.37-.15-.01-.08,0-.17.02-.25.06-.16.19-.28.35-.32l.69-.17c.18-.04.38.02.5.16.05-.03.1-.05.16-.07l.71-.16c.22-.05.45.06.55.26.06.13.12.23.16.32.03-.08.07-.15.1-.24.09-.24.34-.38.59-.32l.72.17c.15.04.27.14.34.27.05.1.06.22.04.32.13,0,.28.05.38.15.11.11.16.26.14.41-.01.12-.02.22-.02.41v.57c0,.15,0,.26.02.38.02.14-.03.28-.12.39,0,0-.01.01-.02.02.11.09.17.23.17.37v.73c0,.14-.06.28-.17.38-.11.09-.25.14-.39.12-.16-.02-.4-.03-.68-.03h-.85v.38c0,1.09-.88,1.09-1.41,1.09ZM26.44,45.75s0,0,0,.01c0,0,0,0,.01-.01,0,0,0,0,0,0Z"/>
          <path class="cls-2" d="M34.49,48.1c-.06,0-.12-.01-.18-.03-.72-.27-1.27-.64-1.74-1.15-.09-.1-.17-.2-.26-.31-.13.18-.29.35-.47.51-.45.42-.92.69-1.62.94-.25.09-.52-.03-.62-.27-.12-.26-.2-.4-.34-.55-.12-.13-.16-.31-.11-.47.05-.17.18-.3.34-.34.64-.18,1-.38,1.3-.72.07-.08.13-.15.18-.23h-.27c-.25,0-.49.01-.72.03-.14.01-.28-.03-.38-.13-.1-.09-.16-.23-.16-.37v-.72c0-.12.05-.24.13-.33-.06-.02-.11-.05-.15-.1-.1-.09-.16-.23-.16-.37v-.74c0-.14.06-.28.17-.37.11-.1.25-.14.39-.12.19.02.45.03.72.03h3.47c.26,0,.52-.01.73-.03.14-.01.28.03.39.13.1.09.17.23.17.37v.74c0,.14-.06.28-.16.37-.05.04-.1.07-.16.1.08.09.13.21.13.33v.72c0,.14-.06.27-.16.37-.1.09-.24.14-.38.13-.24-.02-.46-.03-.72-.03h-.27c.05.07.11.13.17.2.24.24.53.44.84.57.15.06.25.09.48.15.16.04.29.16.35.32.06.16.03.33-.07.47-.2.27-.28.4-.38.63-.08.19-.27.31-.46.31ZM32.21,45.07s0,0,0,0c0,0,0,0,0,.01,0,0,0,0,0,0,0,0,0-.01,0-.02ZM32.14,44.68s.06.1.07.16c.01-.05.03-.09.05-.13-.02-.02-.05-.04-.07-.06,0,0,0,0,0,0-.01.01-.03.03-.04.04Z"/>
          <path class="cls-2" d="M40.32,48.1h-.8c-.19,0-.36-.11-.44-.27h-1.85c-.08.16-.25.27-.44.27h-.78c-.14,0-.28-.06-.37-.17s-.14-.25-.13-.39c.02-.2.03-.42.03-.72v-3.02c0-.25-.01-.47-.03-.65-.01-.15.04-.3.15-.4.11-.1.26-.16.41-.14.16.02.32.02.54.02h.51c.07-.15.12-.28.14-.36.06-.24.29-.4.54-.37l.85.1c.15.02.29.11.37.24.07.12.09.26.05.39h.61c.24,0,.4,0,.59-.02.15-.02.3.04.41.15.11.11.16.26.14.41-.02.17-.03.39-.03.64v3.02c0,.31.01.52.03.71.02.14-.03.28-.13.39s-.23.17-.37.17ZM37.28,46.13h1.74v-.08h-1.74v.08ZM37.28,44.36l1.74-.04-1.74.04Z"/>
          <path class="cls-2" d="M43.87,48.08c-.11,0-.23-.04-.32-.11-.11-.09-.18-.23-.18-.37,0-.15-.04-.39-.1-.71l-.07-.38-.73.11c-.31.05-.43.07-.64.13-.14.04-.28.02-.41-.06-.12-.08-.2-.2-.23-.34l-.13-.81c-.02-.14.02-.29.11-.4.05-.06.12-.11.19-.14-.08-.07-.15-.16-.16-.26l-.13-.82c-.02-.14.02-.29.11-.4.09-.11.23-.18.37-.18.23,0,.32-.02.69-.07l.36-.06c-.04-.22-.05-.25-.09-.37-.05-.14-.04-.3.04-.43.08-.13.21-.22.35-.24l.88-.14c.14-.02.29.02.4.11.11.09.18.23.18.37,0,.13.02.24.05.42l.51-.08c.33-.05.44-.07.64-.13.14-.04.29-.02.41.05.12.08.21.2.23.34l.13.81c.02.11,0,.22-.05.32.05.01.1.03.15.06.12.07.21.2.23.34l.14.81c.02.14-.01.28-.1.4-.09.11-.22.18-.36.19-.18.01-.18.01-.68.09l-.63.1.06.33c.07.4.1.52.16.72.05.14.03.29-.05.41-.08.12-.2.21-.35.23l-.91.15s-.06,0-.08,0ZM43.86,45.51s.08.06.12.1c.01-.03.03-.06.05-.09,0,0,0-.01.01-.02-.04-.03-.08-.06-.12-.1-.01.03-.03.06-.05.09,0,0,0,.01-.01.02ZM43.58,43.95s.08.06.12.09c.01-.03.03-.05.04-.08,0,0,.01-.02.02-.03-.04-.02-.08-.06-.12-.09-.01.03-.03.05-.04.08,0,0-.01.02-.02.03Z"/>
          <path class="cls-2" d="M48.98,48.08c-.11,0-.22-.04-.31-.1-.11-.09-.18-.22-.19-.36-.02-.2-.04-.34-.08-.6l-.25-1.39c-.17.03-.25.05-.4.1-.14.04-.28.02-.41-.05-.12-.07-.21-.2-.23-.34l-.13-.74c-.03-.14.01-.29.1-.4.09-.11.23-.18.37-.19.14,0,.23-.01.39-.04-.02-.11-.04-.17-.07-.26-.05-.14-.04-.3.04-.43s.21-.22.36-.24l.79-.12c.14-.02.28.02.39.11.11.09.18.22.18.36,0,.11.02.2.03.3l1.13-.19c.21-.03.22-.04.26-.06.19-.1.42-.07.57.07l.45.41c.19.17.22.45.07.66-.03.04-.04.05-.08.17-.28.72-.64,1.22-1.26,1.74-.18.15-.43.15-.61.02l.04.19c.06.3.08.38.15.58.05.14.03.29-.04.41-.07.12-.2.21-.34.24l-.83.15s-.06,0-.09,0ZM48.86,44.66h.01s0,0,0,0h-.01s0,0,0,0Z"/>
          <path class="cls-2" d="M53.03,47.82c-.08,0-.16-.02-.24-.06-.12-.07-.21-.18-.25-.31l-.25-.92c-.04-.14-.01-.3.08-.42.09-.12.22-.2.37-.21.48-.03,1.05-.17,1.5-.37.62-.26,1.04-.61,1.43-1.19.22-.33.36-.6.51-1.01.06-.17.21-.29.38-.32.18-.03.35.03.47.17.23.27.3.34.62.57.2.14.27.4.16.62-.6,1.29-1.34,2.12-2.41,2.69-.49.26-1.18.5-1.76.63l-.25.05c-.1.02-.13.03-.22.06-.05.02-.11.03-.16.03ZM54.23,45.25c-.14,0-.27-.06-.36-.16-.43-.45-.86-.79-1.35-1.06-.13-.07-.22-.2-.25-.34-.03-.15.01-.3.11-.41l.55-.66c.16-.19.43-.24.64-.11.74.45,1.09.7,1.57,1.15.19.18.21.47.06.67l-.57.73c-.09.12-.23.19-.37.19,0,0-.02,0-.02,0Z"/>
          <path class="cls-2" d="M62.34,47.8s-.02,0-.02,0c-.15,0-.28-.08-.37-.19-.47-.6-.76-1.13-1.03-1.87-.21-.55-.39-1.21-.5-1.9-.11.74-.24,1.27-.42,1.81-.27.8-.57,1.35-1.08,1.97-.09.11-.22.17-.36.18-.14,0-.28-.04-.38-.14-.26-.25-.34-.31-.67-.5-.13-.08-.22-.21-.25-.36-.02-.15.02-.3.13-.42.35-.38.52-.64.71-1.08.22-.51.38-1.11.47-1.79.03-.21.04-.37.04-.5,0-.15.07-.32.18-.41.11-.1.26-.17.41-.14l.91.16c.12.02.23.09.3.18.07-.1.18-.16.3-.18l.82-.16c.11-.02.22,0,.31.04.17-.11.37-.17.59-.17.62,0,1.12.5,1.12,1.12s-.48,1.1-1.08,1.12c.11.33.25.66.4.94.17.31.31.51.59.84.09.11.14.26.11.4s-.11.27-.23.35c-.31.19-.39.26-.64.52-.09.1-.23.16-.36.16ZM62.43,43.35c-.07,0-.12.06-.12.12,0,.13.24.13.24,0,0-.07-.05-.12-.12-.12Z"/>
          <path class="cls-2" d="M68.27,47.96s-.01,0-.02,0c-.15,0-.28-.07-.37-.19-.36-.45-.77-.87-1.23-1.26-.52.51-1.18.97-1.92,1.33-.24.12-.54.02-.66-.22-.16-.31-.21-.38-.45-.63-.12-.12-.16-.29-.13-.45.04-.16.15-.3.3-.36.46-.18.76-.35,1.13-.62.51-.37.92-.81,1.24-1.31h-.8c-.42.02-.52.03-.71.06-.14.02-.29-.02-.4-.11-.11-.09-.18-.23-.18-.38v-.85c-.01-.15.05-.29.16-.38.11-.1.26-.14.41-.12.16.02.3.03.6.03l2.01-.03s.09,0,.12,0c.05,0,.09,0,.12,0,.19-.09.45-.06.6.09l.43.45c.18.19.19.49,0,.69-.02.02-.04.04-.09.16-.2.48-.4.86-.62,1.21.46.34.72.58,1.48,1.31.2.19.21.5.02.7l-.68.73c-.09.1-.23.16-.37.16ZM66.62,45.33s.02,0,.03,0c0,0,0-.02,0-.03,0,0-.02.02-.02.03ZM67.4,43.46s.04.08.06.12c.02-.04.03-.08.05-.12,0,0,0,0,0,0-.03,0-.07,0-.11,0Z"/>
          <path class="cls-2" d="M18.44,55.19s-.05,0-.07,0c-.15-.02-.44-.04-.76-.04h-1.71c-.33,0-.53,0-.73.02-.16,0-.3-.05-.4-.16-.1-.11-.15-.26-.12-.41.03-.19.04-.38.04-.7v-2.93c0-.36,0-.56-.04-.8-.02-.14.02-.29.12-.4.1-.11.23-.17.38-.17h1.02c.14,0,.28.06.37.17.09.11.14.25.12.39-.04.32-.04.39-.04.79v2.37h1c.36,0,.54-.01.77-.04.14-.02.28.03.39.12s.17.23.17.37v.91c0,.14-.06.28-.17.38-.09.08-.21.12-.33.12ZM15.68,54.08s0,.05,0,.08c.02,0,.04,0,.06,0-.02-.02-.04-.05-.05-.07Z"/>
          <path class="cls-2" d="M20.33,55.15h-1.03c-.15,0-.28-.06-.38-.17-.1-.11-.14-.26-.11-.4.03-.2.04-.38.04-.7v-3.01c0-.35,0-.48-.04-.7-.02-.14.02-.29.12-.4.1-.11.23-.17.38-.17h1.03c.15,0,.28.06.38.17.09.11.14.26.12.4-.03.2-.04.36-.04.7v3.01c0,.32,0,.5.04.7.02.14-.02.29-.11.4-.09.11-.23.17-.38.17Z"/>
          <path class="cls-2" d="M23.5,55.25c-1.6,0-2.67-1.16-2.67-2.89s1.07-2.86,2.67-2.86c.77,0,1.4.25,1.88.73.51.5.79,1.26.79,2.13,0,1.73-1.07,2.89-2.67,2.89ZM23.5,51.31c-.65,0-.72.73-.72,1.04s.07,1.08.72,1.08c.61,0,.7-.67.7-1.07s-.1-.72-.27-.89c-.11-.11-.26-.17-.44-.17Z"/>
          <path class="cls-2" d="M30.68,55.15h-1.05c-.2,0-.38-.12-.46-.3-.06-.13-.18-.34-.34-.59l-.69-1.02v.55c0,.35,0,.58.04.78.02.14-.02.29-.11.4-.09.11-.23.17-.38.17h-1c-.15,0-.29-.06-.38-.18-.09-.11-.14-.26-.11-.41.03-.16.04-.39.04-.78v-2.91c0-.28,0-.49-.04-.71-.02-.14.02-.29.12-.4.09-.11.23-.17.38-.17h1.04c.21,0,.4.14.47.34.02.07.1.22.3.53l.72,1.08v-.63c0-.33,0-.51-.04-.73-.02-.15.02-.29.11-.4.1-.11.23-.18.38-.18h1c.15,0,.28.06.38.17.09.11.14.25.12.4-.03.21-.04.41-.04.74v2.96c0,.3,0,.51.04.7.02.14-.02.29-.11.4-.1.11-.23.18-.38.18ZM29.93,54.15h.21c0-.08,0-.18,0-.28v-.24c-.06.07-.14.12-.23.15-.06.02-.13.02-.19.02.08.13.15.25.21.35ZM27.23,50.6c0,.09,0,.18,0,.28v.24c.06-.07.14-.12.23-.14.06-.02.11-.02.17-.02-.09-.13-.16-.25-.22-.36h-.18Z"/>
          <path class="cls-2" d="M33.56,55.25c-.88,0-1.56-.27-1.95-.77-.27-.34-.36-.67-.43-1.12-.02-.13.02-.27.1-.38.08-.11.21-.18.34-.19l.41-.04s-.02-.02-.03-.02c-.45-.34-.69-.83-.69-1.4,0-1.1.88-1.84,2.19-1.84,1.04,0,1.59.42,1.86.78.19.26.29.49.38.88.03.14,0,.28-.08.4-.08.12-.21.19-.35.21l-.33.04c.25.15.46.35.61.59.16.26.24.58.24.94,0,1.19-.87,1.93-2.26,1.93ZM33.14,53.17c.01.13.03.15.04.17.06.07.19.12.36.12.2,0,.29-.06.3-.07-.09-.06-.21-.1-.69-.21ZM34.71,52.89s.05.1.07.16c-.02-.05-.04-.1-.06-.14,0,0,0,0,0-.01ZM33.3,51.3s.13.03.29.06c.06.01.11.02.16.04-.01-.05-.02-.06-.04-.09h0s-.08-.04-.23-.04c-.09,0-.15.01-.19.03Z"/>
          <path class="cls-2" d="M42.63,55.15h-1.11c-.24,0-.45-.18-.49-.42-.03-.2-.08-.37-.13-.52l-.07-.2h-.98l-.07.21c-.08.21-.1.34-.13.5-.04.25-.25.43-.49.43h-1.11c-.18,0-.34-.09-.43-.24-.09-.15-.1-.34-.01-.49.08-.15.15-.32.26-.61l1.22-3.3c.09-.25.13-.37.16-.51.05-.23.25-.4.49-.4h1.2c.23,0,.43.16.49.39.03.13.06.23.17.52l1.23,3.3c.1.27.19.5.26.63.07.15.06.34-.03.48-.09.15-.25.23-.42.23ZM41.34,53.04c.06.02.12.05.16.09l-.09-.23s-.04.08-.06.12c0,0-.01.01-.02.02ZM39.26,52.9l-.08.23s.1-.07.16-.09c0,0-.01-.01-.02-.02-.03-.04-.05-.08-.06-.12Z"/>
          <path class="cls-2" d="M47.44,55.15h-1.11c-.25,0-.47-.19-.5-.45-.01-.11-.11-.39-.25-.77-.09-.24-.19-.48-.27-.56-.03-.03-.05-.05-.15-.05h-.21v.54c0,.33,0,.5.04.72.02.14-.02.29-.12.4-.1.11-.23.17-.38.17h-1.01c-.14,0-.28-.06-.38-.17-.09-.11-.14-.25-.12-.4.03-.22.04-.37.04-.72v-3.01c0-.3-.01-.46-.04-.71-.02-.15.03-.29.13-.4.1-.11.25-.16.39-.16.23.01.42.02.75.02h1.39c1.14,0,1.88.67,1.88,1.72,0,.51-.16.93-.46,1.23-.02.02-.04.03-.05.05.15.25.3.59.5,1.08.11.28.17.4.35.77.07.16.06.34-.03.48-.09.15-.25.23-.42.23ZM44.04,52.31v.24s.07-.09.11-.12c-.04-.03-.08-.07-.11-.12ZM44.96,51.54h.5c.13,0,.13-.04.13-.11.02-.03-.01-.05-.11-.05h-.52v.16ZM44.04,50.6h0s0,0,0,0h0Z"/>
          <path class="cls-2" d="M51.7,55.19s-.04,0-.07,0c-.19-.03-.38-.04-.71-.04h-1.79c-.37,0-.52,0-.74.02-.15,0-.3-.05-.4-.16-.1-.11-.15-.26-.12-.41.03-.2.04-.38.04-.7v-3.04c0-.29,0-.46-.04-.7-.02-.15.03-.29.13-.4s.25-.16.39-.16c.22.01.36.02.74.02h1.74c.28,0,.46-.01.73-.04.14-.01.28.03.38.13.1.09.16.23.16.37v.88c0,.14-.06.28-.17.37-.09.08-.2.12-.31.13.02.02.05.03.07.05.11.09.17.23.17.37v.87c0,.14-.06.28-.17.37-.11.1-.25.14-.39.12-.22-.03-.38-.04-.73-.04h-.78v.14h1.1c.32,0,.49-.01.72-.04.14-.02.28.03.39.12.11.09.17.23.17.37v.89c0,.14-.06.28-.17.38-.09.08-.21.12-.33.12ZM48.9,54.11s0,.03,0,.04c0,0,.02,0,.03,0-.01-.01-.02-.03-.03-.04ZM48.91,52.17v.26s.07-.09.12-.13c-.05-.04-.09-.08-.12-.13ZM49.83,51.41h.78c.09,0,.16,0,.24,0h-1.01ZM48.9,50.6s0,.03,0,.04c0-.02.02-.03.03-.04h-.03Z"/>
          <path class="cls-2" d="M56.67,55.15h-1.05c-.2,0-.38-.12-.46-.3-.06-.14-.18-.34-.34-.59l-.69-1.02v.55c0,.35,0,.58.04.78.02.14-.02.29-.11.4-.1.11-.23.17-.38.17h-1c-.15,0-.29-.06-.38-.18-.1-.11-.14-.26-.11-.41.03-.16.04-.38.04-.78v-2.91c0-.28,0-.48-.04-.71-.02-.14.02-.29.12-.4.09-.11.23-.17.38-.17h1.04c.21,0,.4.14.47.34.02.07.1.22.3.53l.72,1.08v-.63c0-.33,0-.51-.04-.72-.02-.15.02-.29.11-.41.09-.11.23-.18.38-.18h1c.15,0,.28.06.38.17.1.11.14.26.12.4-.03.21-.04.41-.04.74v2.96c0,.3,0,.51.04.7.02.15-.02.29-.11.4-.1.11-.23.18-.38.18ZM55.92,54.15h.21c0-.08,0-.18,0-.28v-.24c-.06.07-.14.12-.23.15-.06.02-.13.02-.19.02.08.13.15.25.21.35ZM53.22,50.6c0,.09,0,.18,0,.28v.24c.06-.07.14-.12.23-.14.06-.02.12-.02.17-.02-.09-.13-.16-.25-.22-.36h-.18Z"/>
          <path class="cls-2" d="M62.13,55.15h-1.11c-.24,0-.45-.18-.49-.42-.03-.2-.08-.37-.13-.52l-.07-.2h-.98l-.07.21c-.08.21-.1.34-.13.5-.04.24-.25.43-.49.43h-1.11c-.18,0-.34-.09-.43-.24-.09-.15-.1-.34-.01-.49.08-.15.15-.32.26-.61l1.22-3.3c.09-.25.13-.38.16-.52.05-.23.25-.39.49-.39h1.2c.23,0,.44.16.49.39.03.13.06.23.17.51l1.23,3.3c.1.27.19.5.26.63.07.15.06.34-.03.48-.09.15-.25.23-.42.23ZM60.84,53.04c.06.02.12.05.16.09l-.09-.23s-.04.08-.06.12c0,0-.01.01-.02.02ZM58.76,52.9l-.08.23s.1-.07.16-.09c0,0-.01-.01-.02-.02-.03-.04-.05-.08-.06-.12Z"/>
        </g>
        <g>
          <path class="cls-1" d="M7.11,45.88c-.35.19-.58.29-.99.46-.12-.28-.22-.42-.43-.66.67-.19,1.3-.48,1.93-.87-.22-.24-.38-.38-.69-.62-.22.16-.38.26-.72.44-.14-.26-.25-.39-.44-.56.48-.23.89-.5,1.27-.85.3-.27.54-.57.71-.89l.79.18c-.1.15-.13.19-.26.36h1.11c.2,0,.34,0,.48-.03l.4.4c-.08.1-.08.1-.21.26-.46.6-.95,1.06-1.61,1.54h1.69c.24,0,.36,0,.5-.02-.02.16-.03.31-.03.54v1.48c0,.25.01.41.03.58h-.76v-.3h-2.04v.3h-.76c.02-.18.03-.35.03-.58v-1.18ZM7.71,43.52c-.12.12-.16.16-.27.25.41.29.44.32.75.62.41-.32.62-.53.9-.87h-1.38ZM7.83,46.71h2.06v-1h-2.06v1Z"/>
          <path class="cls-1" d="M12.15,43.13c0-.3-.01-.45-.03-.63h.74c-.03.18-.03.32-.03.63v.72c.17,0,.27,0,.36-.02v.69c-.13-.01-.2-.02-.36-.02v1.13c.1-.04.15-.08.31-.17v.72c-.39.24-.54.31-1.12.58-.09.04-.13.06-.24.12l-.17-.77c.13-.03.25-.06.54-.17v-1.43h-.07c-.16,0-.26,0-.39.02v-.7c.13.02.23.02.39.02h.06v-.72ZM16.81,44.43q-.06.15-.16.45c-.13.42-.35.91-.55,1.26.07.17.14.34.2.44.03.05.05.09.06.11.02.05.03.07.04.07.03,0,.08-.3.12-.72.17.2.3.32.46.44-.05.44-.11.68-.2.87-.09.17-.21.26-.36.26-.26,0-.54-.28-.8-.81-.31.34-.55.54-.96.8-.15-.25-.26-.39-.47-.57.53-.27.86-.53,1.17-.94-.19-.62-.31-1.42-.36-2.23h-.98v.5h.57c.18,0,.3,0,.43-.02q0,.1,0,.24v.15c0,.38-.04.97-.08,1.28-.06.41-.12.55-.29.64-.12.06-.26.09-.48.09-.06,0-.11,0-.25-.01-.01-.21-.03-.32-.07-.49-.12.57-.3.94-.66,1.4-.2-.22-.32-.33-.59-.49.29-.31.42-.53.53-.86.16-.5.23-1.2.23-2.39,0-.39-.01-.59-.03-.77.13.02.34.03.56.03h1.09q0-.11,0-.34c0-.14,0-.25-.02-.36h.77c-.02.12-.03.26-.03.43,0,.02,0,.05,0,.28h.45c-.09-.22-.2-.41-.34-.59l.5-.19c.19.23.26.34.4.63l-.39.16c.26,0,.4-.01.54-.03v.74c-.21-.02-.46-.03-.67-.03h-.48c0,.07,0,.13,0,.17.01.42.04.7.13,1.18.13-.34.24-.75.27-1.02l.68.25ZM14,45.03c-.02.35-.06.71-.12,1.03.03,0,.06,0,.07,0,.09.01.13.02.16.02.11,0,.15-.03.17-.11.04-.21.06-.45.07-.95h-.35Z"/>
          <path class="cls-1" d="M20.76,44.47c.15.5.43.98.82,1.41.41.44.83.72,1.49.99-.22.26-.32.43-.49.77-.63-.32-1.04-.63-1.44-1.09-.32-.36-.54-.72-.73-1.15-.17.48-.41.87-.78,1.26-.43.44-.83.72-1.43.99-.12-.27-.25-.46-.46-.71.43-.17.66-.29.95-.5.7-.5,1.06-1.1,1.18-1.94h-1.23c-.38,0-.54,0-.75.03v-.81c.2.02.4.03.75.03h1.29c0-.24.01-.39.01-.58,0-.27-.01-.44-.04-.6h.87c-.03.21-.03.25-.04.79,0,.15,0,.2-.01.39h1.39c.33,0,.54-.01.74-.03v.81c-.24-.03-.41-.03-.74-.03h-1.35Z"/>
          <path class="cls-1" d="M26.76,47.02c0,.49-.17.59-.91.59-.15,0-.32,0-.58-.01-.06-.31-.1-.45-.21-.71.3.03.52.04.69.04.24,0,.27-.02.27-.12v-.69h-1.45c-.3,0-.54.01-.72.03v-.73c.21.03.44.04.72.04h1.46c0-.12,0-.22-.02-.3h.27c.18-.1.33-.2.52-.36h-1.35c-.25,0-.39,0-.58.02v-.66c.17.02.33.02.58.02h1.77c.22,0,.32,0,.43-.02l.36.4c-.06.05-.08.07-.15.13-.28.26-.59.5-1,.78h1.25c.29,0,.56-.01.74-.04v.73c-.18-.02-.44-.03-.74-.03h-1.35v.88ZM24.75,43.26c-.12-.22-.19-.35-.39-.6l.69-.17c.18.24.31.45.48.77h.49c-.07-.22-.17-.44-.31-.68l.71-.16c.2.39.25.52.36.83h.4c.18-.26.31-.53.41-.81l.72.17c-.09.19-.26.48-.36.63h.18c.36,0,.51,0,.69-.02-.02.14-.02.25-.02.46v.57c0,.17.01.3.03.44h-.72v-.83h-3.51v.83h-.73c.02-.12.03-.26.03-.45v-.57c0-.2,0-.32-.02-.46.21.02.31.02.68.02h.21Z"/>
          <path class="cls-1" d="M32.7,44.96c.18.42.4.76.67,1.04.29.29.63.52,1,.68.17.07.29.11.55.18-.22.29-.32.45-.44.73-.65-.25-1.13-.57-1.55-1.02-.25-.28-.49-.64-.64-.99-.19.49-.41.82-.78,1.16-.4.38-.81.61-1.44.83-.13-.31-.25-.49-.43-.69.73-.21,1.18-.46,1.54-.87.28-.3.44-.61.54-1.06h-1c-.27,0-.52.01-.76.03v-.72c.21.02.46.03.75.03h1.1q.03-.32.03-.87h-1.3c-.29,0-.55.01-.77.03v-.74c.2.02.49.03.77.03h3.47c.28,0,.56-.01.78-.03v.74c-.24-.02-.49-.03-.77-.03h-1.43q-.01.55-.03.87h1.27c.29,0,.55-.01.77-.03v.72c-.25-.02-.49-.03-.76-.03h-1.14Z"/>
          <path class="cls-1" d="M37.42,43.14c.15-.26.27-.54.32-.74l.85.1s-.01.03-.04.08c0,0-.01.03-.02.05s-.01.02-.08.16c-.04.1-.1.19-.18.34h1.41c.26,0,.43,0,.64-.03-.02.19-.03.43-.03.69v3.02c0,.33.01.55.03.77h-.8v-.27h-2.74v.27h-.78c.02-.21.03-.45.03-.77v-3.02c0-.27-.01-.5-.03-.69.18.02.36.03.6.03h.82ZM36.78,44.86h2.74v-1.04h-2.74v1.04ZM36.78,46.63h2.74v-1.08h-2.74v1.08Z"/>
          <path class="cls-1" d="M43.13,43.32q-.08-.46-.15-.64l.88-.14c0,.18.03.34.08.64l.07.33.99-.15c.36-.06.49-.08.71-.15l.13.81q-.25.02-.71.09l-.99.16.15.82,1.12-.18c.37-.06.52-.09.75-.16l.14.81q-.2.01-.73.1l-1.14.17.16.83c.08.44.11.56.18.78l-.91.15c0-.16-.04-.43-.11-.78l-.16-.86-1.21.19c-.35.06-.48.08-.71.15l-.13-.81c.23,0,.37-.02.74-.08l1.18-.18-.15-.82-.87.13c-.39.06-.45.08-.76.15l-.13-.82c.25,0,.35-.02.76-.08l.87-.13-.06-.32Z"/>
          <path class="cls-1" d="M48.38,44.04c-.05-.27-.07-.35-.12-.5l.79-.12c.01.18.03.34.06.51l.07.33,1.61-.27c.24-.04.3-.06.41-.11l.45.41c-.05.07-.08.12-.14.29-.24.63-.56,1.07-1.11,1.52-.24-.25-.34-.32-.62-.46.4-.26.69-.56.9-.95l-1.38.24.35,1.86c.07.34.09.43.16.64l-.83.15c-.02-.22-.04-.37-.09-.65l-.34-1.88-.36.06c-.3.05-.39.07-.59.13l-.13-.74c.2,0,.31-.02.63-.07l.34-.05-.06-.35Z"/>
          <path class="cls-1" d="M53.31,42.93c.72.44,1.04.67,1.49,1.09l-.57.73c-.46-.49-.94-.86-1.47-1.16l.55-.66ZM52.78,46.4c.51-.03,1.15-.18,1.67-.41.71-.3,1.21-.72,1.65-1.37.25-.38.4-.68.57-1.11.26.31.36.4.71.65-.55,1.2-1.21,1.94-2.19,2.45-.45.23-1.09.46-1.63.58q-.14.03-.25.05c-.13.03-.16.04-.28.08l-.25-.92Z"/>
          <path class="cls-1" d="M60.01,43.13q-.02.1-.07.46c-.12.81-.24,1.35-.43,1.9-.25.72-.52,1.23-.99,1.81-.29-.28-.4-.36-.77-.57.39-.42.59-.73.8-1.22.24-.56.41-1.21.5-1.92.03-.24.04-.41.04-.57v-.06l.91.16ZM61.62,42.96c.02.32.09.73.22,1.25.13.54.34,1.1.59,1.55.18.33.34.57.65.93-.35.21-.46.31-.75.6-.43-.55-.7-1.04-.96-1.74-.24-.61-.41-1.33-.51-2.03-.03-.22-.05-.34-.07-.42l.82-.16ZM63.05,43.47c0,.34-.28.62-.62.62s-.62-.28-.62-.62.28-.62.62-.62.62.27.62.62ZM62.15,43.47c0,.15.12.27.27.27s.27-.12.27-.27-.12-.27-.27-.27-.27.12-.27.27Z"/>
          <path class="cls-1" d="M68.27,47.46c-.48-.59-1.04-1.14-1.66-1.63-.5.59-1.24,1.15-2.09,1.56-.18-.35-.26-.46-.54-.74.49-.2.82-.38,1.24-.68.62-.45,1.11-.99,1.47-1.62.07-.12.17-.32.3-.61l-1.63.03c-.46.01-.57.02-.78.05v-.85c.17.03.33.03.67.03h.11l1.91-.03c.31,0,.34,0,.47-.07l.43.45c-.07.08-.12.15-.19.31-.27.63-.52,1.08-.84,1.52.72.52.86.64,1.82,1.55l-.68.73Z"/>
          <path class="cls-1" d="M15.9,54.65c-.35,0-.55,0-.76.02.03-.21.04-.43.04-.78v-2.93c0-.39-.01-.6-.04-.86h1.02c-.04.34-.04.42-.04.85v2.87h1.5c.39,0,.58-.01.83-.04v.91c-.16-.02-.48-.04-.83-.04h-1.71Z"/>
          <path class="cls-1" d="M20.33,50.1c-.03.22-.04.4-.04.77v3.01c0,.36.01.55.04.77h-1.03c.03-.22.04-.42.04-.77v-3.01c0-.39-.01-.53-.04-.77h1.03Z"/>
          <path class="cls-1" d="M25.03,50.59c.42.42.64,1.04.64,1.78,0,1.45-.86,2.39-2.17,2.39s-2.17-.94-2.17-2.39.85-2.36,2.17-2.36c.63,0,1.14.19,1.53.58ZM24.71,52.37c0-.55-.15-.97-.41-1.24-.21-.21-.48-.31-.8-.31-.74,0-1.22.6-1.22,1.54s.47,1.58,1.22,1.58,1.2-.6,1.2-1.57Z"/>
          <path class="cls-1" d="M29.38,52.66c.13.19.26.41.38.64-.02-.2-.03-.49-.03-.7v-1.7c0-.36-.01-.57-.05-.81h1c-.03.24-.04.45-.04.81v2.96c0,.33.01.57.04.78h-1.05c-.07-.15-.2-.38-.38-.66l-1.29-1.92c-.11-.17-.21-.34-.36-.63q0,.07.02.26c0,.09.02.33.02.44v1.63c0,.38.01.64.04.86h-1c.03-.2.04-.46.04-.86v-2.91c0-.31-.01-.53-.04-.78h1.04c.05.15.16.35.36.64l1.29,1.92Z"/>
          <path class="cls-1" d="M32.64,53.2c.02.23.06.34.15.45.15.2.41.3.74.3.49,0,.8-.22.8-.58,0-.17-.07-.31-.22-.4-.17-.11-.35-.17-.96-.31-.48-.11-.66-.19-.87-.34-.31-.24-.48-.58-.48-.99,0-.82.66-1.34,1.69-1.34.67,0,1.17.2,1.46.58.14.19.21.35.29.68l-.99.11c-.03-.17-.07-.26-.15-.36-.13-.15-.35-.23-.62-.23-.44,0-.73.21-.73.53,0,.15.07.27.19.36.12.08.24.12.53.18.61.13.88.2,1.1.3.23.1.44.27.57.49.11.18.17.41.17.68,0,.91-.64,1.43-1.76,1.43-.72,0-1.27-.2-1.56-.58-.19-.23-.26-.44-.32-.88l.97-.1Z"/>
          <path class="cls-1" d="M41.52,54.65c-.04-.23-.09-.42-.15-.59l-.19-.54h-1.69l-.19.54c-.09.25-.12.4-.15.59h-1.11c.09-.17.17-.35.29-.67l1.22-3.3c.1-.28.15-.43.18-.58h1.2c.03.15.07.26.19.58l1.23,3.3c.11.29.21.53.27.67h-1.11ZM40.42,51.14c-.02-.05-.04-.11-.08-.26-.03.12-.04.15-.08.26l-.53,1.58h1.22l-.53-1.58Z"/>
          <path class="cls-1" d="M46.33,54.65c-.02-.15-.08-.36-.28-.89-.16-.41-.25-.61-.38-.73-.13-.14-.29-.2-.5-.2h-.71v1.04c0,.36.01.55.04.79h-1.01c.03-.25.04-.41.04-.78v-3.01c0-.33-.01-.5-.04-.77.24.01.43.02.77.02h1.39c.88,0,1.38.45,1.38,1.22,0,.38-.11.67-.31.87-.15.15-.29.22-.58.3.36.11.46.26.92,1.37.12.29.18.41.36.79h-1.11ZM45.46,52.04c.38,0,.63-.24.63-.61s-.21-.55-.61-.55h-1.02v1.16h1Z"/>
          <path class="cls-1" d="M51.7,54.69c-.21-.03-.41-.04-.78-.04h-1.79c-.38,0-.54,0-.77.02.03-.22.04-.42.04-.78v-3.04c0-.32-.01-.5-.04-.77.23.01.38.02.76.02h1.74c.3,0,.49-.01.78-.04v.88c-.24-.03-.43-.04-.78-.04h-1.53v1h1.28c.31,0,.52-.01.78-.04v.87c-.24-.03-.41-.04-.78-.04h-1.28v1.14h1.6c.35,0,.53-.01.77-.04v.89Z"/>
          <path class="cls-1" d="M55.37,52.66c.13.19.26.41.38.64-.02-.2-.03-.49-.03-.7v-1.7c0-.36-.01-.57-.05-.81h1c-.03.24-.04.45-.04.81v2.96c0,.33.01.57.04.78h-1.05c-.07-.15-.2-.38-.38-.66l-1.29-1.92c-.11-.17-.21-.34-.36-.63q0,.07.02.26c0,.09.02.33.02.44v1.63c0,.38.01.64.04.86h-1c.03-.2.04-.46.04-.86v-2.91c0-.31-.01-.53-.04-.78h1.04c.05.15.16.35.36.64l1.29,1.92Z"/>
          <path class="cls-1" d="M61.02,54.65c-.04-.23-.09-.42-.15-.59l-.19-.54h-1.69l-.19.54c-.09.25-.12.4-.15.59h-1.11c.09-.17.17-.35.29-.67l1.22-3.3c.1-.28.15-.43.18-.58h1.2c.03.15.07.26.19.58l1.23,3.3c.11.29.21.53.27.67h-1.11ZM59.91,51.14c-.02-.05-.04-.11-.08-.26-.03.12-.04.15-.08.26l-.53,1.58h1.22l-.53-1.58Z"/>
        </g>
      </g>
    </g>
  </g>
</svg>