<?xml version="1.0" encoding="UTF-8"?>
<svg id="_レイヤー_2" data-name="レイヤー 2" xmlns="http://www.w3.org/2000/svg" viewBox="0 0 23.66 10.13">
  <defs>
    <style>
      .cls-1 {
        fill: #ffd900;
      }

      .cls-2 {
        fill: #231815;
      }
    </style>
  </defs>
  <g id="design">
    <g>
      <path class="cls-1" d="M4.29,4.98c-.09,0-.18-.01-.27-.04-.29-.08-.53-.29-.65-.58l-.18-.44c-.1-.24-.1-.52,0-.77.02-.05.05-.1.08-.15-.06-.12-.09-.25-.09-.38v-.41c0-.16.04-.31.11-.45-.06-.13-.1-.27-.1-.42,0-.28.11-.55.31-.74l.31-.29c.29-.27.7-.34,1.05-.2.13-.06.28-.09.42-.09h.44c.07,0,.14,0,.2.02.14-.05.28-.06.43-.04l.42.07c.2.03.38.12.52.26.17.04.32.11.45.21.22.19.4.47.4.76v.39c0,.06,0,.12-.01.17.02.11.02.23,0,.34.02.08.03.16.03.25v.38c0,.08-.01.17-.03.25.11.25.12.53.02.79-.02.05-.03.08-.05.21-.07.47-.45.82-.92.86-.19.01-.74.02-1.32.02-.38,0-.73-.01-1.06-.12-.15.09-.33.13-.5.13Z"/>
      <path class="cls-1" d="M8.74,4.91c-.67,0-1.26-.29-1.62-.8-.24-.34-.37-.76-.37-1.2,0-.22.03-.45.09-.67-.09-.14-.15-.29-.15-.46v-.46c-.02-.3.11-.58.33-.77.22-.19.52-.28.81-.24l-.07.43h0l.07-.43c.31,0,.56-.03.63-.05.29-.11.59-.08.83.07l.12-.03s0,0,0,0l.26-.1s.02,0,.03-.01c.02,0,.04-.02.06-.02l.25-.1c.41-.16.88-.04,1.16.31.15.19.27.4.38.65.15.35.09.74-.13,1.02.13.28.15.6,0,.88l-.24.46c-.14.27-.39.46-.68.52-.04.07-.08.13-.13.19-.39.52-.99.82-1.64.82Z"/>
      <path class="cls-1" d="M12.53,4.95c-.52,0-.96-.18-1.27-.47-.12-.01-.23-.04-.33-.1l-.44-.24c-.25-.14-.43-.38-.49-.67-.06-.28,0-.58.18-.81.02-.03.05-.07.07-.11-.1-.15-.15-.34-.15-.53v-.44c0-.3.13-.58.36-.77.13-.1.27-.17.43-.21.06-.1.13-.2.22-.28.21-.18.48-.28.76-.25l.49.05c.25.02.48.14.65.33.1,0,.21.02.31.06.45.16.76.3,1.1.51.45.27.62.85.38,1.32l-.17.34c.24.3.34.74.17,1.09l-.21.43c-.15.31-.44.52-.78.56-.12.02-.25,0-.36-.02-.26.14-.58.22-.91.22Z"/>
      <path class="cls-1" d="M14.75,4.9c-.14,0-.27-.03-.39-.09l-.45-.24c-.26-.14-.44-.38-.5-.67s0-.58.18-.82c.03-.03.06-.09.09-.15-.12-.15-.19-.33-.21-.51l-.04-.45c-.03-.28.07-.56.26-.77.13-.14.3-.24.48-.29.03-.2.12-.37.27-.53.21-.22.52-.28.82-.26l.5.05c.15.01.29.06.41.13.04-.02.08-.03.12-.04l.23-.11c.39-.19.86-.1,1.16.21.18.19.33.39.45.62.13.24.16.51.08.77-.02.06-.04.12-.07.18.09.21.16.42.23.66.12.46-.1.95-.53,1.16l-.44.21c-.09.05-.19.08-.29.09-.07.14-.15.27-.25.37-.28.31-.64.46-1.11.46-.2,0-.38-.03-.55-.07,0,0-.02,0-.02,0-.13.04-.28.07-.42.07Z"/>
      <path class="cls-1" d="M19.2,4.89c-.34,0-.62-.03-1.03-.13-.45-.1-.77-.49-.78-.95-.04-.04-.08-.07-.11-.12-.18-.22-.26-.51-.22-.79.04-.3.09-.71.16-1.15v-.12c.04-.3.2-.57.43-.73l.19-.32c.27-.47.87-.64,1.34-.39.13.06.63.21.91.25.3.04.56.21.72.47.16.26.19.57.09.85v.02c.34.3.54.73.54,1.23,0,.58-.29,1.13-.78,1.47-.4.27-.87.41-1.44.41Z"/>
      <path class="cls-1" d="M3.72,10.13h-.46c-.24,0-.48-.09-.66-.25-.18.15-.41.24-.65.24h-.44c-.28,0-.55-.12-.74-.33-.12-.13-.2-.29-.24-.47-.12-.11-.22-.24-.28-.4-.06-.16-.08-.19-.1-.23-.2-.31-.21-.7-.04-1.01-.04-.1-.05-.21-.05-.32v-.4c0-.1.02-.2.05-.3-.04-.23-.01-.48.09-.67.16-.29.43-.56.76-.59.43-.04.65-.11.7-.13.35-.21.76-.19,1.07.04.16-.1.34-.15.53-.15h.46c.29,0,.56.13.75.34s.28.51.24.79c-.01.07,0,.12,0,.25v.57c.17.17.27.4.28.64l.03.43c.02.3-.1.58-.3.78,0,0,0,.02,0,.02.04.29-.04.58-.23.8s-.47.35-.76.35Z"/>
      <path class="cls-1" d="M5.68,10.1h-.35c-.47-.02-.88-.36-.96-.83,0,0,0,0,0-.01-.18-.03-.35-.11-.49-.24-.21-.19-.34-.46-.34-.75v-.42c0-.08,0-.16.03-.23-.02-.12-.02-.24,0-.36v-.4c0-.06,0-.1,0-.14-.04-.3.06-.6.27-.81.04-.04.08-.08.12-.11.13-.25.37-.44.65-.5l.39-.1c.18-.04.37-.04.54.02l.26-.06c.2-.04.39-.03.57.04.17-.06.36-.07.55-.02l.41.1c.29.07.53.26.66.52.04.03.08.06.11.1.21.22.31.51.28.81,0,.05,0,.08,0,.15v.33c0,.05,0,.09,0,.13.01.1,0,.2,0,.29.02.08.03.16.03.24v.42c0,.29-.12.56-.34.75-.21.19-.5.28-.79.24-.04,0-.09,0-.15,0-.14.41-.5.84-1.44.84Z"/>
      <path class="cls-1" d="M8.22,10c-.14,0-.27-.03-.39-.09l-.45-.24c-.26-.14-.44-.38-.5-.67s0-.58.18-.82c.03-.03.06-.09.09-.15-.12-.15-.19-.33-.21-.51l-.04-.45c-.03-.28.07-.56.26-.77.13-.14.3-.24.48-.29.03-.2.12-.37.27-.53.21-.22.52-.29.82-.26l.5.05c.15.01.29.06.41.13.04-.02.08-.03.12-.04l.23-.11c.39-.19.86-.1,1.16.21.18.19.33.39.45.62.13.24.16.51.08.77-.02.06-.04.12-.07.18.09.21.16.42.23.66.12.46-.1.95-.53,1.16l-.44.21c-.09.05-.19.08-.29.09-.07.14-.15.27-.25.37-.28.31-.64.46-1.11.46-.2,0-.38-.03-.55-.07,0,0-.02,0-.02,0-.13.04-.28.07-.42.07Z"/>
      <path class="cls-1" d="M12.53,10.1h-.35c-.47-.02-.88-.36-.96-.83,0,0,0,0,0-.01-.18-.03-.35-.11-.49-.24-.21-.19-.34-.46-.34-.75v-.42c0-.08,0-.16.03-.23-.02-.12-.02-.24,0-.36v-.4c0-.06,0-.1,0-.14-.04-.3.06-.6.27-.81.04-.04.08-.08.12-.11.13-.25.37-.44.65-.5l.39-.1c.18-.04.37-.04.54.02l.26-.06c.2-.04.4-.03.57.04.17-.06.36-.07.55-.02l.41.1c.29.07.53.26.66.52.04.03.08.06.11.1.21.22.31.51.28.81,0,.05,0,.08,0,.15v.33c0,.05,0,.09,0,.13.01.1,0,.2,0,.29.02.08.03.16.03.24v.42c0,.29-.12.56-.34.75-.21.19-.5.28-.79.24-.04,0-.09,0-.15,0-.14.41-.5.84-1.44.84Z"/>
      <path class="cls-1" d="M17.53,9.85c-.28,0-.55-.12-.74-.33-.25-.22-.53-.5-.81-.8-.04.04-.07.08-.11.12-.2.26-.54.43-.85.41-.33-.01-.64-.17-.82-.44l-.3-.48c-.29-.45-.17-1.04.26-1.35.08-.06.38-.44.52-.62.49-.62,1.19-.83,1.82-.56l.06-.03s.03-.01.04-.02c.02,0,.03-.02.05-.02l.26-.12c.4-.19.87-.1,1.17.23.18.19.32.4.45.65.12.24.15.51.06.77-.04.11-.09.22-.17.31.32.28.43.75.25,1.16l-.24.54c-.14.31-.42.53-.75.58-.05,0-.11.01-.16.01Z"/>
      <path class="cls-1" d="M19.58,10.03c-.35,0-.86-.06-1.26-.36-.21-.15-.37-.36-.47-.59-.1-.08-.19-.17-.26-.28l-.26-.41c-.15-.24-.19-.54-.11-.81.07-.22.21-.42.4-.54-.02-.06-.02-.13-.03-.19l-.02-.46c-.01-.3.11-.58.33-.78.22-.2.52-.29.81-.25.24.03.76,0,1.17-.02.41-.13.87.02,1.12.39l.23.33c.16.23.21.51.15.79,0,.03-.02.06-.03.09.3.31.47.73.47,1.18,0,.67-.34,1.25-.94,1.59-.36.21-.82.33-1.3.33Z"/>
      <path class="cls-1" d="M22.62,9.92h-.55c-.55,0-1-.45-1-1v-.52c0-.11.02-.22.05-.33,0-.02,0-.05,0-.06l-.06-1.25c0-.13-.02-.26-.03-.35-.03-.28.06-.57.25-.78.19-.21.46-.33.75-.33h.62c.29,0,.56.12.75.34s.28.51.24.79c0,.07-.02.19-.02.31l-.06,1.24s0,.04,0,.07c.04.1.05.21.05.33v.52c0,.55-.45,1-1,1Z"/>
      <path class="cls-2" d="M4.91,3.02c.18-.29.21-.52.22-1.31-.09,0-.13,0-.17,0l-.24.23c-.18-.25-.33-.42-.54-.61l.31-.29c.2.18.33.31.47.49v-.21c.08.01.15.02.3.02h.04v-.06c0-.11,0-.17-.02-.25h.44c-.02.07-.02.13-.02.25v.06h.02c.11,0,.18,0,.25-.01v.28c.12-.21.21-.44.22-.62l.42.07s-.05.12-.1.26h.37c.12,0,.19,0,.26-.02v.39c-.07,0-.16,0-.26,0h-.53c-.03.05-.04.07-.09.15h.54c.09,0,.13,0,.17,0l.16.2s-.04.04-.07.08c-.08.09-.19.21-.3.31v.06h.14c.12,0,.18,0,.24-.01v.38c-.06,0-.12-.01-.24-.01h-.15v.33c0,.22-.11.29-.43.29-.05,0-.11,0-.21,0,0-.11-.03-.2-.08-.35.09.02.17.02.27.02.04,0,.06-.01.06-.06v-.24h-.11c-.12,0-.2,0-.25.01v-.38c.07.01.14.02.25.02h.11c0-.06,0-.1-.01-.15h.09c.05-.04.1-.09.15-.15h-.26c-.08,0-.15,0-.22.02v-.22c-.08-.07-.15-.11-.28-.18.03-.04.04-.05.06-.08-.05,0-.07,0-.13,0h-.29v.22s0,0,0,0h.22c.12,0,.2,0,.28,0,0,.07,0,.14,0,.22,0,.55-.04,1.01-.09,1.13-.05.12-.14.16-.37.16-.04,0-.07,0-.12,0-.02-.16-.03-.24-.07-.36-.06.15-.09.21-.17.35-.06-.12-.15-.24-.23-.32v.2c.07.11.14.16.27.21.12.04.32.06.73.06.46,0,.92-.02,1.3-.07-.06.14-.08.26-.11.44-.18.01-.7.02-1.25.02-.68,0-.9-.07-1.13-.34-.13.12-.21.19-.44.35l-.18-.44c.14-.06.25-.13.4-.27v-.66h-.13c-.08,0-.12,0-.21.02v-.41c.09.01.14.02.26.02h.24c.1,0,.18,0,.25-.02,0,.1-.01.18-.01.36v.44ZM5.46,2.29c-.02.33-.07.55-.15.78.06.01.12.02.16.02.07,0,.09-.02.11-.11.02-.14.04-.41.04-.68h-.16Z"/>
      <path class="cls-2" d="M7.69,1.31c.06,0,.09,0,.16,0,.39,0,.79-.04.94-.1l.24.41c-.15.09-.26.19-.4.35-.26.31-.4.62-.4.91,0,.33.2.54.5.54.24,0,.45-.14.55-.38.08-.2.12-.42.12-.71,0-.35-.06-.72-.16-.95l.46-.13c.05.18.14.38.26.57.16.26.4.51.58.62l-.24.46-.07-.07c-.2-.19-.34-.37-.46-.61.04.21.04.28.04.41,0,.35-.08.62-.24.85-.2.27-.5.41-.84.41s-.62-.13-.79-.38c-.12-.18-.19-.39-.19-.62,0-.44.21-.88.59-1.23q-.19.04-.55.07s-.06,0-.1.01v-.46ZM10.04,1.14c.11.14.17.26.25.44l-.26.11c-.07-.18-.14-.31-.25-.45l.26-.1ZM10.39,1c.1.12.18.26.25.43l-.25.11c-.08-.19-.14-.3-.24-.44l.25-.1Z"/>
      <path class="cls-2" d="M12.27,1.12s-.01.03-.04.17c0,.03-.02.1-.04.21t-.02.08c.21-.02.37-.04.48-.08v.44s-.04,0-.09.01c-.11.02-.24.03-.5.05-.12.4-.2.61-.35.93-.07.16-.1.21-.22.45q-.04.08-.06.12l-.44-.24c.23-.3.45-.75.6-1.24q-.1,0-.17,0h-.04s-.04,0-.14,0h-.12v-.44c.12.02.26.03.45.03.02,0,.08,0,.14,0,.06-.24.08-.4.09-.54l.49.05ZM13.69,3.76c-.1-.12-.28-.27-.46-.37,0,.15-.03.25-.11.34-.11.14-.33.22-.59.22-.44,0-.73-.23-.73-.57,0-.24.15-.45.41-.54.1-.04.2-.05.34-.05.09,0,.15,0,.23.02-.01-.13-.02-.22-.02-.31,0-.14,0-.24.03-.36l.45.02c-.04.13-.04.19-.04.32,0,.14,0,.26.03.43.2.09.33.16.48.28.04.03.07.05.12.1t.05.04l-.21.43ZM12.54,3.17c-.18,0-.29.08-.29.19s.1.19.27.19c.19,0,.29-.08.29-.24,0-.03,0-.09,0-.09-.1-.04-.16-.05-.25-.05ZM13.71,2.27c-.29-.19-.58-.33-.95-.46l.23-.37c.38.14.64.26.93.43l-.21.4Z"/>
      <path class="cls-2" d="M14.44,1.87h.02c.1,0,.48-.04.64-.06.06-.34.08-.53.08-.65,0,0,0-.03,0-.05l.5.05s-.02.06-.02.09c0,.01-.03.15-.07.41-.01.07-.01.07-.02.11.08,0,.12,0,.17,0,.23,0,.39.06.5.19.11.13.15.29.15.59,0,.57-.1,1.02-.26,1.2-.1.11-.2.14-.37.14-.14,0-.27-.03-.49-.09,0-.07,0-.1,0-.14,0-.11,0-.19-.04-.34.16.07.35.12.46.12.08,0,.13-.05.17-.18.05-.15.09-.49.09-.73,0-.15-.02-.24-.08-.29-.04-.04-.09-.05-.21-.05-.05,0-.09,0-.16,0-.11.52-.29,1.01-.59,1.63-.03.06-.03.07-.05.11l-.45-.24c.22-.29.49-.93.62-1.46-.23.03-.45.07-.54.1l-.04-.45ZM16.58,1.22c.13.14.2.25.29.42l-.28.14c-.09-.16-.19-.32-.3-.43l.28-.13ZM16.89,1.74c.25.36.39.67.51,1.11l-.44.21c-.05-.27-.12-.46-.24-.72-.09-.21-.14-.29-.22-.41l.39-.19ZM16.96,1.05c.12.12.21.25.29.41l-.28.14c-.09-.17-.18-.29-.29-.42l.27-.13Z"/>
      <path class="cls-2" d="M18.69,1.75c-.04.12-.11.54-.15.83.28-.2.55-.28.94-.28.57,0,.94.28.94.71,0,.26-.13.5-.35.65-.23.16-.5.23-.87.23-.27,0-.47-.03-.81-.1,0-.21-.01-.29-.06-.49.32.1.59.15.84.15.45,0,.75-.17.75-.42,0-.2-.18-.31-.49-.31-.28,0-.54.08-.76.21-.07.04-.1.07-.16.14l-.46-.02s0-.04.01-.09c.03-.24.08-.64.15-1.06,0-.08.01-.12.02-.19l.47.03ZM18.69,1.08c.23.12.87.31,1.24.36l-.15.44c-.56-.12-.94-.24-1.31-.41l.22-.39Z"/>
      <path class="cls-2" d="M1.54,6.69c-.09.02-.16.03-.35.05-.04-.16-.06-.21-.13-.36.52-.05.92-.15,1.11-.27l.23.34s-.01,0-.04.02c-.08.04-.25.09-.41.13v.37h.16c.12,0,.17,0,.24-.02v.4c-.07,0-.15-.01-.25-.01h-.13c.21.28.22.3.44.45-.08.13-.12.2-.19.4-.12-.14-.15-.18-.28-.38,0,.06,0,.18.01.35v.56c0,.19,0,.28.02.4h-.44c.01-.12.02-.23.02-.4v-.45c0-.06,0-.14.01-.34-.09.26-.19.44-.36.64-.08-.2-.12-.29-.2-.41.21-.21.4-.52.49-.81h-.15c-.11,0-.19,0-.28.02v-.4c.09.01.17.02.29.02h.19v-.28ZM2.63,8.52c-.14.03-.24.05-.31.08l-.04-.44c.08,0,.17-.01.3-.04l.7-.15v-1.44c0-.2,0-.29-.02-.39h.46c-.02.12-.02.19-.02.38v1.35c.17-.04.19-.04.29-.08l.03.43c-.08,0-.16.02-.31.05v.45c0,.2,0,.29.02.39h-.46c.02-.11.02-.19.02-.39v-.36l-.65.14ZM2.56,7.11c.27.19.39.29.6.49l-.24.33c-.24-.25-.36-.35-.6-.52l.25-.3ZM2.67,6.31c.29.2.43.31.61.49l-.26.33c-.2-.22-.34-.34-.6-.52l.25-.3Z"/>
      <path class="cls-2" d="M6.2,8.76c0,.28-.1.34-.52.34-.08,0-.19,0-.33,0-.03-.18-.06-.26-.12-.4.17.02.3.03.39.03.13,0,.16,0,.16-.07v-.39h-.83c-.17,0-.31,0-.41.02v-.42c.12.02.25.02.41.02h.83c0-.07,0-.12,0-.17h.16c.11-.06.19-.12.29-.21h-.77c-.14,0-.22,0-.33.01v-.38c.1,0,.19.01.33.01h1.01c.12,0,.19,0,.25-.01l.21.23s-.05.04-.08.07c-.16.15-.34.29-.57.45h.71c.17,0,.32,0,.42-.02v.42c-.1-.01-.25-.02-.43-.02h-.77v.51ZM5.05,6.6c-.07-.13-.11-.2-.22-.35l.39-.1c.1.14.18.26.27.44h.28c-.04-.12-.1-.25-.18-.39l.41-.09c.11.22.14.29.21.48h.23c.1-.15.18-.3.23-.46l.41.1c-.05.11-.15.28-.21.36h.1c.21,0,.29,0,.4-.01,0,.08-.01.14-.01.27v.33c0,.1,0,.17.02.25h-.41v-.48h-2.01v.48h-.42c.01-.07.02-.15.02-.26v-.32c0-.11,0-.19-.01-.27.12,0,.18.01.39.01h.12Z"/>
      <path class="cls-2" d="M7.91,6.97h.02c.1,0,.48-.04.64-.06.06-.34.08-.53.08-.65,0,0,0-.03,0-.05l.5.05s-.02.06-.02.09c0,.01-.03.15-.07.41-.01.07-.01.07-.02.11.08,0,.12,0,.17,0,.23,0,.39.06.5.19.11.13.15.29.15.59,0,.57-.1,1.02-.26,1.2-.1.11-.2.14-.37.14-.14,0-.27-.03-.49-.09,0-.07,0-.1,0-.14,0-.11,0-.19-.04-.34.16.07.35.12.46.12.08,0,.13-.05.17-.18.05-.15.09-.49.09-.73,0-.15-.02-.24-.08-.29-.04-.04-.09-.05-.21-.05-.05,0-.09,0-.16,0-.11.52-.29,1.01-.59,1.63-.03.06-.03.07-.05.11l-.45-.24c.22-.29.49-.93.62-1.46-.23.03-.45.07-.54.1l-.04-.45ZM10.05,6.32c.13.14.2.25.29.42l-.28.14c-.09-.16-.19-.32-.3-.43l.28-.13ZM10.37,6.84c.25.36.39.67.51,1.11l-.44.21c-.05-.27-.12-.46-.24-.72-.09-.21-.14-.29-.22-.41l.39-.19ZM10.44,6.15c.12.12.21.25.29.41l-.28.14c-.09-.17-.18-.29-.29-.42l.27-.13Z"/>
      <path class="cls-2" d="M13.05,8.76c0,.28-.1.34-.52.34-.08,0-.19,0-.33,0-.03-.18-.06-.26-.12-.4.17.02.3.03.39.03.13,0,.16,0,.16-.07v-.39h-.83c-.17,0-.31,0-.41.02v-.42c.12.02.25.02.41.02h.83c0-.07,0-.12,0-.17h.16c.11-.06.19-.12.29-.21h-.77c-.14,0-.22,0-.33.01v-.38c.1,0,.19.01.33.01h1.01c.12,0,.19,0,.25-.01l.21.23s-.05.04-.08.07c-.16.15-.34.29-.57.45h.71c.17,0,.32,0,.42-.02v.42c-.1-.01-.25-.02-.43-.02h-.77v.51ZM11.91,6.6c-.07-.13-.11-.2-.22-.35l.39-.1c.1.14.18.26.27.44h.28c-.04-.12-.1-.25-.18-.39l.41-.09c.11.22.14.29.21.48h.23c.1-.15.18-.3.23-.46l.41.1c-.05.11-.15.28-.21.36h.1c.21,0,.29,0,.4-.01,0,.08-.01.14-.01.27v.33c0,.1,0,.17.02.25h-.41v-.48h-2.01v.48h-.42c.01-.07.02-.15.02-.26v-.32c0-.11,0-.19-.01-.27.12,0,.18.01.39.01h.12Z"/>
      <path class="cls-2" d="M14.74,7.8c.14-.1.28-.26.72-.82.16-.21.3-.29.47-.29.1,0,.2.04.29.11.05.04.12.11.21.22.33.39.59.66.93.98.19.18.28.25.4.32l-.24.54s-.05-.05-.11-.1c-.27-.24-.62-.6-.93-.94q-.07-.08-.29-.33s-.04-.04-.13-.16c-.06-.06-.09-.08-.13-.08q-.05,0-.31.35c-.15.2-.33.41-.49.6-.04.04-.05.05-.08.1l-.3-.48ZM16.98,6.69c.11.13.19.24.29.45l-.28.14c-.11-.22-.19-.34-.29-.46l.28-.13ZM17.34,6.51c.11.12.21.26.3.44l-.27.14c-.1-.19-.19-.33-.29-.45l.26-.12Z"/>
      <path class="cls-2" d="M18.57,6.33c.12.02.22.02.42.02.28,0,.67-.02.97-.04.12,0,.16-.02.22-.04l.23.33c-.07.04-.07.04-.32.26-.33.3-.44.38-.7.56.18-.05.34-.08.53-.08.27,0,.5.07.67.22.16.13.23.31.23.53,0,.31-.15.56-.44.73-.21.12-.5.19-.8.19-.28,0-.52-.06-.65-.16-.12-.09-.2-.23-.2-.39,0-.28.25-.48.59-.48.23,0,.43.09.56.26.06.08.1.14.15.28.23-.09.32-.21.32-.42,0-.23-.24-.38-.61-.38-.47,0-.91.18-1.31.54l-.26-.41c.3-.14.97-.68,1.42-1.13-.26.02-.32.03-.79.05-.1,0-.13,0-.23.02l-.02-.46ZM19.32,8.35c-.1,0-.16.05-.16.13,0,.11.12.18.33.18.05,0,.06,0,.13-.02-.05-.19-.15-.29-.3-.29Z"/>
      <path class="cls-2" d="M22.13,8.16c0-.08,0-.12,0-.15t0-.23l-.05-1.05c0-.14-.02-.3-.03-.41h.62c-.01.09-.03.24-.03.41l-.05,1.05q0,.2,0,.23s0,.07,0,.15h-.45ZM22.07,8.92v-.52h.55v.52h-.55Z"/>
    </g>
  </g>
</svg>