<?xml version="1.0" encoding="UTF-8"?>
<svg id="_レイヤー_2" data-name="レイヤー 2" xmlns="http://www.w3.org/2000/svg" viewBox="0 0 119.06 8.26">
  <defs>
    <style>
      .cls-1 {
        fill: none;
        stroke: #ffd900;
        stroke-linecap: round;
        stroke-linejoin: round;
        stroke-width: 3.81px;
      }

      .cls-2 {
        fill: #e4004f;
      }
    </style>
  </defs>
  <g id="design">
    <g>
      <g>
        <g>
          <path class="cls-1" d="M8.71,4.81c0-.45.15-.81.45-1.09.3-.28.67-.46,1.11-.54v-.56s-1.1.01-1.1.01l-.02-1.03,1.1-.02v-.5s1.09-.01,1.09-.01v.51s1.22-.02,1.22-.02v1.04h-1.2v.44c.47,0,.91.15,1.31.45s.6.69.6,1.18c0,.32-.06.61-.17.87-.11.26-.23.46-.37.6l-.92-.53c.08-.11.15-.24.22-.4.07-.16.1-.33.1-.51,0-.2-.08-.36-.24-.48-.16-.12-.33-.17-.53-.17.02.33,0,.67-.07,1-.07.34-.21.58-.43.74-.4.27-.86.3-1.37.11s-.77-.56-.77-1.1ZM10.4,4.12c-.21.02-.37.09-.5.2-.13.11-.19.24-.19.39s.04.25.13.31.18.08.26.07c.08,0,.15-.07.21-.19.06-.11.09-.37.09-.78ZM12.76,3.08l.45-.69,1.03.65-.45.75-1.03-.7Z"/>
          <path class="cls-1" d="M19.2,3.27h1.69s.01,1.15.01,1.15h-1.59c-.02.54-.15,1.16-.39,1.85l-1.82-.28.14-.89.67.04c.09-.27.13-.51.12-.72l-2.1.02v-1.12s2.01-.02,2.01-.02c0-.26-.03-.5-.07-.72l.67-.6h-1.71l-.02-1.05h3.1s.05,1.23.05,1.23l-.82.67c.02.13.04.28.06.45Z"/>
          <path class="cls-1" d="M25.25,2.71l-.7.03.75.82-.53.58-.29-.25v2.05s-.93,0-.93,0l-.03-1.57c-.14.2-.3.38-.48.53l-.61-.68c.41-.4.75-.85,1.01-1.36h-.79s-.01-1.01-.01-1.01l.84-.03.04-.96h.97s0,.89,0,.89h.75s0,.96,0,.96ZM26.36,5.98c-.26.16-.54.29-.83.4l-.25-.6c.27-.08.53-.19.79-.32l.3.51ZM25.86,4.31c.22.16.43.34.64.52l-.41.44c-.2-.17-.41-.33-.61-.48l.39-.48ZM28.85,1.34l-.02.77-1.07.03v.29s.77-.01.77-.01v.57l-.75.04v.25s1.17-.01,1.17-.01v.78l-1.16.04v2.39l-1.24-.13.07-.63h.3l-.05-1.6h-1.1s-.02-.79-.02-.79l1.17-.02v-.26s-.84-.01-.84-.01v-.55s.84-.04.84-.04v-.26h-1.2s0-.81,0-.81l3.14-.03ZM26.48,1.17c-.12-.26-.23-.51-.34-.77l.63-.29c.11.25.21.52.3.79l-.59.27ZM27.55.9c.09-.26.18-.51.27-.76l.67.25c-.09.25-.2.5-.31.75l-.63-.24ZM28.04,4.73c.23-.14.45-.27.69-.42l.34.51c-.24.16-.49.3-.76.42l-.27-.51ZM28.06,6.05l.32-.58c.25.15.51.29.78.43l-.31.61c-.27-.15-.53-.3-.79-.46Z"/>
          <path class="cls-1" d="M34.11.77l-.2.56h2.07s0,4.77,0,4.77l-1.66-.13.04-.77.46-.04v-2.66s-3,.04-3,.04l-.02,3.47-1.17-.02.06-4.65,1.9-.02.39-.96,1.1.43ZM34.35,3v1.97h-2.05s-.01-1.97-.01-1.97h2.07ZM33.68,4.32v-.64l-.72.02v.62h.72Z"/>
          <path class="cls-1" d="M39.49,5.41l-1.41.24-.08-3.81h1.08s.02,2.57.02,2.57h.34l.05,1ZM40.14,3.24l-.05-1.03,1.04-.04-.03-.84,1.12-.04.03.85.73-.02v1.05s-.66.04-.66.04c0,.53-.04,1.03-.12,1.52s-.25.95-.51,1.42l-1.01-.35c.36-.75.51-1.6.46-2.54h-1.01Z"/>
          <path class="cls-1" d="M46.15,4.05c-.34.21-.69.39-1.05.56l-.6-1.08c1.1-.6,2.08-1.36,2.93-2.27l.95.86c-.31.37-.64.72-1.01,1.04v2.88h-1.22v-1.98Z"/>
          <path class="cls-1" d="M49.62,3.83l2.02-1.79,2.81,2.35-.75.98-2.04-1.71-1.29,1.1-.75-.93ZM53.83,2.41l-.79.2-.25-1.03.75-.18.29,1.01ZM53.96,1.48l.76-.23.24,1.01-.76.15-.24-.94Z"/>
          <path class="cls-1" d="M58.15,2.4l-.58.9-1.22-.74.51-.94,1.28.77ZM56.78,4.74c.71-.24,1.28-.53,1.71-.87.43-.34.83-.89,1.21-1.65l1.06.46c-.17.74-.58,1.41-1.23,2-.65.59-1.4.98-2.26,1.17l-.5-1.12Z"/>
          <path class="cls-1" d="M64.18,1.36v1.53s1.55.37,1.55.37l-.27,1.11-1.31-.27-.05,1.9h-1.26V1.34h1.33Z"/>
          <path class="cls-1" d="M69.79,5.06c.36.1.64,0,.86-.29l.79.61c-.46.61-1.08.88-1.86.79-.29-.02-.54-.12-.77-.28-.23-.17-.38-.39-.45-.67s-.09-.55-.07-.82h-.8s-.04-1.04-.04-1.04h.84s0-.56,0-.56h-.75s-.03-1.03-.03-1.03h.81s.01-.61.01-.61l1.16.02v.54h1.24s.02,1.04.02,1.04h-1.3s0,.53,0,.53l1.24-.02.05,1-1.31.07c-.01.14,0,.28.05.42s.15.25.3.31Z"/>
          <path class="cls-1" d="M74.11,2.83c-.03.34-.16.79-.41,1.34l-.99-.32c.2-.59.32-1.1.37-1.55.04-.45.07-1.01.08-1.67l2.64-.04c-.03-.18-.04-.32-.05-.41l1.06-.12c0,.14.03.3.06.49l.83-.03.04,1.01-.67.05c0,.07.06.23.15.5.13-.11.24-.24.33-.39l.65.58c-.18.25-.39.49-.63.7.04.07.07.14.11.19l.37-.22.37.58-1.24.72c-.15-.18-.29-.42-.42-.72l-.42.32-.49-.56c.18-.13.35-.27.51-.44-.19-.48-.32-.88-.39-1.2l-1.79.03c0,.07,0,.19-.01.37h1.34c.05.62-.06,1.25-.32,1.88l-1.04-.17.08-.58h.35c.09-.15.12-.27.08-.35h-.57ZM78.08,5.84v.87h-4.9v-.87h.6v-1.48h3.85l.04,1.48h.41ZM74.53,5.83h.44v-.74s-.44,0-.44,0v.75ZM75.94,5.8v-.72h-.45v.72h.45ZM76.49,5.83h.44v-.75h-.44v.75ZM79.09.55l-.37.56-.86-.55.37-.56.87.55Z"/>
          <path class="cls-1" d="M80.37,1.62h1.08c-.03.2-.05.43-.05.69,0,.26,0,.55,0,.88l.27.02v.82l-1.32.03c-.02-.37-.03-.77-.03-1.19s.02-.83.05-1.24ZM82.75,1.59l1.17-.06c.1.94.08,1.82-.05,2.64-.13.82-.52,1.52-1.17,2.1l-.91-.68c.51-.51.82-1.12.92-1.85.11-.73.12-1.44.04-2.15Z"/>
          <path class="cls-1" d="M86.56,2.81h-.71s-.05-1.02-.05-1.02l.83-.02.06-.71,1.12.05-.04.64.97-.06.04.98-1.05.08-.24,3.07-1.18-.05.26-2.96ZM88.79,4.91c.59.15,1.19.19,1.81.11l.08.89c-.7.15-1.39.13-2.07-.08l.18-.91ZM88.78,4.19l-.08-.92c.62-.05,1.24-.07,1.87-.06v.92c-.61-.01-1.2,0-1.79.06ZM90.33,2.32l-.64.11-.24-1.03.71-.15.17,1.07ZM91.2,1.22l.18,1.01-.64.13-.2-1,.66-.14Z"/>
          <path class="cls-1" d="M95.5,5.1l-.86.86-2.38-2.29,2.22-2.47.86.79-1.42,1.57,1.58,1.53Z"/>
          <path class="cls-1" d="M100.34,6.06c-.43.1-.93.1-1.51-.02-.58-.11-1.05-.37-1.4-.78l.65-.82c.25.21.54.37.86.49.33.11.77.15,1.32.12l.08,1.01ZM99.35,3.16l-1.7.17-.13-1.11,1.49-.15c-.04-.27-.07-.53-.11-.78l1.09-.14c.04.26.09.53.15.8l1.2-.18.15,1.06-1.09.17c.11.47.2.83.27,1.08l-1.18.31-.25-.68.2-.08c-.02-.14-.06-.29-.1-.47Z"/>
          <path class="cls-1" d="M105.88,4.71c.18.06.33.04.45-.06.12-.09.21-.22.27-.39l.81.46c-.1.35-.3.64-.59.88-.29.23-.62.33-1.01.3-.65-.1-1.08-.46-1.27-1.08l-.79,1.03-1.01-.44,1.4-4.12,1.06.32-.65,2.07.39-.41.69.22c-.05.25-.05.5,0,.75.05.25.13.4.24.47Z"/>
          <path class="cls-1" d="M110.82,4.38h-1.12l-.11-3.09h1.34s-.11,3.09-.11,3.09ZM109.68,5.06h1.18v.96h-1.18v-.96Z"/>
        </g>
        <polygon class="cls-1" points="3.06 .05 5.71 8.26 0 1.48 3.06 .05"/>
        <polygon class="cls-1" points="116 .05 113.35 8.26 119.06 1.48 116 .05"/>
      </g>
      <g>
        <g>
          <path class="cls-2" d="M8.71,4.81c0-.45.15-.81.45-1.09.3-.28.67-.46,1.11-.54v-.56s-1.1.01-1.1.01l-.02-1.03,1.1-.02v-.5s1.09-.01,1.09-.01v.51s1.22-.02,1.22-.02v1.04h-1.2v.44c.47,0,.91.15,1.31.45s.6.69.6,1.18c0,.32-.06.61-.17.87-.11.26-.23.46-.37.6l-.92-.53c.08-.11.15-.24.22-.4.07-.16.1-.33.1-.51,0-.2-.08-.36-.24-.48-.16-.12-.33-.17-.53-.17.02.33,0,.67-.07,1-.07.34-.21.58-.43.74-.4.27-.86.3-1.37.11s-.77-.56-.77-1.1ZM10.4,4.12c-.21.02-.37.09-.5.2-.13.11-.19.24-.19.39s.04.25.13.31.18.08.26.07c.08,0,.15-.07.21-.19.06-.11.09-.37.09-.78ZM12.76,3.08l.45-.69,1.03.65-.45.75-1.03-.7Z"/>
          <path class="cls-2" d="M19.2,3.27h1.69s.01,1.15.01,1.15h-1.59c-.02.54-.15,1.16-.39,1.85l-1.82-.28.14-.89.67.04c.09-.27.13-.51.12-.72l-2.1.02v-1.12s2.01-.02,2.01-.02c0-.26-.03-.5-.07-.72l.67-.6h-1.71l-.02-1.05h3.1s.05,1.23.05,1.23l-.82.67c.02.13.04.28.06.45Z"/>
          <path class="cls-2" d="M25.25,2.71l-.7.03.75.82-.53.58-.29-.25v2.05s-.93,0-.93,0l-.03-1.57c-.14.2-.3.38-.48.53l-.61-.68c.41-.4.75-.85,1.01-1.36h-.79s-.01-1.01-.01-1.01l.84-.03.04-.96h.97s0,.89,0,.89h.75s0,.96,0,.96ZM26.36,5.98c-.26.16-.54.29-.83.4l-.25-.6c.27-.08.53-.19.79-.32l.3.51ZM25.86,4.31c.22.16.43.34.64.52l-.41.44c-.2-.17-.41-.33-.61-.48l.39-.48ZM28.85,1.34l-.02.77-1.07.03v.29s.77-.01.77-.01v.57l-.75.04v.25s1.17-.01,1.17-.01v.78l-1.16.04v2.39l-1.24-.13.07-.63h.3l-.05-1.6h-1.1s-.02-.79-.02-.79l1.17-.02v-.26s-.84-.01-.84-.01v-.55s.84-.04.84-.04v-.26h-1.2s0-.81,0-.81l3.14-.03ZM26.48,1.17c-.12-.26-.23-.51-.34-.77l.63-.29c.11.25.21.52.3.79l-.59.27ZM27.55.9c.09-.26.18-.51.27-.76l.67.25c-.09.25-.2.5-.31.75l-.63-.24ZM28.04,4.73c.23-.14.45-.27.69-.42l.34.51c-.24.16-.49.3-.76.42l-.27-.51ZM28.06,6.05l.32-.58c.25.15.51.29.78.43l-.31.61c-.27-.15-.53-.3-.79-.46Z"/>
          <path class="cls-2" d="M34.11.77l-.2.56h2.07s0,4.77,0,4.77l-1.66-.13.04-.77.46-.04v-2.66s-3,.04-3,.04l-.02,3.47-1.17-.02.06-4.65,1.9-.02.39-.96,1.1.43ZM34.35,3v1.97h-2.05s-.01-1.97-.01-1.97h2.07ZM33.68,4.32v-.64l-.72.02v.62h.72Z"/>
          <path class="cls-2" d="M39.49,5.41l-1.41.24-.08-3.81h1.08s.02,2.57.02,2.57h.34l.05,1ZM40.14,3.24l-.05-1.03,1.04-.04-.03-.84,1.12-.04.03.85.73-.02v1.05s-.66.04-.66.04c0,.53-.04,1.03-.12,1.52s-.25.95-.51,1.42l-1.01-.35c.36-.75.51-1.6.46-2.54h-1.01Z"/>
          <path class="cls-2" d="M46.15,4.05c-.34.21-.69.39-1.05.56l-.6-1.08c1.1-.6,2.08-1.36,2.93-2.27l.95.86c-.31.37-.64.72-1.01,1.04v2.88h-1.22v-1.98Z"/>
          <path class="cls-2" d="M49.62,3.83l2.02-1.79,2.81,2.35-.75.98-2.04-1.71-1.29,1.1-.75-.93ZM53.83,2.41l-.79.2-.25-1.03.75-.18.29,1.01ZM53.96,1.48l.76-.23.24,1.01-.76.15-.24-.94Z"/>
          <path class="cls-2" d="M58.15,2.4l-.58.9-1.22-.74.51-.94,1.28.77ZM56.78,4.74c.71-.24,1.28-.53,1.71-.87.43-.34.83-.89,1.21-1.65l1.06.46c-.17.74-.58,1.41-1.23,2-.65.59-1.4.98-2.26,1.17l-.5-1.12Z"/>
          <path class="cls-2" d="M64.18,1.36v1.53s1.55.37,1.55.37l-.27,1.11-1.31-.27-.05,1.9h-1.26V1.34h1.33Z"/>
          <path class="cls-2" d="M69.79,5.06c.36.1.64,0,.86-.29l.79.61c-.46.61-1.08.88-1.86.79-.29-.02-.54-.12-.77-.28-.23-.17-.38-.39-.45-.67s-.09-.55-.07-.82h-.8s-.04-1.04-.04-1.04h.84s0-.56,0-.56h-.75s-.03-1.03-.03-1.03h.81s.01-.61.01-.61l1.16.02v.54h1.24s.02,1.04.02,1.04h-1.3s0,.53,0,.53l1.24-.02.05,1-1.31.07c-.01.14,0,.28.05.42s.15.25.3.31Z"/>
          <path class="cls-2" d="M74.11,2.83c-.03.34-.16.79-.41,1.34l-.99-.32c.2-.59.32-1.1.37-1.55.04-.45.07-1.01.08-1.67l2.64-.04c-.03-.18-.04-.32-.05-.41l1.06-.12c0,.14.03.3.06.49l.83-.03.04,1.01-.67.05c0,.07.06.23.15.5.13-.11.24-.24.33-.39l.65.58c-.18.25-.39.49-.63.7.04.07.07.14.11.19l.37-.22.37.58-1.24.72c-.15-.18-.29-.42-.42-.72l-.42.32-.49-.56c.18-.13.35-.27.51-.44-.19-.48-.32-.88-.39-1.2l-1.79.03c0,.07,0,.19-.01.37h1.34c.05.62-.06,1.25-.32,1.88l-1.04-.17.08-.58h.35c.09-.15.12-.27.08-.35h-.57ZM78.08,5.84v.87h-4.9v-.87h.6v-1.48h3.85l.04,1.48h.41ZM74.53,5.83h.44v-.74s-.44,0-.44,0v.75ZM75.94,5.8v-.72h-.45v.72h.45ZM76.49,5.83h.44v-.75h-.44v.75ZM79.09.55l-.37.56-.86-.55.37-.56.87.55Z"/>
          <path class="cls-2" d="M80.37,1.62h1.08c-.03.2-.05.43-.05.69,0,.26,0,.55,0,.88l.27.02v.82l-1.32.03c-.02-.37-.03-.77-.03-1.19s.02-.83.05-1.24ZM82.75,1.59l1.17-.06c.1.94.08,1.82-.05,2.64-.13.82-.52,1.52-1.17,2.1l-.91-.68c.51-.51.82-1.12.92-1.85.11-.73.12-1.44.04-2.15Z"/>
          <path class="cls-2" d="M86.56,2.81h-.71s-.05-1.02-.05-1.02l.83-.02.06-.71,1.12.05-.04.64.97-.06.04.98-1.05.08-.24,3.07-1.18-.05.26-2.96ZM88.79,4.91c.59.15,1.19.19,1.81.11l.08.89c-.7.15-1.39.13-2.07-.08l.18-.91ZM88.78,4.19l-.08-.92c.62-.05,1.24-.07,1.87-.06v.92c-.61-.01-1.2,0-1.79.06ZM90.33,2.32l-.64.11-.24-1.03.71-.15.17,1.07ZM91.2,1.22l.18,1.01-.64.13-.2-1,.66-.14Z"/>
          <path class="cls-2" d="M95.5,5.1l-.86.86-2.38-2.29,2.22-2.47.86.79-1.42,1.57,1.58,1.53Z"/>
          <path class="cls-2" d="M100.34,6.06c-.43.1-.93.1-1.51-.02-.58-.11-1.05-.37-1.4-.78l.65-.82c.25.21.54.37.86.49.33.11.77.15,1.32.12l.08,1.01ZM99.35,3.16l-1.7.17-.13-1.11,1.49-.15c-.04-.27-.07-.53-.11-.78l1.09-.14c.04.26.09.53.15.8l1.2-.18.15,1.06-1.09.17c.11.47.2.83.27,1.08l-1.18.31-.25-.68.2-.08c-.02-.14-.06-.29-.1-.47Z"/>
          <path class="cls-2" d="M105.88,4.71c.18.06.33.04.45-.06.12-.09.21-.22.27-.39l.81.46c-.1.35-.3.64-.59.88-.29.23-.62.33-1.01.3-.65-.1-1.08-.46-1.27-1.08l-.79,1.03-1.01-.44,1.4-4.12,1.06.32-.65,2.07.39-.41.69.22c-.05.25-.05.5,0,.75.05.25.13.4.24.47Z"/>
          <path class="cls-2" d="M110.82,4.38h-1.12l-.11-3.09h1.34s-.11,3.09-.11,3.09ZM109.68,5.06h1.18v.96h-1.18v-.96Z"/>
        </g>
        <polygon class="cls-2" points="3.06 .05 5.71 8.26 0 1.48 3.06 .05"/>
        <polygon class="cls-2" points="116 .05 113.35 8.26 119.06 1.48 116 .05"/>
      </g>
    </g>
  </g>
</svg>