<?xml version="1.0" encoding="UTF-8"?>
<svg id="_レイヤー_2" data-name="レイヤー 2" xmlns="http://www.w3.org/2000/svg" viewBox="0 0 25.25 10.14">
  <defs>
    <style>
      .cls-1 {
        fill: #ffd900;
      }

      .cls-2 {
        fill: #231815;
      }
    </style>
  </defs>
  <g id="design">
    <g>
      <path class="cls-1" d="M2.57,4.98c-.24,0-.48-.09-.67-.26-.5.12-1.07-.05-1.44-.43-.29-.3-.46-.72-.46-1.18s.16-.87.44-1.2c-.02-.07-.03-.14-.03-.21l-.02-.44c-.01-.3.12-.6.35-.79.23-.19.53-.28.82-.23.04,0,.09,0,.16,0,.13,0,.31,0,.44-.02.33-.11.69-.04.97.19l.3.25s.04.04.06.06h.16c.29.02.56.16.74.38.18.23.25.52.2.81,0,.05,0,.09,0,.13.36.24.51.7.36,1.13l-.17.51c-.11.32-.37.57-.69.65-.11.03-.23.04-.35.03-.19.19-.42.36-.68.5-.15.08-.32.12-.48.12ZM2.23.21h0,0Z"/>
      <path class="cls-1" d="M4.82,4.9c-.1,0-.2-.01-.3-.04l-.5-.15c-.28-.09-.5-.29-.62-.55-.12-.26-.11-.57.01-.83.03-.06.07-.19.55-1.53.2-.56.27-.76.3-.88.06-.26.22-.51.45-.65.22-.14.5-.22.76-.16l.53.12c.3.07.56.27.69.55.12.25.12.54.02.8.28-.04.58.06.8.26.08.06.12.08.17.1.42.19.65.65.56,1.1-.09.44-.23.78-.44,1.08-.36.49-.91.76-1.5.76-.31,0-.6-.07-.84-.21-.04.04-.09.07-.14.1-.15.09-.33.14-.5.14Z"/>
      <path class="cls-1" d="M9.28,4.95c-.52,0-.96-.18-1.27-.47-.12-.01-.23-.04-.33-.1l-.44-.24c-.25-.14-.43-.38-.49-.67-.06-.28,0-.58.18-.81.02-.03.05-.07.07-.11-.1-.15-.15-.34-.15-.53v-.44c0-.3.13-.58.36-.77.13-.1.27-.17.43-.21.06-.1.13-.2.22-.28.21-.18.48-.28.76-.25l.49.05c.25.02.48.14.65.33.1,0,.21.02.31.06.45.16.76.3,1.1.51.45.27.62.85.38,1.32l-.17.34c.24.3.34.74.17,1.09l-.21.43c-.15.31-.44.52-.78.56-.12.02-.25,0-.36-.02-.26.14-.58.22-.91.22Z"/>
      <path class="cls-1" d="M13.47,4.87c-.08,0-.15,0-.23-.03-.36-.04-.75-.11-1.13-.31-.63-.32-1-.91-1.03-1.6-.17-.03-.33-.1-.46-.2-.23-.18-.36-.45-.38-.73l-.03-.5c-.01-.28.09-.56.29-.76.2-.2.47-.3.76-.29h.08c.05,0,.07,0,.47-.02.22-.02.78-.04,1.67-.08.13,0,.19,0,.23-.01.29-.07.57,0,.8.18.24.18.36.45.37.75l.02.39s.05.1.08.16c.12.24.14.51.06.77-.08.25-.27.46-.51.58h0c.02.11.02.22,0,.32l-.07.52c-.04.28-.19.53-.42.69-.17.12-.37.18-.57.18Z"/>
      <path class="cls-1" d="M14.59,3.71c-.24,0-.48-.09-.67-.25-.21-.19-.33-.46-.33-.75v-.49c0-.29.12-.56.34-.75.21-.19.5-.28.78-.24.12.02.23.02.4.02h1.86c.17,0,.28,0,.37-.02.29-.04.58.04.8.23.22.19.35.47.35.76v.49c0,.28-.12.56-.33.75-.21.19-.49.28-.78.25-.13-.01-.25-.02-.41-.02h-1.86c-.15,0-.27,0-.41.02-.04,0-.07,0-.11,0Z"/>
      <path class="cls-1" d="M18.93,5.01h-.4c-.27,0-.52-.11-.71-.29l-.23-.11c-.44-.22-.65-.73-.5-1.2.02-.08.04-.15.06-.32-.03-.08-.05-.17-.05-.26l-.04-.38c-.01-.15,0-.29.05-.43-.09-.27-.07-.58.09-.84l.2-.33c.07-.11.16-.21.26-.29.1-.19.25-.35.44-.45.24-.12.53-.16.79-.07l.32.11c.16-.09.33-.14.52-.14h.43c.16,0,.31.04.45.11.19-.02.37.02.54.11l.38.2c.26.14.45.38.51.67.04.19.03.39-.04.57.02.08.03.16.03.25v.38c0,.19-.05.37-.15.53h0v.81c0,.12,0,.18,0,.25.03.28-.06.57-.25.78-.19.21-.46.33-.75.33h-.41c-.11,0-.22-.02-.33-.05-.1.03-.21.05-.32.05h-.4c-.08,0-.17-.01-.25-.03-.09.02-.18.04-.27.04Z"/>
      <path class="cls-1" d="M21.74,4.86c-.53,0-.97-.41-1-.94-.08-.53-.1-.83-.1-1.19,0-.46.04-.9.14-1.43.03-.15.03-.17.04-.24.06-.55.55-.94,1.09-.89l.5.05c.25.02.47.14.64.31.05,0,.11,0,.18,0,.33,0,.55-.03.62-.05.29-.08.6-.02.85.16.24.18.39.46.41.76l.02.46c.01.22-.05.44-.18.62.15.17.25.38.27.61l.03.48c.03.53-.35.99-.88,1.06l-.12-.44s-.04,0-.06.01l.07.45c-.35.06-.56.07-.83.07-.24,0-.47-.03-.67-.08-.15.12-.32.19-.51.2l-.46.02s-.03,0-.05,0Z"/>
      <path class="cls-1" d="M7.9,10.07c-.6,0-.88-.02-1.11-.08-.05-.01-.09-.02-.13-.04-.23.12-.51.15-.75.08-.29-.09-.55-.28-.67-.55l-.18-.44c-.1-.25-.1-.52,0-.77.02-.05.05-.1.08-.15-.05-.12-.09-.25-.09-.38v-.41c0-.15.04-.3.1-.44-.07-.14-.11-.3-.11-.46,0-.28.12-.54.32-.73l.31-.29c.3-.27.72-.34,1.07-.19.06,0,.11,0,.17,0,.07,0,.13,0,.24,0h1.51c.09,0,.14,0,.22,0,.31-.03.61.09.82.31.21.23.31.54.26.84v.26c.03.24-.02.51-.15.72v.3c.09.15.15.32.15.49v.04c.13.25.15.55.05.82q-.04.11-.06.2c-.08.47-.47.82-.94.84-.37.02-.75.02-1.11.02Z"/>
      <path class="cls-1" d="M11.31,10.14h0c-.2,0-.4-.06-.56-.17-.33.03-.45.04-.82.06l-.23.02c-.54.06-1.01-.31-1.1-.83l-.06-.39c-.03-.19,0-.38.07-.55v-.08c0-.1.02-.21.05-.3,0-.03,0-.06,0-.1v-.37c-.07-.14-.1-.29-.1-.44v-.33c0-.08,0-.15.03-.23-.03-.22.01-.45.13-.65.18-.3.5-.49.86-.49.6,0,.97-.06,1.06-.08.23-.1.48-.11.7-.03.05,0,.1-.01.15-.01h.44c.3,0,.58.13.77.36.08.1.14.21.18.33.11.05.22.12.31.21.21.21.32.51.29.81-.01.11,0,.12-.02.51-.02.98-.06,1.45-.18,1.79-.08.26-.39.91-1.36.91-.08,0-.16,0-.22,0-.11.04-.24.07-.37.07Z"/>
      <path class="cls-1" d="M13.08,10.09c-.09,0-.18-.01-.27-.04-.29-.08-.53-.29-.65-.58l-.18-.44c-.1-.24-.1-.52,0-.77.02-.05.05-.1.08-.15-.06-.12-.09-.25-.09-.38v-.41c0-.16.04-.31.11-.45-.06-.13-.1-.27-.1-.42,0-.28.11-.55.31-.74l.31-.29c.29-.27.7-.34,1.05-.2.13-.06.28-.09.42-.09h.44c.07,0,.14,0,.2.02.14-.05.29-.06.43-.04l.42.07c.2.03.38.12.52.26.17.04.32.11.45.21.22.19.4.47.4.76v.39c0,.06,0,.12-.01.17.02.11.02.23,0,.34.02.08.03.16.03.25v.38c0,.08-.01.17-.03.25.11.25.12.53.02.79-.02.05-.03.08-.05.21-.07.47-.45.82-.92.86-.19.01-.74.02-1.32.02-.38,0-.73-.01-1.06-.12-.15.09-.33.13-.5.13Z"/>
      <path class="cls-1" d="M17.53,10.02c-.67,0-1.26-.29-1.62-.8-.24-.34-.37-.75-.37-1.2,0-.22.03-.45.09-.67-.09-.14-.15-.29-.15-.46v-.46c-.02-.29.11-.58.33-.77.22-.19.51-.28.81-.24l-.07.43h0l.07-.43c.31,0,.56-.03.63-.05.29-.11.59-.08.83.07l.12-.03s0,0,0,0l.26-.1s.02,0,.03-.01c.02,0,.04-.02.06-.02l.25-.1c.41-.16.88-.04,1.16.31.15.19.27.4.38.65.15.35.09.74-.13,1.02.13.28.15.6,0,.88l-.24.46c-.14.27-.39.46-.68.52-.04.07-.08.13-.13.19-.39.52-.99.82-1.64.82Z"/>
      <path class="cls-2" d="M1.39,1.22c.07.01.15.02.33.02.2,0,.49-.01.63-.03.06,0,.09-.02.13-.04l.3.25s-.05.08-.07.14c-.03.07-.17.51-.22.7.24.04.4.09.63.18.02-.14.03-.29.03-.56,0-.08,0-.11-.01-.18l.48.02c-.01.07-.02.1-.02.22,0,.28-.03.47-.06.67.07.04.24.12.34.18.07.04.09.05.13.06l-.17.51c-.09-.08-.25-.19-.42-.28-.09.23-.19.39-.36.55-.13.14-.29.25-.47.35-.15-.19-.2-.23-.34-.35.24-.12.35-.19.48-.32.13-.13.22-.27.28-.44-.19-.09-.38-.15-.65-.21-.14.41-.23.64-.32.79-.12.21-.28.31-.46.31-.14,0-.28-.06-.38-.17-.12-.12-.18-.29-.18-.49,0-.3.15-.56.41-.73.17-.1.35-.15.62-.16.06-.2.12-.41.18-.61-.08,0-.28.02-.58.04-.05,0-.12,0-.22.02l-.02-.44ZM1.53,2.81c-.07.08-.11.18-.11.28,0,.12.06.21.13.21.05,0,.1-.05.16-.19.06-.12.12-.29.19-.47-.17.02-.29.07-.38.18Z"/>
      <path class="cls-2" d="M5.78,1.19c-.05.09-.05.1-.13.29t-.16.4l-.23.57c.16-.14.28-.19.43-.19.15,0,.29.07.36.17.05.07.08.16.08.3,0,.06,0,.14,0,.29,0,.25,0,.29.06.34.03.03.08.04.15.04.15,0,.27-.11.36-.32.06-.14.1-.35.12-.54.14.13.21.18.43.28-.06.3-.14.52-.27.7-.16.22-.41.34-.69.34-.21,0-.36-.06-.46-.17-.1-.11-.13-.24-.13-.47,0-.02,0-.13,0-.24v-.03c0-.08,0-.12-.02-.16-.02-.04-.07-.07-.13-.07-.16,0-.33.16-.47.44-.1.2-.22.53-.26.74l-.5-.15q.05-.11.59-1.62c.26-.73.32-.93.34-1.05l.53.12Z"/>
      <path class="cls-2" d="M9.01,1.12s-.01.03-.04.17c0,.03-.02.1-.04.21t-.02.08c.21-.02.37-.04.48-.08v.44s-.04,0-.09.01c-.11.02-.24.03-.5.05-.12.4-.2.61-.35.93-.07.16-.1.21-.22.45q-.04.08-.06.12l-.44-.24c.23-.3.45-.75.6-1.24q-.1,0-.17,0h-.04s-.04,0-.14,0h-.12v-.44c.12.02.26.03.45.03.02,0,.08,0,.14,0,.06-.24.08-.4.09-.54l.49.05ZM10.43,3.76c-.1-.12-.28-.27-.46-.37,0,.15-.03.25-.11.34-.11.14-.33.22-.59.22-.44,0-.73-.23-.73-.57,0-.24.15-.45.41-.54.1-.04.2-.05.34-.05.09,0,.15,0,.23.02-.01-.13-.02-.22-.02-.31,0-.14,0-.24.03-.36l.45.02c-.04.13-.04.19-.04.32,0,.14,0,.26.03.43.2.09.33.16.48.28.04.03.07.05.12.1t.05.04l-.21.43ZM9.29,3.17c-.18,0-.29.08-.29.19s.1.19.27.19c.19,0,.29-.08.29-.24,0-.03,0-.09,0-.09-.1-.04-.16-.05-.25-.05ZM10.45,2.28c-.29-.19-.58-.33-.95-.46l.23-.37c.38.14.64.26.93.43l-.21.4Z"/>
      <path class="cls-2" d="M11.2,1.45c.07,0,.11,0,.12,0,.06,0,.08,0,.54-.03.22-.02.77-.04,1.65-.08.28-.01.3-.02.36-.03l.03.49s-.05,0-.08,0c-.21,0-.47.07-.68.2-.36.21-.58.5-.58.79,0,.24.15.41.42.49.15.04.36.07.47.07.02,0,.04,0,.08,0l-.07.52s-.05,0-.11-.02c-.36-.04-.58-.1-.78-.2-.33-.17-.51-.45-.51-.82,0-.43.23-.78.68-1.04-.32.04-.33.04-1.05.09-.18.01-.35.04-.47.06l-.03-.5ZM13.44,2.57c-.08-.18-.15-.3-.27-.45l.27-.12c.11.13.18.24.27.43l-.28.13ZM13.81,2.39c-.08-.17-.15-.29-.26-.43l.27-.12c.12.14.16.21.27.41l-.27.13Z"/>
      <path class="cls-2" d="M17.49,2.71c-.17-.02-.32-.03-.52-.03h-1.86c-.19,0-.35,0-.52.03v-.49c.16.02.3.03.52.03h1.86c.23,0,.39,0,.52-.03v.49Z"/>
      <path class="cls-2" d="M18.47,2.89c-.02.42-.05.69-.12.97l-.3-.15c.08-.24.1-.44.12-.87l.3.05ZM19.1,2.77s0-.04-.02-.09c-.1,0-.1,0-.16.02v.98c0,.18,0,.24.02.35h-.4c.02-.1.02-.17.02-.35v-.96c-.37.02-.39.02-.45.03l-.04-.38c.05,0,.12.01.21.01h.07c.08-.11.09-.12.14-.19-.14-.18-.25-.32-.41-.48l.2-.33.09.09c.1-.18.18-.35.21-.47l.37.13s-.03.05-.06.11c-.1.2-.19.35-.29.49.07.08.07.08.11.13.15-.23.25-.42.29-.53l.33.18s-.04.06-.09.14c-.12.19-.34.52-.49.72.15,0,.17,0,.27-.01-.02-.08-.04-.12-.08-.23l.24-.08c.04.1.04.11.08.21v-.32c.08,0,.14.01.29.01h.22v-.24h-.13c-.13,0-.21,0-.29.01v-.38c.08.01.16.02.29.02h.13v-.08c0-.1,0-.16-.02-.23h.43c-.01.06-.02.13-.02.24v.08h.14c.09,0,.15,0,.21-.01v.2c.12-.2.17-.3.21-.4l.38.2s-.05.07-.1.15c-.1.16-.2.3-.32.46h.11c.15,0,.21,0,.28-.01v.38c-.08,0-.14-.01-.3-.01h-.39c-.09.1-.13.13-.21.21h.44c.16,0,.26,0,.33,0-.01.09-.02.17-.02.36v.8c0,.17,0,.26.02.37h-.41v-.14h-.64v.14h-.4c.01-.1.02-.2.02-.36v-.64s-.05.03-.11.06c-.04-.14-.08-.22-.16-.34l-.1.04ZM19.23,2.84c.05.29.07.44.09.78l-.28.06c0-.31-.03-.57-.07-.79l.26-.04ZM19.49,2.29c-.09,0-.17,0-.23,0,.04.1.06.19.1.33.13-.07.32-.2.48-.34h-.35ZM19.85,3.01h.64v-.18h-.64v.18ZM19.85,3.53h.64v-.19h-.64v.19ZM20.21,1.93c.06-.07.13-.16.19-.24-.04,0-.06,0-.09,0h-.18v.24h.09Z"/>
      <path class="cls-2" d="M22.32,1.2c-.14.38-.24,1.1-.25,1.78q.04-.12.06-.16l.06-.15.28.12c-.17.37-.26.71-.26.96,0,.03,0,.05,0,.09l-.46.02c0-.06,0-.08-.02-.16-.06-.41-.08-.67-.08-.98,0-.4.04-.79.12-1.25.04-.2.04-.23.05-.32l.5.05ZM23.21,2.58c-.15.19-.22.33-.22.45,0,.16.16.25.46.25.28,0,.56-.04.78-.12l.03.48c-.05,0-.07,0-.14.02-.28.04-.45.06-.67.06-.41,0-.67-.1-.82-.3-.06-.09-.1-.21-.1-.33,0-.2.1-.43.3-.69l.38.17ZM22.62,1.47c.16.04.32.05.62.05.35,0,.67-.03.88-.09l.02.46s-.03,0-.07,0c-.26.04-.58.06-.85.06-.2,0-.32,0-.52-.03-.02,0-.04,0-.09,0v-.46Z"/>
      <path class="cls-2" d="M6.04,7.33c.09.01.14.02.26.02h.27c.1,0,.17,0,.25-.01,0,.1-.01.17-.01.36v.75c.06.1.1.13.18.17.13.06.31.09.66.09.73,0,1.08-.01,1.42-.05-.07.18-.08.24-.11.4-.36.02-.72.02-1.06.02-.46,0-.72-.01-.85-.05-.18-.04-.3-.12-.44-.28-.14.12-.27.23-.39.31t-.05.04l-.18-.44c.12-.05.23-.12.43-.28v-.65h-.15c-.08,0-.12,0-.21.02v-.41ZM6.83,6.85l-.24.24c-.18-.27-.28-.39-.56-.65l.31-.29c.16.15.38.38.5.53v-.25c0-.08,0-.15-.01-.21.1,0,.17,0,.31,0h1.51c.13,0,.21,0,.31-.01,0,.06-.01.12-.01.21v.21c0,.09,0,.14.01.21h-.19v.14c-.07,0-.12-.01-.23-.01h-.48v.1h.48c.15,0,.19,0,.26,0,0,.09,0,.14,0,.25v.49c0,.12,0,.17,0,.26-.12,0-.17,0-.27,0h-.48v.1h.55c.19,0,.28,0,.34-.01v.34c-.06,0-.17,0-.34,0h-.54c0,.07,0,.11.02.17h-.41c.01-.05.02-.1.02-.17h-.51c-.16,0-.26,0-.32.01v-.34c.07,0,.19.01.32.01h.51v-.1h-.45c-.12,0-.16,0-.26,0,0-.07,0-.11,0-.26v-.49q0-.18,0-.25c.09,0,.13,0,.26,0h.45v-.1h-.45c-.09,0-.16,0-.23.01v-.14h-.18ZM7.69,6.68v-.12h-.46v.12h.46ZM7.37,7.33v.12h.32v-.12h-.32ZM7.37,7.68v.12h.32v-.12h-.32ZM8.56,6.68v-.12h-.49v.12h.49ZM8.07,7.45h.36v-.12h-.36v.12ZM8.07,7.8h.36v-.12h-.36v.12Z"/>
      <path class="cls-2" d="M10.22,6.53c-.22.02-.31.02-.53.03-.04-.11-.06-.18-.13-.29.66,0,1.22-.06,1.42-.15l.21.31s-.02,0-.04,0t-.09.01s-.02,0-.05,0q-.09.01-.43.05v.15h.3c.15,0,.22,0,.3-.01v.33s-.08,0-.22,0h-.38v.12h.32c.15,0,.19,0,.26,0,0,.06,0,.12,0,.28v.45q0,.21,0,.29c-.06,0-.13,0-.29,0h-.29v.12h.27c.16,0,.22,0,.31,0v.33c-.05-.01-.1-.02-.21-.02h-.37v.14q.18,0,.57-.04c.21-.36.29-.72.33-1.45-.11,0-.16,0-.23.01v-.41c.05,0,.1.01.2.01h.04v-.2c0-.29,0-.33-.02-.42h.44c-.01.07-.02.13-.02.28,0,.02,0,.15,0,.34h.27c.14,0,.22,0,.31-.01-.01.13-.01.14-.02.62-.01.82-.05,1.24-.12,1.47-.05.17-.17.23-.42.23-.12,0-.22,0-.27,0,0-.15-.02-.23-.06-.35-.08.16-.12.24-.26.42-.06-.09-.09-.12-.19-.21-.76.07-.78.07-1.34.11-.05,0-.11,0-.2.02l-.06-.39c.06,0,.11,0,.2,0,.07,0,.31,0,.5-.01v-.15h-.32c-.11,0-.21,0-.3.01v-.33c.09,0,.16.01.31.01h.31v-.12h-.27c-.16,0-.23,0-.32,0,0-.08.01-.15.01-.3v-.42c0-.15,0-.2-.01-.29.09,0,.18,0,.32,0h.27v-.12h-.37c-.14,0-.21,0-.3.01v-.33c.09.01.17.02.3.02h.37v-.12ZM10,7.33v.12h.22v-.12h-.22ZM10,7.7v.12h.22v-.12h-.22ZM10.59,7.46h.23v-.12h-.23v.12ZM10.59,7.82h.23v-.12h-.23v.12ZM11.87,7.15c-.03.71-.1,1.11-.28,1.51.09.01.17.02.22.02.13,0,.16-.04.19-.31.04-.25.04-.38.06-1.22h-.19Z"/>
      <path class="cls-2" d="M13.7,8.13c.18-.29.21-.52.22-1.31-.09,0-.13,0-.17,0l-.24.23c-.18-.25-.33-.42-.54-.61l.31-.29c.2.18.33.31.47.49v-.21c.08.01.15.02.3.02h.04v-.06c0-.11,0-.17-.02-.25h.44c-.02.07-.02.13-.02.25v.06h.02c.11,0,.18,0,.25-.01v.28c.12-.21.21-.44.22-.62l.42.07s-.05.12-.1.26h.37c.12,0,.19,0,.26-.02v.39c-.07,0-.16,0-.26,0h-.53c-.03.05-.04.07-.09.15h.54c.09,0,.13,0,.17,0l.16.2s-.04.04-.07.08c-.08.09-.19.21-.3.31v.06h.14c.12,0,.18,0,.24-.01v.38c-.06,0-.12-.01-.24-.01h-.15v.33c0,.22-.11.29-.43.29-.05,0-.11,0-.21,0,0-.11-.03-.2-.08-.35.09.02.17.02.27.02.04,0,.06-.01.06-.06v-.24h-.11c-.12,0-.2,0-.25.01v-.38c.07.01.14.02.25.02h.11c0-.06,0-.1-.01-.15h.09c.05-.04.1-.09.15-.15h-.26c-.08,0-.15,0-.22.02v-.22c-.08-.07-.15-.11-.28-.18.03-.04.04-.05.06-.08-.05,0-.07,0-.13,0h-.29v.22s0,0,0,0h.22c.12,0,.2,0,.28,0,0,.07,0,.14,0,.22,0,.55-.04,1.01-.09,1.13-.05.12-.14.16-.37.16-.04,0-.07,0-.12,0-.02-.16-.03-.24-.07-.36-.06.15-.09.21-.17.35-.06-.12-.15-.24-.23-.32v.2c.07.11.14.16.27.21.12.04.32.06.73.06.46,0,.92-.02,1.3-.07-.06.14-.08.26-.11.44-.18.01-.7.02-1.25.02-.68,0-.9-.07-1.13-.34-.13.12-.21.19-.44.35l-.18-.44c.14-.06.25-.13.4-.27v-.66h-.13c-.08,0-.12,0-.21.02v-.41c.09.01.14.02.26.02h.24c.1,0,.18,0,.25-.02,0,.1-.01.18-.01.36v.44ZM14.26,7.4c-.02.33-.07.55-.15.78.06.01.12.02.16.02.07,0,.09-.02.11-.11.02-.14.04-.41.04-.68h-.16Z"/>
      <path class="cls-2" d="M16.48,6.42c.06,0,.09,0,.16,0,.39,0,.79-.04.94-.1l.24.41c-.15.09-.26.19-.4.35-.26.31-.4.62-.4.91,0,.33.2.54.5.54.24,0,.45-.14.55-.38.08-.2.12-.42.12-.71,0-.35-.06-.72-.16-.95l.46-.13c.05.18.14.38.26.57.16.26.4.51.58.62l-.24.46s-.03-.03-.07-.07c-.2-.19-.34-.37-.46-.61.04.21.04.28.04.41,0,.35-.08.62-.24.85-.2.27-.5.41-.84.41s-.62-.13-.79-.38c-.12-.18-.19-.39-.19-.62,0-.44.21-.88.59-1.23q-.19.04-.55.07s-.06,0-.1.01v-.46ZM18.83,6.25c.11.14.17.26.25.44l-.26.11c-.07-.18-.14-.31-.25-.45l.26-.1ZM19.18,6.11c.1.12.18.26.25.43l-.25.11c-.08-.19-.14-.3-.24-.44l.25-.1Z"/>
    </g>
  </g>
</svg>