<?xml version="1.0" encoding="UTF-8"?>
<svg id="_レイヤー_2" data-name="レイヤー 2" xmlns="http://www.w3.org/2000/svg" viewBox="0 0 57.34 17.56">
  <defs>
    <style>
      .cls-1 {
        fill: #e4004f;
      }

      .cls-2 {
        fill: #ffd900;
      }

      .cls-3 {
        fill: #231815;
      }

      .cls-4 {
        fill: #fff;
      }
    </style>
  </defs>
  <g id="design">
    <g>
      <polygon class="cls-1" points="57.34 17.56 0 17.56 2.1 10.86 0 4.17 57.34 4.17 55.24 10.86 57.34 17.56"/>
      <g>
        <path class="cls-2" d="M14.37,8.59s.03,0,.04,0c.05,0,.1,0,.41-.05.41-.06.77-.1,1.08-.1.47,0,.74.11.9.36.09.14.13.29.13.46,0,.41-.26.79-.71,1.02-.3.16-.62.24-1.14.29-.07-.27-.11-.37-.26-.64.41,0,.65-.05.93-.16.31-.12.47-.28.47-.49,0-.18-.12-.25-.39-.25-.38,0-1.04.11-1.32.22l-.14-.67ZM14.91,7.52c.4.12.83.17,1.34.17.09,0,.15,0,.29,0l-.08.63c-.71-.02-1.21-.07-1.74-.19l.2-.61Z"/>
        <path class="cls-2" d="M18.84,7.7c-.05.1-.08.15-.17.38q-.11.27-.2.5c-.03.09-.06.17-.09.24.12-.07.21-.1.36-.1.22,0,.39.12.45.32q.02.08.03.62c0,.14.04.19.12.19.1,0,.19-.08.25-.26.05-.15.1-.39.11-.6.24.2.36.27.61.37-.07.37-.16.6-.31.79-.18.22-.43.34-.74.34-.21,0-.37-.05-.48-.16-.12-.12-.18-.26-.18-.48t0-.22v-.09c0-.12-.03-.17-.12-.17-.12,0-.26.14-.37.4-.09.21-.19.52-.24.74l-.7-.2c.05-.1.08-.17.18-.47l.64-1.9c.08-.26.1-.31.11-.41l.75.15Z"/>
        <path class="cls-2" d="M21.87,7.57c.01.21.07.56.16.92.23-.07.3-.09.35-.11q.29-.08.41-.12c.07-.02.09-.03.14-.04l.21.66c-.31.04-.8.16-1.2.29-.38.12-.57.28-.57.45s.18.25.57.25.86-.07,1.16-.17l.05.71c-.09,0-.13,0-.29.03-.39.04-.59.06-.84.06-.48,0-.82-.07-1.04-.22-.19-.13-.3-.37-.3-.63,0-.25.11-.48.29-.64.13-.12.24-.18.46-.29-.06-.23-.12-.5-.19-.83-.03-.16-.03-.17-.05-.21l.69-.1ZM22.72,7.66c.1.15.15.27.21.46l-.39.12c-.05-.18-.11-.31-.2-.48l.37-.1ZM23.15,7.52c.1.14.16.27.23.46l-.37.13c-.07-.21-.11-.29-.21-.47l.36-.12Z"/>
        <path class="cls-2" d="M23.67,8.59s.03,0,.04,0c.05,0,.1,0,.41-.05.41-.06.77-.1,1.08-.1.47,0,.74.11.9.36.09.14.13.29.13.46,0,.41-.26.79-.71,1.02-.3.16-.62.24-1.14.29-.07-.27-.11-.37-.26-.64.41,0,.65-.05.93-.16.31-.12.47-.28.47-.49,0-.18-.12-.25-.39-.25-.37,0-1.04.11-1.32.22l-.14-.67ZM24.21,7.52c.4.12.83.17,1.34.17.09,0,.15,0,.29,0l-.08.63c-.71-.02-1.21-.07-1.74-.19l.2-.61Z"/>
        <path class="cls-2" d="M12.34,12.33c-.05.05-.06.07-.11.18-.2.5-.47.84-.88,1.11-.15-.18-.22-.25-.39-.37-.02.34-.06.54-.18.76-.18.35-.45.57-.95.81-.15-.3-.22-.39-.43-.61.35-.12.58-.25.71-.43.11-.14.16-.28.18-.47,0-.1.02-.22.02-.34,0-.1,0-.16-.02-.23h.71q-.01.08-.02.34c.25-.13.41-.29.5-.51h-1.46c-.3,0-.37,0-.53.02v-.64c.13.02.27.03.54.03h1.71c.16,0,.19,0,.26-.04l.35.39Z"/>
        <path class="cls-2" d="M12.9,14.75c.02-.15.02-.23.02-.39v-2.15c0-.14,0-.22-.02-.33h.72c0,.09,0,.13,0,.2v.7c.61.19.98.37,1.46.66l-.36.64c-.26-.18-.35-.23-.53-.33-.18-.1-.31-.16-.43-.21,0,0-.04-.02-.05-.02l-.04-.02s-.02,0-.04-.01h-.02v.88c0,.14,0,.26.01.38h-.72ZM14.48,12.06c.1.17.16.29.23.52l-.38.14c-.07-.23-.12-.37-.22-.56l.37-.1ZM14.92,11.92c.11.15.18.3.25.51l-.38.13c-.05-.17-.14-.37-.23-.53l.36-.12Z"/>
        <path class="cls-2" d="M15.46,13.44c.06-.04.09-.07.14-.12.08-.08.41-.47.61-.72.12-.15.21-.23.29-.27s.17-.06.26-.06c.21,0,.31.07.58.38.16.19.47.52.59.65.14.14.48.46.56.54.04.04.08.07.15.12l-.33.72c-.19-.17-.46-.45-.76-.79-.14-.15-.57-.65-.67-.77-.04-.05-.08-.08-.12-.08-.04,0-.04,0-.15.15-.17.22-.31.41-.54.69-.01.01-.07.08-.17.21l-.45-.64ZM17.9,12.29c.1.16.17.31.24.49l-.37.13c-.06-.19-.13-.34-.23-.51l.37-.11ZM18.34,12.15c.11.16.12.2.25.48l-.36.13c-.08-.21-.16-.37-.24-.5l.35-.11Z"/>
        <path class="cls-2" d="M19.35,11.99c.49.28.62.37.92.63l-.45.59c-.29-.3-.57-.51-.9-.69l.43-.54ZM18.97,13.98c.36-.03.67-.1.97-.23.42-.17.69-.4.94-.79.12-.2.21-.37.3-.62.2.23.28.31.57.51-.19.4-.35.65-.58.9-.36.38-.79.63-1.43.81-.12.03-.17.04-.32.08,0,0-.04,0-.08.02-.08.02-.1.02-.18.05l-.2-.72Z"/>
        <path class="cls-2" d="M24.73,12.35c-.06.01-.12.03-.28.08-.16.04-.28.07-.52.12q0,.25,0,.38h.54c.27,0,.34,0,.47-.03v.62c-.12-.01-.18-.02-.46-.02h-.59c-.04.3-.11.48-.21.66-.12.19-.31.38-.54.52-.1.06-.16.09-.32.16-.16-.27-.22-.36-.47-.57.3-.1.48-.21.64-.36.13-.12.2-.24.23-.42h-.64c-.29,0-.34,0-.46.02v-.62c.13.02.2.03.47.03h.69c0-.07,0-.17,0-.26v-.03c-.25.02-.39.03-.82.04-.05-.23-.08-.32-.19-.55.11,0,.17,0,.22,0,.45,0,.97-.06,1.41-.16.18-.04.29-.08.43-.14l.4.53Z"/>
        <path class="cls-2" d="M25.85,12.64c-.02-.12-.04-.17-.06-.25l.61-.09c0,.09.02.18.03.26l.04.2.97-.16c.07-.01.1-.03.14-.06l.35.32s-.04.04-.08.18c-.07.22-.2.45-.32.62-.08.11-.16.2-.32.34-.19-.18-.27-.24-.47-.36.2-.14.31-.26.44-.47l-.6.11.22,1.16q.03.18.07.27l-.64.11c0-.11,0-.17-.03-.27l-.2-1.17-.21.04c-.08.01-.2.04-.29.07l-.1-.58c.12,0,.21,0,.31-.03l.2-.03-.04-.21Z"/>
        <path class="cls-2" d="M28.35,12.96c.21.03.29.03.74.03h1.42c.45,0,.53,0,.74-.03v.72c-.19-.02-.22-.02-.75-.02h-1.42c-.53,0-.56,0-.75.02v-.72Z"/>
      </g>
      <g>
        <path class="cls-4" d="M45.63.56l7.45,12.9c.43.75-.11,1.68-.97,1.68h-14.9c-.86,0-1.4-.94-.97-1.68L43.69.56c.43-.75,1.51-.75,1.94,0Z"/>
        <g>
          <path class="cls-1" d="M42.05,8.27l-.03-.12c-.15.04-.39.1-.63.14-.03,0-.1.02-.2.04l-.08-.39c.05,0,.06,0,.14,0,.11-.17.18-.29.27-.45-.13-.19-.23-.3-.42-.5l.18-.34.07.07c.1-.19.19-.41.21-.53l.37.11s-.03.06-.05.1c-.1.25-.18.42-.29.61.06.07.07.09.11.14.09-.19.17-.37.2-.47l.27.11v-.16s.13.01.25.01h.02c0-.08,0-.13,0-.2,0-.07,0-.16-.01-.21h.38c0,.05-.01.09-.01.24,0,.06,0,.09,0,.18h.25c.18,0,.22,0,.28,0,0,.04,0,.08,0,.23-.01.68-.03,1.08-.07,1.25-.03.15-.08.22-.17.26-.06.03-.16.04-.26.04-.02,0-.02,0-.17,0-.01-.15-.03-.23-.07-.35.11.02.15.02.19.02.11,0,.13-.02.15-.15.01-.11.03-.3.04-.47,0-.12,0-.14,0-.48h-.17c-.02.38-.06.62-.14.83-.08.23-.18.41-.34.59-.06-.08-.08-.11-.14-.17l-.1.05ZM41.66,7.88c.14-.02.19-.03.26-.05-.03-.09-.05-.14-.09-.22-.05.08-.09.15-.17.27ZM42.1,7.47c.07.14.1.21.15.33.11-.21.16-.45.17-.82h-.03c-.06,0-.15,0-.21,0-.12.26-.15.31-.29.55l.21-.07Z"/>
          <path class="cls-1" d="M44.55,7.54s-.01.06-.02.12c-.05.26-.11.39-.25.52-.13.12-.26.2-.54.3-.06-.15-.1-.22-.22-.34.4-.1.57-.23.63-.47.01-.05.02-.11.02-.16l.38.04ZM43.7,7.52c0-.08.01-.16.01-.28v-.77c0-.08,0-.16-.01-.25h.4c-.01.07-.02.16-.02.25v.77c0,.12,0,.22.01.29h-.39ZM45.63,7.21c0,.11,0,.17.01.25-.08,0-.16,0-.28,0h-.84c-.12,0-.2,0-.28,0,0-.09,0-.15,0-.26v-.69c0-.12,0-.19-.01-.27.07,0,.14,0,.28,0h.84c.14,0,.2,0,.28,0,0,.07-.01.13-.01.27v.69ZM44.6,6.71h.67v-.12h-.67v.12ZM44.6,7.13h.67v-.12h-.67v.12ZM45.06,8.03s.03.06.16.06c.17,0,.19,0,.22-.09.01-.06.02-.13.02-.31.12.06.21.09.34.12,0,.29-.04.42-.1.5-.08.1-.19.12-.53.12-.23,0-.32-.01-.39-.06-.05-.03-.07-.08-.07-.17v-.49c0-.08,0-.13,0-.19h.38c0,.05,0,.1,0,.17v.33Z"/>
          <path class="cls-1" d="M45.94,7.32c.15-.18.23-.25.35-.3.1-.05.21-.07.33-.07.11,0,.22.02.32.07q.05.02.21.11c.17.1.25.12.34.12.16,0,.28-.07.42-.25l.29.31c-.15.2-.24.27-.39.33-.1.04-.21.06-.32.06-.16,0-.26-.04-.5-.17-.22-.12-.29-.15-.38-.15-.14,0-.24.06-.39.23l-.29-.28Z"/>
          <path class="cls-1" d="M39.64,9.49c-.01.06-.02.11-.03.15-.05.22-.09.37-.15.55-.07.2-.12.31-.25.52-.12-.11-.23-.18-.34-.23.14-.21.23-.4.3-.65.04-.14.06-.27.08-.43l.39.11ZM40.25,8.92c-.01.08-.02.2-.02.34v1.52c0,.14-.04.23-.12.28-.06.04-.15.06-.31.06-.08,0-.2,0-.29,0-.02-.14-.05-.23-.11-.38.16.02.23.02.33.02.08,0,.1-.01.1-.06v-1.44c0-.14,0-.26-.02-.34h.43ZM40.78,9.38c.02.15.05.26.1.43.09.26.18.44.32.63-.14.07-.23.14-.34.25-.22-.33-.35-.66-.44-1.11,0-.04-.01-.05-.02-.09l.38-.11Z"/>
          <path class="cls-1" d="M41.79,9.24c-.04-.08-.07-.14-.14-.25l.35-.07c.07.11.12.19.18.32h.16c-.03-.1-.06-.17-.12-.28l.36-.06c.07.15.1.22.14.34h.14c.06-.11.11-.22.15-.33l.37.08c-.03.07-.08.17-.13.25h.05c.15,0,.22,0,.3,0,0,.06,0,.11,0,.2v.27c0,.08,0,.13.01.2h-.36v-.34h-1.43v.34h-.36c0-.06.01-.11.01-.2v-.26c0-.09,0-.14,0-.2.09,0,.15,0,.29,0h.06ZM42.72,10.86c0,.23-.08.28-.45.28-.04,0-.11,0-.22,0-.02-.14-.05-.22-.11-.35.13.01.22.02.29.02.1,0,.11,0,.11-.05v-.23h-.58c-.14,0-.25,0-.33.01v-.36c.09.01.21.02.33.02h.59s0-.08,0-.11h.13c.06-.04.1-.06.16-.12h-.5c-.11,0-.18,0-.25,0v-.32c.08,0,.14,0,.26,0h.72c.1,0,.14,0,.19,0l.17.2s-.04.03-.07.06c-.09.09-.2.18-.34.29h.44c.13,0,.26,0,.34-.02v.36c-.08,0-.2-.01-.34-.01h-.53v.33Z"/>
          <path class="cls-1" d="M44.35,10.39c.01.08.03.11.07.15.06.07.16.1.28.1.19,0,.3-.09.3-.24,0-.1-.05-.17-.13-.21-.06-.02-.13-.03-.22-.03s-.2,0-.29.01v-.41c.08,0,.16.01.25.01.23,0,.34-.08.34-.23,0-.13-.09-.2-.25-.2-.17,0-.26.07-.29.22l-.52-.07c.05-.15.08-.22.16-.3.15-.16.37-.24.66-.24.26,0,.48.07.61.2.09.09.13.2.13.34,0,.25-.14.41-.41.48.15.02.23.06.31.13.1.09.16.22.16.35,0,.12-.03.23-.1.32-.05.07-.14.14-.23.18-.12.06-.32.09-.5.09-.22,0-.43-.05-.56-.13-.11-.07-.19-.18-.25-.31-.01-.03-.02-.06-.04-.13l.51-.09Z"/>
          <path class="cls-1" d="M46.11,9.81v-.05c-.06.06-.08.08-.15.14-.08-.15-.14-.22-.24-.32.22-.18.36-.34.46-.56.03-.07.05-.12.06-.17l.4.07s-.02.05-.05.11c-.01.03-.02.04-.04.08h1.05c.12,0,.2,0,.28-.01v.36c-.08,0-.16-.01-.28-.01h-.43v.23h.34c.13,0,.2,0,.28,0v.35c-.08,0-.15,0-.27,0h-.35v.31h.5c.12,0,.21,0,.28-.01v.37c-.09,0-.17-.01-.28-.01h-.5v.2c0,.14,0,.21.01.29h-.4c0-.08.01-.15.01-.3v-.19h-.74c-.12,0-.2,0-.29.01v-.37c.08,0,.17.01.29.01h.05v-.51ZM46.36,9.45c-.07.1-.11.15-.18.23.04,0,.05,0,.09,0h.53v-.23h-.44ZM46.8,10.32v-.31h-.33v.31h.33Z"/>
          <path class="cls-1" d="M48.7,9.67c-.1.2-.2.35-.33.5-.09-.15-.13-.2-.24-.31.22-.22.4-.59.42-.89l.37.09q-.03.08-.05.15s-.02.08-.04.14h.29v-.11c0-.15,0-.24-.01-.32h.41c-.01.08-.01.17-.01.32v.11h.42c.14,0,.26,0,.37-.01v.36c-.12,0-.23-.01-.36-.01h-.43v.36h.35c.13,0,.24,0,.34-.01v.36c-.11,0-.21-.01-.33-.01h-.35v.39h.49c.15,0,.27,0,.38-.02v.37c-.14-.01-.24-.02-.37-.02h-1.4c-.14,0-.26,0-.4.02v-.37c.12.01.24.02.38.02h.52v-.39h-.3c-.13,0-.23,0-.33.01v-.36c.09,0,.17.01.32.01h.3v-.36h-.42Z"/>
          <path class="cls-1" d="M42.59,12.04c-.06.01-.1.02-.19.03-.03-.12-.06-.2-.12-.32.34-.04.6-.11.72-.19l.22.3v-.02c0-.07,0-.14,0-.19.05,0,.11,0,.2,0h.82c.09,0,.15,0,.2,0,0,.06,0,.12,0,.19v.44c0,.09,0,.13,0,.19-.06,0-.11,0-.2,0h-.83c-.08,0-.15,0-.2,0,0-.06,0-.09,0-.19v-.42c-.16.06-.2.08-.28.1v.26h.08c.06,0,.1,0,.14,0v.35s-.09,0-.15,0h-.05c.07.12.11.18.21.27v-.27c.09.02.12.02.27.02h.79c.13,0,.2,0,.28-.01v.35c-.08,0-.16,0-.28,0h-.23v.12h.22c.11,0,.18,0,.24,0v.34c-.06,0-.14,0-.24,0h-.22v.13h.26c.14,0,.21,0,.28-.01v.35c-.09,0-.16-.01-.28-.01h-.88c-.12,0-.19,0-.28.01v-.35c.07,0,.14.01.28.01h.28v-.13h-.21c-.1,0-.18,0-.24,0v-.34c.06,0,.11,0,.24,0h.21v-.12h-.22c-.14,0-.19,0-.24,0-.04.06-.09.17-.12.26-.06-.06-.09-.11-.13-.19,0,.04,0,.11,0,.16v.43c0,.14,0,.21.01.29h-.37c0-.09.01-.17.01-.29v-.26c0-.06,0-.12,0-.2-.06.16-.11.23-.21.35-.04-.15-.08-.25-.14-.36.13-.14.26-.37.31-.55h-.1c-.05,0-.09,0-.15.01v-.35c.06,0,.09.01.17.01h.12v-.17ZM43.57,12.16h.5v-.18h-.5v.18Z"/>
          <path class="cls-1" d="M46.82,13.06s-.04.05-.09.11c-.09.11-.17.19-.29.27.17.03.3.04.6.04-.06.12-.09.23-.13.38-.37-.03-.62-.08-.88-.19-.24.1-.42.14-.77.18-.03-.15-.05-.21-.11-.32-.04.13-.07.19-.14.32-.09-.14-.16-.22-.28-.33.16-.31.19-.58.19-1.45,0-.16,0-.25,0-.34.09,0,.18.01.3.01h.56v-.04s0-.08-.01-.12h.39s0,.07,0,.12v.03h.53c.14,0,.23,0,.31-.01v.34c-.08,0-.13,0-.25,0h-.12s0,.05,0,.1h.17c.09,0,.14,0,.21,0v.32c-.06,0-.1,0-.2,0h-.17v.18c0,.07,0,.12,0,.16h-.03s-.05,0-.12,0h-.8c-.06,0-.11,0-.16,0,0-.04,0-.1,0-.16v-.18h-.24c0,.51-.04.78-.13,1.05.21,0,.35-.02.5-.05q-.06-.05-.23-.19l.25-.11h-.11c-.1,0-.18,0-.25,0v-.3c.07,0,.14,0,.27,0h.81c.12,0,.17,0,.23,0l.17.18ZM45.54,12.16s0-.06,0-.1h-.24v.1h.24ZM45.82,13.17c.06.06.14.1.24.15.09-.05.13-.08.21-.15h-.45ZM46.28,12.16s0-.06,0-.1h-.38q0,.06,0,.1h.38ZM45.89,12.54h.38v-.1h-.38v.1Z"/>
        </g>
        <g>
          <path class="cls-3" d="M43.58,3.46c0-.08,0-.12,0-.16h.14s0,.09,0,.16v.1h.14c.06,0,.1,0,.15,0v.12s-.08,0-.14,0c-.01.18-.05.35-.11.5.09.11.15.2.23.33l-.09.09c-.06-.11-.12-.2-.19-.3-.09.17-.18.28-.34.42-.03-.04-.05-.06-.09-.1.16-.12.27-.25.36-.42-.09-.12-.17-.21-.29-.32l.09-.08c.09.1.14.15.25.28.04-.12.07-.25.07-.4h-.32c-.06,0-.1,0-.14,0v-.13s.09,0,.15,0h.17v-.1ZM44.06,3.89c.11.13.16.21.23.36l-.11.07c-.07-.16-.13-.25-.23-.37l.1-.06ZM44.16,3.77c-.06,0-.11,0-.15,0v-.13s.08,0,.15,0h.24v-.17c0-.08,0-.13-.01-.18h.14s0,.1,0,.18v.17h.03c.07,0,.12,0,.16,0v.13s-.01,0-.02,0c-.04,0-.08,0-.14,0h-.03v.81c0,.12-.03.15-.2.15-.06,0-.1,0-.17,0,0-.06-.02-.08-.04-.13.07.01.15.02.21.02.07,0,.08,0,.08-.04v-.8h-.24Z"/>
          <path class="cls-3" d="M45.84,3.96c.03.1.05.15.09.22.09-.05.19-.13.23-.19l.1.08s-.04.03-.1.08c-.05.04-.11.08-.17.12.05.06.09.11.14.15.08.08.14.11.25.15-.04.04-.05.07-.08.12-.13-.06-.2-.12-.29-.21-.13-.14-.23-.31-.29-.52h-.04s-.06.04-.1.06c.13.13.19.29.19.48,0,.12-.03.19-.1.22-.03.01-.09.02-.16.02-.03,0-.06,0-.1,0,0-.05-.01-.07-.04-.12.06,0,.1.01.15.01.06,0,.08,0,.1-.03.02-.02.03-.06.03-.12,0-.02,0-.04,0-.07-.19.12-.41.22-.66.29-.02-.04-.04-.08-.07-.11.25-.05.51-.16.7-.28-.01-.03-.02-.05-.03-.09-.17.1-.35.17-.58.23-.02-.05-.03-.07-.06-.1.23-.04.42-.11.6-.21-.02-.03-.03-.04-.06-.07-.15.08-.29.12-.49.16-.02-.04-.03-.07-.06-.1.23-.03.42-.09.56-.17h-.25c-.07,0-.12,0-.17,0,0-.03,0-.06,0-.13v-.14s-.07.05-.13.08c-.01-.04-.03-.06-.06-.1.15-.07.26-.15.37-.26.06-.07.08-.09.12-.15l.13.03s-.01.01-.04.04c0,0,0,.01-.02.02,0,0-.01.01-.02.02h.29c.07,0,.13,0,.15,0l.07.06s-.02.02-.06.06c-.03.04-.07.07-.11.11h.28c.08,0,.13,0,.18,0,0,.04,0,.07,0,.13v.1c0,.06,0,.1,0,.13-.04,0-.1,0-.17,0h-.23ZM45.6,3.87v-.16h-.38v.16h.38ZM45.64,3.61s.07-.06.13-.13h-.41s-.09.09-.15.13h.42ZM46.12,3.87v-.16h-.41v.16h.41Z"/>
        </g>
      </g>
    </g>
  </g>
</svg>