<?xml version="1.0" encoding="UTF-8"?>
<svg id="_レイヤー_2" data-name="レイヤー 2" xmlns="http://www.w3.org/2000/svg" viewBox="0 0 57.34 17.56">
  <defs>
    <style>
      .cls-1 {
        fill: #e4004f;
      }

      .cls-2 {
        fill: #ffd900;
      }

      .cls-3 {
        fill: #231815;
      }

      .cls-4 {
        fill: #fff;
      }
    </style>
  </defs>
  <g id="design">
    <g>
      <polygon class="cls-1" points="57.34 17.56 0 17.56 2.1 10.86 0 4.17 57.34 4.17 55.24 10.86 57.34 17.56"/>
      <g>
        <path class="cls-2" d="M16.95,7.43c.11.09.21.19.35.35.11.12.18.22.27.38l-.5.39c-.09-.17-.23-.37-.37-.53-.08-.09-.13-.14-.26-.26l.02.49c-.05,0-.06,0-.13.02-.19.03-.33.04-.46.05v.2c.15-.03.26-.04.41-.04.41,0,.73.11.93.32.14.15.22.37.22.58,0,.48-.36.84-.85.84-.41,0-.66-.27-.66-.73,0-.01,0-.05,0-.1.29-.09.37-.12.59-.25-.03.15-.03.16-.03.23,0,.14.04.21.12.21.06,0,.12-.04.15-.1.01-.03.02-.07.02-.12,0-.11-.07-.21-.18-.26-.09-.04-.19-.06-.35-.06-.13,0-.23.01-.37.04v.53c0,.09,0,.13,0,.18,0,.13-.02.22-.07.29-.07.1-.2.15-.37.15-.26,0-.56-.11-.76-.28-.13-.12-.21-.28-.21-.44,0-.2.13-.42.36-.61.13-.11.25-.18.44-.25v-.31c-.12,0-.2,0-.3,0-.06,0-.11,0-.15,0-.05,0-.08,0-.09,0-.02,0-.05,0-.08,0v-.59c.14.02.27.03.5.03.02,0,.05,0,.12,0v-.04q0-.34-.02-.47h.65c-.02.12-.02.17-.02.43v.04c.22-.03.4-.06.57-.1v.11s.52-.33.52-.33ZM15.26,9.29c-.1.04-.19.15-.19.22,0,.05.09.11.15.11.02,0,.03,0,.04-.03t0-.09v-.22Z"/>
        <path class="cls-2" d="M19.27,7.34c-.04.11-.07.28-.09.42.04,0,.04,0,.09,0,.21,0,.4-.04.58-.08l-.02.63q-.07,0-.22.02c-.2.02-.38.03-.52.03-.02.12-.02.13-.04.25.27,0,.5-.03.71-.08v.19c.21-.02.35-.04.56-.11.07.1.11.15.15.24.07.15.11.32.11.47,0,.55-.46.92-1.15.92-.28,0-.53-.06-.7-.18-.25-.16-.36-.38-.36-.71,0-.06,0-.12,0-.21-.28-.04-.31-.04-.39-.06-.08-.02-.1-.02-.15-.02l.04-.61c.13.05.32.09.55.11t.02-.11c0-.07,0-.07.02-.14-.08,0-.25-.03-.43-.07-.05-.01-.07-.02-.12-.02l.04-.58c.15.04.32.08.58.1.03-.17.04-.3.04-.42v-.05l.7.05ZM19.75,9.12s-.03,0-.11.01c-.17.03-.37.04-.62.04,0,.03,0,.05,0,.07,0,.14.03.22.09.28.07.06.19.1.32.1.15,0,.28-.03.37-.09.08-.05.14-.15.14-.27,0-.14-.07-.34-.17-.44v.3Z"/>
        <path class="cls-2" d="M21.9,7.34c-.03.21-.07,1.08-.07,1.57,0,.26,0,.35.03.42.04.14.17.22.37.22.29,0,.51-.15.63-.44.07-.16.12-.4.15-.69.28.21.38.27.65.4-.09.41-.19.68-.34.87-.26.34-.63.51-1.11.51-.41,0-.72-.13-.89-.38-.12-.16-.16-.36-.16-.73q0-.11.02-.74c0-.23.01-.6.01-.77,0-.11,0-.16-.02-.27l.74.02Z"/>
        <path class="cls-2" d="M24.36,7.4c.11.02.26.03.6.03s.59,0,.89-.03c.11,0,.15-.02.21-.04l.32.46c-.1.06-.16.12-.43.35-.15.13-.33.29-.44.38.14-.03.21-.04.32-.04.29,0,.54.08.7.23.15.13.22.31.22.55,0,.29-.15.54-.43.72-.23.14-.51.21-.87.21-.29,0-.48-.02-.77-.08-.02-.29-.04-.42-.12-.67.33.1.57.14.81.14.41,0,.67-.13.67-.33,0-.15-.15-.24-.43-.24s-.54.07-.81.21c-.17.09-.29.18-.41.29l-.39-.55c.14-.08.26-.16.5-.35.31-.25.41-.34.78-.69-.12.01-.45.03-.63.04-.17,0-.23,0-.3.02l-.02-.62Z"/>
        <path class="cls-2" d="M10.28,12.12c0-.12,0-.19,0-.2,0-.17,0-.27-.02-.35h.67q-.01.08-.02.55h.08c.28,0,.35,0,.49-.03v.64c-.12-.01-.19-.02-.48-.02h-.1c-.01.5-.05.73-.16.95-.12.25-.31.46-.57.62-.13.08-.23.13-.46.21-.14-.28-.21-.37-.41-.58.5-.14.74-.3.87-.58.06-.14.1-.31.1-.52v-.11h-.59v.38c0,.12,0,.21.02.29h-.68c0-.07.02-.18.02-.29v-.38h-.07c-.29,0-.35,0-.48.02v-.64c.14.02.21.03.49.03h.06v-.24c0-.12,0-.21-.02-.31h.68c0,.1-.01.14-.01.2v.35h.6Z"/>
        <path class="cls-2" d="M14.56,11.95s-.03.03-.04.04t-.09.08c-.25.26-.48.46-.73.64v1.38c0,.2,0,.29.02.38h-.72c.02-.11.02-.15.02-.37v-.99c-.27.15-.53.27-.99.45-.12-.28-.18-.37-.36-.6.68-.2,1.21-.45,1.71-.84.27-.21.48-.42.57-.58l.61.4Z"/>
        <path class="cls-2" d="M16.61,13.59h.64c.28,0,.35,0,.49-.03v.66c-.12-.01-.19-.02-.48-.02h-1.95c-.29,0-.35,0-.48.02v-.66c.14.02.21.03.49.03h.6v-1.15h-.38c-.29,0-.35,0-.47.02v-.65c.13.02.21.03.49.03h1.45c.28,0,.35,0,.49-.03v.65c-.12-.02-.18-.02-.47-.02h-.41v1.15Z"/>
        <path class="cls-2" d="M18.52,11.69c.49.28.62.37.92.63l-.45.59c-.29-.3-.57-.51-.9-.69l.43-.54ZM18.14,13.68c.36-.03.67-.1.97-.23.42-.17.69-.4.94-.79.12-.2.21-.37.3-.62.2.23.28.31.57.51-.19.4-.35.65-.58.9-.36.38-.79.63-1.43.81-.12.03-.17.04-.32.08,0,0-.04,0-.08.02-.08.02-.1.02-.18.05l-.2-.72Z"/>
        <path class="cls-2" d="M23.5,14.49c-.13-.17-.24-.29-.43-.5-.12-.13-.22-.21-.45-.39-.21.22-.36.36-.57.51-.21.15-.36.23-.59.34-.15-.28-.21-.37-.42-.59.77-.3,1.35-.82,1.61-1.46,0-.01,0-.02.01-.03t0-.02h-.03s-.03,0-.88.02c-.18,0-.25,0-.39.03l-.02-.66c.1.02.16.02.32.02h.08l1.29-.02c.15,0,.16,0,.23-.05l.33.35c-.05.04-.07.07-.12.2-.17.41-.27.59-.45.86.4.31.58.47.98.85l-.52.55Z"/>
        <path class="cls-2" d="M24.14,12.39c.14.02.2.03.49.03h1.75c.1,0,.13,0,.19-.04l.29.3q-.04.06-.09.21c-.17.49-.38.83-.69,1.11-.22.2-.47.34-.96.54-.12-.27-.19-.36-.43-.62.38-.1.6-.2.82-.35.24-.16.37-.32.48-.58h-1.38c-.3,0-.35,0-.48.02v-.62ZM24.4,11.58c.12.02.19.03.44.03h1.19c.25,0,.32,0,.44-.03v.63c-.11-.02-.17-.02-.43-.02h-1.21c-.26,0-.32,0-.43.02v-.63Z"/>
        <path class="cls-2" d="M28.19,12.89s-.03.15-.05.27c-.03.15-.11.43-.17.6-.07.19-.13.31-.27.53-.31-.18-.39-.21-.63-.3.21-.3.33-.57.41-.93.03-.12.04-.21.05-.32l.65.15ZM29.6,12.02c.27,0,.34,0,.47-.03v.64c-.12-.01-.18-.02-.46-.02h-.63v1.49c0,.15,0,.26.01.39h-.71c.02-.15.02-.24.02-.4v-1.47h-.59c-.28,0-.34,0-.46.02v-.64c.13.02.21.03.47.03h.58v-.12c0-.15,0-.23-.02-.34h.71c0,.09-.01.13-.01.2v.26h.46c-.04-.12-.08-.25-.14-.37l.36-.09q.07.15.16.38l-.3.09h.09ZM29.73,12.73c.03.11.05.21.1.36.06.2.15.41.24.61.05.1.07.14.15.26-.32.16-.39.2-.63.35-.22-.45-.33-.75-.43-1.19-.03-.11-.04-.18-.06-.23l.63-.15ZM30.07,11.46c.1.17.14.28.19.42l-.34.1c-.07-.21-.1-.29-.18-.43l.33-.09Z"/>
        <path class="cls-2" d="M31.14,13.49c0-.07,0-.09,0-.18,0-.03,0-.04-.02-.23l-.08-.97c-.01-.16-.02-.25-.04-.46h.89c-.02.19-.03.28-.04.46l-.08.97c0,.12-.01.19-.01.27,0,.04,0,.09,0,.14h-.63ZM31.08,14.39v-.71h.76v.71h-.76Z"/>
      </g>
      <g>
        <path class="cls-4" d="M45.63.56l7.45,12.9c.43.75-.11,1.68-.97,1.68h-14.9c-.86,0-1.4-.94-.97-1.68L43.69.56c.43-.75,1.51-.75,1.94,0Z"/>
        <g>
          <path class="cls-1" d="M42.05,8.27l-.03-.12c-.15.04-.39.1-.63.14-.03,0-.1.02-.2.04l-.08-.39c.05,0,.06,0,.14,0,.11-.17.18-.29.27-.45-.13-.19-.23-.3-.42-.5l.18-.34.07.07c.1-.19.19-.41.21-.53l.37.11s-.03.06-.05.1c-.1.25-.18.42-.29.61.06.07.07.09.11.14.09-.19.17-.37.2-.47l.27.11v-.16s.13.01.25.01h.02c0-.08,0-.13,0-.2,0-.07,0-.16-.01-.21h.38c0,.05-.01.09-.01.24,0,.06,0,.09,0,.18h.25c.18,0,.22,0,.28,0,0,.04,0,.08,0,.23-.01.68-.03,1.08-.07,1.25-.03.15-.08.22-.17.26-.06.03-.16.04-.26.04-.02,0-.02,0-.17,0-.01-.15-.03-.23-.07-.35.11.02.15.02.19.02.11,0,.13-.02.15-.15.01-.11.03-.3.04-.47,0-.12,0-.14,0-.48h-.17c-.02.38-.06.62-.14.83-.08.23-.18.41-.34.59-.06-.08-.08-.11-.14-.17l-.1.05ZM41.66,7.88c.14-.02.19-.03.26-.05-.03-.09-.05-.14-.09-.22-.05.08-.09.15-.17.27ZM42.1,7.47c.07.14.1.21.15.33.11-.21.16-.45.17-.82h-.03c-.06,0-.15,0-.21,0-.12.26-.15.31-.29.55l.21-.07Z"/>
          <path class="cls-1" d="M44.55,7.54s-.01.06-.02.12c-.05.26-.11.39-.25.52-.13.12-.26.2-.54.3-.06-.15-.1-.22-.22-.34.4-.1.57-.23.63-.47.01-.05.02-.11.02-.16l.38.04ZM43.7,7.52c0-.08.01-.16.01-.28v-.77c0-.08,0-.16-.01-.25h.4c-.01.07-.02.16-.02.25v.77c0,.12,0,.22.01.29h-.39ZM45.63,7.21c0,.11,0,.17.01.25-.08,0-.16,0-.28,0h-.84c-.12,0-.2,0-.28,0,0-.09,0-.15,0-.26v-.69c0-.12,0-.19-.01-.27.07,0,.14,0,.28,0h.84c.14,0,.2,0,.28,0,0,.07-.01.13-.01.27v.69ZM44.6,6.71h.67v-.12h-.67v.12ZM44.6,7.13h.67v-.12h-.67v.12ZM45.06,8.03s.03.06.16.06c.17,0,.19,0,.22-.09.01-.06.02-.13.02-.31.12.06.21.09.34.12,0,.29-.04.42-.1.5-.08.1-.19.12-.53.12-.23,0-.32-.01-.39-.06-.05-.03-.07-.08-.07-.17v-.49c0-.08,0-.13,0-.19h.38c0,.05,0,.1,0,.17v.33Z"/>
          <path class="cls-1" d="M45.94,7.32c.15-.18.23-.25.35-.3.1-.05.21-.07.33-.07.11,0,.22.02.32.07q.05.02.21.11c.17.1.25.12.34.12.16,0,.28-.07.42-.25l.29.31c-.15.2-.24.27-.39.33-.1.04-.21.06-.32.06-.16,0-.26-.04-.5-.17-.22-.12-.29-.15-.38-.15-.14,0-.24.06-.39.23l-.29-.28Z"/>
          <path class="cls-1" d="M42.01,9.16c0-.13,0-.19-.01-.27h.41c-.01.08-.01.13-.01.25v.11h.61c.12,0,.18,0,.25,0,0,.07,0,.12,0,.23v.79c0,.13,0,.19.01.26h-.38v-.12h-.48v.42c0,.15,0,.23.02.32h-.41c.01-.1.02-.18.02-.32v-.42h-.46v.12h-.38c0-.07.01-.14.01-.26v-.8c0-.1,0-.16,0-.23.09,0,.14,0,.25,0h.59v-.1ZM41.55,9.6v.45h.46v-.45h-.46ZM42.87,10.05v-.45h-.48v.45h.48Z"/>
          <path class="cls-1" d="M43.92,9.24c-.04-.08-.07-.14-.14-.25l.35-.07c.07.11.12.19.18.32h.16c-.03-.1-.06-.17-.12-.28l.36-.06c.07.15.1.22.14.34h.14c.06-.11.11-.22.15-.33l.37.08c-.03.07-.08.17-.13.25h.05c.15,0,.22,0,.3,0,0,.06,0,.11,0,.2v.27c0,.08,0,.13.01.2h-.36v-.34h-1.43v.34h-.36c0-.06.01-.11.01-.2v-.26c0-.09,0-.14,0-.2.09,0,.15,0,.29,0h.06ZM44.85,10.86c0,.23-.08.28-.45.28-.04,0-.11,0-.22,0-.02-.14-.05-.22-.11-.35.13.01.22.02.29.02.1,0,.11,0,.11-.05v-.23h-.58c-.14,0-.25,0-.33.01v-.36c.09.01.21.02.33.02h.59s0-.08,0-.11h.13c.06-.04.1-.06.16-.12h-.5c-.11,0-.18,0-.25,0v-.32c.08,0,.14,0,.26,0h.72c.1,0,.14,0,.19,0l.17.2s-.04.03-.07.06c-.09.09-.2.18-.34.29h.44c.13,0,.26,0,.34-.02v.36c-.08,0-.2-.01-.34-.01h-.53v.33Z"/>
          <path class="cls-1" d="M46.52,9.67c-.1.2-.2.35-.33.5-.09-.15-.13-.2-.24-.31.22-.22.4-.59.42-.89l.37.09q-.03.08-.05.15s-.02.08-.04.14h.29v-.11c0-.15,0-.24-.01-.32h.41c-.01.08-.01.17-.01.32v.11h.42c.14,0,.26,0,.37-.01v.36c-.12,0-.23-.01-.36-.01h-.43v.36h.35c.13,0,.24,0,.34-.01v.36c-.11,0-.21-.01-.33-.01h-.35v.39h.49c.15,0,.27,0,.38-.02v.37c-.14-.01-.24-.02-.37-.02h-1.4c-.14,0-.26,0-.4.02v-.37c.12.01.24.02.38.02h.52v-.39h-.3c-.13,0-.23,0-.33.01v-.36c.09,0,.17.01.32.01h.3v-.36h-.42Z"/>
          <path class="cls-1" d="M42.59,12.04c-.06.01-.1.02-.19.03-.03-.12-.06-.2-.12-.32.34-.04.6-.11.72-.19l.22.3v-.02c0-.07,0-.14,0-.19.05,0,.11,0,.2,0h.82c.09,0,.15,0,.2,0,0,.06,0,.12,0,.19v.44c0,.09,0,.13,0,.19-.06,0-.11,0-.2,0h-.83c-.08,0-.15,0-.2,0,0-.06,0-.09,0-.19v-.42c-.16.06-.2.08-.28.1v.26h.08c.06,0,.1,0,.14,0v.35s-.09,0-.15,0h-.05c.07.12.11.18.21.27v-.27c.09.02.12.02.27.02h.79c.13,0,.2,0,.28-.01v.35c-.08,0-.16,0-.28,0h-.23v.12h.22c.11,0,.18,0,.24,0v.34c-.06,0-.14,0-.24,0h-.22v.13h.26c.14,0,.21,0,.28-.01v.35c-.09,0-.16-.01-.28-.01h-.88c-.12,0-.19,0-.28.01v-.35c.07,0,.14.01.28.01h.28v-.13h-.21c-.1,0-.18,0-.24,0v-.34c.06,0,.11,0,.24,0h.21v-.12h-.22c-.14,0-.19,0-.24,0-.04.06-.09.17-.12.26-.06-.06-.09-.11-.13-.19,0,.04,0,.11,0,.16v.43c0,.14,0,.21.01.29h-.37c0-.09.01-.17.01-.29v-.26c0-.06,0-.12,0-.2-.06.16-.11.23-.21.35-.04-.15-.08-.25-.14-.36.13-.14.26-.37.31-.55h-.1c-.05,0-.09,0-.15.01v-.35c.06,0,.09.01.17.01h.12v-.17ZM43.57,12.16h.5v-.18h-.5v.18Z"/>
          <path class="cls-1" d="M46.82,13.06s-.04.05-.09.11c-.09.11-.17.19-.29.27.17.03.3.04.6.04-.06.12-.09.23-.13.38-.37-.03-.62-.08-.88-.19-.24.1-.42.14-.77.18-.03-.15-.05-.21-.11-.32-.04.13-.07.19-.14.32-.09-.14-.16-.22-.28-.33.16-.31.19-.58.19-1.45,0-.16,0-.25,0-.34.09,0,.18.01.3.01h.56v-.04s0-.08-.01-.12h.39s0,.07,0,.12v.03h.53c.14,0,.23,0,.31-.01v.34c-.08,0-.13,0-.25,0h-.12s0,.05,0,.1h.17c.09,0,.14,0,.21,0v.32c-.06,0-.1,0-.2,0h-.17v.18c0,.07,0,.12,0,.16h-.03s-.05,0-.12,0h-.8c-.06,0-.11,0-.16,0,0-.04,0-.1,0-.16v-.18h-.24c0,.51-.04.78-.13,1.05.21,0,.35-.02.5-.05q-.06-.05-.23-.19l.25-.11h-.11c-.1,0-.18,0-.25,0v-.3c.07,0,.14,0,.27,0h.81c.12,0,.17,0,.23,0l.17.18ZM45.54,12.16s0-.06,0-.1h-.24v.1h.24ZM45.82,13.17c.06.06.14.1.24.15.09-.05.13-.08.21-.15h-.45ZM46.28,12.16s0-.06,0-.1h-.38q0,.06,0,.1h.38ZM45.89,12.54h.38v-.1h-.38v.1Z"/>
        </g>
        <g>
          <path class="cls-3" d="M43.58,3.46c0-.08,0-.12,0-.16h.14s0,.09,0,.16v.1h.14c.06,0,.1,0,.15,0v.12s-.08,0-.14,0c-.01.18-.05.35-.11.5.09.11.15.2.23.33l-.09.09c-.06-.11-.12-.2-.19-.3-.09.17-.18.28-.34.42-.03-.04-.05-.06-.09-.1.16-.12.27-.25.36-.42-.09-.12-.17-.21-.29-.32l.09-.08c.09.1.14.15.25.28.04-.12.07-.25.07-.4h-.32c-.06,0-.1,0-.14,0v-.13s.09,0,.15,0h.17v-.1ZM44.06,3.89c.11.13.16.21.23.36l-.11.07c-.07-.16-.13-.25-.23-.37l.1-.06ZM44.16,3.77c-.06,0-.11,0-.15,0v-.13s.08,0,.15,0h.24v-.17c0-.08,0-.13-.01-.18h.14s0,.1,0,.18v.17h.03c.07,0,.12,0,.16,0v.13s-.01,0-.02,0c-.04,0-.08,0-.14,0h-.03v.81c0,.12-.03.15-.2.15-.06,0-.1,0-.17,0,0-.06-.02-.08-.04-.13.07.01.15.02.21.02.07,0,.08,0,.08-.04v-.8h-.24Z"/>
          <path class="cls-3" d="M45.84,3.96c.03.1.05.15.09.22.09-.05.19-.13.23-.19l.1.08s-.04.03-.1.08c-.05.04-.11.08-.17.12.05.06.09.11.14.15.08.08.14.11.25.15-.04.04-.05.07-.08.12-.13-.06-.2-.12-.29-.21-.13-.14-.23-.31-.29-.52h-.04s-.06.04-.1.06c.13.13.19.29.19.48,0,.12-.03.19-.1.22-.03.01-.09.02-.16.02-.03,0-.06,0-.1,0,0-.05-.01-.07-.04-.12.06,0,.1.01.15.01.06,0,.08,0,.1-.03.02-.02.03-.06.03-.12,0-.02,0-.04,0-.07-.19.12-.41.22-.66.29-.02-.04-.04-.08-.07-.11.25-.05.51-.16.7-.28-.01-.03-.02-.05-.03-.09-.17.1-.35.17-.58.23-.02-.05-.03-.07-.06-.1.23-.04.42-.11.6-.21-.02-.03-.03-.04-.06-.07-.15.08-.29.12-.49.16-.02-.04-.03-.07-.06-.1.23-.03.42-.09.56-.17h-.25c-.07,0-.12,0-.17,0,0-.03,0-.06,0-.13v-.14s-.07.05-.13.08c-.01-.04-.03-.06-.06-.1.15-.07.26-.15.37-.26.06-.07.08-.09.12-.15l.13.03s-.01.01-.04.04c0,0,0,.01-.02.02,0,0-.01.01-.02.02h.29c.07,0,.13,0,.15,0l.07.06s-.02.02-.06.06c-.03.04-.07.07-.11.11h.28c.08,0,.13,0,.18,0,0,.04,0,.07,0,.13v.1c0,.06,0,.1,0,.13-.04,0-.1,0-.17,0h-.23ZM45.59,3.87v-.16h-.38v.16h.38ZM45.64,3.61s.07-.06.13-.13h-.41s-.09.09-.15.13h.42ZM46.12,3.87v-.16h-.41v.16h.41Z"/>
        </g>
      </g>
    </g>
  </g>
</svg>