<?xml version="1.0" encoding="UTF-8"?>
<svg id="_レイヤー_2" data-name="レイヤー 2" xmlns="http://www.w3.org/2000/svg" viewBox="0 0 227.78 45.56">
  <defs>
    <style>
      .cls-1 {
        fill: #af1c3b;
      }
    </style>
  </defs>
  <g id="logo">
    <g>
      <path class="cls-1" d="M46.02,34.05c-.34-.13-.42-.43-.69-.91-.27-.48-1.11-1.22-1.2-1.28-.08-.07-.42-1.13-1.62-2.02-1.2-.89-4.43-1.54-5.92-1.54s-3.61.2-4.6.33c-.99.13-2.14.04-3.02,0-.88-.04-1.19.49-1.97.72-.61.17-.78-.26-.52-.65.25-.39,1.36-1.3,1.93-1.72.57-.41.73-1,1.07-1.45.34-.46.65-.43,1.01-.5.36-.07,1.18.2,1.43-.13.25-.33.1-2.3.13-2.52.02-.22.31-.34.61-.8,1.19-1.84,2.01-2.4,3.44-5.56.3-.67.17-.72.71-1.35.55-.63,1.09-1.89,1.62-2.39.52-.5.46-.56.55-1.35.08-.78.59-.63,1.18-.98.59-.35.94-1.09.82-1.87-.13-.78.23-.59.65-1.22.42-.63-.23-1.76-.78-2.04-.55-.28-.76-.56-.8-1.13-.04-.56-.17-.54-.82-.89-.65-.35-1.34.07-1.85.15s-1.24,0-2.52,0c-1.59.01-2.44.01-3.63.12-1.2.11-4.16.2-5.61.35-1.45.15-1.49.69-2.04.8-.55.11-.73-.15-.97-.39-.23-.24-.73-.21-.73-.21-.49,0-.85-.24-1.8-.28-.95-.04-1.09.39-1.17,1.58-.08,1.18.35.9.39,1.75.04.86-.16,2.08-.87,4.04-.71,1.96-4.02,5.1-5.64,5.42-1.62.33-2.84-.08-3.59-.2-.75-.12-.83.41-1.06.82-.24.41-.99.45-1.54.37-.55-.08-1.42-.16-1.34.82.08.98,1.38,1.22,2.17,1.39.79.16.67,1.14.83,1.92.16.77,1.46,1.02,2.48,1.22,1.03.2,1.1.53,1.77,1.02.67.49,2.17-.2,2.68-.53.51-.33.63-.12,1.1-.04.47.08,1.62-.57,2.48-.69s1.3.37,1.54.86c.24.49.55.37.95.49.39.12.32.33.32.33l-.47.57c-1.07,1.24-4.33,3.84-5.48,4.8-1.15.96-3.74,2.48-5.54,3.06-1.81.59-2.52.98-3.61,1.11-1.09.13-1.03-.2-1.24-.48-.21-.28-.15-.13-.99-.15-.84-.02-2.02-.39-2.16-.54s-2.02-.78-2.1.04c-.08.82,1.43,1.17,2.02,1.32.59.15.8.46,1.11.98.31.52-.17,1.65-.31,2.26-.15.61.32.78.54.95.23.17.53.15,1.06.3.52.15.81.47,1.28.95.46.48,1.47.63,1.76.98.29.35-.03,1.14.3,1.38.34.24,1.33-.21,1.77-.21s1.43.5,1.95.56c.52.07.78-.02,1.03-.43.25-.41.48-.2.57-1.41.08-1.22.15-1.48.42-1.8.33-.39.8-.39,1.07-.61.27-.22.97-.54,1.51-.63.55-.09,1-.34,1-.34.4-.24.63-.33,1.07-.04.44.28.4,1.54.48,2.24.08.69.29,1.35.55,1.56.25.22.59.35.9.93.31.59,1.68,2.06,1.85,2.67.17.61,1.18.85,1.76.85s.84.11,1.36.52c.52.41,2.52.28,3.53.17,1.01-.11,6.05-.02,8-.11,1.95-.09,2.29-.59,2.65-.85.36-.26.61-.07.97-.28.36-.22,1.28-1.02,1.49-1.04.21-.02,1.07-.09,1.6-.67.52-.59,1.91-3.32,2.08-4.02.17-.69.55-2,.8-2.69.25-.69.19-1.61-.15-1.74ZM25.12,13.75c.27-.33.58-.88.58-1.43s.19-.54.17-1.73c0,0-.08-.67.3-1.11.38-.44.43-.67,1.17-.72.74-.05,1.29.05,1.64-.13.35-.18.6.11.98-.05.38-.16,1.17-.33,1.62-.11.46.21.54.42.98.47.44.05.52.28.31.75-.2.47-.87,1.95-1.01,2.33s-.33,1.09-.77,1.89c-.44.8-1.26,2.15-1.48,2.65-.22.5-.77,1.4-1.1,1.61-.33.21-.55.11-.82-.11-.27-.23-.57-.78-.93-1.01-.36-.23-.28-.33-.58-.93-.3-.6-.49-.52-.82-.88-.33-.36-.5-1.17-.24-1.5ZM39.34,35.63c-.15.59-.15.93-.42,1.22-.27.28-.27.48-.34,1.3,0,0-.52,1.19-.78,1.39-.25.2-.46.3-1.32.33-.86.02-4.32.24-6.59.3-.67.02-1.34.24-2.37.2s-1.7.04-1.85-.3c-.15-.35-.29-.98-.52-1.35-.23-.37-.57-.89-.21-.98.36-.09.76-.98.78-1.48s.63-1.09,1.78-1.52c1.15-.43,3.99-.76,4.66-.87.67-.11.84-.33,1.51-.24.67.09.71.22,1.6.17.88-.04,1.6-.24,2.35-.2.76.04,1.05.33,1.45.69.4.37.42.74.27,1.32Z"/>
      <g>
        <path class="cls-1" d="M108.41,36.09c-.74-.02-2.66-.5-3.72-.78-1.06-.28-3.08-1.83-3.34-2.13-.26-.3-1.17-.96-1.84-1.46-.67-.5-.65-.91-.58-1.35.07-.44.45-.44.82-1,.37-.57,1.15-1.76,1.56-1.94.41-.17.95-.8.95-1.44s.11-1.31.3-1.81c.19-.5.93-.74.95-1.07.02-.33-.22-.57-.71-.57s-.91-.13-1.73-.02c-.82.11-.78,0-1.84.8-1.06.8-2.25,2.63-2.66,3.18-.41.54-.69.46-1.06.22s-1.28-1.7-1.69-2.2c-.41-.5-.89-1.23-1.13-1.84-.24-.61-.74-1.14.04-1.41.59-.21,2.01.11,3.12.22,1,.1,1.65.07,2.71-.04,1.06-.11,1.17-.44,1.3-.96.13-.52.48-1.81.5-2.65.02-.85-.15-.87-.52-1.22-.37-.35-2.6-.98-3.79-1.37-1.19-.39-4.48-.22-5.15.02-.67.24-1.28.17-1.73.07-.45-.11-.8-1.2-1.32-1.94-.52-.74-.97-1.48-1.6-1.91-.63-.44-1.04-1.31-1.32-2.09-.28-.78.11-1.07.17-1.68.06-.61.24-.74.41-1.07.17-.33.24-1.2.22-2.28-.02-1.09-.54-1.87-1.13-1.87s-1.41,1.37-1.73,1.85c-.32.48-1.02,1.31-1.02,1.81s-.74,1.37-.91,2.05c-.17.67-.48,1.09-.61,1.74-.13.65.15,1.37.65,1.81.5.44.37.89.39,1.35.02.46.58.96.78,1.57.19.61.11.74-.48,1.11-.58.37-1.22.42-1.94.56-.53.1-1.9,1.13-2.33,1.61-.43.48-.5.83-.82,1.13-.32.3-1,.2-1.58.2s-.76.3-.76.3c-.37.17-.78.13-1.54.13s-.65-.5-.65-.61.09-.74.15-2.52c.07-1.78,0-2.26-.32-2.78-.32-.52-.71-.13-.78-.67-.07-.54-1.1-.91-1.95-.96-.84-.04-.63-.46-1.17-.98-.54-.52-1.21,0-1.88.44-.67.44-.35,1.37-.37,2.07-.02.7.3,1.39.69,2.02s.37,1.28.22,1.74c-.15.46.09,2.02,0,2.52-.09.5-.84.44-1.84.46-1,.02-2.66.96-3.05,1.24-.39.28-1.41.61-1.91.63-.5.02-.48.78-.71,1.09-.24.3-.41,1.28.09,1.87.5.59,1.78.2,2.71-.09.93-.28,1.32.22,1.88.48.56.26,1.34-.46,1.91-1,.56-.54,1.04-.33,1.62-.2s.63.85.67,1.15c.04.3-.52,1.07-.91,1.09s-1.39.44-2.77.54c-1.39.11-3.18,1.13-3.9,1.5-.71.37-.67,1.02-.97,1.68-.3.65-.19.96-.09,1.2.11.24-.09,1.35.19,1.39.28.04.58.26.89.35.3.09.43.11.76-.33.32-.44.63-.44,1.34-1.04.71-.61,2.06-.98,2.56-1.13.5-.15,2.12-.63,2.73-.65.61-.02,4.16-.46,4.79-.48.63-.02.71.52.71.98s-.39.94-.69,1.17-2.77,2.15-3.75,2.63c-.97.48-3.18,1.26-3.77,1.26s-2.06.28-2.56.35c-.5.07-.06.89.11,1.35.17.46.97.84,1.3,1.13.27.24.93.5,1.88.72.83.18,1.6.63,1.6.63,0,0,.35.35,1.32.48.97.13,1.95-.02,3.27-.15s1.93-.63,2.43-1.11c.5-.48,2.27-1.7,2.88-2.31.61-.61.82-1.22,1-2.39.17-1.17,1.36-1.89,1.82-2.57.45-.67,1.15-.74,1.69-.37s.09,1.63.07,2.61c-.02.98.24,2.52.45,3.48.22.96.19,1.59.48,2.05.28.46.58.98,1.02,1.07.43.09.84-.37,1.02-.91.17-.54.84-1.28,1.34-2.09.5-.8.63-4.29.61-5.29q-.02-1,.17-1.27c.31-.43,1.57-.24,2.49-.39.75-.12,1.34-.94,1.78-1.2.43-.26.76.3.52.98-.18.5-.45.83-1.08,1.68-.63.85-1.08,1.83-1.34,2.44-.26.61-.91,2.44-1.26,3.39-.35.96-.62,2.31-.56,3.35.05.87.7.94,1.23,1.05.53.12.8.34,1.61.32.8-.02.97-1.04,1.32-1.57.35-.52.43-.65.82-.7.39-.04.15-1.07.26-1.78.11-.72.82-2.55,1.21-3.2.39-.65.8-.37,1.26-.28.45.09.52.52.87,1.48.35.96,1.86,2.83,2.3,3.48.43.65.93.72,1.69,1.31.76.59,2.04.94,2.79,1.35.76.41,1.02.35,1.67.35s.58-.65.71-1.2c.13-.54,1.36-.61,1.45-.96.09-.35.76-.46,1.52-.57s.87-.28,1.17-.52.28-1.39.37-1.96c.09-.57.58-1.13.52-1.63-.06-.5-1.17-.3-1.91-.33ZM77.36,25.87c-.51.32-1.04.19-1.79.25-.76.05-1.9.07-2.2-.11-.3-.18-.18-.49-.35-.83-.18-.34-.23-1.02.12-1.45.35-.42.67-.62,1.64-.58,0,0,1.48.16,1.95.28.47.12.81.67.84,1.01.04.34.3,1.11-.21,1.43ZM88.53,25.12c-.83.04-1.69.06-2.8.18-1.13.12-1.2.14-2.04.46-.66.25-.72.12-.9-.18-.18-.3-.18-.21-.21-.97,0,0-.08-.74-.22-1.06-.16-.38-.42-.85-.14-1.08.28-.23,1.39-.92,2.01-.92s.67.14,1.25-.18c.58-.32,1.09-.58,1.51-.27.42.32.77.81,1.16,1.45.39.64,1.16,1.47,1.07,1.93-.09.46.12.6-.7.64Z"/>
        <path class="cls-1" d="M89.86,9.95c.44.08,1.82.15,1.82.15,0,0,1.33.05,2.62.03,1.29-.02,2.54.12,3.51.15.96.03.58-.03.92-.45.34-.42.18-1.18.14-1.85-.05-.66-.64-.88-.98-1.08-.34-.2-1.68-.51-2.89-.62-1.12-.1-2.37-.06-3.25-.2-.87-.14-1.12.4-1.36.85-.25.45-.44.98-1.27,1.78-.61.59.31,1.14.75,1.22Z"/>
      </g>
      <path class="cls-1" d="M169.87,32.6c-.43.03-1.52.08-2.51.03s-1.48-.3-2.51-.58c-1.03-.28-2.4-.16-6-1.47-3.6-1.31-6.12-3.48-6.12-3.48-.57-.42-3.89-3.15-4.57-3.75-.94-.83-1.46-2.01-1.46-2.53s.51-.9.91-.97c.77-.12,1.91,0,2.35.2s1.52.05,2.6.05,2.04-.03,2.71.25,1.15.5,2.04.44c.89-.06,1.61-1.11,2.14-1.56.52-.45.75-.41,1.43-.44s.83-.55.95-1.06c.12-.52,0-.62.43-.91.43-.28.45-.58.38-1.05-.06-.47-.92-.47-1.52-.55s-.8-.11-1.81-.64-4.66-.53-5.7-.5c-1.05.03-5.93.03-7.46.03s-1.72-.27-1.72-.27c0,0-.05-1.16-.14-1.87-.09-.72-1.51-2.97-1.85-3.42-.34-.45-.85-1.53-.85-1.89s-.23-.87-.52-.91c-.29-.03-.88-.61-1.15-.84-.28-.23-1.4-.28-1.92-.16-.52.12-2.04.11-2.6.12-.55.02-.74.55-1.06,1-.32.45-.09,1.76.06,2,.15.23.43.83.71,1.05s.4.44.52.97c.12.53,1.17,1.87,1.4,2.48.23.61.23,1.45.11,2.26-.12.81-.22.73-.42.95s-.86.44-1.66.53c-.8.09-.8.35-1.16.53-.62.31-3.8,1.51-4.98,1.59-.54.04-1.11.42-1.58.62s-1.21.11-1.71.27c-.49.16-.57,1-.61,1.58-.05.58-.37,1.11-.37,1.11-.42.3-.51,1.17-.49,1.63.02.46-.06,1,.31,1.3.17.14.56.51.86.79s.89.26,1.56.22c.67-.04.95-.6,1.49-.97.53-.36.57-.14,1.21-.16.63-.02.71-.08,1.09-.32.38-.24.94-.09,1.9-.26,1.07-.19,1.76-.51,2.69-.82.43-.15,1.19-.48,1.58,0,.4.48-.06,1.19-1.11,3.2-1.05,2.01-4.1,5.37-4.57,5.65s-2.04,1.71-2.87,2.43c-.83.72-2.4.54-3.27.44-.87-.1-.97-.34-1.8,0-.83.34-.14,1.11-.14,1.11,0,0,.13.15.35.34.22.19.25.55.26.98.02.44.7.56,1.75,1.78.36.42.68.73,2.74.76,2.06.03,2.54-.34,3.69-1.2,1.15-.86,2.97-3.08,3.47-3.64.51-.56,1.66-2.19,2.09-2.48.69-.48,1.4-1.55,1.74-2.33.34-.78,1.54-3.4,1.81-4.03.28-.62.66-.23.92-.09.26.14,1.29,1.34,2.01,2.12.72.78,2.74,2.86,3.86,3.43,1.12.58,1.32.67,1.92.7.6.03,2.01,1.5,2.49,2.11.48.61,2.2,1.9,3,2.72.8.81,1.45,1.3,3.06,2.17s3.78.94,5.15.89,1.41-.36,2.18-.98c.77-.62,1.81-.81,2.51-.92.69-.11.6-.67.68-1.11.08-.44.88-1.45,1.25-1.78.37-.33,1.09-.91,1.31-1.48.22-.58-.17-1.11-.35-1.36-.18-.25-.68-.12-1.11-.09Z"/>
      <g>
        <path class="cls-1" d="M227.21,18.79c-.16-.66-.6-1.38-.97-1.63-.36-.25-.49-.4-.46-.81s-.02-.55-.15-.95c-.13-.4.02-.64.36-.98.35-.34.26-.68-.16-1.02s-.66-.36-1.79-.7c-1.13-.34-2.17-.57-2.88-.87-.71-.3-4.1-.76-4.7-.78-.6-.02-1.2-.11-1.93-.6-.73-.49.09-.95.57-1.15s1.75-.21,2.63-.3c.88-.09.64-.25.91-.64.27-.4.47-.91.88-1.49.4-.59,1.02-2.02,1.24-2.61.22-.59.49-1.5.93-1.83.42-.32.51-.59.2-.95-.55-.64-3.48-1.46-4.3-1.47-.82-.02-.69,1.15-.97,1.61s-.49,1.59-.84,2.12c-.35.53-1.4,2.65-1.71,2.95-.31.3-.66.79-.66,1.49s-.09.85-.47,1.57c-.38.72-1.91.7-2.73.7s-1.19-.19-1.42-.6c-.24-.42-.26-1.21.18-2.17.44-.96.11-2.08.2-2.85.09-.78.07-2.02-.31-3.04-.38-1.02-2.41-1.15-3.56-.91s-2.17,1.63-2.39,2.34c-.22.72-.09,1.57.18,2.17s.18.78-.02,1.34c-.2.57.07,1.81.42,2.27.35.45.4.38-.09.87s-1.06.53-1.82.7-1.51.42-1.9.64c-.38.23-1,.28-1.33.19-.33-.09-.38-.49-.35-.95.04-.45-.35-.87-.8-1.66s-2.55-2.42-2.92-2.93c-.36-.51-.42-1.44-.84-2.21-.42-.78-2.15-.76-2.92-.74-.77.02-1.08.28-1.51,1.02-.44.74-.31,1.55-.15,2.25.16.7,1.19,1.57,1.95,2.16s2.92,2.65,3.35,3.01.93.72.97.98c.04.26-1.15.53-2.26.59-1.11.06-1.55-.21-1.99.17-.44.38-2.99.72-4.14,1.12-1.15.4-1.82,1.83-1.82,2.4s-.18,2.19-.38,2.63c-.2.43-.11,2.97.09,3.59.2.62.29,2.04.24,2.38s.05,1.04.31,1.47c.26.43.42,1.42.73,1.93.31.51.58.95,1.42,1.08.84.13.84-.28,1.49-.98s1.02-1.72,1.17-2.38c.15-.66-.24-1.3-.31-2.02-.07-.72-.07-3.89-.05-4.61.02-.72.15-1.1.42-1.47.27-.38.29-.83.29-.83,0,0,1.99-.11,5.12-.42,3.14-.3,4.58-.95,5.41-1.27.84-.32,3.54-1.27,4.21-1.47s1.09-.19,1.53.02c.44.21.75.11,1.97.15s2.7.15,4.54.28c1.84.13,1.44.34,2.46.36,1.02.02,1.13.3,1.95.47.82.17.98.04,1.39.38.4.34,2.32.3,2.61.51s.02,3.42-.04,4.48c-.05,1.06.07,3.4.27,4.1.2.7,1.37,1.47,2.08,1.47,1.29,0,1.28-.53,1.68-.68.4-.15.82-.21.98-.64s.4-1.32.84-2.14c.44-.81.36-1.36.42-2.46s-.4-1.06-.57-1.72Z"/>
        <path class="cls-1" d="M218.57,29.17c-1.08-.55-4.58-.79-5.62-.81-1.04-.02-3.12-.19-3.85-.4-.73-.21-.97-1-.78-1.36.18-.36,1.06-.19,2.1-.11,1.04.08,1.13.09,2.22.04,1.09-.06,1.48-.6,1.64-1.13s.89-.95,1.51-1.27c.62-.32,1.37-.91,1.48-1.34.11-.43.67-.96,1-1.21s.38-.72.35-1.12c-.04-.4-1.04-1.23-1.73-1.63-.69-.4-1.82-.68-2.32-.76-.49-.08-4.69-.08-5.8-.08s-1.55-.04-2.3-.23c-.75-.19-1.9.06-2.26.17-.36.11-.98.04-2.86.04s-4.28,1.38-5.09,1.63-1.37.15-2.5.15-1.71.79-2.28,1.68c-.57.89.33,1.3.86,1.51.53.21.91.25,1.42-.09.51-.34,1.1-.22,1.86-.32.77-.09,5.36-1.24,6.14-1.36.81-.12,1.44-.06,1.93.15s1.36.08,2.03-.12c.6-.18,1.02-.25,1.38-.15.34.1,1.42.25,1.93.57s.05.42-.13.49-.51.36-.77.64c-.26.28-1.26.78-1.71.89-.46.11-.67.38-1.02.62s-1.95.17-2.84.13c-.89-.04-2.55-.53-3.17-.7s-2.13-.28-2.53-.3c-.4-.02-.35.64-.35.64,0,0-.05,1.12-.02,1.7.04.59.18.59.67.55s.75.08,1.5.19c.75.11,1.2.32,1.53.51s1.09.59,1.6.79.36.6.07.7c-.29.09-1.29,0-2.15-.02s-1.71.11-2.75.34c-1.04.23-2.95.34-3.79.53-.84.19-1.24.72-1.7,1.42s-.09,1.32.51,1.47c.6.15,1.04.49,1.86.28s.89-.23,1.93-.53c1.04-.3,2.64.03,3.76,0,1.05-.03,1.18-.06,1.68-.22.75-.24.77-.25,1.22-.21.33.03.36.01,1.05.05.69.04.6-.02,1.02.06.42.08.13.36.16.95.04.59-.51,1.76-.69,2.17s-1.28,1.64-1.79,1.93c-.51.28-.71.91-1.17.91s-.71.17-1,.4c-.29.23-.51.23-1.15.21-.64-.02-1.53-.38-2.3-.64-.77-.26-2.01-.23-2.66-.21-.66.02-1.68.25-2.04.53-.36.28-.13.72,0,1.7.13.98,2.41,1.93,3.46,2.61,1.06.68,2.24.87,3.19,1.06.95.19,2.33.49,3.7.59,1.37.09.75-.08,1.24-.08s.78.02,1.2-.09c.42-.11.36-.3,1.19-.28.82.02.78-.6,1.35-1.08.57-.47,1.42-2.08,1.93-2.84.51-.76.47-2.08.66-3.04.12-.66.09-2.3.05-3.28h0c-.02-.69.23-.87.39-.92.14-.02.32-.04.56-.03.82.02,1.75.25,3.85.09,2.1-.15,3.46-.36,4.19-.55s1.49-.57,1.62-1.06-.84-.98-1.91-1.53Z"/>
      </g>
    </g>
  </g>
</svg>