<?xml version="1.0" encoding="UTF-8"?>
<svg id="_レイヤー_2" data-name="レイヤー 2" xmlns="http://www.w3.org/2000/svg" viewBox="0 0 22.99 5.09">
  <defs>
    <style>
      .cls-1 {
        fill: #a11d3a;
      }
    </style>
  </defs>
  <g id="design">
    <g>
      <path class="cls-1" d="M9,2.79s0,.02-.01.02c-.07,0-.15,0-.22,0,0,.01,0,.02-.01.02-.06,0-.13,0-.19,0,0,.01,0,.02-.01.02-.07,0-.13,0-.2,0-.02,0,0-.04-.02-.04.04-.09-.01-.17,0-.27.01-.03.04-.03.06-.06.01,0,.04,0,.04,0,.02-.05.06-.08.12-.08.01,0,.01-.02.02-.02.11.01.18-.13.26-.07.07.05.13.11.16.2,0,.01.03.04.06.06,0,.01,0,.02,0,.04.01,0,.02,0,.02.01,0,.01,0,.02,0,.02h.02s.03.06.05.08c.02.08-.08.06-.14.06M7.93,2.83s-.02.01-.02.05c0,.01-.01.01-.02.01v.02c-.11.03-.2,0-.3,0-.01,0-.01-.01-.01-.02-.06.01-.11,0-.13-.06-.01-.05-.01-.12.01-.16.02-.08.13-.05.2-.05.09,0,.2-.02.27.01.06.04.02.13,0,.2M11.26,4.04s-.02-.06-.08-.05c-.01,0-.01-.03-.01-.03-.05-.01-.09,0-.14,0-.01,0-.01-.01-.01-.02-.04,0-.07.01-.09,0-.1-.06-.21-.06-.31-.1-.01-.01-.02-.01-.02-.03-.01,0-.02,0-.04,0s-.01-.01-.01-.02c-.01,0-.04,0-.05,0s-.01-.01-.01-.02c-.01,0-.02,0-.03,0-.03-.06-.12-.06-.14-.13h-.04s-.01-.01-.01-.02c-.08-.01-.14-.11-.2-.16-.01-.02-.01-.07,0-.09.01-.02.05-.03.07-.05.04-.02.06-.06.11-.09v-.03s.06-.1.11-.13c.02-.02.06-.05.06-.06.02-.06,0-.13.01-.2.01-.01.03-.01.05-.03,0-.02-.01-.06,0-.08.01-.01.04-.03.06-.05,0,0,0-.02,0-.03s.01-.01.02-.01c0-.02.01-.07,0-.07-.06-.05-.13-.04-.19,0-.01,0-.02.02-.03.03-.02.01-.07-.01-.09,0-.02.02-.05.05-.06.08,0,.01-.01.06-.05.05,0,.01,0,.02,0,.04-.02.03-.05.05-.06.08,0,.02-.02.05-.06.06,0,.01,0,.02,0,.04-.09.05-.12.19-.23.16-.01,0-.01-.01-.01-.02h-.02s-.03-.07-.08-.11c0-.01,0-.04,0-.05-.02-.01-.03-.04-.07-.06-.02-.01-.02-.06-.06-.08,0-.01,0-.02,0-.03-.08-.07-.1-.18-.17-.27-.01-.04,0-.07.04-.09.06-.02.12,0,.18,0,.01,0,.01.01.01.02.06,0,.1,0,.16,0,.01,0,.01.01.01.02.04,0,.06,0,.09,0,.01,0,.01.01.01.02.05,0,.08,0,.13,0,0-.01,0-.02.01-.02h.02s.01.01.01.02c.02,0,.03,0,.06,0,0-.01,0-.02.01-.02.02,0,.05.01.06,0,.02-.05.05-.08.04-.14,0-.01.01-.01.02-.01,0-.07,0-.13,0-.2,0-.01.01-.01.02-.01,0-.03.01-.07,0-.1-.02-.06-.06-.12-.1-.15-.09-.06-.2-.08-.3-.1-.21-.04-.42-.05-.62,0-.08.02-.18.03-.24,0-.06-.02-.08-.13-.09-.2-.01,0-.02,0-.02-.01v-.04s-.07-.05-.06-.08c-.01,0-.02,0-.02-.01,0-.01,0-.02,0-.04-.07-.04-.09-.09-.15-.14v-.04c-.06-.02-.05-.08-.05-.13-.01,0-.02,0-.02-.01,0-.05,0-.09,0-.14,0-.01.01-.01.02-.01v-.05s.01-.01.02-.01c-.02-.07.06-.12.04-.19,0-.02-.01-.06-.02-.08-.02-.03-.01-.09-.01-.14-.02,0-.02-.01-.02-.02-.02.01-.04-.01-.06-.02,0,.01,0,.02-.01.02-.04,0-.07-.01-.09,0-.07.05-.06.14-.13.21-.01.01.01.06,0,.08-.01.01-.04.02-.04.04-.06.1-.07.22-.12.33-.01.05,0,.09,0,.14,0,.01-.01.01-.02.01,0,.02,0,.03,0,.06.01,0,.02,0,.02.01,0,.03,0,.06,0,.09.04-.01.03.02.05.03.01.06.05.11.03.16.01,0,.02,0,.02.01,0,.03,0,.06,0,.09.01,0,.02,0,.02.01,0,.04,0,.08,0,.12-.01.02-.05.01-.06.02-.03.02-.09.01-.14.01,0,.01,0,.02-.01.02s-.02,0-.04,0c0,.02-.01.03-.02.03-.03,0-.06.02-.09.05-.02.02-.04.08-.09.07v.02s-.09.01-.08.07c.02.04.01.08.01.12,0,.01-.01.02-.02.02-.14,0-.27-.02-.41-.04-.01,0-.04-.01-.03-.05-.03-.18.04-.35-.03-.51-.01-.02-.03-.02-.05-.05,0-.01,0-.03,0-.05-.06-.05-.12-.08-.15-.15-.01,0-.04,0-.05,0s-.01-.01-.01-.02c-.01,0-.02,0-.03,0-.01,0-.01-.01-.01-.02-.05,0-.09.01-.13-.01-.01-.01-.02-.04-.05-.06-.01,0-.02,0-.03,0,0,.01,0,.02-.01.02-.06,0-.08.06-.14.09-.01.01,0,.03,0,.06.01,0,.02,0,.02.01,0,.06,0,.12,0,.17.01,0,.02,0,.02.01-.01.06.03.06.06.11v.03s.02,0,.02.01v.04s.02,0,.02.01v.05s-.01.01-.02.01c0,.12.02.22-.01.34,0,.01,0,.06-.02.06-.04,0-.06.03-.09.03-.09,0-.19.03-.28.08-.01,0-.02.02-.03.04-.01,0-.02,0-.04,0,0,.01,0,.02-.01.02-.02,0-.05-.01-.07,0,0,.01,0,.03-.01.03-.08-.01-.15.03-.18.08-.02.08-.07.17-.05.28.02.13.14.07.24.05.01,0,.01.01.01.02h.04s.05-.06.08-.05c0-.01,0-.02.01-.02.06-.01.12,0,.15.07.01.01.03,0,.06,0,0-.01,0-.02.01-.02.01,0,.04,0,.05,0v-.03s.01-.01.02-.01c-.01-.07.06-.1.11-.14.04-.02.07.02.06.06.01,0,.02,0,.02.01,0,.02,0,.05,0,.07.01,0,.02,0,.02.01.01.03.02.08,0,.12-.02.02-.04.05-.06.05-.13.03-.25.06-.37.09-.07.02-.12.06-.2.05,0,.02-.02.03-.03.05-.01,0-.04,0-.04,0-.01.03-.06.03-.08.06,0,.01,0,.02,0,.03,0,.01-.01.01-.02.01,0,.01,0,.02,0,.04,0,.01-.01.01-.02.01,0,.01,0,.04,0,.05s-.01.01-.02.01v.06s-.01.01-.02.01c0,.02,0,.06,0,.08.01,0,.02,0,.02.01,0,.03,0,.06,0,.09.01,0,.02,0,.02.01s0,.02,0,.04c.01,0,.02,0,.02.01s0,.03,0,.05c.02.01.03.04.06.02,0,0,0-.02.01-.02h.05c.05-.06.11-.13.18-.13,0-.01,0-.02.01-.02.01,0,.02,0,.03,0,0-.01,0-.02.01-.02.06.01.07-.02.11-.05.07-.02.14-.02.2-.06.02-.01.06,0,.09,0,0-.01,0-.02.01-.02.02,0,.06,0,.08,0,0-.01,0-.02.01-.02.05,0,.08-.01.12-.02.06-.03.14,0,.21-.02.1-.02.2,0,.3,0,.02-.01.01.05.01.06-.05.06-.11.12-.16.15-.05.03-.08.08-.13.12-.01,0-.02.02-.05.01,0,.05-.04.06-.06.08-.08.06-.18.1-.27.14-.05.02-.09.01-.14.01,0,.02-.01.02-.02.03-.01,0-.02,0-.04,0,0,.01,0,.02-.01.02-.01,0-.02,0-.04,0,0,.01,0,.02-.01.02h-.06s0,.02-.01.02c-.03,0-.08,0-.12,0,0,.01,0,.02-.01.02-.02,0-.06-.01-.07,0-.01.02,0,.06,0,.08.01,0,.02,0,.02.01,0,.02-.01.06,0,.07.05.04.09.09.13.12.13.06.26.11.39.15.02,0,.05.04.06.05.06.04.14.05.2.01.02-.01.06-.02.09-.02,0-.01,0-.02.01-.02.06,0,.13,0,.19,0,0-.01,0-.02.01-.02.01,0,.04,0,.04,0,.01-.03.05-.03.06-.03.14-.15.28-.28.43-.42.01-.01,0-.05,0-.06-.04-.01-.04-.05-.03-.08,0-.01.04-.01.04-.01.01-.09.07-.16.12-.23.05-.08.13-.12.22-.15.02-.01.06.01.06.02.01.09.02.19,0,.27-.01.23.04.47.1.7,0,0,.04,0,.04.01,0,.03.02.07.05.07.03.01.03-.04.03-.07,0-.01.01-.01.02-.01t0-.02s.01-.01.02-.01c0-.01,0-.02,0-.03.04-.05.12-.06.11-.13,0-.01.01-.01.02-.01,0-.04-.01-.08,0-.12.02-.05.06-.08.08-.13.02-.09-.05-.17-.02-.27.01-.02.02-.05.02-.08,0-.01.01-.01.02-.01,0-.06-.01-.12,0-.16.01-.02.04-.05.07-.03,0-.01,0-.02.01-.02.06,0,.1,0,.16,0,0-.01,0-.02.01-.02.01,0,.03,0,.05,0v-.02c.06-.02.14-.02.16-.09.01-.04.07-.02.09,0,.04.02.01.07,0,.12,0,.01-.01.01-.02.01v.03s-.04.06-.07.07v.03s-.06.05-.07.07c-.05.09-.11.19-.13.3,0,.01-.01.02-.04.02v.06s-.01.01-.02.01v.09s-.01.01-.02.01c0,.02,0,.06,0,.08,0,.01-.01.01-.02.01,0,.01,0,.04,0,.05-.02.02-.04.06-.05.08-.02.1-.04.21-.03.31.01.04.08.05.14.07.05,0,.09.01.14.01,0-.01,0-.02.01-.02h.02s.01-.05.02-.06c.04,0,.05,0,.07-.02,0-.01,0-.04,0-.05.02-.03.07-.05.08-.08,0-.09.05-.17.05-.27,0-.01.01-.01.02-.01,0-.01,0-.02,0-.03,0-.01.01-.01.02-.01,0-.04.01-.07.02-.09.02-.06.01-.12.04-.17.01-.02.04,0,.05-.01.02-.05.07-.06.11-.05.02.02.07.05.06.09.01,0,.02,0,.02.01,0,.03.02.06.03.07.06.07.07.15.14.21,0,.01,0,.03,0,.03.03.01.03.04.03.06.02.02.08.05.07.09.01,0,.02,0,.02.01v.05s.05.04.07.06c.03.02.08.01.13.04.01.01.01.02.01.04.01,0,.02,0,.04,0,.03.02.05.07.09.07.05.01.06.08.1.08.01,0,.01.01.01.02.06,0,.13.02.19-.01.02-.01.02-.08.06-.12.04-.01.06-.05.08-.06.06-.03.11-.09.15-.13.03-.02.08-.01.12-.01,0-.06.07-.06.08-.1.02-.07,0-.13.04-.2.02-.05.02-.12,0-.16"/>
      <path class="cls-1" d="M9.52.69c.08,0,.17,0,.26,0,0,.01,0,.02.01.02.01,0,.02,0,.03,0,0,.01,0,.02.01.02.03,0,.06.01.08.02.03.02.08.02.11.05.06.07.03.14.03.22,0,.02-.04.06-.06.06-.14.02-.27,0-.4,0-.19.02-.38,0-.57-.06,0,0,0-.05,0-.07.01,0,.02,0,.02-.01s0-.02,0-.04c.01,0,.02,0,.02-.01,0-.02-.01-.05,0-.07.01,0,.04,0,.04-.01-.01-.05.01-.08.05-.12.01-.01.03,0,.06,0,.01,0,.01-.01.01-.02.09,0,.2,0,.29,0"/>
      <path class="cls-1" d="M13.85,3.94s-.07.1-.12.14c-.11.12-.2.23-.33.31-.02.01-.06,0-.09,0-.01,0-.01.01-.01.02-.01,0-.02,0-.04,0-.01,0-.01.01-.01.02-.01,0-.02,0-.03,0s-.01.01-.01.02c-.04,0-.06,0-.08.01-.05.02-.1.01-.16.01,0-.01,0-.02-.01-.02-.05.01-.06-.01-.09-.05-.01,0-.03,0-.05,0,0-.01,0-.02-.01-.02h-.04s-.02-.02-.02-.06c-.02-.06-.12-.07-.1-.14,0-.01-.01-.01-.02-.01,0-.01,0-.02,0-.04,0-.01-.01-.01-.02-.01,0-.01,0-.02,0-.03,0-.01-.01-.01-.02-.01,0-.06-.07-.09-.1-.13,0-.01,0-.04,0-.04.02-.01.06,0,.09,0,.01,0,.01-.01.01-.02.06,0,.13,0,.19,0,0,.01,0,.02.01.02.12-.02.22-.05.33-.08-.01-.02.03-.02.02-.05.01,0,.03,0,.05,0,.05-.03.08-.07.13-.1.11-.09.21-.18.29-.31.04-.05.1-.08.14-.14v-.05s.05-.02.06-.03c0-.02,0-.05.02-.06,0-.01,0-.02,0-.04.02,0,.04-.02.05-.03,0-.01,0-.02,0-.04.03-.02.06-.05.08-.07,0-.01,0-.02,0-.03.01,0,.02,0,.02-.01v-.03s.02,0,.02-.01c0-.02,0-.05,0-.07.01,0,.02,0,.02-.01,0-.02,0-.06,0-.08.01,0,.02,0,.02-.01.02-.06-.02-.1-.08-.08-.01,0-.01.01-.01.02-.04,0-.07,0-.11,0-.01,0-.01.01-.01.02-.03,0-.08,0-.12,0-.01,0-.01.01-.01.02-.01,0-.02,0-.04,0-.02.03-.05.03-.08.03-.01,0-.01.01-.01.02-.06,0-.13,0-.19,0-.01,0-.01.01-.01.02-.02,0-.05,0-.07,0-.01,0-.01.01-.01.02-.09-.01-.16.02-.26.05-.01.01-.04.03-.05.06h-.03s-.05.05-.08.05c-.01,0-.01.01-.01.02,0-.01,0-.02-.01-.02h-.05s0-.02-.01-.02h-.03s-.05-.04-.05-.08c0-.01-.01-.02-.03-.02v-.04s-.01-.01-.02-.01c0-.01,0-.02,0-.04s-.01-.01-.02-.01c0-.02.04-.02.02-.05,0-.01-.01-.01-.02-.01,0-.05-.01-.09.01-.12.06-.08.09-.15.1-.24,0-.01-.01-.01-.02-.01v-.03s.08-.08.12-.13c.02-.01.06,0,.09,0,.01,0,.01-.01.01-.02.05,0,.1.01.14-.01.05-.03.13.01.18-.07,0-.01.04,0,.06,0,.01,0,.01-.01.01-.02.02,0,.03,0,.06,0,.01,0,.01-.01.01-.02.04,0,.07-.01.09-.02.09-.03.19-.07.28-.11.07-.03.14-.07.21-.1.05-.02.11-.03.13-.07.01-.02.01-.07,0-.09-.03-.04-.01-.08-.06-.12-.01-.01.01-.05,0-.06-.01-.01-.02-.04-.05-.04.01-.09-.06-.15-.09-.25,0-.01-.01-.03-.03-.04v-.05s-.01-.01-.02-.01c0-.01,0-.02,0-.04-.06-.05-.1-.09-.14-.14-.03-.07-.01-.15.07-.17,0,0,0-.02,0-.04.01,0,.02,0,.02-.01s0-.02,0-.03h.03s.06-.03.06-.08h.03c.06.14.21.05.31.03.06,0,.09.04.14.05.02.01.06.04.06.07,0,.01.01.01.02.01,0,.02-.01.05,0,.07.05.09.08.19.13.28.02.02.05.04.06.06.04.05.03.09.05.14.01.01.01.05.05.04.02.11.07.2.1.3.01,0,.04,0,.05,0,0,.01,0,.02.01.02.08,0,.15,0,.23,0,0,.01,0,.02.01.02.02,0,.05,0,.07,0,.01,0,.01-.01.01-.02.52-.02,1.05.05,1.57.2.01.01.02.02.03.04.01.06-.05.08-.08.13-.01.02,0,.05,0,.07-.01,0-.02,0-.02.01,0,.02.01.05,0,.06-.02.02-.07.02-.08.06h-.04s-.01.01-.01.02c-.01,0-.03,0-.05,0-.04.02-.05.06-.09.07-.01.01-.05.02-.04.06-.01,0-.03,0-.05,0s-.01.01-.01.02c-.01,0-.02,0-.03,0-.01,0-.01.01-.01.02-.01,0-.02,0-.03,0s-.01.01-.01.02c-.06,0-.13,0-.19,0,0-.01,0-.02-.01-.02-.02,0-.05,0-.07,0,0-.01,0-.02-.01-.02-.02,0-.03,0-.06,0,0-.01,0-.02-.01-.02-.01,0-.04,0-.05,0-.01,0-.01.01-.01.02-.16,0-.33,0-.49,0,0-.01,0-.02-.01-.02-.04,0-.07.01-.09,0,0,0,0-.02-.01-.04-.02-.01-.05.01-.07.01-.02.01-.03.03-.05.05-.02.04-.07,0-.08.03-.01.05,0,.08.05.11v.04c.06.05.08.11.15.14v.03s.07.06.09.08c.09.06.15.14.22.21.01,0,.02,0,.03,0,.03.06.09.08.15.12.01,0,.02.02.03.04.01,0,.03,0,.05,0,0,.01,0,.02.01.02.08.01.13.09.2.15.01,0,.04,0,.04,0,.02.06.08.06.14.07.02,0,0,.04.02.04.01,0,.03,0,.05,0,.02.07.1.04.15.05,0,0,0,.04.01.04.03,0,.06,0,.08.02.02.01.06,0,.09.02.01,0,.04,0,.06,0,0,.01,0,.02.01.02.04,0,.06,0,.09,0,0,.01,0,.02.01.02.03,0,.06,0,.09,0,0,.01,0,.02.01.02.02,0,.06-.01.08,0,.14.12.31.05.47.11.01,0,.01-.01.01-.02h.03s0,.02.01.02c.03,0,.08,0,.12,0,.01,0,.01-.01.01-.02.01,0,.02,0,.03,0,.01,0,.01-.01.01-.02.01,0,.02,0,.04,0,.05.01.02.07.06.09.01.01,0,.05,0,.07,0,.01.01.01.02.01,0,.01,0,.02,0,.04-.01,0-.02,0-.02.01,0,.01,0,.02,0,.03-.06.03-.09.08-.13.13-.01,0-.03,0-.05,0-.06.09-.12.17-.11.28-.01,0-.02,0-.02.01s0,.03,0,.03c-.07.01-.13.01-.19.05-.01.01-.02.01-.02.03-.02,0-.05-.01-.06,0-.02.03-.05.05-.07.06-.03.02-.06.06-.11.06-.01,0-.01.03-.01.03-.05.01-.09,0-.14,0-.01,0-.01.01-.01.02h-.02s-.01.01-.01.02c-.02,0-.03,0-.06,0,0-.01,0-.02-.01-.02-.01,0-.02.01-.02.02-.05.02-.06-.02-.09-.05-.03-.01-.08,0-.12,0,0-.02-.01-.02-.02-.03h-.03s-.03-.05-.06-.07c-.01,0-.03,0-.03,0-.01-.04-.05-.06-.08-.05.01-.03-.02-.05-.03-.06-.02,0-.05,0-.06-.02-.01,0-.02,0-.03,0,0-.01,0-.02-.01-.02-.01,0-.02,0-.03,0-.08-.12-.17-.21-.27-.3-.01,0-.02,0-.04,0,0-.01,0-.02-.01-.02s-.02,0-.03,0c0-.01,0-.02,0-.03-.02-.04-.07-.06-.1-.08-.03-.01-.06-.07-.09-.08-.04-.02-.06-.06-.09-.08h-.03s0-.02-.01-.02c-.03,0-.07.01-.09,0-.04-.05-.09-.07-.15-.08-.02-.01-.02-.04-.03-.05-.01,0-.04,0-.05,0-.07-.07-.14-.13-.19-.2-.03-.05-.08-.07-.09-.13-.01,0-.04,0-.05,0-.03-.08-.1-.12-.16-.18-.01,0-.02,0-.04,0,0-.01,0-.02-.01-.02h-.05c-.08.08-.14.16-.2.27,0,.01-.02.02-.04.03-.01.02,0,.05,0,.07-.01,0-.02,0-.02.01v.04s-.02.01-.04.02c-.01.06-.01.13-.06.19-.04.06-.09.08-.16.1v.05s-.02,0-.02.01v.03c-.06.03-.09.08-.14.13"/>
      <path class="cls-1" d="M19.83,2.07s.03.01.05-.01v-.02s.08,0,.12,0c.01,0,.01-.01.01-.02.02,0,.03,0,.06,0,.01,0,.01-.01.01-.02.15,0,.29,0,.44,0,.01,0,.01-.01.01-.02.1.06.26.01.38.03,0,.01,0,.02.01.02.02,0,.05,0,.07,0,.01,0,.01-.01.01-.02.05,0,.09,0,.14,0,0,.01,0,.02.01.02.07,0,.13,0,.2,0,.01,0,.01-.01.01-.02.02,0,.06,0,.08,0,0,.01,0,.02.01.02.02,0,.04,0,.06,0,0,.01,0,.02.01.02h.05c.07.08.17.08.26.15.01,0,.03,0,.05,0,.01.06.08.07.08.11.02.09-.06.15-.14.2-.01.01.01.05,0,.06-.01.02-.02.04-.02.06-.01,0-.02,0-.02.01.01.03-.01.03-.02.06-.02.01-.07-.01-.1,0-.04.02-.06.06-.09.09v.04s-.04.04-.06.05c0,.01,0,.02,0,.04-.01,0-.02,0-.03,0-.01,0-.01.01-.01.02h-.04s-.01.01-.01.02c-.01,0-.04,0-.05,0-.01,0-.01.01-.01.02-.01,0-.02,0-.04,0-.01,0-.01.01-.01.02-.05,0-.09,0-.14,0,0-.01,0-.02-.01-.02-.06,0-.1,0-.16,0,0-.01,0-.02-.01-.02-.06,0-.12-.01-.16,0-.02.01-.06.05-.04.08.02.02.05.07.09.06,0,.02.02.04.03.05.16.07.33.03.5.05.09.02.19.01.28.06.03.01.08,0,.12,0,0,.01,0,.02.01.02.02,0,.05,0,.07,0,0,.01,0,.02.01.02.01,0,.04,0,.04,0,.01.05.05.04.08.04,0,.01,0,.02.01.02.01,0,.02,0,.04,0,.02.03.06.07.1.08.02,0,.04.04.02.07-.01.01-.05-.01-.06.01,0,.01,0,.02,0,.02-.01,0-.02,0-.03,0-.01,0-.01.01-.01.02-.07,0-.14,0-.21.06-.06.05-.18.01-.27.02-.19.05-.37-.04-.56-.01-.07.01-.05.08-.05.14,0,.01.01.01.02.01,0,.08,0,.17,0,.26-.01,0-.02,0-.02.01,0,.02,0,.05,0,.07,0,.01.01.01.02.01,0,.03,0,.07,0,.11-.01,0-.02,0-.02.01,0,.03,0,.06,0,.09-.01,0-.02,0-.02.01,0,.02.01.05,0,.06-.08.06-.08.15-.12.23-.01.05-.09.05-.12.1h-.04s-.06.03-.11.06c-.03.01-.06.06-.08.09-.01.01-.05,0-.07,0-.01,0-.01.01-.01.02-.02,0-.06,0-.08,0,0-.01,0-.02-.01-.02-.12,0-.23.02-.34-.01-.14-.06-.3-.04-.43-.13-.03-.02-.06-.06-.09-.09-.01,0-.02,0-.04,0,0-.01,0-.02-.01-.02-.02,0-.03,0-.06,0,0-.01,0-.02-.01-.02s-.04,0-.05,0c-.01-.02-.02-.05-.03-.06-.07-.02-.17-.07-.16-.15.01,0,.02,0,.02-.01v-.02s-.01-.01-.02-.01v-.03s-.01-.01-.02-.01c0-.02,0-.05,0-.05.08-.03.17-.06.26-.08.06-.02.12-.01.18-.01,0,.01,0,.02.01.02.03,0,.08,0,.12,0,0,.01,0,.02.01.02.1.01.21.02.33,0,.01,0,.01-.01.01-.02.01,0,.02,0,.03,0s.01-.01.01-.02c.01,0,.02,0,.03,0s.01-.01.01-.02c.01,0,.03,0,.05,0,.05-.02.08-.06.13-.08.05-.03.08-.08.13-.13,0-.01,0-.04,0-.05.01,0,.03.01.03-.01.01-.03,0-.08.01-.11.02-.08.05-.17-.01-.23-.01-.02-.07,0-.1-.01,0,0,0-.03-.01-.03-.11,0-.2.05-.3.07-.13.03-.24.01-.37,0-.01,0-.01.01-.01.02h-.03s-.01.01-.01.02c-.03,0-.08,0-.12,0,0-.01,0-.02-.01-.02-.07,0-.12.07-.15.07-.07-.01-.15-.02-.23-.06-.01,0-.05-.02-.05-.04-.05-.09.04-.19.11-.24.02-.04.09.01.14-.02v-.02s.08,0,.12,0c.01,0,.01-.01.01-.02.06,0,.12.01.16-.01.2-.07.41-.06.62-.1,0,0,0-.02,0-.03-.02-.02-.05-.05-.08-.04.01-.04-.02-.04-.05-.04,0-.01,0-.02-.01-.02-.02,0-.03-.01-.06-.02-.01-.01-.03,0-.06,0,0-.01,0-.02-.01-.02-.02,0-.06,0-.08,0,0-.01,0-.02-.01-.02-.08,0-.16.01-.24-.01,0,0,0-.02,0-.05.01,0,.02,0,.02-.01,0-.03,0-.08,0-.12,0-.01-.01-.01-.02-.01-.01-.06.01-.08.05-.12.02.03.06.02.09.02,0,.01,0,.02.01.02.05,0,.11-.01.13.01.08.06.15-.01.22.05.02.01.06,0,.09,0,0,.01,0,.02.01.02.15.02.28-.02.43-.04.01,0,.02-.01.02-.03h.04s.01-.01.01-.02c.02,0,.05,0,.07,0,.01,0,.01-.01.01-.02.05.01.07-.04.09-.07h.03s.08-.07.12-.12c.01-.03-.02-.04-.05-.04,0-.01,0-.02-.01-.02-.04,0-.06,0-.09,0,0-.01,0-.02-.01-.02-.15.02-.29-.01-.44,0-.01,0-.01.01-.01.02-.07.01-.14-.02-.21-.02-.01,0-.01.01-.01.02-.04,0-.08-.01-.12.01-.04.02-.08.01-.13.03-.06.03-.15.01-.23.01-.01,0-.01.01-.01.02-.02,0-.04,0-.06,0-.01,0-.01.01-.01.02-.01,0-.02,0-.03,0s-.01.01-.01.02c-.01,0-.04,0-.05,0-.02.03-.05.06-.09.05,0-.01,0-.02-.01-.02-.03,0-.08,0-.12,0-.01,0-.01.01-.01.02-.02,0-.05,0-.06.03h-.03s-.01.01-.01.02c-.01,0-.02,0-.04,0,0-.01,0-.02-.01-.02-.04,0-.02-.01-.05-.04h-.03s.01-.03-.01-.05c-.01,0-.02,0-.02,0,0-.05-.01-.09.01-.13.02-.04.08-.07.13-.09.04-.02.08-.07.09-.12.03.04.08.02.13.02,0,.01,0,.02.01.02t.02,0s.01-.01.01-.02c.05,0,.09,0,.14,0,.01,0,.01-.01.01-.02.02,0,.04,0,.06,0,.01,0,.01-.01.01-.02h.05s.01-.01.01-.02c.01,0,.02,0,.04,0,.01,0,.01-.01.01-.02.02,0,.05.01.08-.02"/>
      <path class="cls-1" d="M19.8,1.26s.09-.02.13-.05c.11-.06.22-.05.34-.07.02,0,.01-.02.01-.04.02-.12-.07-.22-.04-.34.01,0,.02,0,.02-.01,0-.06,0-.12,0-.17,0-.01-.01-.01-.02-.01v-.06s-.01-.01-.02-.01c0-.06,0-.1,0-.16.01,0,.02,0,.02-.01,0-.02-.01-.05,0-.06.06-.07.15-.12.23-.15.09-.05.24-.07.33.01.02.01.02.06.06.08.01.01-.01.05,0,.07.01.01.04.04.04.04.06.28-.05.52-.06.79,0,.01.02.02.04.03.15.04.29,0,.44,0,.01,0,.02-.02.04-.03.04-.13.01-.29.13-.37,0-.01,0-.02,0-.03.05-.02.06-.09.08-.14,0-.01.02-.03.05-.06,0-.01,0-.02,0-.03.02-.01.05-.02.05-.03.04-.14.13-.26.14-.39,0-.05.05-.06.11-.05,0,.01,0,.02.01.02.01,0,.02,0,.04,0,0,.01,0,.02.01.02.06,0,.13,0,.19,0,0,.01,0,.02.01.02.01,0,.04,0,.05,0,0,.01,0,.04.01.04h.04s.03.06.08.07v.03s-.06.03-.07.05c-.02.02-.01.07-.01.1-.01,0-.02,0-.02.01,0,.03,0,.06,0,.09-.02,0-.03.02-.03.03-.02.08-.05.16-.12.22,0,.01,0,.03,0,.05-.02.01-.05.03-.06.06-.04.02-.08.05-.09.09h-.04s-.01.01-.01.02c-.03,0-.06,0-.09,0-.01,0-.01.01-.01.02-.06,0-.13,0-.19,0-.01,0-.01.01-.01.02-.02,0-.05,0-.06.02h-.04s-.08.07-.09.13c0,.02.02.03.05.05.05.02.11,0,.15.04.02.02.07.01.1.01,0,.01,0,.02.01.02.02,0,.05,0,.07,0,0,.01,0,.02.01.02.04,0,.08-.01.12,0,0,0,0,.03.01.03.08,0,.16.04.23-.01.04-.02.06-.02.11-.02,0,.02.01.03.02.03.09.01.16.07.26.07,0,.01,0,.02.01.02.02,0,.04,0,.06,0,0,.01,0,.02.01.02.08,0,.16.04.21.09.05.04-.01.08-.06.13,0,.01,0,.03,0,.05,0,.01.01.01.02.01,0,.06-.01.12.01.16.01.06.08.09.12.14v.05s.01.01.02.01c0,.04,0,.07.05.09v.05s.01.01.02.01c0,.04,0,.07,0,.1-.01,0-.02,0-.02.01,0,.07,0,.14,0,.21-.01,0-.02,0-.02.01s0,.04,0,.05c-.04.02-.08.03-.09.06-.02.03-.01.09-.01.14-.01,0-.02,0-.02.01v.03s-.02,0-.02.01v.02s-.08,0-.1.05c-.01.01-.04-.01-.05.01,0,.01,0,.02,0,.03-.02.01-.03.03-.06.02,0,0,0-.02-.01-.02-.01,0-.03,0-.05,0,0-.01,0-.02-.01-.02h-.03s0-.02-.01-.02h-.04s0-.02-.01-.02c-.01,0-.04,0-.05,0,0-.01,0-.03,0-.05s-.01-.01-.02-.01c0-.06,0-.11,0-.16,0-.01-.01-.01-.02-.01,0-.06,0-.13,0-.19.01,0,.02,0,.02-.01,0-.02,0-.05,0-.07,0-.01-.01-.01-.02-.01v-.02s.02,0,.02-.01c0-.16.01-.34,0-.5,0-.02-.02-.05-.05-.06-.08-.02-.16-.04-.24-.05,0,0-.02,0-.03-.01-.04-.01-.08,0-.12,0,0-.01,0-.02-.01-.02-.02,0-.06,0-.08,0,0-.01,0-.02-.01-.02-.02,0-.06.01-.07,0-.06-.06-.13-.07-.2-.07-.07-.01-.14.01-.2,0-.21-.01-.42-.05-.64-.04,0-.01,0-.02-.01-.02-.08,0-.17-.02-.24.01-.07.03-.14.03-.21.09-.02.01-.06,0-.09,0-.01,0-.01.01-.01.02-.02,0-.03,0-.06,0-.01,0-.01.01-.01.02-.03,0-.07-.01-.09,0-.08.07-.19.05-.27.09-.06.02-.13.01-.19.01-.01,0-.01.01-.01.02-.06,0-.12-.01-.16,0-.15.06-.3.02-.45.07-.04.01-.07.03-.08.07,0,.02,0,.05,0,.07,0,.01.01.01.02.01-.02.12-.07.23-.06.36.02.21.04.42.08.63-.01,0-.02,0-.02.01-.01.06-.09.09-.13.15v.04s-.02,0-.02.01,0,.04,0,.04c-.05.01-.05.07-.09.06v-.02s-.01-.01-.02-.01c0-.01,0-.02,0-.03-.02-.02-.06-.05-.06-.06-.02-.04-.02-.08-.07-.11,0,0,0-.02,0-.03,0-.01-.01-.01-.02-.01,0-.02,0-.05,0-.07,0-.01-.01-.01-.02-.01v-.06s-.01-.01-.02-.01c0-.02,0-.05,0-.07,0-.01-.01-.01-.02-.01,0-.03,0-.07,0-.11,0-.01-.01-.01-.02-.01,0-.06,0-.13,0-.19,0-.01.02-.01.02-.02,0-.02.01-.07,0-.07-.05-.04.01-.11-.06-.11.02-.13.05-.27.06-.4.01-.05,0-.09,0-.14.01-.02.04-.02.05-.03.01-.04-.01-.07,0-.09.05-.05.09-.1.15-.13.16-.05.33-.08.5-.13.07-.01.13,0,.2,0,.01,0,.01-.01.01-.02.03,0,.08.01.12-.01.01-.01.05,0,.06-.02,0-.04-.01-.08-.03-.09-.04-.01-.05-.04-.08-.06-.01,0-.02,0-.04,0-.08-.09-.16-.19-.24-.28-.01,0-.02,0-.03,0-.09-.12-.2-.19-.28-.3,0-.01,0-.03,0-.05s-.01-.01-.02-.01c-.01-.05,0-.08.05-.12v-.04c.06-.03.08-.12.16-.08,0,0,0,.02.01.02.05,0,.1,0,.15,0,.01,0,.01-.01.01-.02h.06s0,.02.01.02c.01,0,.04,0,.04,0,.01.05.07.06.07.11,0,.06.01.12.03.16.02.02.03.06.06.06.05.01.09.06.1.08.02.05.06.09.09.11.05.02.07.05.08.08.07.09.08.2.09.32.04,0,.07.01.11-.01"/>
      <path class="cls-1" d="M4.28,4.13s0,.06,0,.09c0,.01-.01.01-.02.01,0,.01,0,.02,0,.04,0,.01-.01.01-.02.01v.04s-.01.01-.02.01c.01.04-.02.06-.05.08-.01,0-.02,0-.03,0,0,.01,0,.02-.01.02-.08,0-.15,0-.23,0,0,.01,0,.02-.01.02-.09,0-.2,0-.29,0,0,.01,0,.02-.01.02-.16,0-.34-.04-.5,0-.07.02-.14.02-.2,0-.02,0-.03-.01-.05-.03-.06-.08-.03-.19,0-.29.01-.08.09-.12.15-.19.01,0,.04,0,.05,0,.02-.03.04-.06.06-.08.02-.01.05,0,.07,0,0-.01,0-.02.01-.02.01,0,.04,0,.05,0h.03s0-.02.01-.02c.06,0,.09-.01.13-.03.06-.03.13,0,.19-.02.09-.03.19-.03.28-.03.08,0,.16.02.23,0,.08-.02.16.01.24.03.02,0,.07.05.06.07-.05.08-.04.19-.1.27M2.8,1.57c.02-.08.07-.16.06-.24-.01,0-.02,0-.02-.01,0-.02,0-.05,0-.07,0-.01.01-.01.02-.01,0-.03,0-.06,0-.09,0-.01.01-.01.02-.01,0-.02,0-.04,0-.06,0-.01.01-.01.02-.01-.01-.05.04-.08.06-.09.05-.02.11-.01.16-.01,0-.01,0-.02.01-.02.04,0,.06,0,.09,0,.13,0,.26,0,.38,0,.05.09-.02.16-.04.24,0,.01-.01.02-.04.02,0,.03,0,.06,0,.09,0,.01-.01.01-.02.01,0,.02,0,.03,0,.06,0,.01-.01.01-.02.01,0,.01,0,.02,0,.04,0,.01-.01.01-.02.01,0,.01,0,.03,0,.05s-.01.01-.02.01v.03s-.01.01-.02.01c0,.02,0,.06-.04.05,0,.05,0,.08-.05.1v.04s-.01.01-.02.01c0,.01,0,.04,0,.05-.04.07-.09.13-.13.2-.02.02-.06.01-.08.01-.06-.05-.1-.11-.15-.16-.03-.02-.07-.05-.08-.09h-.04s-.06-.09-.05-.15M5.08,3.75c-.02-.09-.17-.14-.2-.25-.01,0-.02,0-.02-.01s0-.02,0-.03c-.05-.05-.1-.09-.15-.15h-.04s-.02-.02-.02-.04c-.13-.09-.28-.08-.42-.14-.06-.02-.13-.01-.2-.01-.01,0-.01-.01-.01-.02-.05,0-.08,0-.13,0,0,.01,0,.02-.01.02-.12,0-.23-.01-.35,0-.2.03-.4.07-.58.12-.05.01-.17.03-.13-.02.09-.14.26-.18.36-.29.04-.04.08-.12.14-.15.06-.03.14-.01.22,0,0-.12,0-.22.03-.34,0-.02.02-.01.04-.01,0,0,0-.01,0-.02,0-.01.01-.01.02-.01v-.03s.02-.04.05-.03c0-.06.05-.09.06-.14.01-.01.02-.04.05-.04v-.05c.07-.08.11-.17.18-.26v-.05c.08-.07.08-.19.15-.26,0-.01,0-.03,0-.05.01-.01.02-.03.05-.03,0-.01,0-.02,0-.04.02-.05.09-.05.08-.1,0-.01.01-.01.02-.01,0-.02,0-.06,0-.08,0-.01.01-.01.02-.01-.01-.05.04-.07.06-.1.01,0,.03,0,.05,0v-.03s.06-.06.07-.08c.04-.07,0-.16.06-.23h.02s0-.01,0-.02c0-.01.01-.01.02-.01,0-.02,0-.03,0-.06-.02.01-.02-.04-.05-.02-.02-.06-.06-.12-.09-.16-.05-.06-.09-.13-.07-.21h-.02s0,.02-.01.02c-.01,0-.03,0-.05,0s-.01-.01-.01-.02c-.01,0-.02,0-.03,0,0,.01,0,.02-.01.02-.06,0-.09.01-.13.03-.05.04-.12.01-.17.01-.01,0-.01-.01-.01-.02-.02,0-.06,0-.08,0-.01,0-.01-.01-.01-.02-.02,0-.06,0-.08,0,0,.01,0,.02-.01.02-.13,0-.27,0-.4,0,0,.01,0,.02-.01.02-.05,0-.09,0-.14,0,0,.01,0,.02-.01.02-.07,0-.15-.01-.22,0-.16.02-.32.07-.48.05-.01,0-.01-.01-.01-.02-.07-.01-.16.03-.2-.06h-.04s0,.02-.01.02c-.01,0-.04,0-.05,0,0,.01,0,.03,0,.05s-.01.01-.02.01c0,.04,0,.08,0,.12,0,.01-.01.01-.02.01,0,.02,0,.06,0,.08.01,0,.02,0,.02.01,0,.02,0,.03,0,.06.01,0,.02,0,.02.01,0,.06,0,.12,0,.18,0,.01-.01.01-.02.01,0,.04,0,.06,0,.09,0,.01-.01.01-.02.01,0,.02.01.06,0,.08-.05.05-.02.13-.11.16v.05s-.01.01-.02.01c0,.02.01.05,0,.06-.07.08-.13.16-.21.2-.05.02-.06.08-.12.07,0,.02-.02.03-.03.05h-.03s0,.02-.01.02c-.01,0-.04,0-.05,0,0,.01,0,.02-.01.02h-.03c-.05.06-.11.06-.16.06-.06.01-.12-.02-.17-.04-.05-.01-.09.03-.13.06-.02.02-.04.08-.09.07,0,.01,0,.02-.01.02-.04.02-.08.01-.12,0-.01,0-.01-.01-.01-.02-.02,0-.05-.01-.06,0-.02.05-.07.06-.06.12,0,.01-.01.01-.02.01,0,.02-.01.05,0,.06.02.02.07.02.08.06.01.01.04,0,.06,0,.01,0,.01.01.01.02.03,0,.06,0,.09,0,.01,0,.01.01.01.02.04-.01.07.02.08.05.01.05-.01.11.01.15.01.04.03.07.09.06.01,0,.01.01.01.02t.02,0s.01.01.01.02c.02,0,.04,0,.06,0,.01,0,.01.01.01.02.02,0,.05-.01.07,0,.06.05.12.08.17.12.05.04.13.01.2.01,0-.01,0-.02.01-.02s.02,0,.04,0c0-.01,0-.02.01-.02.02,0,.05.01.06,0,.05-.06.12-.03.18-.07.05-.03.12-.01.19-.01,0-.01,0-.02.01-.02.04,0,.07-.01.08,0,.06.07.14.07.2.14.01.02.01.07,0,.09-.08.12-.22.16-.3.28-.01.01-.03.02-.06.02.01.02-.03.02-.02.05-.07.02-.11.08-.18.13-.02.01-.04.04-.06.06h-.03s0,.02-.01.02h-.05c-.02.06-.07.1-.12.14-.06.05-.14.07-.21.1,0,0-.02.02-.03.03-.14.06-.29.07-.43.11-.11.03-.22.03-.31,0-.1-.05-.22-.01-.33-.06-.01-.01-.01-.02-.01-.04,0,0-.01,0-.02,0s-.01-.01-.01-.02c-.08,0-.14.06-.21.06,0,.01,0,.02,0,.02.01,0,.02,0,.04,0,.02.05.06.03.1.04.01,0,.01.01.01.02.05,0,.08,0,.1.05.01,0,.02,0,.03,0s.01.01.01.02c.05-.01.08.04.09.07.02.05.02.12,0,.16-.02.05-.07.12-.04.17.01.01.05-.01.06,0,.01.01.05.02.03.06.05.01.09.01.14.04.02.01.02.06.05.07.02.04.08.05.13.06.02.01,0,.05.01.05.07.02.07.08.1.12,0,.01,0,.03,0,.05.03.02.06.07.1.05,0,0,0-.02.01-.02.04,0,.06,0,.09,0,0-.01,0-.02.01-.02.02,0,.05-.01.07,0,.03.02.07.06.12.06.05.01.09.02.12-.01.06-.08.02-.17.12-.22,0-.01,0-.02,0-.04-.02-.01-.06-.01-.07-.04-.01-.03.05-.05.06-.07.08-.07.15-.16.27-.14-.01-.02.02-.03.04-.05.04-.03.11-.05.15-.1h.03s0-.02.01-.02c.03-.01.05.02.05.04-.01.15.06.29.08.44.04-.01.05.02.06.04v.03s.08.06.07.11c.01,0,.02,0,.02.01,0,.01,0,.03,0,.03.03.01.03.05.03.06.03.04.08.06.07.12.01,0,.02,0,.02.01t0,.02s.02,0,.02.01c0,.01,0,.02,0,.04.08.06.17.06.26.11.02.01.05,0,.07,0,.01,0,.01.01.01.02.02,0,.03,0,.06,0,.01,0,.01.01.01.02.03,0,.06,0,.09,0,.01,0,.01.01.01.02,0-.01,0-.02.01-.02.04,0,.08,0,.12,0,0-.01,0-.02.01-.02.03,0,.08,0,.12,0,0-.01,0-.02.01-.02h.02s.01.01.01.02c.05,0,.1,0,.15,0,0-.01,0-.02.01-.02.05,0,.11,0,.15,0,.01,0,.01.01.01.02.02,0,.03,0,.06,0,.01,0,.01.01.01.02.06,0,.13,0,.19,0,0-.01,0-.02.01-.02.03,0,.08,0,.12,0,0-.01,0-.02.01-.02.13.01.24-.05.36-.11.07-.05.18-.07.28-.09.02-.01.01-.06.04-.07.05,0,.04-.05.07-.06v-.03c.06-.02.05-.09.11-.12,0-.01,0-.02,0-.03.01-.01.02-.03.05-.03,0-.02,0-.05,0-.07.08-.21.25-.41.2-.65"/>
    </g>
  </g>
</svg>