<?xml version="1.0" encoding="UTF-8"?>
<svg id="_レイヤー_2" data-name="レイヤー 2" xmlns="http://www.w3.org/2000/svg" viewBox="0 0 5.31 5.3">
  <defs>
    <style>
      .cls-1 {
        fill: #3b5998;
      }
    </style>
  </defs>
  <g id="design">
    <path class="cls-1" d="M5.01,0H.29c-.16,0-.29.13-.29.29v4.71c0,.16.13.29.29.29h2.54v-2.05h-.69v-.8h.69v-.59c0-.68.42-1.06,1.03-1.06.29,0,.54.02.62.03v.72h-.42c-.33,0-.4.16-.4.39v.51h.79l-.1.8h-.69v2.05h1.35c.16,0,.29-.13.29-.29V.29c0-.16-.13-.29-.29-.29"/>
  </g>
</svg>