<?xml version="1.0" encoding="UTF-8"?>
<svg id="_レイヤー_2" data-name="レイヤー 2" xmlns="http://www.w3.org/2000/svg" viewBox="0 0 5.3 5.3">
  <defs>
    <style>
      .cls-1 {
        fill: #00a65a;
      }

      .cls-2 {
        fill: #fff;
      }
    </style>
  </defs>
  <g id="design">
    <g>
      <rect class="cls-1" width="5.3" height="5.3" rx="1.19" ry="1.19"/>
      <g>
        <path class="cls-2" d="M4.42,2.4c0-.79-.79-1.43-1.77-1.43s-1.77.64-1.77,1.43c0,.71.63,1.3,1.48,1.41.06.01.14.04.16.09.02.04.01.11,0,.16,0,0-.02.12-.03.15,0,.04-.04.17.15.1.19-.08,1.02-.6,1.39-1.03h0c.26-.28.38-.57.38-.88Z"/>
        <g>
          <path class="cls-1" d="M3.83,2.86h-.5s-.03-.02-.03-.03h0v-.77h0s.02-.03.03-.03h.5s.03.02.03.03v.13s-.02.03-.03.03h-.34v.13h.34s.03.02.03.03v.13s-.02.03-.03.03h-.34v.13h.34s.03.02.03.03v.13s-.02.03-.03.03Z"/>
          <path class="cls-1" d="M1.99,2.86s.03-.02.03-.03v-.13s-.02-.03-.03-.03h-.34v-.61s-.02-.03-.03-.03h-.13s-.03.02-.03.03v.77h0s.02.03.03.03h.5Z"/>
          <rect class="cls-1" x="2.13" y="2.02" width=".19" height=".84" rx=".03" ry=".03"/>
          <path class="cls-1" d="M3.14,2.02h-.13s-.03.02-.03.03v.46l-.35-.48s0,0,0,0c0,0,0,0,0,0,0,0,0,0,0,0,0,0,0,0,0,0,0,0,0,0,0,0,0,0,0,0,0,0,0,0,0,0,0,0,0,0,0,0,0,0,0,0,0,0,0,0,0,0,0,0,0,0,0,0,0,0,0,0,0,0,0,0,0,0,0,0,0,0,0,0,0,0,0,0,0,0,0,0,0,0,0,0,0,0,0,0,0,0,0,0,0,0,0,0,0,0,0,0,0,0,0,0,0,0,0,0h-.12s-.03.02-.03.03v.77s.02.03.03.03h.13s.03-.02.03-.03v-.46l.35.48s0,0,0,0c0,0,0,0,0,0,0,0,0,0,0,0,0,0,0,0,0,0,0,0,0,0,0,0,0,0,0,0,0,0,0,0,0,0,0,0,0,0,0,0,0,0,0,0,0,0,0,0,0,0,0,0,0,0h.12s.03-.02.03-.03v-.77s-.02-.03-.03-.03Z"/>
        </g>
      </g>
    </g>
  </g>
</svg>