<?xml version="1.0" encoding="UTF-8"?>
<svg id="_レイヤー_2" data-name="レイヤー 2" xmlns="http://www.w3.org/2000/svg" viewBox="0 0 6.01 4.21">
  <defs>
    <style>
      .cls-1 {
        fill: #fff;
      }

      .cls-2 {
        fill: #f03;
      }
    </style>
  </defs>
  <g id="design">
    <g>
      <path class="cls-2" d="M.66,4.08c-.26-.07-.46-.28-.54-.53-.12-.47-.12-1.45-.12-1.45,0,0,0-.98.12-1.44C.2.4.4.2.66.13c.47-.13,2.35-.13,2.35-.13,0,0,1.88,0,2.35.13.26.07.46.27.53.53.13.47.13,1.44.13,1.44,0,0,0,.98-.13,1.45-.07.25-.27.46-.53.53-.47.13-2.35.13-2.35.13,0,0-1.88,0-2.35-.13ZM2.41,3.01l1.56-.9-1.56-.9v1.81Z"/>
      <polygon class="cls-1" points="2.41 3.01 3.97 2.1 2.41 1.2 2.41 3.01"/>
    </g>
  </g>
</svg>