<?xml version="1.0" encoding="UTF-8"?>
<svg id="_レイヤー_2" data-name="レイヤー 2" xmlns="http://www.w3.org/2000/svg" viewBox="0 0 61.66 12.12">
  <defs>
    <style>
      .cls-1 {
        fill: #e4004f;
      }
    </style>
  </defs>
  <g id="design">
    <g>
      <g>
        <path class="cls-1" d="M5.91,3.78c0-.36.12-.65.36-.88s.54-.37.9-.43v-.45s-.89.01-.89.01l-.02-.83.88-.02v-.4s.88-.01.88-.01v.41s.98-.02.98-.02v.84h-.97v.36c.38,0,.73.12,1.06.36s.48.56.48.95c0,.26-.05.49-.14.7-.09.21-.19.37-.29.48l-.74-.42c.06-.09.12-.19.18-.32.05-.13.08-.26.08-.41,0-.16-.06-.29-.19-.39s-.27-.14-.43-.14c.02.27,0,.54-.06.81-.06.27-.17.47-.34.6-.32.22-.69.24-1.11.09s-.62-.45-.62-.89ZM7.27,3.23c-.17.02-.3.07-.41.16-.1.09-.16.19-.16.31s.04.2.11.25c.07.05.14.07.21.06.06,0,.12-.06.17-.15.05-.09.07-.3.07-.63ZM9.18,2.39l.36-.56.83.52-.36.6-.83-.57Z"/>
        <path class="cls-1" d="M14.29,2.54h1.36s.01.93.01.93h-1.28c-.02.44-.12.93-.32,1.49l-1.47-.23.11-.71.54.03c.07-.22.1-.41.1-.58l-1.69.02v-.91s1.62-.02,1.62-.02c0-.21-.02-.4-.06-.58l.54-.49h-1.38l-.02-.85h2.5s.04.99.04.99l-.66.54c.02.1.03.22.05.36Z"/>
        <path class="cls-1" d="M19.09,2.1l-.56.02.61.66-.42.47-.23-.2v1.65s-.75,0-.75,0l-.02-1.26c-.11.16-.24.3-.39.42l-.49-.55c.33-.32.6-.69.81-1.09h-.64s-.01-.81-.01-.81l.68-.02.03-.78h.78s0,.72,0,.72h.61s0,.78,0,.78ZM19.98,4.73c-.21.13-.43.24-.67.32l-.2-.48c.22-.06.43-.15.63-.25l.24.41ZM19.58,3.38c.17.13.35.27.52.42l-.33.35c-.16-.14-.33-.27-.49-.39l.31-.39ZM21.99.99l-.02.62-.86.02v.23s.62-.01.62-.01v.46l-.61.03v.2s.94-.01.94-.01v.63l-.93.03v1.93l-1-.11.06-.51h.24l-.04-1.29h-.89s-.02-.63-.02-.63l.95-.02v-.21s-.67-.01-.67-.01v-.44s.68-.03.68-.03v-.21h-.96s0-.65,0-.65l2.53-.02ZM20.09.85c-.09-.21-.19-.41-.28-.62l.51-.23c.09.2.17.42.24.63l-.48.22ZM20.95.63c.08-.21.15-.41.22-.61l.54.2c-.08.2-.16.4-.25.6l-.5-.19ZM21.34,3.72c.18-.11.37-.22.56-.33l.27.41c-.19.13-.4.24-.61.33l-.22-.41ZM21.35,4.78l.25-.47c.2.12.41.24.63.35l-.25.49c-.22-.12-.43-.24-.63-.37Z"/>
        <path class="cls-1" d="M26.15.53l-.16.45h1.67s0,3.85,0,3.85l-1.34-.11.03-.62.37-.03V1.92s-2.41.03-2.41.03l-.02,2.79-.94-.02.05-3.75,1.53-.02.32-.77.89.35ZM26.35,2.33v1.59h-1.65s-.01-1.59-.01-1.59h1.67ZM25.81,3.39v-.52l-.58.02v.5h.58Z"/>
        <path class="cls-1" d="M30.42,4.27l-1.14.19-.06-3.07h.87s.02,2.07.02,2.07h.27l.04.8ZM30.94,2.52l-.04-.83.84-.03-.02-.68.91-.03.02.69.59-.02v.85s-.53.03-.53.03c0,.43-.03.83-.1,1.22-.06.39-.2.77-.41,1.14l-.81-.28c.29-.61.41-1.29.37-2.05h-.81Z"/>
        <path class="cls-1" d="M35.71,3.17c-.27.17-.55.32-.84.45l-.49-.87c.89-.48,1.67-1.09,2.36-1.83l.76.69c-.25.3-.52.58-.81.84v2.32h-.99v-1.6Z"/>
        <path class="cls-1" d="M38.45,3l1.63-1.44,2.26,1.89-.61.79-1.64-1.38-1.04.88-.6-.75ZM41.84,1.85l-.63.16-.2-.83.61-.15.23.82ZM41.94,1.1l.61-.18.19.81-.61.12-.19-.75Z"/>
        <path class="cls-1" d="M45.24,1.85l-.46.72-.98-.59.41-.75,1.03.62ZM44.14,3.73c.57-.19,1.03-.43,1.38-.7.35-.28.67-.72.98-1.33l.85.37c-.14.6-.47,1.13-.99,1.61s-1.13.79-1.82.94l-.4-.9Z"/>
        <path class="cls-1" d="M50.04,1v1.23s1.25.29,1.25.29l-.22.89-1.05-.21-.04,1.53h-1.01V.99h1.07Z"/>
        <path class="cls-1" d="M54.48,3.98c.29.08.52,0,.69-.23l.64.49c-.37.49-.87.71-1.5.63-.23-.02-.44-.1-.62-.23-.19-.13-.31-.31-.36-.54s-.07-.44-.06-.66h-.65s-.03-.84-.03-.84h.68s0-.45,0-.45h-.61s-.02-.83-.02-.83h.65s.01-.49.01-.49l.93.02v.44h1s.02.84.02.84h-1.05s0,.43,0,.43l1-.02.04.8-1.06.06c-.01.11,0,.22.04.34s.12.2.24.25Z"/>
        <path class="cls-1" d="M16.04,8.99c-.02.27-.13.63-.33,1.08l-.8-.26c.16-.47.26-.89.3-1.25.04-.36.06-.81.06-1.34l2.13-.03c-.02-.15-.04-.26-.04-.33l.86-.1c0,.11.02.24.05.39l.67-.02.03.82-.54.04c0,.05.05.19.12.4.1-.09.19-.19.27-.31l.53.47c-.15.2-.31.39-.5.56.03.06.06.11.09.15l.3-.18.3.47-1,.58c-.12-.14-.23-.34-.34-.58l-.34.26-.4-.45c.15-.1.28-.22.41-.36-.15-.39-.26-.71-.32-.97l-1.44.02c0,.05,0,.15-.01.3h1.08c.04.5-.05,1.01-.25,1.51l-.84-.14.07-.47h.28c.08-.12.1-.22.07-.28h-.46ZM19.23,11.41v.7h-3.95v-.7h.49v-1.19h3.1l.03,1.19h.33ZM16.37,11.41h.35v-.59s-.36,0-.36,0v.6ZM17.51,11.39v-.58h-.36v.58h.36ZM17.95,11.41h.36v-.6h-.35v.6ZM20.05,7.15l-.3.45-.7-.44.29-.45.7.44Z"/>
        <path class="cls-1" d="M21.01,8.02h.87c-.02.16-.04.35-.04.55,0,.21,0,.44,0,.71l.22.02v.66l-1.06.02c-.02-.3-.02-.62-.03-.95s.01-.67.04-1ZM22.93,7.99l.95-.05c.08.76.07,1.46-.04,2.12-.11.66-.42,1.23-.94,1.69l-.74-.55c.41-.41.66-.9.74-1.49.08-.59.1-1.16.03-1.73Z"/>
        <path class="cls-1" d="M25.93,8.97h-.57s-.04-.82-.04-.82l.67-.02.05-.57.9.04-.03.52.78-.05.03.79-.85.06-.19,2.47-.95-.04.21-2.38ZM27.72,10.67c.48.12.96.15,1.46.08l.07.71c-.56.12-1.12.1-1.67-.07l.15-.73ZM27.71,10.09l-.06-.74c.5-.04,1-.06,1.51-.04v.74c-.49-.01-.97,0-1.44.05ZM28.97,8.58l-.52.08-.19-.83.57-.12.14.86ZM29.67,7.69l.14.82-.52.1-.16-.8.53-.11Z"/>
        <path class="cls-1" d="M33.06,10.82l-.7.7-1.92-1.85,1.79-1.99.7.64-1.14,1.26,1.27,1.23Z"/>
        <path class="cls-1" d="M36.89,11.6c-.34.08-.75.08-1.22-.01-.47-.09-.84-.3-1.13-.63l.52-.66c.2.17.43.3.69.39.26.09.62.12,1.06.09l.07.81ZM36.09,9.26l-1.37.14-.11-.9,1.2-.12c-.03-.22-.06-.42-.08-.63l.88-.11c.03.21.07.43.12.65l.96-.15.12.86-.88.14c.09.38.16.67.22.87l-.95.25-.2-.54.16-.06c-.02-.11-.04-.24-.08-.38Z"/>
        <path class="cls-1" d="M41.28,10.51c.14.05.27.03.37-.04.1-.08.17-.18.22-.31l.65.37c-.08.28-.24.52-.47.71-.23.19-.5.27-.81.24-.52-.08-.87-.37-1.02-.87l-.64.83-.82-.36,1.13-3.32.85.26-.52,1.67.32-.33.56.18c-.04.2-.04.4,0,.6s.11.32.2.38Z"/>
        <path class="cls-1" d="M45.2,10.24h-.91l-.08-2.49h1.08s-.09,2.49-.09,2.49ZM44.29,10.79h.95v.78h-.95v-.78Z"/>
      </g>
      <polygon class="cls-1" points="3.06 2.6 5.71 10.8 0 4.02 3.06 2.6"/>
      <polygon class="cls-1" points="58.6 2.6 55.95 10.8 61.66 4.02 58.6 2.6"/>
    </g>
  </g>
</svg>